M48
;GenerationSoftware,Autodesk,EAGLE,9.2.2*%
;CreationDate,2019-02-06T03:44:47Z*%
FMAT,2
ICI,OFF
METRIC,TZ,000.000
T4C0.350
T3C0.660
T2C1.016
T1C3.175
%
G90
M71
T1
X3810Y3810
X3810Y46990
X46990Y3810
X46990Y46990
T2
X45720Y13970
X45720Y36830
X45720Y34290
X45720Y31750
X45720Y29210
X45720Y26670
X48260Y19050
X45720Y24130
X45720Y21590
X45720Y19050
X45720Y16510
X48260Y36830
X48260Y34290
X48260Y31750
X48260Y29210
X48260Y26670
X48260Y24130
X48260Y21590
X48260Y16510
X48260Y13970
T3
X27508Y43942
X27508Y45212
X28778Y43942
X28778Y45212
X30048Y43942
X31318Y43942
X31318Y45212
X32588Y43942
X32588Y45212
X30048Y45212
T4
X21742Y19507
X29464Y18186
X27178Y17501
X26097Y25592
X34468Y30226
X22784Y18364
X8966Y34366
X25756Y26213
X39497Y31877
X33973Y22288
X11405Y11786
X12852Y20091
X9347Y9576
X38608Y40970
X14757Y8534
X32487Y35992
X19431Y18669
X10287Y20803
X17805Y39243
X12573Y7899
X16612Y7163
X28448Y32004
X25527Y31877
X21311Y31344
X16256Y27178
X16256Y28194
X16256Y29083
X18161Y29972
X16256Y30861
X17018Y31750
X16358Y5588
X23038Y10109
X24206Y25451
X10312Y24105
X8153Y20574
X8114Y15951
X31369Y23749
X33909Y10795
X17678Y20650
X16942Y17450
X25476Y18872
X16485Y21666
X31750Y34036
X16332Y47117
X32131Y26797
X32131Y22733
X39878Y22225
X37465Y32664
X20295Y32309
X11328Y22428
X19075Y27407
X13284Y15494
X11278Y2261
X38633Y37821
X6147Y8585
X18872Y11684
X27584Y9500
X37236Y47320
X16383Y43586
X33045Y47800
X10135Y46965
X27965Y34747
X5969Y20447
X14046Y21615
X20701Y19558
X14097Y27813
M30