%
M48
M72
T01C0.0138
T02C0.0260
T03C0.0400
T04C0.1250
%
T01
X4570Y1020
X6570Y2330
X6670Y2950
X5940Y3490
X5080Y3240
X3810Y3900
X4620Y4770
X5360Y6230
X6800Y7000
X7780Y7480
X8280Y7830
X8690Y7810
X9100Y7360
X10160Y7560
X10830Y7020
X11730Y7290
X13505Y8905
X12780Y9080
X12480Y9480
X12780Y10680
X13700Y12030
X14880Y12990
X15680Y12680
X15340Y15020
X15330Y16260
X12920Y14300
X12630Y13530
X11140Y13810
X11330Y12730
X10180Y12680
X8520Y12470
X8120Y12850
X7280Y11930
X6530Y11580
X6530Y11230
X6530Y10830
X5680Y11080
X6530Y12280
X6830Y12630
X7640Y10920
X9660Y10150
X10270Y10450
X10404Y10206
X7090Y8260
X6620Y8660
X5660Y8640
X5190Y8040
X4180Y8320
X4590Y8960
X4190Y9620
X3340Y8230
X2480Y8180
X3325Y6410
X2550Y3510
X7560Y4730
X9200Y4110
X10990Y3870
X13480Y4380
X15830Y8880
X7140Y15580
X6580Y17290
X6560Y18680
X4120Y18620
X3660Y13660
X13140Y18949
X14790Y18760
T02
X12960Y17430
X12960Y17930
X12460Y17930
X12460Y17430
X11960Y17430
X11960Y17930
X11460Y17930
X11460Y17430
X10960Y17430
X10960Y17930
T03
X18130Y5630
X19130Y5630
X19130Y6630
X18130Y6630
X18130Y7630
X19130Y7630
X19130Y8630
X18130Y8630
X18130Y9630
X19130Y9630
X19130Y10630
X18130Y10630
X18130Y11630
X19130Y11630
X19130Y12630
X18130Y12630
X18130Y13630
X19130Y13630
X19130Y14630
X18130Y14630
T04
X1630Y18630
X18630Y18630
X18630Y1630
X1630Y1630
M30
