G75*
%MOIN*%
%OFA0B0*%
%FSLAX25Y25*%
%IPPOS*%
%LPD*%
%AMOC8*
5,1,8,0,0,1.08239X$1,22.5*
%
%ADD10C,0.00000*%
%ADD11C,0.03900*%
%ADD12C,0.06000*%
%ADD13C,0.00600*%
%ADD14C,0.02178*%
%ADD15C,0.16500*%
%ADD16C,0.01000*%
D10*
X0015800Y0001300D02*
X0185800Y0001300D01*
X0186169Y0001298D01*
X0186537Y0001306D01*
X0186905Y0001322D01*
X0187273Y0001347D01*
X0187640Y0001381D01*
X0188006Y0001424D01*
X0188371Y0001476D01*
X0188735Y0001536D01*
X0189097Y0001605D01*
X0189457Y0001683D01*
X0189815Y0001770D01*
X0190171Y0001865D01*
X0190525Y0001969D01*
X0190876Y0002082D01*
X0191224Y0002202D01*
X0191569Y0002332D01*
X0191911Y0002469D01*
X0192250Y0002615D01*
X0192585Y0002769D01*
X0192916Y0002931D01*
X0193243Y0003101D01*
X0193566Y0003278D01*
X0193884Y0003464D01*
X0194198Y0003657D01*
X0194507Y0003858D01*
X0194811Y0004066D01*
X0195111Y0004281D01*
X0195404Y0004503D01*
X0195693Y0004733D01*
X0195975Y0004969D01*
X0196252Y0005213D01*
X0196523Y0005463D01*
X0196788Y0005719D01*
X0197047Y0005981D01*
X0197299Y0006250D01*
X0197545Y0006525D01*
X0197783Y0006806D01*
X0198015Y0007092D01*
X0198241Y0007384D01*
X0198458Y0007681D01*
X0198669Y0007984D01*
X0198872Y0008291D01*
X0199068Y0008603D01*
X0199256Y0008920D01*
X0199437Y0009242D01*
X0199610Y0009567D01*
X0199774Y0009897D01*
X0199931Y0010231D01*
X0200080Y0010568D01*
X0200220Y0010909D01*
X0200352Y0011253D01*
X0200476Y0011600D01*
X0200592Y0011950D01*
X0200699Y0012303D01*
X0200797Y0012658D01*
X0200887Y0013015D01*
X0200968Y0013375D01*
X0201040Y0013736D01*
X0201104Y0014099D01*
X0201159Y0014464D01*
X0201205Y0014829D01*
X0201242Y0015196D01*
X0201270Y0015564D01*
X0201289Y0015932D01*
X0201300Y0016300D01*
X0201300Y0186300D01*
X0201296Y0186662D01*
X0201282Y0187025D01*
X0201261Y0187387D01*
X0201230Y0187748D01*
X0201191Y0188108D01*
X0201143Y0188467D01*
X0201086Y0188825D01*
X0201021Y0189182D01*
X0200947Y0189537D01*
X0200864Y0189890D01*
X0200773Y0190241D01*
X0200674Y0190589D01*
X0200566Y0190935D01*
X0200450Y0191279D01*
X0200325Y0191619D01*
X0200193Y0191956D01*
X0200052Y0192290D01*
X0199903Y0192621D01*
X0199746Y0192948D01*
X0199582Y0193271D01*
X0199410Y0193590D01*
X0199230Y0193904D01*
X0199042Y0194215D01*
X0198847Y0194520D01*
X0198645Y0194821D01*
X0198435Y0195117D01*
X0198219Y0195407D01*
X0197995Y0195693D01*
X0197765Y0195973D01*
X0197528Y0196247D01*
X0197284Y0196515D01*
X0197034Y0196778D01*
X0196778Y0197034D01*
X0196515Y0197284D01*
X0196247Y0197528D01*
X0195973Y0197765D01*
X0195693Y0197995D01*
X0195407Y0198219D01*
X0195117Y0198435D01*
X0194821Y0198645D01*
X0194520Y0198847D01*
X0194215Y0199042D01*
X0193904Y0199230D01*
X0193590Y0199410D01*
X0193271Y0199582D01*
X0192948Y0199746D01*
X0192621Y0199903D01*
X0192290Y0200052D01*
X0191956Y0200193D01*
X0191619Y0200325D01*
X0191279Y0200450D01*
X0190935Y0200566D01*
X0190589Y0200674D01*
X0190241Y0200773D01*
X0189890Y0200864D01*
X0189537Y0200947D01*
X0189182Y0201021D01*
X0188825Y0201086D01*
X0188467Y0201143D01*
X0188108Y0201191D01*
X0187748Y0201230D01*
X0187387Y0201261D01*
X0187025Y0201282D01*
X0186662Y0201296D01*
X0186300Y0201300D01*
X0016300Y0201300D01*
X0015938Y0201296D01*
X0015575Y0201282D01*
X0015213Y0201261D01*
X0014852Y0201230D01*
X0014492Y0201191D01*
X0014133Y0201143D01*
X0013775Y0201086D01*
X0013418Y0201021D01*
X0013063Y0200947D01*
X0012710Y0200864D01*
X0012359Y0200773D01*
X0012011Y0200674D01*
X0011665Y0200566D01*
X0011321Y0200450D01*
X0010981Y0200325D01*
X0010644Y0200193D01*
X0010310Y0200052D01*
X0009979Y0199903D01*
X0009652Y0199746D01*
X0009329Y0199582D01*
X0009010Y0199410D01*
X0008696Y0199230D01*
X0008385Y0199042D01*
X0008080Y0198847D01*
X0007779Y0198645D01*
X0007483Y0198435D01*
X0007193Y0198219D01*
X0006907Y0197995D01*
X0006627Y0197765D01*
X0006353Y0197528D01*
X0006085Y0197284D01*
X0005822Y0197034D01*
X0005566Y0196778D01*
X0005316Y0196515D01*
X0005072Y0196247D01*
X0004835Y0195973D01*
X0004605Y0195693D01*
X0004381Y0195407D01*
X0004165Y0195117D01*
X0003955Y0194821D01*
X0003753Y0194520D01*
X0003558Y0194215D01*
X0003370Y0193904D01*
X0003190Y0193590D01*
X0003018Y0193271D01*
X0002854Y0192948D01*
X0002697Y0192621D01*
X0002548Y0192290D01*
X0002407Y0191956D01*
X0002275Y0191619D01*
X0002150Y0191279D01*
X0002034Y0190935D01*
X0001926Y0190589D01*
X0001827Y0190241D01*
X0001736Y0189890D01*
X0001653Y0189537D01*
X0001579Y0189182D01*
X0001514Y0188825D01*
X0001457Y0188467D01*
X0001409Y0188108D01*
X0001370Y0187748D01*
X0001339Y0187387D01*
X0001318Y0187025D01*
X0001304Y0186662D01*
X0001300Y0186300D01*
X0001300Y0016300D01*
X0001298Y0015944D01*
X0001305Y0015587D01*
X0001321Y0015231D01*
X0001345Y0014875D01*
X0001378Y0014520D01*
X0001419Y0014166D01*
X0001469Y0013813D01*
X0001527Y0013461D01*
X0001594Y0013111D01*
X0001669Y0012763D01*
X0001753Y0012416D01*
X0001845Y0012072D01*
X0001945Y0011730D01*
X0002053Y0011390D01*
X0002170Y0011053D01*
X0002295Y0010719D01*
X0002428Y0010389D01*
X0002568Y0010061D01*
X0002717Y0009737D01*
X0002873Y0009417D01*
X0003038Y0009100D01*
X0003209Y0008788D01*
X0003389Y0008480D01*
X0003575Y0008176D01*
X0003769Y0007877D01*
X0003970Y0007582D01*
X0004178Y0007293D01*
X0004393Y0007009D01*
X0004615Y0006730D01*
X0004844Y0006456D01*
X0005079Y0006188D01*
X0005320Y0005926D01*
X0005568Y0005670D01*
X0005822Y0005419D01*
X0006082Y0005175D01*
X0006348Y0004938D01*
X0006619Y0004706D01*
X0006896Y0004482D01*
X0007178Y0004264D01*
X0007465Y0004053D01*
X0007758Y0003849D01*
X0008055Y0003652D01*
X0008357Y0003463D01*
X0008663Y0003281D01*
X0008974Y0003106D01*
X0009289Y0002939D01*
X0009608Y0002779D01*
X0009930Y0002627D01*
X0010256Y0002483D01*
X0010586Y0002347D01*
X0010919Y0002219D01*
X0011254Y0002099D01*
X0011593Y0001987D01*
X0011934Y0001884D01*
X0012277Y0001789D01*
X0012623Y0001702D01*
X0012971Y0001623D01*
X0013320Y0001553D01*
X0013671Y0001491D01*
X0014024Y0001438D01*
X0014378Y0001393D01*
X0014732Y0001357D01*
X0015088Y0001329D01*
X0015444Y0001310D01*
X0015800Y0001300D01*
D11*
X0109600Y0174300D03*
X0109600Y0179300D03*
X0114600Y0179300D03*
X0114600Y0174300D03*
X0119600Y0174300D03*
X0119600Y0179300D03*
X0124600Y0179300D03*
X0124600Y0174300D03*
X0129600Y0174300D03*
X0129600Y0179300D03*
D12*
X0181300Y0146300D03*
X0191300Y0146300D03*
X0191300Y0136300D03*
X0181300Y0136300D03*
X0181300Y0126300D03*
X0191300Y0126300D03*
X0191300Y0116300D03*
X0181300Y0116300D03*
X0181300Y0106300D03*
X0191300Y0106300D03*
X0191300Y0096300D03*
X0181300Y0096300D03*
X0181300Y0086300D03*
X0191300Y0086300D03*
X0191300Y0076300D03*
X0181300Y0076300D03*
X0181300Y0066300D03*
X0191300Y0066300D03*
X0191300Y0056300D03*
X0181300Y0056300D03*
D13*
X0195749Y0006687D02*
X0006552Y0006687D01*
X0007130Y0006088D02*
X0195130Y0006088D01*
X0194512Y0005490D02*
X0007729Y0005490D01*
X0007681Y0005518D02*
X0005240Y0008043D01*
X0003536Y0011113D01*
X0002685Y0014520D01*
X0002600Y0016274D01*
X0002600Y0016289D01*
X0002609Y0016816D01*
X0002600Y0016826D01*
X0002600Y0186300D01*
X0002717Y0188088D01*
X0003643Y0191543D01*
X0005431Y0194640D01*
X0007960Y0197169D01*
X0011057Y0198957D01*
X0014512Y0199883D01*
X0016300Y0200000D01*
X0186300Y0200000D01*
X0188088Y0199883D01*
X0191543Y0198957D01*
X0194640Y0197169D01*
X0197169Y0194640D01*
X0198957Y0191543D01*
X0199883Y0188088D01*
X0200000Y0186300D01*
X0200000Y0016319D01*
X0199851Y0014502D01*
X0198851Y0011000D01*
X0196978Y0007876D01*
X0194361Y0005343D01*
X0191177Y0003574D01*
X0187644Y0002689D01*
X0185825Y0002600D01*
X0185811Y0002600D01*
X0185283Y0002609D01*
X0185274Y0002600D01*
X0015820Y0002600D01*
X0014068Y0002745D01*
X0010692Y0003711D01*
X0007681Y0005518D01*
X0008726Y0004891D02*
X0193547Y0004891D01*
X0192470Y0004293D02*
X0009723Y0004293D01*
X0010751Y0003694D02*
X0191393Y0003694D01*
X0189266Y0003096D02*
X0012842Y0003096D01*
X0014400Y0006750D02*
X0018200Y0006750D01*
X0021710Y0008204D01*
X0024396Y0010890D01*
X0025850Y0014400D01*
X0025850Y0018200D01*
X0024396Y0021710D01*
X0021710Y0024396D01*
X0018200Y0025850D01*
X0014400Y0025850D01*
X0010890Y0024396D01*
X0008204Y0021710D01*
X0006750Y0018200D01*
X0006750Y0014400D01*
X0008204Y0010890D01*
X0010890Y0008204D01*
X0014400Y0006750D01*
X0013109Y0007285D02*
X0005973Y0007285D01*
X0005394Y0007884D02*
X0011664Y0007884D01*
X0010612Y0008482D02*
X0004997Y0008482D01*
X0004665Y0009081D02*
X0010014Y0009081D01*
X0009415Y0009679D02*
X0004332Y0009679D01*
X0004000Y0010278D02*
X0008817Y0010278D01*
X0008218Y0010876D02*
X0003668Y0010876D01*
X0003446Y0011475D02*
X0007962Y0011475D01*
X0007714Y0012073D02*
X0003297Y0012073D01*
X0003147Y0012672D02*
X0007466Y0012672D01*
X0007218Y0013270D02*
X0002997Y0013270D01*
X0002848Y0013869D02*
X0006970Y0013869D01*
X0006750Y0014467D02*
X0002698Y0014467D01*
X0002659Y0015066D02*
X0006750Y0015066D01*
X0006750Y0015664D02*
X0002630Y0015664D01*
X0002601Y0016263D02*
X0006750Y0016263D01*
X0006750Y0016861D02*
X0002600Y0016861D01*
X0002600Y0017460D02*
X0006750Y0017460D01*
X0006750Y0018058D02*
X0002600Y0018058D01*
X0002600Y0018657D02*
X0006939Y0018657D01*
X0007187Y0019255D02*
X0002600Y0019255D01*
X0002600Y0019854D02*
X0007435Y0019854D01*
X0007683Y0020452D02*
X0002600Y0020452D01*
X0002600Y0021051D02*
X0007931Y0021051D01*
X0008179Y0021649D02*
X0002600Y0021649D01*
X0002600Y0022248D02*
X0008742Y0022248D01*
X0009341Y0022846D02*
X0002600Y0022846D01*
X0002600Y0023445D02*
X0009939Y0023445D01*
X0010538Y0024043D02*
X0002600Y0024043D01*
X0002600Y0024642D02*
X0011484Y0024642D01*
X0012929Y0025240D02*
X0002600Y0025240D01*
X0002600Y0025839D02*
X0014374Y0025839D01*
X0018226Y0025839D02*
X0184374Y0025839D01*
X0184400Y0025850D02*
X0180890Y0024396D01*
X0178204Y0021710D01*
X0176750Y0018200D01*
X0176750Y0014400D01*
X0178204Y0010890D01*
X0180890Y0008204D01*
X0184400Y0006750D01*
X0188200Y0006750D01*
X0191710Y0008204D01*
X0194396Y0010890D01*
X0195850Y0014400D01*
X0195850Y0018200D01*
X0194396Y0021710D01*
X0191710Y0024396D01*
X0188200Y0025850D01*
X0184400Y0025850D01*
X0182929Y0025240D02*
X0067138Y0025240D01*
X0066690Y0025689D02*
X0064710Y0025689D01*
X0063311Y0024290D01*
X0063311Y0022310D01*
X0064710Y0020911D01*
X0066690Y0020911D01*
X0068089Y0022310D01*
X0068089Y0024290D01*
X0066690Y0025689D01*
X0067737Y0024642D02*
X0181484Y0024642D01*
X0180538Y0024043D02*
X0068089Y0024043D01*
X0068089Y0023445D02*
X0179939Y0023445D01*
X0179341Y0022846D02*
X0068089Y0022846D01*
X0068026Y0022248D02*
X0178742Y0022248D01*
X0178179Y0021649D02*
X0067428Y0021649D01*
X0066829Y0021051D02*
X0177931Y0021051D01*
X0177683Y0020452D02*
X0024917Y0020452D01*
X0025165Y0019854D02*
X0177435Y0019854D01*
X0177187Y0019255D02*
X0025413Y0019255D01*
X0025661Y0018657D02*
X0176939Y0018657D01*
X0176750Y0018058D02*
X0025850Y0018058D01*
X0025850Y0017460D02*
X0176750Y0017460D01*
X0176750Y0016861D02*
X0025850Y0016861D01*
X0025850Y0016263D02*
X0176750Y0016263D01*
X0176750Y0015664D02*
X0025850Y0015664D01*
X0025850Y0015066D02*
X0176750Y0015066D01*
X0176750Y0014467D02*
X0025850Y0014467D01*
X0025630Y0013869D02*
X0176970Y0013869D01*
X0177218Y0013270D02*
X0025382Y0013270D01*
X0025134Y0012672D02*
X0177466Y0012672D01*
X0177714Y0012073D02*
X0047205Y0012073D01*
X0046690Y0012589D02*
X0044710Y0012589D01*
X0043311Y0011190D01*
X0043311Y0009210D01*
X0044710Y0007811D01*
X0046690Y0007811D01*
X0048089Y0009210D01*
X0048089Y0011190D01*
X0046690Y0012589D01*
X0047804Y0011475D02*
X0177962Y0011475D01*
X0178218Y0010876D02*
X0048089Y0010876D01*
X0048089Y0010278D02*
X0178817Y0010278D01*
X0179415Y0009679D02*
X0048089Y0009679D01*
X0047959Y0009081D02*
X0180014Y0009081D01*
X0180612Y0008482D02*
X0047361Y0008482D01*
X0046762Y0007884D02*
X0181664Y0007884D01*
X0183109Y0007285D02*
X0019491Y0007285D01*
X0020936Y0007884D02*
X0044638Y0007884D01*
X0044039Y0008482D02*
X0021988Y0008482D01*
X0022586Y0009081D02*
X0043441Y0009081D01*
X0043311Y0009679D02*
X0023185Y0009679D01*
X0023783Y0010278D02*
X0043311Y0010278D01*
X0043311Y0010876D02*
X0024382Y0010876D01*
X0024638Y0011475D02*
X0043596Y0011475D01*
X0044195Y0012073D02*
X0024886Y0012073D01*
X0024669Y0021051D02*
X0064571Y0021051D01*
X0063972Y0021649D02*
X0024421Y0021649D01*
X0023858Y0022248D02*
X0063374Y0022248D01*
X0063311Y0022846D02*
X0023259Y0022846D01*
X0022661Y0023445D02*
X0063311Y0023445D01*
X0063311Y0024043D02*
X0022062Y0024043D01*
X0021116Y0024642D02*
X0063663Y0024642D01*
X0064262Y0025240D02*
X0019671Y0025240D01*
X0024510Y0032711D02*
X0023111Y0034110D01*
X0023111Y0036090D01*
X0024510Y0037489D01*
X0026490Y0037489D01*
X0027889Y0036090D01*
X0027889Y0034110D01*
X0026490Y0032711D01*
X0024510Y0032711D01*
X0024200Y0033021D02*
X0002600Y0033021D01*
X0002600Y0032423D02*
X0048411Y0032423D01*
X0048411Y0033021D02*
X0026800Y0033021D01*
X0027398Y0033620D02*
X0048641Y0033620D01*
X0048411Y0033390D02*
X0048411Y0031410D01*
X0049810Y0030011D01*
X0051790Y0030011D01*
X0053189Y0031410D01*
X0053189Y0033390D01*
X0051790Y0034789D01*
X0049810Y0034789D01*
X0048411Y0033390D01*
X0049240Y0034218D02*
X0027889Y0034218D01*
X0027889Y0034817D02*
X0057011Y0034817D01*
X0057011Y0035415D02*
X0027889Y0035415D01*
X0027889Y0036014D02*
X0057135Y0036014D01*
X0057011Y0035890D02*
X0057011Y0033910D01*
X0058410Y0032511D01*
X0060390Y0032511D01*
X0061789Y0033910D01*
X0061789Y0035890D01*
X0060390Y0037289D01*
X0058410Y0037289D01*
X0057011Y0035890D01*
X0057734Y0036612D02*
X0039091Y0036612D01*
X0039090Y0036611D02*
X0040489Y0038010D01*
X0040489Y0039990D01*
X0039090Y0041389D01*
X0037110Y0041389D01*
X0035711Y0039990D01*
X0035711Y0038010D01*
X0037110Y0036611D01*
X0039090Y0036611D01*
X0039689Y0037211D02*
X0058332Y0037211D01*
X0060468Y0037211D02*
X0108011Y0037211D01*
X0107511Y0037710D02*
X0108910Y0036311D01*
X0110890Y0036311D01*
X0112289Y0037710D01*
X0112289Y0039690D01*
X0110890Y0041089D01*
X0108910Y0041089D01*
X0107511Y0039690D01*
X0107511Y0037710D01*
X0107511Y0037809D02*
X0040288Y0037809D01*
X0040489Y0038408D02*
X0107511Y0038408D01*
X0107511Y0039006D02*
X0093285Y0039006D01*
X0092990Y0038711D02*
X0094389Y0040110D01*
X0094389Y0040943D01*
X0096646Y0043200D01*
X0097700Y0044254D01*
X0097700Y0099221D01*
X0098989Y0100510D01*
X0098989Y0102490D01*
X0097590Y0103889D01*
X0095610Y0103889D01*
X0094211Y0102490D01*
X0094211Y0101657D01*
X0094100Y0101546D01*
X0094100Y0045746D01*
X0091843Y0043489D01*
X0091010Y0043489D01*
X0089611Y0042090D01*
X0089611Y0040110D01*
X0091010Y0038711D01*
X0092990Y0038711D01*
X0093883Y0039605D02*
X0107511Y0039605D01*
X0108025Y0040203D02*
X0094389Y0040203D01*
X0094389Y0040802D02*
X0108623Y0040802D01*
X0111177Y0040802D02*
X0200000Y0040802D01*
X0200000Y0041400D02*
X0094846Y0041400D01*
X0095444Y0041999D02*
X0200000Y0041999D01*
X0200000Y0042597D02*
X0096043Y0042597D01*
X0096641Y0043196D02*
X0200000Y0043196D01*
X0200000Y0043794D02*
X0097240Y0043794D01*
X0097700Y0044393D02*
X0200000Y0044393D01*
X0200000Y0044991D02*
X0097700Y0044991D01*
X0097700Y0045590D02*
X0200000Y0045590D01*
X0200000Y0046188D02*
X0097700Y0046188D01*
X0097700Y0046787D02*
X0200000Y0046787D01*
X0200000Y0047385D02*
X0097700Y0047385D01*
X0097700Y0047984D02*
X0200000Y0047984D01*
X0200000Y0048582D02*
X0097700Y0048582D01*
X0097700Y0049181D02*
X0200000Y0049181D01*
X0200000Y0049779D02*
X0097700Y0049779D01*
X0097700Y0050378D02*
X0200000Y0050378D01*
X0200000Y0050976D02*
X0097700Y0050976D01*
X0097700Y0051575D02*
X0200000Y0051575D01*
X0200000Y0052173D02*
X0192574Y0052173D01*
X0192155Y0052000D02*
X0193736Y0052655D01*
X0194945Y0053864D01*
X0195600Y0055445D01*
X0195600Y0057155D01*
X0194945Y0058736D01*
X0193736Y0059945D01*
X0192155Y0060600D01*
X0190445Y0060600D01*
X0188864Y0059945D01*
X0187655Y0058736D01*
X0187000Y0057155D01*
X0187000Y0055445D01*
X0187655Y0053864D01*
X0188864Y0052655D01*
X0190445Y0052000D01*
X0192155Y0052000D01*
X0193853Y0052772D02*
X0200000Y0052772D01*
X0200000Y0053370D02*
X0194452Y0053370D01*
X0194989Y0053969D02*
X0200000Y0053969D01*
X0200000Y0054568D02*
X0195237Y0054568D01*
X0195485Y0055166D02*
X0200000Y0055166D01*
X0200000Y0055765D02*
X0195600Y0055765D01*
X0195600Y0056363D02*
X0200000Y0056363D01*
X0200000Y0056962D02*
X0195600Y0056962D01*
X0195432Y0057560D02*
X0200000Y0057560D01*
X0200000Y0058159D02*
X0195184Y0058159D01*
X0194924Y0058757D02*
X0200000Y0058757D01*
X0200000Y0059356D02*
X0194326Y0059356D01*
X0193715Y0059954D02*
X0200000Y0059954D01*
X0200000Y0060553D02*
X0192270Y0060553D01*
X0192155Y0062000D02*
X0190445Y0062000D01*
X0188864Y0062655D01*
X0187655Y0063864D01*
X0187000Y0065445D01*
X0187000Y0067155D01*
X0187655Y0068736D01*
X0188864Y0069945D01*
X0190445Y0070600D01*
X0192155Y0070600D01*
X0193736Y0069945D01*
X0194945Y0068736D01*
X0195600Y0067155D01*
X0195600Y0065445D01*
X0194945Y0063864D01*
X0193736Y0062655D01*
X0192155Y0062000D01*
X0192996Y0062348D02*
X0200000Y0062348D01*
X0200000Y0061750D02*
X0097700Y0061750D01*
X0097700Y0062348D02*
X0179604Y0062348D01*
X0178864Y0062655D02*
X0180445Y0062000D01*
X0182155Y0062000D01*
X0183736Y0062655D01*
X0184945Y0063864D01*
X0185600Y0065445D01*
X0185600Y0067155D01*
X0184945Y0068736D01*
X0183736Y0069945D01*
X0182155Y0070600D01*
X0180445Y0070600D01*
X0178864Y0069945D01*
X0177655Y0068736D01*
X0177000Y0067155D01*
X0177000Y0065445D01*
X0177655Y0063864D01*
X0178864Y0062655D01*
X0178572Y0062947D02*
X0097700Y0062947D01*
X0097700Y0063545D02*
X0177974Y0063545D01*
X0177539Y0064144D02*
X0097700Y0064144D01*
X0097700Y0064742D02*
X0177291Y0064742D01*
X0177043Y0065341D02*
X0097700Y0065341D01*
X0097700Y0065939D02*
X0177000Y0065939D01*
X0177000Y0066538D02*
X0097700Y0066538D01*
X0097700Y0067136D02*
X0177000Y0067136D01*
X0177240Y0067735D02*
X0097700Y0067735D01*
X0097700Y0068333D02*
X0106788Y0068333D01*
X0107310Y0067811D02*
X0109290Y0067811D01*
X0110689Y0069210D01*
X0110689Y0071190D01*
X0109290Y0072589D01*
X0107310Y0072589D01*
X0105911Y0071190D01*
X0105911Y0069210D01*
X0107310Y0067811D01*
X0106190Y0068932D02*
X0097700Y0068932D01*
X0097700Y0069530D02*
X0105911Y0069530D01*
X0105911Y0070129D02*
X0097700Y0070129D01*
X0097700Y0070727D02*
X0105911Y0070727D01*
X0106047Y0071326D02*
X0097700Y0071326D01*
X0097700Y0071924D02*
X0106646Y0071924D01*
X0107244Y0072523D02*
X0097700Y0072523D01*
X0097700Y0073121D02*
X0114911Y0073121D01*
X0114911Y0072523D02*
X0109356Y0072523D01*
X0109954Y0071924D02*
X0114911Y0071924D01*
X0114911Y0071910D02*
X0116310Y0070511D01*
X0118290Y0070511D01*
X0119689Y0071910D01*
X0119689Y0073890D01*
X0118290Y0075289D01*
X0116310Y0075289D01*
X0114911Y0073890D01*
X0114911Y0071910D01*
X0115496Y0071326D02*
X0110553Y0071326D01*
X0110689Y0070727D02*
X0116094Y0070727D01*
X0118506Y0070727D02*
X0200000Y0070727D01*
X0200000Y0070129D02*
X0193293Y0070129D01*
X0194151Y0069530D02*
X0200000Y0069530D01*
X0200000Y0068932D02*
X0194749Y0068932D01*
X0195112Y0068333D02*
X0200000Y0068333D01*
X0200000Y0067735D02*
X0195360Y0067735D01*
X0195600Y0067136D02*
X0200000Y0067136D01*
X0200000Y0066538D02*
X0195600Y0066538D01*
X0195600Y0065939D02*
X0200000Y0065939D01*
X0200000Y0065341D02*
X0195557Y0065341D01*
X0195309Y0064742D02*
X0200000Y0064742D01*
X0200000Y0064144D02*
X0195061Y0064144D01*
X0194626Y0063545D02*
X0200000Y0063545D01*
X0200000Y0062947D02*
X0194028Y0062947D01*
X0190330Y0060553D02*
X0182270Y0060553D01*
X0182155Y0060600D02*
X0180445Y0060600D01*
X0178864Y0059945D01*
X0177655Y0058736D01*
X0177000Y0057155D01*
X0177000Y0055445D01*
X0177655Y0053864D01*
X0178864Y0052655D01*
X0180445Y0052000D01*
X0182155Y0052000D01*
X0183736Y0052655D01*
X0184945Y0053864D01*
X0185600Y0055445D01*
X0185600Y0057155D01*
X0184945Y0058736D01*
X0183736Y0059945D01*
X0182155Y0060600D01*
X0183715Y0059954D02*
X0188885Y0059954D01*
X0188274Y0059356D02*
X0184326Y0059356D01*
X0184924Y0058757D02*
X0187676Y0058757D01*
X0187416Y0058159D02*
X0185184Y0058159D01*
X0185432Y0057560D02*
X0187168Y0057560D01*
X0187000Y0056962D02*
X0185600Y0056962D01*
X0185600Y0056363D02*
X0187000Y0056363D01*
X0187000Y0055765D02*
X0185600Y0055765D01*
X0185485Y0055166D02*
X0187115Y0055166D01*
X0187363Y0054568D02*
X0185237Y0054568D01*
X0184989Y0053969D02*
X0187611Y0053969D01*
X0188148Y0053370D02*
X0184452Y0053370D01*
X0183853Y0052772D02*
X0188747Y0052772D01*
X0190026Y0052173D02*
X0182574Y0052173D01*
X0180026Y0052173D02*
X0097700Y0052173D01*
X0097700Y0052772D02*
X0178747Y0052772D01*
X0178148Y0053370D02*
X0097700Y0053370D01*
X0097700Y0053969D02*
X0177611Y0053969D01*
X0177363Y0054568D02*
X0097700Y0054568D01*
X0097700Y0055166D02*
X0177115Y0055166D01*
X0177000Y0055765D02*
X0097700Y0055765D01*
X0097700Y0056363D02*
X0177000Y0056363D01*
X0177000Y0056962D02*
X0097700Y0056962D01*
X0097700Y0057560D02*
X0177168Y0057560D01*
X0177416Y0058159D02*
X0097700Y0058159D01*
X0097700Y0058757D02*
X0177676Y0058757D01*
X0178274Y0059356D02*
X0097700Y0059356D01*
X0097700Y0059954D02*
X0178885Y0059954D01*
X0180330Y0060553D02*
X0097700Y0060553D01*
X0097700Y0061151D02*
X0200000Y0061151D01*
X0189604Y0062348D02*
X0182996Y0062348D01*
X0184028Y0062947D02*
X0188572Y0062947D01*
X0187974Y0063545D02*
X0184626Y0063545D01*
X0185061Y0064144D02*
X0187539Y0064144D01*
X0187291Y0064742D02*
X0185309Y0064742D01*
X0185557Y0065341D02*
X0187043Y0065341D01*
X0187000Y0065939D02*
X0185600Y0065939D01*
X0185600Y0066538D02*
X0187000Y0066538D01*
X0187000Y0067136D02*
X0185600Y0067136D01*
X0185360Y0067735D02*
X0187240Y0067735D01*
X0187488Y0068333D02*
X0185112Y0068333D01*
X0184749Y0068932D02*
X0187851Y0068932D01*
X0188449Y0069530D02*
X0184151Y0069530D01*
X0183293Y0070129D02*
X0189307Y0070129D01*
X0190445Y0072000D02*
X0188864Y0072655D01*
X0187655Y0073864D01*
X0187000Y0075445D01*
X0187000Y0077155D01*
X0187655Y0078736D01*
X0188864Y0079945D01*
X0190445Y0080600D01*
X0192155Y0080600D01*
X0193736Y0079945D01*
X0194945Y0078736D01*
X0195600Y0077155D01*
X0195600Y0075445D01*
X0194945Y0073864D01*
X0193736Y0072655D01*
X0192155Y0072000D01*
X0190445Y0072000D01*
X0189182Y0072523D02*
X0183418Y0072523D01*
X0183736Y0072655D02*
X0184945Y0073864D01*
X0185600Y0075445D01*
X0185600Y0077155D01*
X0184945Y0078736D01*
X0183736Y0079945D01*
X0182155Y0080600D01*
X0180445Y0080600D01*
X0178864Y0079945D01*
X0177655Y0078736D01*
X0177000Y0077155D01*
X0177000Y0075445D01*
X0177655Y0073864D01*
X0178864Y0072655D01*
X0180445Y0072000D01*
X0182155Y0072000D01*
X0183736Y0072655D01*
X0184202Y0073121D02*
X0188398Y0073121D01*
X0187799Y0073720D02*
X0184801Y0073720D01*
X0185133Y0074318D02*
X0187467Y0074318D01*
X0187219Y0074917D02*
X0185381Y0074917D01*
X0185600Y0075515D02*
X0187000Y0075515D01*
X0187000Y0076114D02*
X0185600Y0076114D01*
X0185600Y0076712D02*
X0187000Y0076712D01*
X0187064Y0077311D02*
X0185536Y0077311D01*
X0185288Y0077909D02*
X0187312Y0077909D01*
X0187560Y0078508D02*
X0185040Y0078508D01*
X0184575Y0079106D02*
X0188025Y0079106D01*
X0188624Y0079705D02*
X0183976Y0079705D01*
X0182871Y0080303D02*
X0189729Y0080303D01*
X0190445Y0082000D02*
X0188864Y0082655D01*
X0187655Y0083864D01*
X0187000Y0085445D01*
X0187000Y0087155D01*
X0187655Y0088736D01*
X0188864Y0089945D01*
X0190445Y0090600D01*
X0192155Y0090600D01*
X0193736Y0089945D01*
X0194945Y0088736D01*
X0195600Y0087155D01*
X0195600Y0085445D01*
X0194945Y0083864D01*
X0193736Y0082655D01*
X0192155Y0082000D01*
X0190445Y0082000D01*
X0190206Y0082099D02*
X0182394Y0082099D01*
X0182155Y0082000D02*
X0183736Y0082655D01*
X0184945Y0083864D01*
X0185600Y0085445D01*
X0185600Y0087155D01*
X0184945Y0088736D01*
X0183736Y0089945D01*
X0182155Y0090600D01*
X0180445Y0090600D01*
X0178864Y0089945D01*
X0177655Y0088736D01*
X0177000Y0087155D01*
X0177000Y0085445D01*
X0177655Y0083864D01*
X0178864Y0082655D01*
X0180445Y0082000D01*
X0182155Y0082000D01*
X0183779Y0082698D02*
X0188821Y0082698D01*
X0188223Y0083296D02*
X0184377Y0083296D01*
X0184958Y0083895D02*
X0187642Y0083895D01*
X0187394Y0084493D02*
X0185206Y0084493D01*
X0185454Y0085092D02*
X0187146Y0085092D01*
X0187000Y0085690D02*
X0185600Y0085690D01*
X0185600Y0086289D02*
X0187000Y0086289D01*
X0187000Y0086887D02*
X0185600Y0086887D01*
X0185463Y0087486D02*
X0187137Y0087486D01*
X0187385Y0088084D02*
X0185215Y0088084D01*
X0184967Y0088683D02*
X0187633Y0088683D01*
X0188200Y0089281D02*
X0184400Y0089281D01*
X0183801Y0089880D02*
X0188799Y0089880D01*
X0190151Y0090478D02*
X0182449Y0090478D01*
X0182155Y0092000D02*
X0180445Y0092000D01*
X0178864Y0092655D01*
X0177655Y0093864D01*
X0177000Y0095445D01*
X0177000Y0097155D01*
X0177655Y0098736D01*
X0178864Y0099945D01*
X0180445Y0100600D01*
X0182155Y0100600D01*
X0183736Y0099945D01*
X0184945Y0098736D01*
X0185600Y0097155D01*
X0185600Y0095445D01*
X0184945Y0093864D01*
X0183736Y0092655D01*
X0182155Y0092000D01*
X0182816Y0092274D02*
X0189784Y0092274D01*
X0190445Y0092000D02*
X0192155Y0092000D01*
X0193736Y0092655D01*
X0194945Y0093864D01*
X0195600Y0095445D01*
X0195600Y0097155D01*
X0194945Y0098736D01*
X0193736Y0099945D01*
X0192155Y0100600D01*
X0190445Y0100600D01*
X0188864Y0099945D01*
X0187655Y0098736D01*
X0187000Y0097155D01*
X0187000Y0095445D01*
X0187655Y0093864D01*
X0188864Y0092655D01*
X0190445Y0092000D01*
X0188647Y0092872D02*
X0183953Y0092872D01*
X0184552Y0093471D02*
X0188048Y0093471D01*
X0187570Y0094069D02*
X0185030Y0094069D01*
X0185278Y0094668D02*
X0187322Y0094668D01*
X0187074Y0095266D02*
X0185526Y0095266D01*
X0185600Y0095865D02*
X0187000Y0095865D01*
X0187000Y0096463D02*
X0185600Y0096463D01*
X0185600Y0097062D02*
X0187000Y0097062D01*
X0187209Y0097660D02*
X0185391Y0097660D01*
X0185143Y0098259D02*
X0187457Y0098259D01*
X0187776Y0098857D02*
X0184824Y0098857D01*
X0184225Y0099456D02*
X0188375Y0099456D01*
X0189127Y0100054D02*
X0183473Y0100054D01*
X0182155Y0102000D02*
X0180445Y0102000D01*
X0178864Y0102655D01*
X0177655Y0103864D01*
X0177000Y0105445D01*
X0177000Y0107155D01*
X0177655Y0108736D01*
X0178864Y0109945D01*
X0180445Y0110600D01*
X0182155Y0110600D01*
X0183736Y0109945D01*
X0184945Y0108736D01*
X0185600Y0107155D01*
X0185600Y0105445D01*
X0184945Y0103864D01*
X0183736Y0102655D01*
X0182155Y0102000D01*
X0183238Y0102448D02*
X0189362Y0102448D01*
X0188864Y0102655D02*
X0190445Y0102000D01*
X0192155Y0102000D01*
X0193736Y0102655D01*
X0194945Y0103864D01*
X0195600Y0105445D01*
X0195600Y0107155D01*
X0194945Y0108736D01*
X0193736Y0109945D01*
X0192155Y0110600D01*
X0190445Y0110600D01*
X0188864Y0109945D01*
X0187655Y0108736D01*
X0187000Y0107155D01*
X0187000Y0105445D01*
X0187655Y0103864D01*
X0188864Y0102655D01*
X0188472Y0103047D02*
X0184128Y0103047D01*
X0184727Y0103645D02*
X0187873Y0103645D01*
X0187497Y0104244D02*
X0185103Y0104244D01*
X0185351Y0104842D02*
X0187249Y0104842D01*
X0187002Y0105441D02*
X0185598Y0105441D01*
X0185600Y0106039D02*
X0187000Y0106039D01*
X0187000Y0106638D02*
X0185600Y0106638D01*
X0185566Y0107237D02*
X0187034Y0107237D01*
X0187282Y0107835D02*
X0185318Y0107835D01*
X0185071Y0108434D02*
X0187529Y0108434D01*
X0187951Y0109032D02*
X0184649Y0109032D01*
X0184051Y0109631D02*
X0188549Y0109631D01*
X0189549Y0110229D02*
X0183051Y0110229D01*
X0182215Y0112025D02*
X0190385Y0112025D01*
X0190445Y0112000D02*
X0192155Y0112000D01*
X0193736Y0112655D01*
X0194945Y0113864D01*
X0195600Y0115445D01*
X0195600Y0117155D01*
X0194945Y0118736D01*
X0193736Y0119945D01*
X0192155Y0120600D01*
X0190445Y0120600D01*
X0188864Y0119945D01*
X0187655Y0118736D01*
X0187000Y0117155D01*
X0187000Y0115445D01*
X0187655Y0113864D01*
X0188864Y0112655D01*
X0190445Y0112000D01*
X0188940Y0112623D02*
X0183660Y0112623D01*
X0183736Y0112655D02*
X0184945Y0113864D01*
X0185600Y0115445D01*
X0185600Y0117155D01*
X0184945Y0118736D01*
X0183736Y0119945D01*
X0182155Y0120600D01*
X0180445Y0120600D01*
X0178864Y0119945D01*
X0177655Y0118736D01*
X0177000Y0117155D01*
X0177000Y0115445D01*
X0177655Y0113864D01*
X0178864Y0112655D01*
X0180445Y0112000D01*
X0182155Y0112000D01*
X0183736Y0112655D01*
X0184303Y0113222D02*
X0188297Y0113222D01*
X0187699Y0113820D02*
X0184901Y0113820D01*
X0185175Y0114419D02*
X0187425Y0114419D01*
X0187177Y0115017D02*
X0185423Y0115017D01*
X0185600Y0115616D02*
X0187000Y0115616D01*
X0187000Y0116214D02*
X0185600Y0116214D01*
X0185600Y0116813D02*
X0187000Y0116813D01*
X0187106Y0117411D02*
X0185494Y0117411D01*
X0185246Y0118010D02*
X0187354Y0118010D01*
X0187602Y0118608D02*
X0184998Y0118608D01*
X0184474Y0119207D02*
X0188126Y0119207D01*
X0188724Y0119805D02*
X0183876Y0119805D01*
X0182629Y0120404D02*
X0189971Y0120404D01*
X0190445Y0122000D02*
X0188864Y0122655D01*
X0187655Y0123864D01*
X0187000Y0125445D01*
X0187000Y0127155D01*
X0187655Y0128736D01*
X0188864Y0129945D01*
X0190445Y0130600D01*
X0192155Y0130600D01*
X0193736Y0129945D01*
X0194945Y0128736D01*
X0195600Y0127155D01*
X0195600Y0125445D01*
X0194945Y0123864D01*
X0193736Y0122655D01*
X0192155Y0122000D01*
X0190445Y0122000D01*
X0189964Y0122199D02*
X0182636Y0122199D01*
X0182155Y0122000D02*
X0183736Y0122655D01*
X0184945Y0123864D01*
X0185600Y0125445D01*
X0185600Y0127155D01*
X0184945Y0128736D01*
X0183736Y0129945D01*
X0182155Y0130600D01*
X0180445Y0130600D01*
X0178864Y0129945D01*
X0177655Y0128736D01*
X0177000Y0127155D01*
X0177000Y0125445D01*
X0177655Y0123864D01*
X0178864Y0122655D01*
X0180445Y0122000D01*
X0182155Y0122000D01*
X0183879Y0122798D02*
X0188721Y0122798D01*
X0188123Y0123396D02*
X0184477Y0123396D01*
X0184999Y0123995D02*
X0187601Y0123995D01*
X0187353Y0124593D02*
X0185247Y0124593D01*
X0185495Y0125192D02*
X0187105Y0125192D01*
X0187000Y0125790D02*
X0185600Y0125790D01*
X0185600Y0126389D02*
X0187000Y0126389D01*
X0187000Y0126987D02*
X0185600Y0126987D01*
X0185422Y0127586D02*
X0187178Y0127586D01*
X0187426Y0128184D02*
X0185174Y0128184D01*
X0184898Y0128783D02*
X0187702Y0128783D01*
X0188300Y0129381D02*
X0184300Y0129381D01*
X0183652Y0129980D02*
X0188948Y0129980D01*
X0190393Y0130578D02*
X0182207Y0130578D01*
X0182155Y0132000D02*
X0180445Y0132000D01*
X0178864Y0132655D01*
X0177655Y0133864D01*
X0177000Y0135445D01*
X0177000Y0137155D01*
X0177655Y0138736D01*
X0178864Y0139945D01*
X0180445Y0140600D01*
X0182155Y0140600D01*
X0183736Y0139945D01*
X0184945Y0138736D01*
X0185600Y0137155D01*
X0185600Y0135445D01*
X0184945Y0133864D01*
X0183736Y0132655D01*
X0182155Y0132000D01*
X0183058Y0132374D02*
X0189542Y0132374D01*
X0188864Y0132655D02*
X0190445Y0132000D01*
X0192155Y0132000D01*
X0193736Y0132655D01*
X0194945Y0133864D01*
X0195600Y0135445D01*
X0195600Y0137155D01*
X0194945Y0138736D01*
X0193736Y0139945D01*
X0192155Y0140600D01*
X0190445Y0140600D01*
X0188864Y0139945D01*
X0187655Y0138736D01*
X0187000Y0137155D01*
X0187000Y0135445D01*
X0187655Y0133864D01*
X0188864Y0132655D01*
X0188546Y0132972D02*
X0184054Y0132972D01*
X0184652Y0133571D02*
X0187948Y0133571D01*
X0187528Y0134170D02*
X0185072Y0134170D01*
X0185320Y0134768D02*
X0187280Y0134768D01*
X0187032Y0135367D02*
X0185568Y0135367D01*
X0185600Y0135965D02*
X0187000Y0135965D01*
X0187000Y0136564D02*
X0185600Y0136564D01*
X0185597Y0137162D02*
X0187003Y0137162D01*
X0187251Y0137761D02*
X0185349Y0137761D01*
X0185101Y0138359D02*
X0187499Y0138359D01*
X0187876Y0138958D02*
X0184723Y0138958D01*
X0184125Y0139556D02*
X0188475Y0139556D01*
X0189369Y0140155D02*
X0183231Y0140155D01*
X0182155Y0142000D02*
X0180445Y0142000D01*
X0178864Y0142655D01*
X0177655Y0143864D01*
X0177000Y0145445D01*
X0177000Y0147155D01*
X0177655Y0148736D01*
X0178864Y0149945D01*
X0180445Y0150600D01*
X0182155Y0150600D01*
X0183736Y0149945D01*
X0184945Y0148736D01*
X0185600Y0147155D01*
X0185600Y0145445D01*
X0184945Y0143864D01*
X0183736Y0142655D01*
X0182155Y0142000D01*
X0183480Y0142549D02*
X0189120Y0142549D01*
X0188864Y0142655D02*
X0190445Y0142000D01*
X0192155Y0142000D01*
X0193736Y0142655D01*
X0194945Y0143864D01*
X0195600Y0145445D01*
X0195600Y0147155D01*
X0194945Y0148736D01*
X0193736Y0149945D01*
X0192155Y0150600D01*
X0190445Y0150600D01*
X0188864Y0149945D01*
X0187655Y0148736D01*
X0187000Y0147155D01*
X0187000Y0145445D01*
X0187655Y0143864D01*
X0188864Y0142655D01*
X0188372Y0143147D02*
X0184228Y0143147D01*
X0184827Y0143746D02*
X0187773Y0143746D01*
X0187456Y0144344D02*
X0185144Y0144344D01*
X0185392Y0144943D02*
X0187208Y0144943D01*
X0187000Y0145541D02*
X0185600Y0145541D01*
X0185600Y0146140D02*
X0187000Y0146140D01*
X0187000Y0146738D02*
X0185600Y0146738D01*
X0185525Y0147337D02*
X0187075Y0147337D01*
X0187323Y0147935D02*
X0185277Y0147935D01*
X0185029Y0148534D02*
X0187571Y0148534D01*
X0188051Y0149132D02*
X0184549Y0149132D01*
X0183950Y0149731D02*
X0188650Y0149731D01*
X0189791Y0150329D02*
X0182809Y0150329D01*
X0179791Y0150329D02*
X0155816Y0150329D01*
X0155789Y0150357D02*
X0155789Y0151190D01*
X0154390Y0152589D01*
X0152410Y0152589D01*
X0151011Y0151190D01*
X0151011Y0149210D01*
X0152410Y0147811D01*
X0153243Y0147811D01*
X0155000Y0146054D01*
X0155000Y0128379D01*
X0154411Y0127790D01*
X0154411Y0125810D01*
X0155000Y0125221D01*
X0155000Y0111546D01*
X0134893Y0091439D01*
X0134060Y0091439D01*
X0132661Y0090040D01*
X0132661Y0088060D01*
X0134060Y0086661D01*
X0136040Y0086661D01*
X0137439Y0088060D01*
X0137439Y0088893D01*
X0157546Y0109000D01*
X0158600Y0110054D01*
X0158600Y0125221D01*
X0159189Y0125810D01*
X0159189Y0127790D01*
X0158600Y0128379D01*
X0158600Y0147546D01*
X0157546Y0148600D01*
X0155789Y0150357D01*
X0155789Y0150928D02*
X0200000Y0150928D01*
X0200000Y0151526D02*
X0155452Y0151526D01*
X0154854Y0152125D02*
X0200000Y0152125D01*
X0200000Y0152723D02*
X0137800Y0152723D01*
X0137800Y0152125D02*
X0151946Y0152125D01*
X0151348Y0151526D02*
X0137800Y0151526D01*
X0137800Y0150928D02*
X0151011Y0150928D01*
X0151011Y0150329D02*
X0137800Y0150329D01*
X0137800Y0149731D02*
X0151011Y0149731D01*
X0151089Y0149132D02*
X0137800Y0149132D01*
X0137800Y0148534D02*
X0151688Y0148534D01*
X0152286Y0147935D02*
X0137800Y0147935D01*
X0137800Y0147337D02*
X0153718Y0147337D01*
X0154316Y0146738D02*
X0137800Y0146738D01*
X0137800Y0146140D02*
X0154915Y0146140D01*
X0155000Y0145541D02*
X0137800Y0145541D01*
X0137800Y0144943D02*
X0155000Y0144943D01*
X0155000Y0144344D02*
X0137800Y0144344D01*
X0137800Y0143746D02*
X0155000Y0143746D01*
X0155000Y0143147D02*
X0137800Y0143147D01*
X0137800Y0142549D02*
X0155000Y0142549D01*
X0155000Y0141950D02*
X0137800Y0141950D01*
X0137800Y0141352D02*
X0155000Y0141352D01*
X0155000Y0140753D02*
X0137800Y0140753D01*
X0137800Y0140155D02*
X0155000Y0140155D01*
X0155000Y0139556D02*
X0137800Y0139556D01*
X0137800Y0138958D02*
X0155000Y0138958D01*
X0155000Y0138359D02*
X0137800Y0138359D01*
X0137800Y0137761D02*
X0155000Y0137761D01*
X0155000Y0137162D02*
X0137800Y0137162D01*
X0137800Y0136564D02*
X0155000Y0136564D01*
X0155000Y0135965D02*
X0137800Y0135965D01*
X0137800Y0135367D02*
X0155000Y0135367D01*
X0155000Y0134768D02*
X0137800Y0134768D01*
X0137800Y0134170D02*
X0155000Y0134170D01*
X0155000Y0133571D02*
X0137800Y0133571D01*
X0137800Y0132972D02*
X0155000Y0132972D01*
X0155000Y0132374D02*
X0137800Y0132374D01*
X0137800Y0131775D02*
X0147297Y0131775D01*
X0147810Y0132289D02*
X0146411Y0130890D01*
X0146411Y0128910D01*
X0147810Y0127511D01*
X0149790Y0127511D01*
X0151189Y0128910D01*
X0151189Y0130890D01*
X0149790Y0132289D01*
X0147810Y0132289D01*
X0146698Y0131177D02*
X0137800Y0131177D01*
X0137800Y0130578D02*
X0146411Y0130578D01*
X0146411Y0129980D02*
X0137800Y0129980D01*
X0137800Y0129381D02*
X0146411Y0129381D01*
X0146539Y0128783D02*
X0137800Y0128783D01*
X0137800Y0128184D02*
X0147137Y0128184D01*
X0147736Y0127586D02*
X0137800Y0127586D01*
X0137800Y0126987D02*
X0154411Y0126987D01*
X0154411Y0126389D02*
X0137800Y0126389D01*
X0137800Y0125790D02*
X0154431Y0125790D01*
X0155000Y0125192D02*
X0137800Y0125192D01*
X0137800Y0124593D02*
X0155000Y0124593D01*
X0155000Y0123995D02*
X0137800Y0123995D01*
X0137800Y0123396D02*
X0155000Y0123396D01*
X0155000Y0122798D02*
X0137800Y0122798D01*
X0137800Y0122689D02*
X0137800Y0178146D01*
X0136746Y0179200D01*
X0134846Y0181100D01*
X0132372Y0181100D01*
X0132355Y0181141D01*
X0131441Y0182055D01*
X0130246Y0182550D01*
X0128954Y0182550D01*
X0127759Y0182055D01*
X0127100Y0181396D01*
X0126441Y0182055D01*
X0125246Y0182550D01*
X0123954Y0182550D01*
X0122759Y0182055D01*
X0122100Y0181396D01*
X0121441Y0182055D01*
X0120246Y0182550D01*
X0118954Y0182550D01*
X0117759Y0182055D01*
X0117100Y0181396D01*
X0116441Y0182055D01*
X0115246Y0182550D01*
X0113954Y0182550D01*
X0112759Y0182055D01*
X0112100Y0181396D01*
X0111441Y0182055D01*
X0110246Y0182550D01*
X0108954Y0182550D01*
X0107759Y0182055D01*
X0106845Y0181141D01*
X0106350Y0179946D01*
X0106350Y0178654D01*
X0106845Y0177459D01*
X0107504Y0176800D01*
X0106845Y0176141D01*
X0106350Y0174946D01*
X0106350Y0173654D01*
X0106845Y0172459D01*
X0107759Y0171545D01*
X0108954Y0171050D01*
X0110246Y0171050D01*
X0111441Y0171545D01*
X0112100Y0172204D01*
X0112759Y0171545D01*
X0113954Y0171050D01*
X0115246Y0171050D01*
X0116441Y0171545D01*
X0117100Y0172204D01*
X0117759Y0171545D01*
X0118954Y0171050D01*
X0120246Y0171050D01*
X0121441Y0171545D01*
X0122100Y0172204D01*
X0122759Y0171545D01*
X0123954Y0171050D01*
X0125246Y0171050D01*
X0126441Y0171545D01*
X0127100Y0172204D01*
X0127759Y0171545D01*
X0128954Y0171050D01*
X0130246Y0171050D01*
X0131441Y0171545D01*
X0132355Y0172459D01*
X0132850Y0173654D01*
X0132850Y0174946D01*
X0132355Y0176141D01*
X0131696Y0176800D01*
X0132355Y0177459D01*
X0132372Y0177500D01*
X0133354Y0177500D01*
X0134200Y0176654D01*
X0134200Y0120554D01*
X0134611Y0120143D01*
X0134611Y0119310D01*
X0136010Y0117911D01*
X0137990Y0117911D01*
X0139389Y0119310D01*
X0139389Y0121290D01*
X0137990Y0122689D01*
X0137800Y0122689D01*
X0138479Y0122199D02*
X0155000Y0122199D01*
X0155000Y0121601D02*
X0139078Y0121601D01*
X0139389Y0121002D02*
X0155000Y0121002D01*
X0155000Y0120404D02*
X0139389Y0120404D01*
X0139389Y0119805D02*
X0155000Y0119805D01*
X0155000Y0119207D02*
X0139285Y0119207D01*
X0138687Y0118608D02*
X0155000Y0118608D01*
X0155000Y0118010D02*
X0138088Y0118010D01*
X0135912Y0118010D02*
X0074888Y0118010D01*
X0075189Y0118310D02*
X0073790Y0116911D01*
X0071810Y0116911D01*
X0070411Y0118310D01*
X0070411Y0120290D01*
X0071810Y0121689D01*
X0073790Y0121689D01*
X0075189Y0120290D01*
X0075189Y0118310D01*
X0075189Y0118608D02*
X0135313Y0118608D01*
X0134715Y0119207D02*
X0075189Y0119207D01*
X0075189Y0119805D02*
X0134611Y0119805D01*
X0134351Y0120404D02*
X0075075Y0120404D01*
X0074476Y0121002D02*
X0134200Y0121002D01*
X0134200Y0121601D02*
X0073878Y0121601D01*
X0071722Y0121601D02*
X0067479Y0121601D01*
X0067689Y0121810D02*
X0066290Y0120411D01*
X0064310Y0120411D01*
X0062911Y0121810D01*
X0062911Y0123790D01*
X0064310Y0125189D01*
X0066033Y0125189D01*
X0065911Y0125310D01*
X0065911Y0127290D01*
X0067310Y0128689D01*
X0069290Y0128689D01*
X0070689Y0127290D01*
X0070689Y0125310D01*
X0069290Y0123911D01*
X0067567Y0123911D01*
X0067689Y0123790D01*
X0067689Y0121810D01*
X0067689Y0122199D02*
X0134200Y0122199D01*
X0134200Y0122798D02*
X0086676Y0122798D01*
X0086190Y0122311D02*
X0087589Y0123710D01*
X0087589Y0125690D01*
X0086190Y0127089D01*
X0084210Y0127089D01*
X0082811Y0125690D01*
X0082811Y0123710D01*
X0084210Y0122311D01*
X0086190Y0122311D01*
X0087275Y0123396D02*
X0134200Y0123396D01*
X0134200Y0123995D02*
X0087589Y0123995D01*
X0087589Y0124593D02*
X0100628Y0124593D01*
X0100810Y0124411D02*
X0102790Y0124411D01*
X0104189Y0125810D01*
X0104189Y0127790D01*
X0102790Y0129189D01*
X0100810Y0129189D01*
X0099411Y0127790D01*
X0099411Y0125810D01*
X0100810Y0124411D01*
X0100030Y0125192D02*
X0087589Y0125192D01*
X0087488Y0125790D02*
X0099431Y0125790D01*
X0099411Y0126389D02*
X0086890Y0126389D01*
X0086291Y0126987D02*
X0099411Y0126987D01*
X0099411Y0127586D02*
X0083589Y0127586D01*
X0083589Y0127510D02*
X0082190Y0126111D01*
X0080210Y0126111D01*
X0078811Y0127510D01*
X0078811Y0129490D01*
X0080210Y0130889D01*
X0082190Y0130889D01*
X0083589Y0129490D01*
X0083589Y0127510D01*
X0083589Y0128184D02*
X0099806Y0128184D01*
X0100404Y0128783D02*
X0083589Y0128783D01*
X0083589Y0129381D02*
X0112003Y0129381D01*
X0112310Y0129689D02*
X0110911Y0128290D01*
X0110911Y0126310D01*
X0112310Y0124911D01*
X0114290Y0124911D01*
X0115689Y0126310D01*
X0115689Y0128290D01*
X0114290Y0129689D01*
X0112310Y0129689D01*
X0111404Y0128783D02*
X0103196Y0128783D01*
X0103794Y0128184D02*
X0110911Y0128184D01*
X0110911Y0127586D02*
X0104189Y0127586D01*
X0104189Y0126987D02*
X0110911Y0126987D01*
X0110911Y0126389D02*
X0104189Y0126389D01*
X0104169Y0125790D02*
X0111431Y0125790D01*
X0112030Y0125192D02*
X0103570Y0125192D01*
X0102972Y0124593D02*
X0134200Y0124593D01*
X0134200Y0125192D02*
X0114570Y0125192D01*
X0115169Y0125790D02*
X0134200Y0125790D01*
X0134200Y0126389D02*
X0115689Y0126389D01*
X0115689Y0126987D02*
X0134200Y0126987D01*
X0134200Y0127586D02*
X0115689Y0127586D01*
X0115689Y0128184D02*
X0134200Y0128184D01*
X0134200Y0128783D02*
X0115196Y0128783D01*
X0114597Y0129381D02*
X0134200Y0129381D01*
X0134200Y0129980D02*
X0083099Y0129980D01*
X0082500Y0130578D02*
X0134200Y0130578D01*
X0134200Y0131177D02*
X0038400Y0131177D01*
X0038400Y0131775D02*
X0134200Y0131775D01*
X0134200Y0132374D02*
X0038400Y0132374D01*
X0038400Y0132972D02*
X0134200Y0132972D01*
X0134200Y0133571D02*
X0038400Y0133571D01*
X0038400Y0134170D02*
X0134200Y0134170D01*
X0134200Y0134768D02*
X0038400Y0134768D01*
X0038400Y0135021D02*
X0038989Y0135610D01*
X0038989Y0137590D01*
X0037590Y0138989D01*
X0035610Y0138989D01*
X0034211Y0137590D01*
X0034211Y0135610D01*
X0034800Y0135021D01*
X0034800Y0121554D01*
X0070400Y0085954D01*
X0071454Y0084900D01*
X0088339Y0084900D01*
X0088339Y0080040D01*
X0087890Y0080489D01*
X0085910Y0080489D01*
X0084950Y0079529D01*
X0083790Y0080689D01*
X0081810Y0080689D01*
X0080411Y0079290D01*
X0080411Y0077310D01*
X0081810Y0075911D01*
X0083790Y0075911D01*
X0084750Y0076871D01*
X0085910Y0075711D01*
X0087890Y0075711D01*
X0088339Y0076160D01*
X0088339Y0073715D01*
X0088611Y0073443D01*
X0088611Y0072610D01*
X0090010Y0071211D01*
X0091990Y0071211D01*
X0093389Y0072610D01*
X0093389Y0074590D01*
X0091990Y0075989D01*
X0091939Y0075989D01*
X0091939Y0087446D01*
X0090885Y0088500D01*
X0072946Y0088500D01*
X0038400Y0123046D01*
X0038400Y0135021D01*
X0038745Y0135367D02*
X0134200Y0135367D01*
X0134200Y0135965D02*
X0112644Y0135965D01*
X0112390Y0135711D02*
X0110410Y0135711D01*
X0109011Y0137110D01*
X0109011Y0139090D01*
X0110410Y0140489D01*
X0112390Y0140489D01*
X0113789Y0139090D01*
X0113789Y0137110D01*
X0112390Y0135711D01*
X0113242Y0136564D02*
X0134200Y0136564D01*
X0134200Y0137162D02*
X0113789Y0137162D01*
X0113789Y0137761D02*
X0134200Y0137761D01*
X0134200Y0138359D02*
X0113789Y0138359D01*
X0113789Y0138958D02*
X0134200Y0138958D01*
X0134200Y0139556D02*
X0113322Y0139556D01*
X0112724Y0140155D02*
X0134200Y0140155D01*
X0134200Y0140753D02*
X0130332Y0140753D01*
X0130190Y0140611D02*
X0131589Y0142010D01*
X0131589Y0143990D01*
X0130190Y0145389D01*
X0128210Y0145389D01*
X0126811Y0143990D01*
X0126811Y0142010D01*
X0128210Y0140611D01*
X0130190Y0140611D01*
X0130930Y0141352D02*
X0134200Y0141352D01*
X0134200Y0141950D02*
X0131529Y0141950D01*
X0131589Y0142549D02*
X0134200Y0142549D01*
X0134200Y0143147D02*
X0131589Y0143147D01*
X0131589Y0143746D02*
X0134200Y0143746D01*
X0134200Y0144344D02*
X0131234Y0144344D01*
X0130636Y0144943D02*
X0134200Y0144943D01*
X0134200Y0145541D02*
X0002600Y0145541D01*
X0002600Y0144943D02*
X0127764Y0144943D01*
X0127166Y0144344D02*
X0002600Y0144344D01*
X0002600Y0143746D02*
X0126811Y0143746D01*
X0126811Y0143147D02*
X0002600Y0143147D01*
X0002600Y0142549D02*
X0126811Y0142549D01*
X0126871Y0141950D02*
X0002600Y0141950D01*
X0002600Y0141352D02*
X0127470Y0141352D01*
X0128068Y0140753D02*
X0002600Y0140753D01*
X0002600Y0140155D02*
X0110076Y0140155D01*
X0109478Y0139556D02*
X0002600Y0139556D01*
X0002600Y0138958D02*
X0035579Y0138958D01*
X0034981Y0138359D02*
X0002600Y0138359D01*
X0002600Y0137761D02*
X0034382Y0137761D01*
X0034211Y0137162D02*
X0002600Y0137162D01*
X0002600Y0136564D02*
X0034211Y0136564D01*
X0034211Y0135965D02*
X0002600Y0135965D01*
X0002600Y0135367D02*
X0034455Y0135367D01*
X0034800Y0134768D02*
X0002600Y0134768D01*
X0002600Y0134170D02*
X0034800Y0134170D01*
X0034800Y0133571D02*
X0002600Y0133571D01*
X0002600Y0132972D02*
X0034800Y0132972D01*
X0034800Y0132374D02*
X0002600Y0132374D01*
X0002600Y0131775D02*
X0034800Y0131775D01*
X0034800Y0131177D02*
X0002600Y0131177D01*
X0002600Y0130578D02*
X0034800Y0130578D01*
X0034800Y0129980D02*
X0002600Y0129980D01*
X0002600Y0129381D02*
X0034800Y0129381D01*
X0034800Y0128783D02*
X0002600Y0128783D01*
X0002600Y0128184D02*
X0034800Y0128184D01*
X0034800Y0127586D02*
X0002600Y0127586D01*
X0002600Y0126987D02*
X0034800Y0126987D01*
X0034800Y0126389D02*
X0002600Y0126389D01*
X0002600Y0125790D02*
X0034800Y0125790D01*
X0034800Y0125192D02*
X0002600Y0125192D01*
X0002600Y0124593D02*
X0034800Y0124593D01*
X0034800Y0123995D02*
X0002600Y0123995D01*
X0002600Y0123396D02*
X0034800Y0123396D01*
X0034800Y0122798D02*
X0002600Y0122798D01*
X0002600Y0122199D02*
X0034800Y0122199D01*
X0034800Y0121601D02*
X0002600Y0121601D01*
X0002600Y0121002D02*
X0035352Y0121002D01*
X0035951Y0120404D02*
X0002600Y0120404D01*
X0002600Y0119805D02*
X0036549Y0119805D01*
X0037148Y0119207D02*
X0002600Y0119207D01*
X0002600Y0118608D02*
X0037746Y0118608D01*
X0038345Y0118010D02*
X0002600Y0118010D01*
X0002600Y0117411D02*
X0038943Y0117411D01*
X0039542Y0116813D02*
X0002600Y0116813D01*
X0002600Y0116214D02*
X0040140Y0116214D01*
X0040739Y0115616D02*
X0002600Y0115616D01*
X0002600Y0115017D02*
X0041337Y0115017D01*
X0041936Y0114419D02*
X0002600Y0114419D01*
X0002600Y0113820D02*
X0042534Y0113820D01*
X0043133Y0113222D02*
X0002600Y0113222D01*
X0002600Y0112623D02*
X0043731Y0112623D01*
X0044330Y0112025D02*
X0002600Y0112025D01*
X0002600Y0111426D02*
X0044928Y0111426D01*
X0045527Y0110828D02*
X0002600Y0110828D01*
X0002600Y0110229D02*
X0046125Y0110229D01*
X0046724Y0109631D02*
X0002600Y0109631D01*
X0002600Y0109032D02*
X0047322Y0109032D01*
X0047921Y0108434D02*
X0002600Y0108434D01*
X0002600Y0107835D02*
X0048519Y0107835D01*
X0049118Y0107237D02*
X0002600Y0107237D01*
X0002600Y0106638D02*
X0049716Y0106638D01*
X0050315Y0106039D02*
X0002600Y0106039D01*
X0002600Y0105441D02*
X0050913Y0105441D01*
X0051512Y0104842D02*
X0002600Y0104842D01*
X0002600Y0104244D02*
X0052110Y0104244D01*
X0052709Y0103645D02*
X0002600Y0103645D01*
X0002600Y0103047D02*
X0053307Y0103047D01*
X0053906Y0102448D02*
X0002600Y0102448D01*
X0002600Y0101850D02*
X0054505Y0101850D01*
X0055103Y0101251D02*
X0002600Y0101251D01*
X0002600Y0100653D02*
X0055702Y0100653D01*
X0056300Y0100054D02*
X0002600Y0100054D01*
X0002600Y0099456D02*
X0056899Y0099456D01*
X0057497Y0098857D02*
X0002600Y0098857D01*
X0002600Y0098259D02*
X0040580Y0098259D01*
X0040910Y0098589D02*
X0039511Y0097190D01*
X0039511Y0095210D01*
X0040910Y0093811D01*
X0042890Y0093811D01*
X0044289Y0095210D01*
X0044289Y0097190D01*
X0042890Y0098589D01*
X0040910Y0098589D01*
X0039982Y0097660D02*
X0002600Y0097660D01*
X0002600Y0097062D02*
X0039511Y0097062D01*
X0039511Y0096463D02*
X0002600Y0096463D01*
X0002600Y0095865D02*
X0039511Y0095865D01*
X0039511Y0095266D02*
X0002600Y0095266D01*
X0002600Y0094668D02*
X0040054Y0094668D01*
X0040652Y0094069D02*
X0002600Y0094069D01*
X0002600Y0093471D02*
X0062884Y0093471D01*
X0063482Y0092872D02*
X0002600Y0092872D01*
X0002600Y0092274D02*
X0064081Y0092274D01*
X0064679Y0091675D02*
X0047203Y0091675D01*
X0046890Y0091989D02*
X0044910Y0091989D01*
X0043511Y0090590D01*
X0043511Y0088610D01*
X0044910Y0087211D01*
X0046890Y0087211D01*
X0048289Y0088610D01*
X0048289Y0090590D01*
X0046890Y0091989D01*
X0047802Y0091077D02*
X0065278Y0091077D01*
X0065876Y0090478D02*
X0048289Y0090478D01*
X0048289Y0089880D02*
X0066475Y0089880D01*
X0067073Y0089281D02*
X0048289Y0089281D01*
X0048289Y0088683D02*
X0055504Y0088683D01*
X0055610Y0088789D02*
X0054211Y0087390D01*
X0054211Y0085410D01*
X0055610Y0084011D01*
X0057590Y0084011D01*
X0058989Y0085410D01*
X0058989Y0087390D01*
X0057590Y0088789D01*
X0055610Y0088789D01*
X0054906Y0088084D02*
X0047763Y0088084D01*
X0047164Y0087486D02*
X0054307Y0087486D01*
X0054211Y0086887D02*
X0002600Y0086887D01*
X0002600Y0086289D02*
X0054211Y0086289D01*
X0054211Y0085690D02*
X0002600Y0085690D01*
X0002600Y0085092D02*
X0040313Y0085092D01*
X0040810Y0085589D02*
X0039411Y0084190D01*
X0039411Y0082210D01*
X0040810Y0080811D01*
X0042790Y0080811D01*
X0044189Y0082210D01*
X0044189Y0084190D01*
X0042790Y0085589D01*
X0040810Y0085589D01*
X0039715Y0084493D02*
X0034585Y0084493D01*
X0034390Y0084689D02*
X0032410Y0084689D01*
X0031011Y0083290D01*
X0031011Y0081310D01*
X0032410Y0079911D01*
X0034390Y0079911D01*
X0035789Y0081310D01*
X0035789Y0083290D01*
X0034390Y0084689D01*
X0035184Y0083895D02*
X0039411Y0083895D01*
X0039411Y0083296D02*
X0035782Y0083296D01*
X0035789Y0082698D02*
X0039411Y0082698D01*
X0039522Y0082099D02*
X0035789Y0082099D01*
X0035789Y0081501D02*
X0040121Y0081501D01*
X0040719Y0080902D02*
X0035381Y0080902D01*
X0034782Y0080303D02*
X0049511Y0080303D01*
X0049511Y0079705D02*
X0026084Y0079705D01*
X0025790Y0079411D02*
X0027189Y0080810D01*
X0027189Y0082790D01*
X0025790Y0084189D01*
X0023810Y0084189D01*
X0022411Y0082790D01*
X0022411Y0080810D01*
X0023810Y0079411D01*
X0025790Y0079411D01*
X0026682Y0080303D02*
X0032018Y0080303D01*
X0031419Y0080902D02*
X0027189Y0080902D01*
X0027189Y0081501D02*
X0031011Y0081501D01*
X0031011Y0082099D02*
X0027189Y0082099D01*
X0027189Y0082698D02*
X0031011Y0082698D01*
X0031018Y0083296D02*
X0026682Y0083296D01*
X0026084Y0083895D02*
X0031616Y0083895D01*
X0032215Y0084493D02*
X0002600Y0084493D01*
X0002600Y0083895D02*
X0023516Y0083895D01*
X0022918Y0083296D02*
X0002600Y0083296D01*
X0002600Y0082698D02*
X0022411Y0082698D01*
X0022411Y0082099D02*
X0002600Y0082099D01*
X0002600Y0081501D02*
X0022411Y0081501D01*
X0022411Y0080902D02*
X0002600Y0080902D01*
X0002600Y0080303D02*
X0022918Y0080303D01*
X0023516Y0079705D02*
X0002600Y0079705D01*
X0002600Y0079106D02*
X0049815Y0079106D01*
X0049511Y0079410D02*
X0049511Y0081390D01*
X0050910Y0082789D01*
X0052890Y0082789D01*
X0054289Y0081390D01*
X0054289Y0079410D01*
X0052890Y0078011D01*
X0050910Y0078011D01*
X0049511Y0079410D01*
X0050414Y0078508D02*
X0002600Y0078508D01*
X0002600Y0077909D02*
X0080411Y0077909D01*
X0080411Y0077311D02*
X0002600Y0077311D01*
X0002600Y0076712D02*
X0076334Y0076712D01*
X0076810Y0077189D02*
X0075411Y0075790D01*
X0075411Y0073810D01*
X0076810Y0072411D01*
X0078790Y0072411D01*
X0080189Y0073810D01*
X0080189Y0075790D01*
X0078790Y0077189D01*
X0076810Y0077189D01*
X0075735Y0076114D02*
X0002600Y0076114D01*
X0002600Y0075515D02*
X0075411Y0075515D01*
X0075411Y0074917D02*
X0002600Y0074917D01*
X0002600Y0074318D02*
X0075411Y0074318D01*
X0075502Y0073720D02*
X0002600Y0073720D01*
X0002600Y0073121D02*
X0076100Y0073121D01*
X0076699Y0072523D02*
X0002600Y0072523D01*
X0002600Y0071924D02*
X0089297Y0071924D01*
X0089896Y0071326D02*
X0002600Y0071326D01*
X0002600Y0070727D02*
X0094100Y0070727D01*
X0094100Y0070129D02*
X0002600Y0070129D01*
X0002600Y0069530D02*
X0094100Y0069530D01*
X0094100Y0068932D02*
X0002600Y0068932D01*
X0002600Y0068333D02*
X0094100Y0068333D01*
X0094100Y0067735D02*
X0002600Y0067735D01*
X0002600Y0067136D02*
X0094100Y0067136D01*
X0094100Y0066538D02*
X0002600Y0066538D01*
X0002600Y0065939D02*
X0031707Y0065939D01*
X0032257Y0066489D02*
X0030857Y0065090D01*
X0030857Y0063110D01*
X0032257Y0061711D01*
X0034236Y0061711D01*
X0035635Y0063110D01*
X0035635Y0065090D01*
X0034236Y0066489D01*
X0032257Y0066489D01*
X0031109Y0065341D02*
X0002600Y0065341D01*
X0002600Y0064742D02*
X0030857Y0064742D01*
X0030857Y0064144D02*
X0002600Y0064144D01*
X0002600Y0063545D02*
X0030857Y0063545D01*
X0031021Y0062947D02*
X0002600Y0062947D01*
X0002600Y0062348D02*
X0031620Y0062348D01*
X0032218Y0061750D02*
X0002600Y0061750D01*
X0002600Y0061151D02*
X0051370Y0061151D01*
X0051211Y0061310D02*
X0052610Y0059911D01*
X0054590Y0059911D01*
X0055989Y0061310D01*
X0055989Y0063290D01*
X0054590Y0064689D01*
X0052610Y0064689D01*
X0051211Y0063290D01*
X0051211Y0061310D01*
X0051211Y0061750D02*
X0034275Y0061750D01*
X0034873Y0062348D02*
X0051211Y0062348D01*
X0051211Y0062947D02*
X0035472Y0062947D01*
X0035635Y0063545D02*
X0051467Y0063545D01*
X0052065Y0064144D02*
X0035635Y0064144D01*
X0035635Y0064742D02*
X0094100Y0064742D01*
X0094100Y0064144D02*
X0055135Y0064144D01*
X0055733Y0063545D02*
X0094100Y0063545D01*
X0094100Y0062947D02*
X0055989Y0062947D01*
X0055989Y0062348D02*
X0094100Y0062348D01*
X0094100Y0061750D02*
X0055989Y0061750D01*
X0055830Y0061151D02*
X0094100Y0061151D01*
X0094100Y0060553D02*
X0055231Y0060553D01*
X0054633Y0059954D02*
X0094100Y0059954D01*
X0094100Y0059356D02*
X0002600Y0059356D01*
X0002600Y0059954D02*
X0052567Y0059954D01*
X0051969Y0060553D02*
X0002600Y0060553D01*
X0002600Y0058757D02*
X0094100Y0058757D01*
X0094100Y0058159D02*
X0002600Y0058159D01*
X0002600Y0057560D02*
X0094100Y0057560D01*
X0094100Y0056962D02*
X0002600Y0056962D01*
X0002600Y0056363D02*
X0094100Y0056363D01*
X0094100Y0055765D02*
X0002600Y0055765D01*
X0002600Y0055166D02*
X0094100Y0055166D01*
X0094100Y0054568D02*
X0002600Y0054568D01*
X0002600Y0053969D02*
X0094100Y0053969D01*
X0094100Y0053370D02*
X0002600Y0053370D01*
X0002600Y0052772D02*
X0094100Y0052772D01*
X0094100Y0052173D02*
X0002600Y0052173D01*
X0002600Y0051575D02*
X0094100Y0051575D01*
X0094100Y0050976D02*
X0002600Y0050976D01*
X0002600Y0050378D02*
X0094100Y0050378D01*
X0094100Y0049779D02*
X0047499Y0049779D01*
X0047190Y0050089D02*
X0048589Y0048690D01*
X0048589Y0046710D01*
X0047190Y0045311D01*
X0045210Y0045311D01*
X0043811Y0046710D01*
X0043811Y0048690D01*
X0045210Y0050089D01*
X0047190Y0050089D01*
X0048098Y0049181D02*
X0074102Y0049181D01*
X0074610Y0049689D02*
X0073211Y0048290D01*
X0073211Y0046310D01*
X0074610Y0044911D01*
X0076590Y0044911D01*
X0077989Y0046310D01*
X0077989Y0048290D01*
X0076590Y0049689D01*
X0074610Y0049689D01*
X0073504Y0048582D02*
X0048589Y0048582D01*
X0048589Y0047984D02*
X0073211Y0047984D01*
X0073211Y0047385D02*
X0048589Y0047385D01*
X0048589Y0046787D02*
X0073211Y0046787D01*
X0073333Y0046188D02*
X0048067Y0046188D01*
X0047468Y0045590D02*
X0073932Y0045590D01*
X0074530Y0044991D02*
X0002600Y0044991D01*
X0002600Y0044393D02*
X0092747Y0044393D01*
X0092149Y0043794D02*
X0002600Y0043794D01*
X0002600Y0043196D02*
X0090717Y0043196D01*
X0090119Y0042597D02*
X0002600Y0042597D01*
X0002600Y0041999D02*
X0089611Y0041999D01*
X0089611Y0041400D02*
X0002600Y0041400D01*
X0002600Y0040802D02*
X0036523Y0040802D01*
X0035925Y0040203D02*
X0002600Y0040203D01*
X0002600Y0039605D02*
X0035711Y0039605D01*
X0035711Y0039006D02*
X0002600Y0039006D01*
X0002600Y0038408D02*
X0035711Y0038408D01*
X0035912Y0037809D02*
X0002600Y0037809D01*
X0002600Y0037211D02*
X0024232Y0037211D01*
X0023634Y0036612D02*
X0002600Y0036612D01*
X0002600Y0036014D02*
X0023111Y0036014D01*
X0023111Y0035415D02*
X0002600Y0035415D01*
X0002600Y0034817D02*
X0023111Y0034817D01*
X0023111Y0034218D02*
X0002600Y0034218D01*
X0002600Y0033620D02*
X0023602Y0033620D01*
X0026768Y0037211D02*
X0036511Y0037211D01*
X0037109Y0036612D02*
X0027366Y0036612D01*
X0039677Y0040802D02*
X0089611Y0040802D01*
X0089611Y0040203D02*
X0040275Y0040203D01*
X0040489Y0039605D02*
X0090117Y0039605D01*
X0090715Y0039006D02*
X0040489Y0039006D01*
X0044932Y0045590D02*
X0002600Y0045590D01*
X0002600Y0046188D02*
X0044333Y0046188D01*
X0043811Y0046787D02*
X0002600Y0046787D01*
X0002600Y0047385D02*
X0043811Y0047385D01*
X0043811Y0047984D02*
X0002600Y0047984D01*
X0002600Y0048582D02*
X0043811Y0048582D01*
X0044302Y0049181D02*
X0002600Y0049181D01*
X0002600Y0049779D02*
X0044901Y0049779D01*
X0061066Y0036612D02*
X0108609Y0036612D01*
X0111191Y0036612D02*
X0200000Y0036612D01*
X0200000Y0036014D02*
X0061665Y0036014D01*
X0061789Y0035415D02*
X0200000Y0035415D01*
X0200000Y0034817D02*
X0061789Y0034817D01*
X0061789Y0034218D02*
X0200000Y0034218D01*
X0200000Y0033620D02*
X0061498Y0033620D01*
X0060900Y0033021D02*
X0200000Y0033021D01*
X0200000Y0032423D02*
X0053189Y0032423D01*
X0053189Y0033021D02*
X0057900Y0033021D01*
X0057302Y0033620D02*
X0052959Y0033620D01*
X0052360Y0034218D02*
X0057011Y0034218D01*
X0053189Y0031824D02*
X0065646Y0031824D01*
X0065710Y0031889D02*
X0064311Y0030490D01*
X0064311Y0028510D01*
X0065710Y0027111D01*
X0067690Y0027111D01*
X0069089Y0028510D01*
X0069089Y0030490D01*
X0067690Y0031889D01*
X0065710Y0031889D01*
X0065047Y0031226D02*
X0053004Y0031226D01*
X0052406Y0030627D02*
X0064449Y0030627D01*
X0064311Y0030029D02*
X0051807Y0030029D01*
X0049793Y0030029D02*
X0002600Y0030029D01*
X0002600Y0030627D02*
X0049194Y0030627D01*
X0048596Y0031226D02*
X0002600Y0031226D01*
X0002600Y0031824D02*
X0048411Y0031824D01*
X0064311Y0029430D02*
X0002600Y0029430D01*
X0002600Y0028832D02*
X0064311Y0028832D01*
X0064588Y0028233D02*
X0002600Y0028233D01*
X0002600Y0027634D02*
X0065187Y0027634D01*
X0068213Y0027634D02*
X0200000Y0027634D01*
X0200000Y0027036D02*
X0002600Y0027036D01*
X0002600Y0026437D02*
X0200000Y0026437D01*
X0200000Y0025839D02*
X0188226Y0025839D01*
X0189671Y0025240D02*
X0200000Y0025240D01*
X0200000Y0024642D02*
X0191116Y0024642D01*
X0192062Y0024043D02*
X0200000Y0024043D01*
X0200000Y0023445D02*
X0192661Y0023445D01*
X0193259Y0022846D02*
X0200000Y0022846D01*
X0200000Y0022248D02*
X0193858Y0022248D01*
X0194421Y0021649D02*
X0200000Y0021649D01*
X0200000Y0021051D02*
X0194669Y0021051D01*
X0194917Y0020452D02*
X0200000Y0020452D01*
X0200000Y0019854D02*
X0195165Y0019854D01*
X0195413Y0019255D02*
X0200000Y0019255D01*
X0200000Y0018657D02*
X0195661Y0018657D01*
X0195850Y0018058D02*
X0200000Y0018058D01*
X0200000Y0017460D02*
X0195850Y0017460D01*
X0195850Y0016861D02*
X0200000Y0016861D01*
X0199995Y0016263D02*
X0195850Y0016263D01*
X0195850Y0015664D02*
X0199946Y0015664D01*
X0199897Y0015066D02*
X0195850Y0015066D01*
X0195850Y0014467D02*
X0199841Y0014467D01*
X0199670Y0013869D02*
X0195630Y0013869D01*
X0195382Y0013270D02*
X0199499Y0013270D01*
X0199328Y0012672D02*
X0195134Y0012672D01*
X0194886Y0012073D02*
X0199157Y0012073D01*
X0198986Y0011475D02*
X0194638Y0011475D01*
X0194382Y0010876D02*
X0198776Y0010876D01*
X0198418Y0010278D02*
X0193783Y0010278D01*
X0193185Y0009679D02*
X0198059Y0009679D01*
X0197700Y0009081D02*
X0192586Y0009081D01*
X0191988Y0008482D02*
X0197341Y0008482D01*
X0196983Y0007884D02*
X0190936Y0007884D01*
X0189491Y0007285D02*
X0196367Y0007285D01*
X0200000Y0028233D02*
X0068812Y0028233D01*
X0069089Y0028832D02*
X0200000Y0028832D01*
X0200000Y0029430D02*
X0069089Y0029430D01*
X0069089Y0030029D02*
X0200000Y0030029D01*
X0200000Y0030627D02*
X0068951Y0030627D01*
X0068353Y0031226D02*
X0200000Y0031226D01*
X0200000Y0031824D02*
X0067754Y0031824D01*
X0076670Y0044991D02*
X0093346Y0044991D01*
X0093944Y0045590D02*
X0077268Y0045590D01*
X0077867Y0046188D02*
X0094100Y0046188D01*
X0094100Y0046787D02*
X0077989Y0046787D01*
X0077989Y0047385D02*
X0094100Y0047385D01*
X0094100Y0047984D02*
X0077989Y0047984D01*
X0077696Y0048582D02*
X0094100Y0048582D01*
X0094100Y0049181D02*
X0077098Y0049181D01*
X0094100Y0065341D02*
X0035384Y0065341D01*
X0034786Y0065939D02*
X0094100Y0065939D01*
X0094100Y0071326D02*
X0092104Y0071326D01*
X0092703Y0071924D02*
X0094100Y0071924D01*
X0094100Y0072523D02*
X0093301Y0072523D01*
X0093389Y0073121D02*
X0094100Y0073121D01*
X0094100Y0073720D02*
X0093389Y0073720D01*
X0093389Y0074318D02*
X0094100Y0074318D01*
X0094100Y0074917D02*
X0093062Y0074917D01*
X0092463Y0075515D02*
X0094100Y0075515D01*
X0094100Y0076114D02*
X0091939Y0076114D01*
X0091939Y0076712D02*
X0094100Y0076712D01*
X0094100Y0077311D02*
X0091939Y0077311D01*
X0091939Y0077909D02*
X0094100Y0077909D01*
X0094100Y0078508D02*
X0091939Y0078508D01*
X0091939Y0079106D02*
X0094100Y0079106D01*
X0094100Y0079705D02*
X0091939Y0079705D01*
X0091939Y0080303D02*
X0094100Y0080303D01*
X0094100Y0080902D02*
X0091939Y0080902D01*
X0091939Y0081501D02*
X0094100Y0081501D01*
X0094100Y0082099D02*
X0091939Y0082099D01*
X0091939Y0082698D02*
X0094100Y0082698D01*
X0094100Y0083296D02*
X0091939Y0083296D01*
X0091939Y0083895D02*
X0094100Y0083895D01*
X0094100Y0084493D02*
X0091939Y0084493D01*
X0091939Y0085092D02*
X0094100Y0085092D01*
X0094100Y0085690D02*
X0091939Y0085690D01*
X0091939Y0086289D02*
X0094100Y0086289D01*
X0094100Y0086887D02*
X0091939Y0086887D01*
X0091899Y0087486D02*
X0094100Y0087486D01*
X0094100Y0088084D02*
X0091300Y0088084D01*
X0094100Y0088683D02*
X0072763Y0088683D01*
X0072164Y0089281D02*
X0094100Y0089281D01*
X0094100Y0089880D02*
X0071566Y0089880D01*
X0070967Y0090478D02*
X0094100Y0090478D01*
X0094100Y0091077D02*
X0070369Y0091077D01*
X0069770Y0091675D02*
X0094100Y0091675D01*
X0094100Y0092274D02*
X0069172Y0092274D01*
X0068573Y0092872D02*
X0094100Y0092872D01*
X0094100Y0093471D02*
X0067975Y0093471D01*
X0067376Y0094069D02*
X0094100Y0094069D01*
X0094100Y0094668D02*
X0066778Y0094668D01*
X0066179Y0095266D02*
X0094100Y0095266D01*
X0094100Y0095865D02*
X0065581Y0095865D01*
X0064982Y0096463D02*
X0094100Y0096463D01*
X0094100Y0097062D02*
X0064384Y0097062D01*
X0063785Y0097660D02*
X0094100Y0097660D01*
X0094100Y0098259D02*
X0063187Y0098259D01*
X0062588Y0098857D02*
X0094100Y0098857D01*
X0094100Y0099456D02*
X0061990Y0099456D01*
X0061391Y0100054D02*
X0094100Y0100054D01*
X0094100Y0100653D02*
X0060793Y0100653D01*
X0060194Y0101251D02*
X0094100Y0101251D01*
X0094211Y0101850D02*
X0059596Y0101850D01*
X0058997Y0102448D02*
X0094211Y0102448D01*
X0094768Y0103047D02*
X0058399Y0103047D01*
X0057800Y0103645D02*
X0095367Y0103645D01*
X0097833Y0103645D02*
X0100311Y0103645D01*
X0100311Y0103510D02*
X0101655Y0102167D01*
X0101655Y0101067D01*
X0103054Y0099667D01*
X0105033Y0099667D01*
X0106433Y0101067D01*
X0106433Y0103046D01*
X0105089Y0104390D01*
X0105089Y0105490D01*
X0103690Y0106889D01*
X0101710Y0106889D01*
X0100311Y0105490D01*
X0100311Y0103510D01*
X0100775Y0103047D02*
X0098432Y0103047D01*
X0098989Y0102448D02*
X0101373Y0102448D01*
X0101655Y0101850D02*
X0098989Y0101850D01*
X0098989Y0101251D02*
X0101655Y0101251D01*
X0102069Y0100653D02*
X0098989Y0100653D01*
X0098533Y0100054D02*
X0102667Y0100054D01*
X0105420Y0100054D02*
X0143509Y0100054D01*
X0142910Y0099456D02*
X0097934Y0099456D01*
X0097700Y0098857D02*
X0142312Y0098857D01*
X0141713Y0098259D02*
X0097700Y0098259D01*
X0097700Y0097660D02*
X0141115Y0097660D01*
X0140516Y0097062D02*
X0097700Y0097062D01*
X0097700Y0096463D02*
X0139918Y0096463D01*
X0139319Y0095865D02*
X0097700Y0095865D01*
X0097700Y0095266D02*
X0138721Y0095266D01*
X0138122Y0094668D02*
X0097700Y0094668D01*
X0097700Y0094069D02*
X0137524Y0094069D01*
X0136925Y0093471D02*
X0097700Y0093471D01*
X0097700Y0092872D02*
X0126494Y0092872D01*
X0126810Y0093189D02*
X0125411Y0091790D01*
X0125411Y0089810D01*
X0126810Y0088411D01*
X0128790Y0088411D01*
X0130189Y0089810D01*
X0130189Y0091790D01*
X0128790Y0093189D01*
X0126810Y0093189D01*
X0125895Y0092274D02*
X0097700Y0092274D01*
X0097700Y0091675D02*
X0125411Y0091675D01*
X0125411Y0091077D02*
X0097700Y0091077D01*
X0097700Y0090478D02*
X0125411Y0090478D01*
X0125411Y0089880D02*
X0097700Y0089880D01*
X0097700Y0089281D02*
X0125940Y0089281D01*
X0126539Y0088683D02*
X0097700Y0088683D01*
X0097700Y0088084D02*
X0132661Y0088084D01*
X0132661Y0088683D02*
X0129061Y0088683D01*
X0129660Y0089281D02*
X0132661Y0089281D01*
X0132661Y0089880D02*
X0130189Y0089880D01*
X0130189Y0090478D02*
X0133100Y0090478D01*
X0133698Y0091077D02*
X0130189Y0091077D01*
X0130189Y0091675D02*
X0135130Y0091675D01*
X0135728Y0092274D02*
X0129705Y0092274D01*
X0129106Y0092872D02*
X0136327Y0092872D01*
X0139024Y0090478D02*
X0156600Y0090478D01*
X0157198Y0091077D02*
X0139622Y0091077D01*
X0140221Y0091675D02*
X0200000Y0091675D01*
X0200000Y0091077D02*
X0159402Y0091077D01*
X0159290Y0091189D02*
X0157310Y0091189D01*
X0155911Y0089790D01*
X0155911Y0087810D01*
X0157310Y0086411D01*
X0159290Y0086411D01*
X0160689Y0087810D01*
X0160689Y0089790D01*
X0159290Y0091189D01*
X0160000Y0090478D02*
X0180151Y0090478D01*
X0178799Y0089880D02*
X0160599Y0089880D01*
X0160689Y0089281D02*
X0178200Y0089281D01*
X0177633Y0088683D02*
X0160689Y0088683D01*
X0160689Y0088084D02*
X0177385Y0088084D01*
X0177137Y0087486D02*
X0160364Y0087486D01*
X0159766Y0086887D02*
X0177000Y0086887D01*
X0177000Y0086289D02*
X0097700Y0086289D01*
X0097700Y0086887D02*
X0133834Y0086887D01*
X0133236Y0087486D02*
X0097700Y0087486D01*
X0097700Y0085690D02*
X0177000Y0085690D01*
X0177146Y0085092D02*
X0097700Y0085092D01*
X0097700Y0084493D02*
X0177394Y0084493D01*
X0177642Y0083895D02*
X0097700Y0083895D01*
X0097700Y0083296D02*
X0178223Y0083296D01*
X0178821Y0082698D02*
X0097700Y0082698D01*
X0097700Y0082099D02*
X0180206Y0082099D01*
X0179729Y0080303D02*
X0097700Y0080303D01*
X0097700Y0079705D02*
X0178624Y0079705D01*
X0178025Y0079106D02*
X0097700Y0079106D01*
X0097700Y0078508D02*
X0177560Y0078508D01*
X0177312Y0077909D02*
X0097700Y0077909D01*
X0097700Y0077311D02*
X0177064Y0077311D01*
X0177000Y0076712D02*
X0097700Y0076712D01*
X0097700Y0076114D02*
X0177000Y0076114D01*
X0177000Y0075515D02*
X0097700Y0075515D01*
X0097700Y0074917D02*
X0115938Y0074917D01*
X0115340Y0074318D02*
X0097700Y0074318D01*
X0097700Y0073720D02*
X0114911Y0073720D01*
X0118662Y0074917D02*
X0177219Y0074917D01*
X0177467Y0074318D02*
X0119260Y0074318D01*
X0119689Y0073720D02*
X0177799Y0073720D01*
X0178398Y0073121D02*
X0119689Y0073121D01*
X0119689Y0072523D02*
X0179182Y0072523D01*
X0179307Y0070129D02*
X0110689Y0070129D01*
X0110689Y0069530D02*
X0178449Y0069530D01*
X0177851Y0068932D02*
X0110410Y0068932D01*
X0109812Y0068333D02*
X0177488Y0068333D01*
X0193418Y0072523D02*
X0200000Y0072523D01*
X0200000Y0073121D02*
X0194202Y0073121D01*
X0194801Y0073720D02*
X0200000Y0073720D01*
X0200000Y0074318D02*
X0195133Y0074318D01*
X0195381Y0074917D02*
X0200000Y0074917D01*
X0200000Y0075515D02*
X0195600Y0075515D01*
X0195600Y0076114D02*
X0200000Y0076114D01*
X0200000Y0076712D02*
X0195600Y0076712D01*
X0195536Y0077311D02*
X0200000Y0077311D01*
X0200000Y0077909D02*
X0195288Y0077909D01*
X0195040Y0078508D02*
X0200000Y0078508D01*
X0200000Y0079106D02*
X0194575Y0079106D01*
X0193976Y0079705D02*
X0200000Y0079705D01*
X0200000Y0080303D02*
X0192871Y0080303D01*
X0192394Y0082099D02*
X0200000Y0082099D01*
X0200000Y0081501D02*
X0097700Y0081501D01*
X0097700Y0080902D02*
X0200000Y0080902D01*
X0200000Y0082698D02*
X0193779Y0082698D01*
X0194377Y0083296D02*
X0200000Y0083296D01*
X0200000Y0083895D02*
X0194958Y0083895D01*
X0195206Y0084493D02*
X0200000Y0084493D01*
X0200000Y0085092D02*
X0195454Y0085092D01*
X0195600Y0085690D02*
X0200000Y0085690D01*
X0200000Y0086289D02*
X0195600Y0086289D01*
X0195600Y0086887D02*
X0200000Y0086887D01*
X0200000Y0087486D02*
X0195463Y0087486D01*
X0195215Y0088084D02*
X0200000Y0088084D01*
X0200000Y0088683D02*
X0194967Y0088683D01*
X0194400Y0089281D02*
X0200000Y0089281D01*
X0200000Y0089880D02*
X0193801Y0089880D01*
X0192449Y0090478D02*
X0200000Y0090478D01*
X0200000Y0092274D02*
X0192816Y0092274D01*
X0193953Y0092872D02*
X0200000Y0092872D01*
X0200000Y0093471D02*
X0194552Y0093471D01*
X0195030Y0094069D02*
X0200000Y0094069D01*
X0200000Y0094668D02*
X0195278Y0094668D01*
X0195526Y0095266D02*
X0200000Y0095266D01*
X0200000Y0095865D02*
X0195600Y0095865D01*
X0195600Y0096463D02*
X0200000Y0096463D01*
X0200000Y0097062D02*
X0195600Y0097062D01*
X0195391Y0097660D02*
X0200000Y0097660D01*
X0200000Y0098259D02*
X0195143Y0098259D01*
X0194824Y0098857D02*
X0200000Y0098857D01*
X0200000Y0099456D02*
X0194225Y0099456D01*
X0193473Y0100054D02*
X0200000Y0100054D01*
X0200000Y0100653D02*
X0149198Y0100653D01*
X0148600Y0100054D02*
X0179127Y0100054D01*
X0178375Y0099456D02*
X0148001Y0099456D01*
X0147403Y0098857D02*
X0177776Y0098857D01*
X0177457Y0098259D02*
X0146804Y0098259D01*
X0146206Y0097660D02*
X0177209Y0097660D01*
X0177000Y0097062D02*
X0145607Y0097062D01*
X0145009Y0096463D02*
X0177000Y0096463D01*
X0177000Y0095865D02*
X0144410Y0095865D01*
X0143812Y0095266D02*
X0177074Y0095266D01*
X0177322Y0094668D02*
X0143213Y0094668D01*
X0142615Y0094069D02*
X0177570Y0094069D01*
X0178048Y0093471D02*
X0142016Y0093471D01*
X0141418Y0092872D02*
X0178647Y0092872D01*
X0179784Y0092274D02*
X0140819Y0092274D01*
X0138425Y0089880D02*
X0156001Y0089880D01*
X0155911Y0089281D02*
X0137827Y0089281D01*
X0137439Y0088683D02*
X0155911Y0088683D01*
X0155911Y0088084D02*
X0137439Y0088084D01*
X0136864Y0087486D02*
X0156236Y0087486D01*
X0156834Y0086887D02*
X0136266Y0086887D01*
X0144107Y0100653D02*
X0106019Y0100653D01*
X0106433Y0101251D02*
X0144706Y0101251D01*
X0145304Y0101850D02*
X0106433Y0101850D01*
X0106433Y0102448D02*
X0145903Y0102448D01*
X0146501Y0103047D02*
X0106432Y0103047D01*
X0105833Y0103645D02*
X0147100Y0103645D01*
X0147698Y0104244D02*
X0105235Y0104244D01*
X0105089Y0104842D02*
X0126379Y0104842D01*
X0126810Y0104411D02*
X0128790Y0104411D01*
X0130189Y0105810D01*
X0130189Y0107790D01*
X0128790Y0109189D01*
X0126810Y0109189D01*
X0125411Y0107790D01*
X0125411Y0105810D01*
X0126810Y0104411D01*
X0125780Y0105441D02*
X0105089Y0105441D01*
X0104539Y0106039D02*
X0125411Y0106039D01*
X0125411Y0106638D02*
X0103941Y0106638D01*
X0101459Y0106638D02*
X0067017Y0106638D01*
X0067615Y0107237D02*
X0074985Y0107237D01*
X0075410Y0106811D02*
X0077390Y0106811D01*
X0078789Y0108210D01*
X0078789Y0110190D01*
X0077390Y0111589D01*
X0075410Y0111589D01*
X0074011Y0110190D01*
X0074011Y0108210D01*
X0075410Y0106811D01*
X0074386Y0107835D02*
X0067689Y0107835D01*
X0067689Y0107310D02*
X0067689Y0109290D01*
X0066679Y0110300D01*
X0067689Y0111310D01*
X0067689Y0113290D01*
X0066929Y0114050D01*
X0067689Y0114810D01*
X0067689Y0116790D01*
X0066290Y0118189D01*
X0064310Y0118189D01*
X0062911Y0116790D01*
X0062911Y0114810D01*
X0063671Y0114050D01*
X0062911Y0113290D01*
X0062911Y0111310D01*
X0063921Y0110300D01*
X0062911Y0109290D01*
X0062911Y0107310D01*
X0064310Y0105911D01*
X0066290Y0105911D01*
X0067689Y0107310D01*
X0067689Y0108434D02*
X0074011Y0108434D01*
X0074011Y0109032D02*
X0067689Y0109032D01*
X0067348Y0109631D02*
X0074011Y0109631D01*
X0074051Y0110229D02*
X0066749Y0110229D01*
X0067206Y0110828D02*
X0074649Y0110828D01*
X0075248Y0111426D02*
X0067689Y0111426D01*
X0067689Y0112025D02*
X0155000Y0112025D01*
X0155000Y0112623D02*
X0067689Y0112623D01*
X0067689Y0113222D02*
X0155000Y0113222D01*
X0155000Y0113820D02*
X0067158Y0113820D01*
X0067297Y0114419D02*
X0155000Y0114419D01*
X0155000Y0115017D02*
X0067689Y0115017D01*
X0067689Y0115616D02*
X0155000Y0115616D01*
X0155000Y0116214D02*
X0067689Y0116214D01*
X0067666Y0116813D02*
X0155000Y0116813D01*
X0155000Y0117411D02*
X0074290Y0117411D01*
X0071310Y0117411D02*
X0067067Y0117411D01*
X0066469Y0118010D02*
X0070712Y0118010D01*
X0070411Y0118608D02*
X0042837Y0118608D01*
X0042239Y0119207D02*
X0070411Y0119207D01*
X0070411Y0119805D02*
X0041640Y0119805D01*
X0041042Y0120404D02*
X0070525Y0120404D01*
X0071124Y0121002D02*
X0066881Y0121002D01*
X0067689Y0122798D02*
X0083724Y0122798D01*
X0083125Y0123396D02*
X0067689Y0123396D01*
X0069373Y0123995D02*
X0082811Y0123995D01*
X0082811Y0124593D02*
X0069972Y0124593D01*
X0070570Y0125192D02*
X0082811Y0125192D01*
X0082912Y0125790D02*
X0070689Y0125790D01*
X0070689Y0126389D02*
X0079933Y0126389D01*
X0079334Y0126987D02*
X0070689Y0126987D01*
X0070393Y0127586D02*
X0078811Y0127586D01*
X0078811Y0128184D02*
X0069794Y0128184D01*
X0066806Y0128184D02*
X0038400Y0128184D01*
X0038400Y0127586D02*
X0066207Y0127586D01*
X0065911Y0126987D02*
X0038400Y0126987D01*
X0038400Y0126389D02*
X0065911Y0126389D01*
X0065911Y0125790D02*
X0038400Y0125790D01*
X0038400Y0125192D02*
X0066030Y0125192D01*
X0063715Y0124593D02*
X0038400Y0124593D01*
X0038400Y0123995D02*
X0063116Y0123995D01*
X0062911Y0123396D02*
X0038400Y0123396D01*
X0038648Y0122798D02*
X0062911Y0122798D01*
X0062911Y0122199D02*
X0039246Y0122199D01*
X0039845Y0121601D02*
X0063121Y0121601D01*
X0063719Y0121002D02*
X0040443Y0121002D01*
X0043436Y0118010D02*
X0064131Y0118010D01*
X0063533Y0117411D02*
X0044034Y0117411D01*
X0044633Y0116813D02*
X0062934Y0116813D01*
X0062911Y0116214D02*
X0045231Y0116214D01*
X0045830Y0115616D02*
X0062911Y0115616D01*
X0062911Y0115017D02*
X0046428Y0115017D01*
X0047027Y0114419D02*
X0063303Y0114419D01*
X0063442Y0113820D02*
X0047625Y0113820D01*
X0048224Y0113222D02*
X0062911Y0113222D01*
X0062911Y0112623D02*
X0058355Y0112623D01*
X0057790Y0113189D02*
X0055810Y0113189D01*
X0054411Y0111790D01*
X0054411Y0109810D01*
X0055810Y0108411D01*
X0057790Y0108411D01*
X0059189Y0109810D01*
X0059189Y0111790D01*
X0057790Y0113189D01*
X0058954Y0112025D02*
X0062911Y0112025D01*
X0062911Y0111426D02*
X0059189Y0111426D01*
X0059189Y0110828D02*
X0063394Y0110828D01*
X0063851Y0110229D02*
X0059189Y0110229D01*
X0059009Y0109631D02*
X0063252Y0109631D01*
X0062911Y0109032D02*
X0058411Y0109032D01*
X0057812Y0108434D02*
X0062911Y0108434D01*
X0062911Y0107835D02*
X0053611Y0107835D01*
X0054209Y0107237D02*
X0062985Y0107237D01*
X0063583Y0106638D02*
X0054808Y0106638D01*
X0055406Y0106039D02*
X0064182Y0106039D01*
X0066418Y0106039D02*
X0100861Y0106039D01*
X0100311Y0105441D02*
X0056005Y0105441D01*
X0056603Y0104842D02*
X0100311Y0104842D01*
X0100311Y0104244D02*
X0057202Y0104244D01*
X0055788Y0108434D02*
X0053012Y0108434D01*
X0052414Y0109032D02*
X0055189Y0109032D01*
X0054591Y0109631D02*
X0051815Y0109631D01*
X0051217Y0110229D02*
X0054411Y0110229D01*
X0054411Y0110828D02*
X0050618Y0110828D01*
X0050019Y0111426D02*
X0054411Y0111426D01*
X0054646Y0112025D02*
X0049421Y0112025D01*
X0048822Y0112623D02*
X0055245Y0112623D01*
X0058096Y0098259D02*
X0043220Y0098259D01*
X0043818Y0097660D02*
X0058694Y0097660D01*
X0059293Y0097062D02*
X0044289Y0097062D01*
X0044289Y0096463D02*
X0059891Y0096463D01*
X0060490Y0095865D02*
X0044289Y0095865D01*
X0044289Y0095266D02*
X0061088Y0095266D01*
X0061687Y0094668D02*
X0043746Y0094668D01*
X0043148Y0094069D02*
X0062285Y0094069D01*
X0057696Y0088683D02*
X0067672Y0088683D01*
X0068270Y0088084D02*
X0058294Y0088084D01*
X0058893Y0087486D02*
X0068869Y0087486D01*
X0069467Y0086887D02*
X0058989Y0086887D01*
X0058989Y0086289D02*
X0070066Y0086289D01*
X0070400Y0085954D02*
X0070400Y0085954D01*
X0070664Y0085690D02*
X0058989Y0085690D01*
X0058670Y0085092D02*
X0071263Y0085092D01*
X0080411Y0079106D02*
X0053985Y0079106D01*
X0054289Y0079705D02*
X0080826Y0079705D01*
X0081425Y0080303D02*
X0054289Y0080303D01*
X0054289Y0080902D02*
X0088339Y0080902D01*
X0088339Y0080303D02*
X0088075Y0080303D01*
X0088339Y0081501D02*
X0054178Y0081501D01*
X0053579Y0082099D02*
X0088339Y0082099D01*
X0088339Y0082698D02*
X0052981Y0082698D01*
X0050819Y0082698D02*
X0044189Y0082698D01*
X0044189Y0083296D02*
X0088339Y0083296D01*
X0088339Y0083895D02*
X0044189Y0083895D01*
X0043885Y0084493D02*
X0055128Y0084493D01*
X0054530Y0085092D02*
X0043287Y0085092D01*
X0044636Y0087486D02*
X0002600Y0087486D01*
X0002600Y0088084D02*
X0044037Y0088084D01*
X0043511Y0088683D02*
X0002600Y0088683D01*
X0002600Y0089281D02*
X0043511Y0089281D01*
X0043511Y0089880D02*
X0002600Y0089880D01*
X0002600Y0090478D02*
X0043511Y0090478D01*
X0043998Y0091077D02*
X0002600Y0091077D01*
X0002600Y0091675D02*
X0044597Y0091675D01*
X0044078Y0082099D02*
X0050221Y0082099D01*
X0049622Y0081501D02*
X0043479Y0081501D01*
X0042881Y0080902D02*
X0049511Y0080902D01*
X0053386Y0078508D02*
X0080411Y0078508D01*
X0081009Y0076712D02*
X0079266Y0076712D01*
X0079865Y0076114D02*
X0081608Y0076114D01*
X0080189Y0075515D02*
X0088339Y0075515D01*
X0088339Y0074917D02*
X0080189Y0074917D01*
X0080189Y0074318D02*
X0088339Y0074318D01*
X0088339Y0073720D02*
X0080098Y0073720D01*
X0079500Y0073121D02*
X0088611Y0073121D01*
X0088699Y0072523D02*
X0078901Y0072523D01*
X0083992Y0076114D02*
X0085508Y0076114D01*
X0084909Y0076712D02*
X0084591Y0076712D01*
X0084774Y0079705D02*
X0085126Y0079705D01*
X0085725Y0080303D02*
X0084175Y0080303D01*
X0088292Y0076114D02*
X0088339Y0076114D01*
X0088339Y0084493D02*
X0058072Y0084493D01*
X0077815Y0107237D02*
X0125411Y0107237D01*
X0125456Y0107835D02*
X0078414Y0107835D01*
X0078789Y0108434D02*
X0126055Y0108434D01*
X0126654Y0109032D02*
X0078789Y0109032D01*
X0078789Y0109631D02*
X0153085Y0109631D01*
X0153683Y0110229D02*
X0078749Y0110229D01*
X0078151Y0110828D02*
X0154282Y0110828D01*
X0154880Y0111426D02*
X0077552Y0111426D01*
X0082467Y0126389D02*
X0083510Y0126389D01*
X0083066Y0126987D02*
X0084109Y0126987D01*
X0079900Y0130578D02*
X0038400Y0130578D01*
X0038400Y0129980D02*
X0079301Y0129980D01*
X0078811Y0129381D02*
X0038400Y0129381D01*
X0038400Y0128783D02*
X0078811Y0128783D01*
X0072390Y0153411D02*
X0070410Y0153411D01*
X0069011Y0154810D01*
X0069011Y0156790D01*
X0070410Y0158189D01*
X0072390Y0158189D01*
X0073789Y0156790D01*
X0073789Y0154810D01*
X0072390Y0153411D01*
X0072899Y0153920D02*
X0134200Y0153920D01*
X0134200Y0153322D02*
X0002600Y0153322D01*
X0002600Y0153920D02*
X0069901Y0153920D01*
X0069303Y0154519D02*
X0002600Y0154519D01*
X0002600Y0155117D02*
X0069011Y0155117D01*
X0069011Y0155716D02*
X0002600Y0155716D01*
X0002600Y0156314D02*
X0069011Y0156314D01*
X0069134Y0156913D02*
X0002600Y0156913D01*
X0002600Y0157511D02*
X0069733Y0157511D01*
X0070331Y0158110D02*
X0002600Y0158110D01*
X0002600Y0158708D02*
X0134200Y0158708D01*
X0134200Y0158110D02*
X0072469Y0158110D01*
X0073067Y0157511D02*
X0134200Y0157511D01*
X0134200Y0156913D02*
X0073666Y0156913D01*
X0073789Y0156314D02*
X0134200Y0156314D01*
X0134200Y0155716D02*
X0073789Y0155716D01*
X0073789Y0155117D02*
X0134200Y0155117D01*
X0134200Y0154519D02*
X0073497Y0154519D01*
X0066790Y0170511D02*
X0064810Y0170511D01*
X0063411Y0171910D01*
X0063411Y0173890D01*
X0064810Y0175289D01*
X0066790Y0175289D01*
X0068189Y0173890D01*
X0068189Y0171910D01*
X0066790Y0170511D01*
X0066957Y0170679D02*
X0134200Y0170679D01*
X0134200Y0171277D02*
X0130795Y0171277D01*
X0131772Y0171876D02*
X0134200Y0171876D01*
X0134200Y0172474D02*
X0132362Y0172474D01*
X0132609Y0173073D02*
X0134200Y0173073D01*
X0134200Y0173671D02*
X0132850Y0173671D01*
X0132850Y0174270D02*
X0134200Y0174270D01*
X0134200Y0174868D02*
X0132850Y0174868D01*
X0132634Y0175467D02*
X0134200Y0175467D01*
X0134200Y0176065D02*
X0132387Y0176065D01*
X0131832Y0176664D02*
X0134191Y0176664D01*
X0133592Y0177262D02*
X0132159Y0177262D01*
X0132044Y0181452D02*
X0177971Y0181452D01*
X0178204Y0180890D02*
X0180890Y0178204D01*
X0184400Y0176750D01*
X0188200Y0176750D01*
X0191710Y0178204D01*
X0194396Y0180890D01*
X0195850Y0184400D01*
X0195850Y0188200D01*
X0194396Y0191710D01*
X0191710Y0194396D01*
X0188200Y0195850D01*
X0184400Y0195850D01*
X0180890Y0194396D01*
X0178204Y0191710D01*
X0176750Y0188200D01*
X0176750Y0184400D01*
X0178204Y0180890D01*
X0178241Y0180853D02*
X0135092Y0180853D01*
X0135691Y0180255D02*
X0178839Y0180255D01*
X0179438Y0179656D02*
X0136289Y0179656D01*
X0136888Y0179058D02*
X0180036Y0179058D01*
X0180635Y0178459D02*
X0137486Y0178459D01*
X0137800Y0177861D02*
X0181719Y0177861D01*
X0183164Y0177262D02*
X0137800Y0177262D01*
X0137800Y0176664D02*
X0200000Y0176664D01*
X0200000Y0177262D02*
X0189436Y0177262D01*
X0190881Y0177861D02*
X0200000Y0177861D01*
X0200000Y0178459D02*
X0191965Y0178459D01*
X0192564Y0179058D02*
X0200000Y0179058D01*
X0200000Y0179656D02*
X0193162Y0179656D01*
X0193761Y0180255D02*
X0200000Y0180255D01*
X0200000Y0180853D02*
X0194359Y0180853D01*
X0194629Y0181452D02*
X0200000Y0181452D01*
X0200000Y0182050D02*
X0194877Y0182050D01*
X0195125Y0182649D02*
X0200000Y0182649D01*
X0200000Y0183247D02*
X0195372Y0183247D01*
X0195620Y0183846D02*
X0200000Y0183846D01*
X0200000Y0184444D02*
X0195850Y0184444D01*
X0195850Y0185043D02*
X0200000Y0185043D01*
X0200000Y0185641D02*
X0195850Y0185641D01*
X0195850Y0186240D02*
X0200000Y0186240D01*
X0199965Y0186839D02*
X0195850Y0186839D01*
X0195850Y0187437D02*
X0199925Y0187437D01*
X0199886Y0188036D02*
X0195850Y0188036D01*
X0195670Y0188634D02*
X0199737Y0188634D01*
X0199576Y0189233D02*
X0195422Y0189233D01*
X0195174Y0189831D02*
X0199416Y0189831D01*
X0199255Y0190430D02*
X0194926Y0190430D01*
X0194678Y0191028D02*
X0199095Y0191028D01*
X0198909Y0191627D02*
X0194430Y0191627D01*
X0193881Y0192225D02*
X0198563Y0192225D01*
X0198218Y0192824D02*
X0193282Y0192824D01*
X0192684Y0193422D02*
X0197872Y0193422D01*
X0197527Y0194021D02*
X0192085Y0194021D01*
X0191171Y0194619D02*
X0197181Y0194619D01*
X0196591Y0195218D02*
X0189726Y0195218D01*
X0188281Y0195816D02*
X0195993Y0195816D01*
X0195394Y0196415D02*
X0007206Y0196415D01*
X0007804Y0197013D02*
X0194796Y0197013D01*
X0193873Y0197612D02*
X0008727Y0197612D01*
X0009764Y0198210D02*
X0192836Y0198210D01*
X0191800Y0198809D02*
X0010800Y0198809D01*
X0012737Y0199407D02*
X0189863Y0199407D01*
X0184319Y0195816D02*
X0018281Y0195816D01*
X0018200Y0195850D02*
X0014400Y0195850D01*
X0010890Y0194396D01*
X0008204Y0191710D01*
X0006750Y0188200D01*
X0006750Y0184400D01*
X0008204Y0180890D01*
X0010890Y0178204D01*
X0014400Y0176750D01*
X0018200Y0176750D01*
X0021710Y0178204D01*
X0024396Y0180890D01*
X0025850Y0184400D01*
X0025850Y0188200D01*
X0024396Y0191710D01*
X0021710Y0194396D01*
X0018200Y0195850D01*
X0019726Y0195218D02*
X0182874Y0195218D01*
X0181429Y0194619D02*
X0021171Y0194619D01*
X0022085Y0194021D02*
X0180515Y0194021D01*
X0179916Y0193422D02*
X0022684Y0193422D01*
X0023282Y0192824D02*
X0179318Y0192824D01*
X0178719Y0192225D02*
X0023881Y0192225D01*
X0024430Y0191627D02*
X0130159Y0191627D01*
X0130410Y0191878D02*
X0129011Y0190479D01*
X0129011Y0188499D01*
X0130410Y0187100D01*
X0132390Y0187100D01*
X0133789Y0188499D01*
X0133789Y0190479D01*
X0132390Y0191878D01*
X0130410Y0191878D01*
X0129561Y0191028D02*
X0024678Y0191028D01*
X0024926Y0190430D02*
X0129011Y0190430D01*
X0129011Y0189831D02*
X0025174Y0189831D01*
X0025422Y0189233D02*
X0129011Y0189233D01*
X0129011Y0188634D02*
X0025670Y0188634D01*
X0025850Y0188036D02*
X0039657Y0188036D01*
X0040210Y0188589D02*
X0038811Y0187190D01*
X0038811Y0185210D01*
X0040210Y0183811D01*
X0042190Y0183811D01*
X0043589Y0185210D01*
X0043589Y0187190D01*
X0042190Y0188589D01*
X0040210Y0188589D01*
X0039059Y0187437D02*
X0025850Y0187437D01*
X0025850Y0186839D02*
X0038811Y0186839D01*
X0038811Y0186240D02*
X0025850Y0186240D01*
X0025850Y0185641D02*
X0038811Y0185641D01*
X0038978Y0185043D02*
X0025850Y0185043D01*
X0025850Y0184444D02*
X0039577Y0184444D01*
X0040176Y0183846D02*
X0025620Y0183846D01*
X0025372Y0183247D02*
X0177228Y0183247D01*
X0177475Y0182649D02*
X0025125Y0182649D01*
X0024877Y0182050D02*
X0107754Y0182050D01*
X0107156Y0181452D02*
X0024629Y0181452D01*
X0024359Y0180853D02*
X0106726Y0180853D01*
X0106478Y0180255D02*
X0023761Y0180255D01*
X0023162Y0179656D02*
X0106350Y0179656D01*
X0106350Y0179058D02*
X0022564Y0179058D01*
X0021965Y0178459D02*
X0106430Y0178459D01*
X0106678Y0177861D02*
X0020881Y0177861D01*
X0019436Y0177262D02*
X0107041Y0177262D01*
X0107368Y0176664D02*
X0002600Y0176664D01*
X0002600Y0177262D02*
X0013164Y0177262D01*
X0011719Y0177861D02*
X0002600Y0177861D01*
X0002600Y0178459D02*
X0010635Y0178459D01*
X0010036Y0179058D02*
X0002600Y0179058D01*
X0002600Y0179656D02*
X0009438Y0179656D01*
X0008839Y0180255D02*
X0002600Y0180255D01*
X0002600Y0180853D02*
X0008241Y0180853D01*
X0007971Y0181452D02*
X0002600Y0181452D01*
X0002600Y0182050D02*
X0007723Y0182050D01*
X0007475Y0182649D02*
X0002600Y0182649D01*
X0002600Y0183247D02*
X0007228Y0183247D01*
X0006980Y0183846D02*
X0002600Y0183846D01*
X0002600Y0184444D02*
X0006750Y0184444D01*
X0006750Y0185043D02*
X0002600Y0185043D01*
X0002600Y0185641D02*
X0006750Y0185641D01*
X0006750Y0186240D02*
X0002600Y0186240D01*
X0002635Y0186839D02*
X0006750Y0186839D01*
X0006750Y0187437D02*
X0002675Y0187437D01*
X0002714Y0188036D02*
X0006750Y0188036D01*
X0006930Y0188634D02*
X0002863Y0188634D01*
X0003024Y0189233D02*
X0007178Y0189233D01*
X0007426Y0189831D02*
X0003184Y0189831D01*
X0003345Y0190430D02*
X0007674Y0190430D01*
X0007922Y0191028D02*
X0003505Y0191028D01*
X0003643Y0191543D02*
X0003643Y0191543D01*
X0003691Y0191627D02*
X0008170Y0191627D01*
X0008719Y0192225D02*
X0004037Y0192225D01*
X0004382Y0192824D02*
X0009318Y0192824D01*
X0009916Y0193422D02*
X0004728Y0193422D01*
X0005073Y0194021D02*
X0010515Y0194021D01*
X0011429Y0194619D02*
X0005419Y0194619D01*
X0006009Y0195218D02*
X0012874Y0195218D01*
X0014319Y0195816D02*
X0006607Y0195816D01*
X0002600Y0176065D02*
X0106813Y0176065D01*
X0106566Y0175467D02*
X0002600Y0175467D01*
X0002600Y0174868D02*
X0064390Y0174868D01*
X0063791Y0174270D02*
X0002600Y0174270D01*
X0002600Y0173671D02*
X0063411Y0173671D01*
X0063411Y0173073D02*
X0002600Y0173073D01*
X0002600Y0172474D02*
X0063411Y0172474D01*
X0063446Y0171876D02*
X0002600Y0171876D01*
X0002600Y0171277D02*
X0064044Y0171277D01*
X0064643Y0170679D02*
X0002600Y0170679D01*
X0002600Y0170080D02*
X0134200Y0170080D01*
X0134200Y0169482D02*
X0002600Y0169482D01*
X0002600Y0168883D02*
X0134200Y0168883D01*
X0134200Y0168285D02*
X0002600Y0168285D01*
X0002600Y0167686D02*
X0134200Y0167686D01*
X0134200Y0167088D02*
X0002600Y0167088D01*
X0002600Y0166489D02*
X0134200Y0166489D01*
X0134200Y0165891D02*
X0002600Y0165891D01*
X0002600Y0165292D02*
X0134200Y0165292D01*
X0134200Y0164694D02*
X0002600Y0164694D01*
X0002600Y0164095D02*
X0134200Y0164095D01*
X0134200Y0163497D02*
X0002600Y0163497D01*
X0002600Y0162898D02*
X0134200Y0162898D01*
X0134200Y0162300D02*
X0002600Y0162300D01*
X0002600Y0161701D02*
X0134200Y0161701D01*
X0134200Y0161103D02*
X0002600Y0161103D01*
X0002600Y0160504D02*
X0134200Y0160504D01*
X0134200Y0159905D02*
X0002600Y0159905D01*
X0002600Y0159307D02*
X0134200Y0159307D01*
X0137800Y0159307D02*
X0200000Y0159307D01*
X0200000Y0159905D02*
X0137800Y0159905D01*
X0137800Y0160504D02*
X0152017Y0160504D01*
X0152310Y0160211D02*
X0154290Y0160211D01*
X0155689Y0161610D01*
X0155689Y0163590D01*
X0154290Y0164989D01*
X0152310Y0164989D01*
X0150911Y0163590D01*
X0150911Y0161610D01*
X0152310Y0160211D01*
X0151419Y0161103D02*
X0137800Y0161103D01*
X0137800Y0161701D02*
X0150911Y0161701D01*
X0150911Y0162300D02*
X0137800Y0162300D01*
X0137800Y0162898D02*
X0150911Y0162898D01*
X0150911Y0163497D02*
X0137800Y0163497D01*
X0137800Y0164095D02*
X0151417Y0164095D01*
X0152015Y0164694D02*
X0137800Y0164694D01*
X0137800Y0165292D02*
X0200000Y0165292D01*
X0200000Y0164694D02*
X0154585Y0164694D01*
X0155183Y0164095D02*
X0200000Y0164095D01*
X0200000Y0163497D02*
X0155689Y0163497D01*
X0155689Y0162898D02*
X0200000Y0162898D01*
X0200000Y0162300D02*
X0155689Y0162300D01*
X0155689Y0161701D02*
X0200000Y0161701D01*
X0200000Y0161103D02*
X0155181Y0161103D01*
X0154583Y0160504D02*
X0200000Y0160504D01*
X0200000Y0158708D02*
X0137800Y0158708D01*
X0137800Y0158110D02*
X0200000Y0158110D01*
X0200000Y0157511D02*
X0137800Y0157511D01*
X0137800Y0156913D02*
X0200000Y0156913D01*
X0200000Y0156314D02*
X0137800Y0156314D01*
X0137800Y0155716D02*
X0200000Y0155716D01*
X0200000Y0155117D02*
X0137800Y0155117D01*
X0137800Y0154519D02*
X0200000Y0154519D01*
X0200000Y0153920D02*
X0137800Y0153920D01*
X0137800Y0153322D02*
X0200000Y0153322D01*
X0200000Y0150329D02*
X0192809Y0150329D01*
X0193950Y0149731D02*
X0200000Y0149731D01*
X0200000Y0149132D02*
X0194549Y0149132D01*
X0195029Y0148534D02*
X0200000Y0148534D01*
X0200000Y0147935D02*
X0195277Y0147935D01*
X0195525Y0147337D02*
X0200000Y0147337D01*
X0200000Y0146738D02*
X0195600Y0146738D01*
X0195600Y0146140D02*
X0200000Y0146140D01*
X0200000Y0145541D02*
X0195600Y0145541D01*
X0195392Y0144943D02*
X0200000Y0144943D01*
X0200000Y0144344D02*
X0195144Y0144344D01*
X0194827Y0143746D02*
X0200000Y0143746D01*
X0200000Y0143147D02*
X0194228Y0143147D01*
X0193480Y0142549D02*
X0200000Y0142549D01*
X0200000Y0141950D02*
X0158600Y0141950D01*
X0158600Y0141352D02*
X0200000Y0141352D01*
X0200000Y0140753D02*
X0158600Y0140753D01*
X0158600Y0140155D02*
X0179369Y0140155D01*
X0178475Y0139556D02*
X0158600Y0139556D01*
X0158600Y0138958D02*
X0177876Y0138958D01*
X0177499Y0138359D02*
X0158600Y0138359D01*
X0158600Y0137761D02*
X0177251Y0137761D01*
X0177003Y0137162D02*
X0158600Y0137162D01*
X0158600Y0136564D02*
X0177000Y0136564D01*
X0177000Y0135965D02*
X0158600Y0135965D01*
X0158600Y0135367D02*
X0177032Y0135367D01*
X0177280Y0134768D02*
X0158600Y0134768D01*
X0158600Y0134170D02*
X0177528Y0134170D01*
X0177948Y0133571D02*
X0158600Y0133571D01*
X0158600Y0132972D02*
X0178546Y0132972D01*
X0179542Y0132374D02*
X0158600Y0132374D01*
X0158600Y0131775D02*
X0200000Y0131775D01*
X0200000Y0131177D02*
X0158600Y0131177D01*
X0158600Y0130578D02*
X0180393Y0130578D01*
X0178948Y0129980D02*
X0158600Y0129980D01*
X0158600Y0129381D02*
X0178300Y0129381D01*
X0177702Y0128783D02*
X0158600Y0128783D01*
X0158794Y0128184D02*
X0177426Y0128184D01*
X0177178Y0127586D02*
X0159189Y0127586D01*
X0159189Y0126987D02*
X0177000Y0126987D01*
X0177000Y0126389D02*
X0159189Y0126389D01*
X0159169Y0125790D02*
X0177000Y0125790D01*
X0177105Y0125192D02*
X0158600Y0125192D01*
X0158600Y0124593D02*
X0177353Y0124593D01*
X0177601Y0123995D02*
X0158600Y0123995D01*
X0158600Y0123396D02*
X0178123Y0123396D01*
X0178721Y0122798D02*
X0158600Y0122798D01*
X0158600Y0122199D02*
X0179964Y0122199D01*
X0179971Y0120404D02*
X0158600Y0120404D01*
X0158600Y0121002D02*
X0200000Y0121002D01*
X0200000Y0120404D02*
X0192629Y0120404D01*
X0193876Y0119805D02*
X0200000Y0119805D01*
X0200000Y0119207D02*
X0194474Y0119207D01*
X0194998Y0118608D02*
X0200000Y0118608D01*
X0200000Y0118010D02*
X0195246Y0118010D01*
X0195494Y0117411D02*
X0200000Y0117411D01*
X0200000Y0116813D02*
X0195600Y0116813D01*
X0195600Y0116214D02*
X0200000Y0116214D01*
X0200000Y0115616D02*
X0195600Y0115616D01*
X0195423Y0115017D02*
X0200000Y0115017D01*
X0200000Y0114419D02*
X0195175Y0114419D01*
X0194901Y0113820D02*
X0200000Y0113820D01*
X0200000Y0113222D02*
X0194303Y0113222D01*
X0193660Y0112623D02*
X0200000Y0112623D01*
X0200000Y0112025D02*
X0192215Y0112025D01*
X0193051Y0110229D02*
X0200000Y0110229D01*
X0200000Y0109631D02*
X0194051Y0109631D01*
X0194649Y0109032D02*
X0200000Y0109032D01*
X0200000Y0108434D02*
X0195071Y0108434D01*
X0195318Y0107835D02*
X0200000Y0107835D01*
X0200000Y0107237D02*
X0195566Y0107237D01*
X0195600Y0106638D02*
X0200000Y0106638D01*
X0200000Y0106039D02*
X0195600Y0106039D01*
X0195598Y0105441D02*
X0200000Y0105441D01*
X0200000Y0104842D02*
X0195351Y0104842D01*
X0195103Y0104244D02*
X0200000Y0104244D01*
X0200000Y0103645D02*
X0194727Y0103645D01*
X0194128Y0103047D02*
X0200000Y0103047D01*
X0200000Y0102448D02*
X0193238Y0102448D01*
X0200000Y0101850D02*
X0150395Y0101850D01*
X0149797Y0101251D02*
X0200000Y0101251D01*
X0200000Y0110828D02*
X0158600Y0110828D01*
X0158600Y0111426D02*
X0200000Y0111426D01*
X0200000Y0121601D02*
X0158600Y0121601D01*
X0158600Y0119805D02*
X0178724Y0119805D01*
X0178126Y0119207D02*
X0158600Y0119207D01*
X0158600Y0118608D02*
X0177602Y0118608D01*
X0177354Y0118010D02*
X0158600Y0118010D01*
X0158600Y0117411D02*
X0177106Y0117411D01*
X0177000Y0116813D02*
X0158600Y0116813D01*
X0158600Y0116214D02*
X0177000Y0116214D01*
X0177000Y0115616D02*
X0158600Y0115616D01*
X0158600Y0115017D02*
X0177177Y0115017D01*
X0177425Y0114419D02*
X0158600Y0114419D01*
X0158600Y0113820D02*
X0177699Y0113820D01*
X0178297Y0113222D02*
X0158600Y0113222D01*
X0158600Y0112623D02*
X0178940Y0112623D01*
X0180385Y0112025D02*
X0158600Y0112025D01*
X0158600Y0110229D02*
X0179549Y0110229D01*
X0178549Y0109631D02*
X0158176Y0109631D01*
X0157578Y0109032D02*
X0177951Y0109032D01*
X0177529Y0108434D02*
X0156979Y0108434D01*
X0156381Y0107835D02*
X0177282Y0107835D01*
X0177034Y0107237D02*
X0155782Y0107237D01*
X0155184Y0106638D02*
X0177000Y0106638D01*
X0177000Y0106039D02*
X0154585Y0106039D01*
X0153987Y0105441D02*
X0177002Y0105441D01*
X0177249Y0104842D02*
X0153388Y0104842D01*
X0152790Y0104244D02*
X0177497Y0104244D01*
X0177873Y0103645D02*
X0152191Y0103645D01*
X0151593Y0103047D02*
X0178472Y0103047D01*
X0179362Y0102448D02*
X0150994Y0102448D01*
X0148297Y0104842D02*
X0129221Y0104842D01*
X0129819Y0105441D02*
X0148895Y0105441D01*
X0149494Y0106039D02*
X0130189Y0106039D01*
X0130189Y0106638D02*
X0150092Y0106638D01*
X0150691Y0107237D02*
X0130189Y0107237D01*
X0130143Y0107835D02*
X0151289Y0107835D01*
X0151888Y0108434D02*
X0129545Y0108434D01*
X0128946Y0109032D02*
X0152486Y0109032D01*
X0154411Y0127586D02*
X0149864Y0127586D01*
X0150463Y0128184D02*
X0154806Y0128184D01*
X0155000Y0128783D02*
X0151061Y0128783D01*
X0151189Y0129381D02*
X0155000Y0129381D01*
X0155000Y0129980D02*
X0151189Y0129980D01*
X0151189Y0130578D02*
X0155000Y0130578D01*
X0155000Y0131177D02*
X0150902Y0131177D01*
X0150303Y0131775D02*
X0155000Y0131775D01*
X0158600Y0142549D02*
X0179120Y0142549D01*
X0178372Y0143147D02*
X0158600Y0143147D01*
X0158600Y0143746D02*
X0177773Y0143746D01*
X0177456Y0144344D02*
X0158600Y0144344D01*
X0158600Y0144943D02*
X0177208Y0144943D01*
X0177000Y0145541D02*
X0158600Y0145541D01*
X0158600Y0146140D02*
X0177000Y0146140D01*
X0177000Y0146738D02*
X0158600Y0146738D01*
X0158600Y0147337D02*
X0177075Y0147337D01*
X0177323Y0147935D02*
X0158210Y0147935D01*
X0157612Y0148534D02*
X0177571Y0148534D01*
X0178051Y0149132D02*
X0157013Y0149132D01*
X0156415Y0149731D02*
X0178650Y0149731D01*
X0193231Y0140155D02*
X0200000Y0140155D01*
X0200000Y0139556D02*
X0194125Y0139556D01*
X0194723Y0138958D02*
X0200000Y0138958D01*
X0200000Y0138359D02*
X0195101Y0138359D01*
X0195349Y0137761D02*
X0200000Y0137761D01*
X0200000Y0137162D02*
X0195597Y0137162D01*
X0195600Y0136564D02*
X0200000Y0136564D01*
X0200000Y0135965D02*
X0195600Y0135965D01*
X0195568Y0135367D02*
X0200000Y0135367D01*
X0200000Y0134768D02*
X0195320Y0134768D01*
X0195072Y0134170D02*
X0200000Y0134170D01*
X0200000Y0133571D02*
X0194652Y0133571D01*
X0194054Y0132972D02*
X0200000Y0132972D01*
X0200000Y0132374D02*
X0193058Y0132374D01*
X0192207Y0130578D02*
X0200000Y0130578D01*
X0200000Y0129980D02*
X0193652Y0129980D01*
X0194300Y0129381D02*
X0200000Y0129381D01*
X0200000Y0128783D02*
X0194898Y0128783D01*
X0195174Y0128184D02*
X0200000Y0128184D01*
X0200000Y0127586D02*
X0195422Y0127586D01*
X0195600Y0126987D02*
X0200000Y0126987D01*
X0200000Y0126389D02*
X0195600Y0126389D01*
X0195600Y0125790D02*
X0200000Y0125790D01*
X0200000Y0125192D02*
X0195495Y0125192D01*
X0195247Y0124593D02*
X0200000Y0124593D01*
X0200000Y0123995D02*
X0194999Y0123995D01*
X0194477Y0123396D02*
X0200000Y0123396D01*
X0200000Y0122798D02*
X0193879Y0122798D01*
X0192636Y0122199D02*
X0200000Y0122199D01*
X0200000Y0165891D02*
X0137800Y0165891D01*
X0137800Y0166489D02*
X0200000Y0166489D01*
X0200000Y0167088D02*
X0137800Y0167088D01*
X0137800Y0167686D02*
X0200000Y0167686D01*
X0200000Y0168285D02*
X0137800Y0168285D01*
X0137800Y0168883D02*
X0200000Y0168883D01*
X0200000Y0169482D02*
X0137800Y0169482D01*
X0137800Y0170080D02*
X0200000Y0170080D01*
X0200000Y0170679D02*
X0137800Y0170679D01*
X0137800Y0171277D02*
X0200000Y0171277D01*
X0200000Y0171876D02*
X0137800Y0171876D01*
X0137800Y0172474D02*
X0200000Y0172474D01*
X0200000Y0173073D02*
X0137800Y0173073D01*
X0137800Y0173671D02*
X0200000Y0173671D01*
X0200000Y0174270D02*
X0137800Y0174270D01*
X0137800Y0174868D02*
X0200000Y0174868D01*
X0200000Y0175467D02*
X0137800Y0175467D01*
X0137800Y0176065D02*
X0200000Y0176065D01*
X0177723Y0182050D02*
X0131446Y0182050D01*
X0127754Y0182050D02*
X0126446Y0182050D01*
X0127044Y0181452D02*
X0127156Y0181452D01*
X0122754Y0182050D02*
X0121446Y0182050D01*
X0122044Y0181452D02*
X0122156Y0181452D01*
X0117754Y0182050D02*
X0116446Y0182050D01*
X0117044Y0181452D02*
X0117156Y0181452D01*
X0112754Y0182050D02*
X0111446Y0182050D01*
X0112044Y0181452D02*
X0112156Y0181452D01*
X0106350Y0174868D02*
X0067210Y0174868D01*
X0067809Y0174270D02*
X0106350Y0174270D01*
X0106350Y0173671D02*
X0068189Y0173671D01*
X0068189Y0173073D02*
X0106591Y0173073D01*
X0106838Y0172474D02*
X0068189Y0172474D01*
X0068154Y0171876D02*
X0107428Y0171876D01*
X0108405Y0171277D02*
X0067556Y0171277D01*
X0043421Y0185043D02*
X0176750Y0185043D01*
X0176750Y0185641D02*
X0149320Y0185641D01*
X0148890Y0185211D02*
X0150289Y0186610D01*
X0150289Y0188590D01*
X0148890Y0189989D01*
X0146910Y0189989D01*
X0145511Y0188590D01*
X0145511Y0186610D01*
X0146910Y0185211D01*
X0148890Y0185211D01*
X0149919Y0186240D02*
X0176750Y0186240D01*
X0176750Y0186839D02*
X0150289Y0186839D01*
X0150289Y0187437D02*
X0176750Y0187437D01*
X0176750Y0188036D02*
X0150289Y0188036D01*
X0150244Y0188634D02*
X0176930Y0188634D01*
X0177178Y0189233D02*
X0149646Y0189233D01*
X0149047Y0189831D02*
X0177426Y0189831D01*
X0177674Y0190430D02*
X0133789Y0190430D01*
X0133789Y0189831D02*
X0146753Y0189831D01*
X0146154Y0189233D02*
X0133789Y0189233D01*
X0133789Y0188634D02*
X0145556Y0188634D01*
X0145511Y0188036D02*
X0133325Y0188036D01*
X0132727Y0187437D02*
X0145511Y0187437D01*
X0145511Y0186839D02*
X0043589Y0186839D01*
X0043589Y0186240D02*
X0145881Y0186240D01*
X0146480Y0185641D02*
X0043589Y0185641D01*
X0042823Y0184444D02*
X0176750Y0184444D01*
X0176980Y0183846D02*
X0042224Y0183846D01*
X0043341Y0187437D02*
X0130073Y0187437D01*
X0129475Y0188036D02*
X0042743Y0188036D01*
X0002600Y0152723D02*
X0134200Y0152723D01*
X0134200Y0152125D02*
X0002600Y0152125D01*
X0002600Y0151526D02*
X0134200Y0151526D01*
X0134200Y0150928D02*
X0002600Y0150928D01*
X0002600Y0150329D02*
X0134200Y0150329D01*
X0134200Y0149731D02*
X0002600Y0149731D01*
X0002600Y0149132D02*
X0134200Y0149132D01*
X0134200Y0148534D02*
X0002600Y0148534D01*
X0002600Y0147935D02*
X0134200Y0147935D01*
X0134200Y0147337D02*
X0002600Y0147337D01*
X0002600Y0146738D02*
X0134200Y0146738D01*
X0134200Y0146140D02*
X0002600Y0146140D01*
X0037621Y0138958D02*
X0109011Y0138958D01*
X0109011Y0138359D02*
X0038219Y0138359D01*
X0038818Y0137761D02*
X0109011Y0137761D01*
X0109011Y0137162D02*
X0038989Y0137162D01*
X0038989Y0136564D02*
X0109558Y0136564D01*
X0110156Y0135965D02*
X0038989Y0135965D01*
X0110795Y0171277D02*
X0113405Y0171277D01*
X0112428Y0171876D02*
X0111772Y0171876D01*
X0115795Y0171277D02*
X0118405Y0171277D01*
X0117428Y0171876D02*
X0116772Y0171876D01*
X0120795Y0171277D02*
X0123405Y0171277D01*
X0122428Y0171876D02*
X0121772Y0171876D01*
X0125795Y0171277D02*
X0128405Y0171277D01*
X0127428Y0171876D02*
X0126772Y0171876D01*
X0133239Y0191028D02*
X0177922Y0191028D01*
X0178170Y0191627D02*
X0132641Y0191627D01*
X0119689Y0071924D02*
X0200000Y0071924D01*
X0200000Y0071326D02*
X0119104Y0071326D01*
X0111775Y0040203D02*
X0200000Y0040203D01*
X0200000Y0039605D02*
X0112289Y0039605D01*
X0112289Y0039006D02*
X0200000Y0039006D01*
X0200000Y0038408D02*
X0112289Y0038408D01*
X0112289Y0037809D02*
X0200000Y0037809D01*
X0200000Y0037211D02*
X0111789Y0037211D01*
D14*
X0109900Y0038700D03*
X0092000Y0041100D03*
X0075600Y0047300D03*
X0059400Y0034900D03*
X0066700Y0029500D03*
X0065700Y0023300D03*
X0050800Y0032400D03*
X0038100Y0039000D03*
X0046200Y0047700D03*
X0053600Y0062300D03*
X0068000Y0070000D03*
X0077800Y0074800D03*
X0082800Y0078300D03*
X0086900Y0078100D03*
X0091000Y0073600D03*
X0101600Y0075600D03*
X0108300Y0070200D03*
X0117300Y0072900D03*
X0135050Y0089050D03*
X0127800Y0090800D03*
X0124800Y0094800D03*
X0127800Y0106800D03*
X0137000Y0120300D03*
X0148800Y0129900D03*
X0156800Y0126800D03*
X0153400Y0150200D03*
X0153300Y0162600D03*
X0129200Y0143000D03*
X0126300Y0135300D03*
X0111400Y0138100D03*
X0113300Y0127300D03*
X0101800Y0126800D03*
X0085200Y0124700D03*
X0081200Y0128500D03*
X0072800Y0119300D03*
X0065300Y0115800D03*
X0065300Y0112300D03*
X0065300Y0108300D03*
X0056800Y0110800D03*
X0065300Y0122800D03*
X0068300Y0126300D03*
X0076400Y0109200D03*
X0096600Y0101500D03*
X0102700Y0104500D03*
X0104044Y0102056D03*
X0070900Y0082600D03*
X0066200Y0086600D03*
X0056600Y0086400D03*
X0051900Y0080400D03*
X0041800Y0083200D03*
X0045900Y0089600D03*
X0041900Y0096200D03*
X0033400Y0082300D03*
X0024800Y0081800D03*
X0033246Y0064100D03*
X0025500Y0035100D03*
X0045700Y0010200D03*
X0134800Y0043800D03*
X0158300Y0088800D03*
X0071400Y0155800D03*
X0065800Y0172900D03*
X0065600Y0186800D03*
X0041200Y0186200D03*
X0036600Y0136600D03*
X0131400Y0189489D03*
X0147900Y0187600D03*
D15*
X0186300Y0186300D03*
X0016300Y0186300D03*
X0016300Y0016300D03*
X0186300Y0016300D03*
D16*
X0135050Y0089050D02*
X0156800Y0110800D01*
X0156800Y0126800D01*
X0156800Y0146800D01*
X0153400Y0150200D01*
X0136000Y0177400D02*
X0136000Y0121300D01*
X0137000Y0120300D01*
X0096600Y0101500D02*
X0095900Y0100800D01*
X0095900Y0045000D01*
X0092000Y0041100D01*
X0091000Y0073600D02*
X0090139Y0074461D01*
X0090139Y0086700D01*
X0072200Y0086700D01*
X0036600Y0122300D01*
X0036600Y0136600D01*
X0129600Y0179300D02*
X0134100Y0179300D01*
X0136000Y0177400D01*
M02*
