G75*
%MOIN*%
%OFA0B0*%
%FSLAX25Y25*%
%IPPOS*%
%LPD*%
%AMOC8*
5,1,8,0,0,1.08239X$1,22.5*
%
%ADD10C,0.00000*%
%ADD11C,0.03900*%
%ADD12C,0.06000*%
%ADD13C,0.02178*%
%ADD14C,0.16500*%
%ADD15C,0.04000*%
%ADD16C,0.01000*%
%ADD17C,0.00600*%
D10*
X0015800Y0001300D02*
X0185800Y0001300D01*
X0186169Y0001298D01*
X0186537Y0001306D01*
X0186905Y0001322D01*
X0187273Y0001347D01*
X0187640Y0001381D01*
X0188006Y0001424D01*
X0188371Y0001476D01*
X0188735Y0001536D01*
X0189097Y0001605D01*
X0189457Y0001683D01*
X0189815Y0001770D01*
X0190171Y0001865D01*
X0190525Y0001969D01*
X0190876Y0002082D01*
X0191224Y0002202D01*
X0191569Y0002332D01*
X0191911Y0002469D01*
X0192250Y0002615D01*
X0192585Y0002769D01*
X0192916Y0002931D01*
X0193243Y0003101D01*
X0193566Y0003278D01*
X0193884Y0003464D01*
X0194198Y0003657D01*
X0194507Y0003858D01*
X0194811Y0004066D01*
X0195111Y0004281D01*
X0195404Y0004503D01*
X0195693Y0004733D01*
X0195975Y0004969D01*
X0196252Y0005213D01*
X0196523Y0005463D01*
X0196788Y0005719D01*
X0197047Y0005981D01*
X0197299Y0006250D01*
X0197545Y0006525D01*
X0197783Y0006806D01*
X0198015Y0007092D01*
X0198241Y0007384D01*
X0198458Y0007681D01*
X0198669Y0007984D01*
X0198872Y0008291D01*
X0199068Y0008603D01*
X0199256Y0008920D01*
X0199437Y0009242D01*
X0199610Y0009567D01*
X0199774Y0009897D01*
X0199931Y0010231D01*
X0200080Y0010568D01*
X0200220Y0010909D01*
X0200352Y0011253D01*
X0200476Y0011600D01*
X0200592Y0011950D01*
X0200699Y0012303D01*
X0200797Y0012658D01*
X0200887Y0013015D01*
X0200968Y0013375D01*
X0201040Y0013736D01*
X0201104Y0014099D01*
X0201159Y0014464D01*
X0201205Y0014829D01*
X0201242Y0015196D01*
X0201270Y0015564D01*
X0201289Y0015932D01*
X0201300Y0016300D01*
X0201300Y0186300D01*
X0201296Y0186662D01*
X0201282Y0187025D01*
X0201261Y0187387D01*
X0201230Y0187748D01*
X0201191Y0188108D01*
X0201143Y0188467D01*
X0201086Y0188825D01*
X0201021Y0189182D01*
X0200947Y0189537D01*
X0200864Y0189890D01*
X0200773Y0190241D01*
X0200674Y0190589D01*
X0200566Y0190935D01*
X0200450Y0191279D01*
X0200325Y0191619D01*
X0200193Y0191956D01*
X0200052Y0192290D01*
X0199903Y0192621D01*
X0199746Y0192948D01*
X0199582Y0193271D01*
X0199410Y0193590D01*
X0199230Y0193904D01*
X0199042Y0194215D01*
X0198847Y0194520D01*
X0198645Y0194821D01*
X0198435Y0195117D01*
X0198219Y0195407D01*
X0197995Y0195693D01*
X0197765Y0195973D01*
X0197528Y0196247D01*
X0197284Y0196515D01*
X0197034Y0196778D01*
X0196778Y0197034D01*
X0196515Y0197284D01*
X0196247Y0197528D01*
X0195973Y0197765D01*
X0195693Y0197995D01*
X0195407Y0198219D01*
X0195117Y0198435D01*
X0194821Y0198645D01*
X0194520Y0198847D01*
X0194215Y0199042D01*
X0193904Y0199230D01*
X0193590Y0199410D01*
X0193271Y0199582D01*
X0192948Y0199746D01*
X0192621Y0199903D01*
X0192290Y0200052D01*
X0191956Y0200193D01*
X0191619Y0200325D01*
X0191279Y0200450D01*
X0190935Y0200566D01*
X0190589Y0200674D01*
X0190241Y0200773D01*
X0189890Y0200864D01*
X0189537Y0200947D01*
X0189182Y0201021D01*
X0188825Y0201086D01*
X0188467Y0201143D01*
X0188108Y0201191D01*
X0187748Y0201230D01*
X0187387Y0201261D01*
X0187025Y0201282D01*
X0186662Y0201296D01*
X0186300Y0201300D01*
X0016300Y0201300D01*
X0015938Y0201296D01*
X0015575Y0201282D01*
X0015213Y0201261D01*
X0014852Y0201230D01*
X0014492Y0201191D01*
X0014133Y0201143D01*
X0013775Y0201086D01*
X0013418Y0201021D01*
X0013063Y0200947D01*
X0012710Y0200864D01*
X0012359Y0200773D01*
X0012011Y0200674D01*
X0011665Y0200566D01*
X0011321Y0200450D01*
X0010981Y0200325D01*
X0010644Y0200193D01*
X0010310Y0200052D01*
X0009979Y0199903D01*
X0009652Y0199746D01*
X0009329Y0199582D01*
X0009010Y0199410D01*
X0008696Y0199230D01*
X0008385Y0199042D01*
X0008080Y0198847D01*
X0007779Y0198645D01*
X0007483Y0198435D01*
X0007193Y0198219D01*
X0006907Y0197995D01*
X0006627Y0197765D01*
X0006353Y0197528D01*
X0006085Y0197284D01*
X0005822Y0197034D01*
X0005566Y0196778D01*
X0005316Y0196515D01*
X0005072Y0196247D01*
X0004835Y0195973D01*
X0004605Y0195693D01*
X0004381Y0195407D01*
X0004165Y0195117D01*
X0003955Y0194821D01*
X0003753Y0194520D01*
X0003558Y0194215D01*
X0003370Y0193904D01*
X0003190Y0193590D01*
X0003018Y0193271D01*
X0002854Y0192948D01*
X0002697Y0192621D01*
X0002548Y0192290D01*
X0002407Y0191956D01*
X0002275Y0191619D01*
X0002150Y0191279D01*
X0002034Y0190935D01*
X0001926Y0190589D01*
X0001827Y0190241D01*
X0001736Y0189890D01*
X0001653Y0189537D01*
X0001579Y0189182D01*
X0001514Y0188825D01*
X0001457Y0188467D01*
X0001409Y0188108D01*
X0001370Y0187748D01*
X0001339Y0187387D01*
X0001318Y0187025D01*
X0001304Y0186662D01*
X0001300Y0186300D01*
X0001300Y0016300D01*
X0001298Y0015944D01*
X0001305Y0015587D01*
X0001321Y0015231D01*
X0001345Y0014875D01*
X0001378Y0014520D01*
X0001419Y0014166D01*
X0001469Y0013813D01*
X0001527Y0013461D01*
X0001594Y0013111D01*
X0001669Y0012763D01*
X0001753Y0012416D01*
X0001845Y0012072D01*
X0001945Y0011730D01*
X0002053Y0011390D01*
X0002170Y0011053D01*
X0002295Y0010719D01*
X0002428Y0010389D01*
X0002568Y0010061D01*
X0002717Y0009737D01*
X0002873Y0009417D01*
X0003038Y0009100D01*
X0003209Y0008788D01*
X0003389Y0008480D01*
X0003575Y0008176D01*
X0003769Y0007877D01*
X0003970Y0007582D01*
X0004178Y0007293D01*
X0004393Y0007009D01*
X0004615Y0006730D01*
X0004844Y0006456D01*
X0005079Y0006188D01*
X0005320Y0005926D01*
X0005568Y0005670D01*
X0005822Y0005419D01*
X0006082Y0005175D01*
X0006348Y0004938D01*
X0006619Y0004706D01*
X0006896Y0004482D01*
X0007178Y0004264D01*
X0007465Y0004053D01*
X0007758Y0003849D01*
X0008055Y0003652D01*
X0008357Y0003463D01*
X0008663Y0003281D01*
X0008974Y0003106D01*
X0009289Y0002939D01*
X0009608Y0002779D01*
X0009930Y0002627D01*
X0010256Y0002483D01*
X0010586Y0002347D01*
X0010919Y0002219D01*
X0011254Y0002099D01*
X0011593Y0001987D01*
X0011934Y0001884D01*
X0012277Y0001789D01*
X0012623Y0001702D01*
X0012971Y0001623D01*
X0013320Y0001553D01*
X0013671Y0001491D01*
X0014024Y0001438D01*
X0014378Y0001393D01*
X0014732Y0001357D01*
X0015088Y0001329D01*
X0015444Y0001310D01*
X0015800Y0001300D01*
D11*
X0109600Y0174300D03*
X0109600Y0179300D03*
X0114600Y0179300D03*
X0114600Y0174300D03*
X0119600Y0174300D03*
X0119600Y0179300D03*
X0124600Y0179300D03*
X0124600Y0174300D03*
X0129600Y0174300D03*
X0129600Y0179300D03*
D12*
X0181300Y0146300D03*
X0191300Y0146300D03*
X0191300Y0136300D03*
X0181300Y0136300D03*
X0181300Y0126300D03*
X0191300Y0126300D03*
X0191300Y0116300D03*
X0181300Y0116300D03*
X0181300Y0106300D03*
X0191300Y0106300D03*
X0191300Y0096300D03*
X0181300Y0096300D03*
X0181300Y0086300D03*
X0191300Y0086300D03*
X0191300Y0076300D03*
X0181300Y0076300D03*
X0181300Y0066300D03*
X0191300Y0066300D03*
X0191300Y0056300D03*
X0181300Y0056300D03*
D13*
X0158300Y0088800D03*
X0135050Y0089050D03*
X0127800Y0090800D03*
X0124800Y0094800D03*
X0127800Y0106800D03*
X0137000Y0120300D03*
X0148800Y0129900D03*
X0156800Y0126800D03*
X0153400Y0150200D03*
X0153300Y0162600D03*
X0129200Y0143000D03*
X0126300Y0135300D03*
X0111400Y0138100D03*
X0113300Y0127300D03*
X0101800Y0126800D03*
X0085200Y0124700D03*
X0081200Y0128500D03*
X0072800Y0119300D03*
X0065300Y0115800D03*
X0065300Y0112300D03*
X0065300Y0108300D03*
X0056800Y0110800D03*
X0065300Y0122800D03*
X0068300Y0126300D03*
X0076400Y0109200D03*
X0096600Y0101500D03*
X0102700Y0104500D03*
X0104044Y0102056D03*
X0086900Y0078100D03*
X0082800Y0078300D03*
X0077800Y0074800D03*
X0070900Y0082600D03*
X0066200Y0086600D03*
X0056600Y0086400D03*
X0051900Y0080400D03*
X0041800Y0083200D03*
X0045900Y0089600D03*
X0041900Y0096200D03*
X0033400Y0082300D03*
X0024800Y0081800D03*
X0033246Y0064100D03*
X0053600Y0062300D03*
X0068000Y0070000D03*
X0091000Y0073600D03*
X0101600Y0075600D03*
X0108300Y0070200D03*
X0117300Y0072900D03*
X0134800Y0043800D03*
X0109900Y0038700D03*
X0092000Y0041100D03*
X0075600Y0047300D03*
X0059400Y0034900D03*
X0066700Y0029500D03*
X0065700Y0023300D03*
X0050800Y0032400D03*
X0038100Y0039000D03*
X0046200Y0047700D03*
X0025500Y0035100D03*
X0045700Y0010200D03*
X0036600Y0136600D03*
X0071400Y0155800D03*
X0065800Y0172900D03*
X0065600Y0186800D03*
X0041200Y0186200D03*
X0131400Y0189489D03*
X0147900Y0187600D03*
D14*
X0186300Y0186300D03*
X0016300Y0186300D03*
X0016300Y0016300D03*
X0186300Y0016300D03*
D15*
X0170500Y0016300D01*
X0163900Y0022900D01*
X0163900Y0048900D01*
X0181300Y0066300D01*
D16*
X0176300Y0071300D02*
X0181300Y0076300D01*
X0176300Y0071300D02*
X0130800Y0071300D01*
X0121300Y0080800D01*
X0092800Y0080800D01*
X0065300Y0108300D01*
X0065300Y0112300D02*
X0094300Y0083300D01*
X0123300Y0083300D01*
X0125300Y0081300D01*
X0176300Y0081300D01*
X0181300Y0086300D01*
X0181300Y0096300D02*
X0168800Y0083800D01*
X0133900Y0083800D01*
X0130900Y0086800D01*
X0094300Y0086800D01*
X0065300Y0115800D01*
X0065300Y0122800D02*
X0076800Y0122800D01*
X0088300Y0111300D01*
X0186300Y0111300D01*
X0191300Y0116300D01*
X0186600Y0121600D02*
X0174100Y0121600D01*
X0170400Y0117900D01*
X0085200Y0117900D01*
X0076800Y0126300D01*
X0068300Y0126300D01*
X0072800Y0119300D02*
X0093800Y0098300D01*
X0158700Y0098300D01*
X0166700Y0106300D01*
X0181300Y0106300D01*
X0186600Y0121600D02*
X0191300Y0126300D01*
X0186400Y0131400D02*
X0154600Y0131400D01*
X0148000Y0124800D01*
X0103800Y0124800D01*
X0101800Y0126800D01*
X0113300Y0127300D02*
X0137100Y0127300D01*
X0145300Y0135500D01*
X0180500Y0135500D01*
X0181300Y0136300D01*
X0186400Y0131400D02*
X0191300Y0136300D01*
X0181300Y0126300D02*
X0164100Y0126300D01*
X0160600Y0122800D01*
X0087100Y0122800D01*
X0085200Y0124700D01*
X0056800Y0110800D02*
X0056800Y0108200D01*
X0086900Y0078100D01*
D17*
X0006552Y0006687D02*
X0195749Y0006687D01*
X0196367Y0007285D02*
X0189491Y0007285D01*
X0188200Y0006750D02*
X0191710Y0008204D01*
X0194396Y0010890D01*
X0195850Y0014400D01*
X0195850Y0018200D01*
X0194396Y0021710D01*
X0191710Y0024396D01*
X0188200Y0025850D01*
X0184400Y0025850D01*
X0180890Y0024396D01*
X0178204Y0021710D01*
X0177330Y0019600D01*
X0171867Y0019600D01*
X0167200Y0024267D01*
X0167200Y0047533D01*
X0177126Y0057459D01*
X0177000Y0057155D01*
X0177000Y0055445D01*
X0177655Y0053864D01*
X0178864Y0052655D01*
X0180445Y0052000D01*
X0182155Y0052000D01*
X0183736Y0052655D01*
X0184945Y0053864D01*
X0185600Y0055445D01*
X0185600Y0057155D01*
X0184945Y0058736D01*
X0183736Y0059945D01*
X0182155Y0060600D01*
X0180445Y0060600D01*
X0180141Y0060474D01*
X0181667Y0062000D01*
X0182155Y0062000D01*
X0183736Y0062655D01*
X0184945Y0063864D01*
X0185600Y0065445D01*
X0185600Y0067155D01*
X0184945Y0068736D01*
X0183736Y0069945D01*
X0182155Y0070600D01*
X0180445Y0070600D01*
X0178864Y0069945D01*
X0177655Y0068736D01*
X0177000Y0067155D01*
X0177000Y0066667D01*
X0162031Y0051698D01*
X0162031Y0051698D01*
X0161102Y0050769D01*
X0160600Y0049556D01*
X0160600Y0022244D01*
X0161102Y0021031D01*
X0167702Y0014431D01*
X0168631Y0013502D01*
X0169844Y0013000D01*
X0177330Y0013000D01*
X0178204Y0010890D01*
X0180890Y0008204D01*
X0184400Y0006750D01*
X0188200Y0006750D01*
X0190936Y0007884D02*
X0196983Y0007884D01*
X0196978Y0007876D02*
X0194361Y0005343D01*
X0191177Y0003574D01*
X0187644Y0002689D01*
X0185825Y0002600D01*
X0185811Y0002600D01*
X0185283Y0002609D01*
X0185274Y0002600D01*
X0015820Y0002600D01*
X0014068Y0002745D01*
X0010692Y0003711D01*
X0007681Y0005518D01*
X0005240Y0008043D01*
X0003536Y0011113D01*
X0002685Y0014520D01*
X0002600Y0016274D01*
X0002600Y0016289D01*
X0002609Y0016816D01*
X0002600Y0016826D01*
X0002600Y0186300D01*
X0002717Y0188088D01*
X0003643Y0191543D01*
X0005431Y0194640D01*
X0007960Y0197169D01*
X0011057Y0198957D01*
X0014512Y0199883D01*
X0016300Y0200000D01*
X0186300Y0200000D01*
X0188088Y0199883D01*
X0191543Y0198957D01*
X0194640Y0197169D01*
X0197169Y0194640D01*
X0198957Y0191543D01*
X0199883Y0188088D01*
X0200000Y0186300D01*
X0200000Y0016319D01*
X0199851Y0014502D01*
X0198851Y0011000D01*
X0196978Y0007876D01*
X0197341Y0008482D02*
X0191988Y0008482D01*
X0192586Y0009081D02*
X0197700Y0009081D01*
X0198059Y0009679D02*
X0193185Y0009679D01*
X0193783Y0010278D02*
X0198418Y0010278D01*
X0198776Y0010876D02*
X0194382Y0010876D01*
X0194638Y0011475D02*
X0198986Y0011475D01*
X0199157Y0012073D02*
X0194886Y0012073D01*
X0195134Y0012672D02*
X0199328Y0012672D01*
X0199499Y0013270D02*
X0195382Y0013270D01*
X0195630Y0013869D02*
X0199670Y0013869D01*
X0199841Y0014467D02*
X0195850Y0014467D01*
X0195850Y0015066D02*
X0199897Y0015066D01*
X0199946Y0015664D02*
X0195850Y0015664D01*
X0195850Y0016263D02*
X0199995Y0016263D01*
X0200000Y0016861D02*
X0195850Y0016861D01*
X0195850Y0017460D02*
X0200000Y0017460D01*
X0200000Y0018058D02*
X0195850Y0018058D01*
X0195661Y0018657D02*
X0200000Y0018657D01*
X0200000Y0019255D02*
X0195413Y0019255D01*
X0195165Y0019854D02*
X0200000Y0019854D01*
X0200000Y0020452D02*
X0194917Y0020452D01*
X0194669Y0021051D02*
X0200000Y0021051D01*
X0200000Y0021649D02*
X0194421Y0021649D01*
X0193858Y0022248D02*
X0200000Y0022248D01*
X0200000Y0022846D02*
X0193259Y0022846D01*
X0192661Y0023445D02*
X0200000Y0023445D01*
X0200000Y0024043D02*
X0192062Y0024043D01*
X0191116Y0024642D02*
X0200000Y0024642D01*
X0200000Y0025240D02*
X0189671Y0025240D01*
X0188226Y0025839D02*
X0200000Y0025839D01*
X0200000Y0026437D02*
X0167200Y0026437D01*
X0167200Y0025839D02*
X0184374Y0025839D01*
X0182929Y0025240D02*
X0167200Y0025240D01*
X0167200Y0024642D02*
X0181484Y0024642D01*
X0180538Y0024043D02*
X0167423Y0024043D01*
X0168022Y0023445D02*
X0179939Y0023445D01*
X0179341Y0022846D02*
X0168620Y0022846D01*
X0169219Y0022248D02*
X0178742Y0022248D01*
X0178179Y0021649D02*
X0169817Y0021649D01*
X0170416Y0021051D02*
X0177931Y0021051D01*
X0177683Y0020452D02*
X0171015Y0020452D01*
X0171613Y0019854D02*
X0177435Y0019854D01*
X0177466Y0012672D02*
X0025134Y0012672D01*
X0025382Y0013270D02*
X0169191Y0013270D01*
X0168264Y0013869D02*
X0025630Y0013869D01*
X0025850Y0014400D02*
X0024396Y0010890D01*
X0021710Y0008204D01*
X0018200Y0006750D01*
X0014400Y0006750D01*
X0010890Y0008204D01*
X0008204Y0010890D01*
X0006750Y0014400D01*
X0006750Y0018200D01*
X0008204Y0021710D01*
X0010890Y0024396D01*
X0014400Y0025850D01*
X0018200Y0025850D01*
X0021710Y0024396D01*
X0024396Y0021710D01*
X0025850Y0018200D01*
X0025850Y0014400D01*
X0025850Y0014467D02*
X0167666Y0014467D01*
X0167702Y0014431D02*
X0167702Y0014431D01*
X0167067Y0015066D02*
X0025850Y0015066D01*
X0025850Y0015664D02*
X0166469Y0015664D01*
X0165870Y0016263D02*
X0025850Y0016263D01*
X0025850Y0016861D02*
X0165272Y0016861D01*
X0164673Y0017460D02*
X0025850Y0017460D01*
X0025850Y0018058D02*
X0164075Y0018058D01*
X0163476Y0018657D02*
X0025661Y0018657D01*
X0025413Y0019255D02*
X0162878Y0019255D01*
X0162279Y0019854D02*
X0025165Y0019854D01*
X0024917Y0020452D02*
X0161681Y0020452D01*
X0161094Y0021051D02*
X0066829Y0021051D01*
X0066690Y0020911D02*
X0068089Y0022310D01*
X0068089Y0024290D01*
X0066690Y0025689D01*
X0064710Y0025689D01*
X0063311Y0024290D01*
X0063311Y0022310D01*
X0064710Y0020911D01*
X0066690Y0020911D01*
X0067428Y0021649D02*
X0160846Y0021649D01*
X0160600Y0022248D02*
X0068026Y0022248D01*
X0068089Y0022846D02*
X0160600Y0022846D01*
X0160600Y0023445D02*
X0068089Y0023445D01*
X0068089Y0024043D02*
X0160600Y0024043D01*
X0160600Y0024642D02*
X0067737Y0024642D01*
X0067138Y0025240D02*
X0160600Y0025240D01*
X0160600Y0025839D02*
X0018226Y0025839D01*
X0019671Y0025240D02*
X0064262Y0025240D01*
X0063663Y0024642D02*
X0021116Y0024642D01*
X0022062Y0024043D02*
X0063311Y0024043D01*
X0063311Y0023445D02*
X0022661Y0023445D01*
X0023259Y0022846D02*
X0063311Y0022846D01*
X0063374Y0022248D02*
X0023858Y0022248D01*
X0024421Y0021649D02*
X0063972Y0021649D01*
X0064571Y0021051D02*
X0024669Y0021051D01*
X0014374Y0025839D02*
X0002600Y0025839D01*
X0002600Y0026437D02*
X0160600Y0026437D01*
X0160600Y0027036D02*
X0002600Y0027036D01*
X0002600Y0027634D02*
X0065187Y0027634D01*
X0065710Y0027111D02*
X0067690Y0027111D01*
X0069089Y0028510D01*
X0069089Y0030490D01*
X0067690Y0031889D01*
X0065710Y0031889D01*
X0064311Y0030490D01*
X0064311Y0028510D01*
X0065710Y0027111D01*
X0064588Y0028233D02*
X0002600Y0028233D01*
X0002600Y0028832D02*
X0064311Y0028832D01*
X0064311Y0029430D02*
X0002600Y0029430D01*
X0002600Y0030029D02*
X0049793Y0030029D01*
X0049810Y0030011D02*
X0051790Y0030011D01*
X0053189Y0031410D01*
X0053189Y0033390D01*
X0051790Y0034789D01*
X0049810Y0034789D01*
X0048411Y0033390D01*
X0048411Y0031410D01*
X0049810Y0030011D01*
X0049194Y0030627D02*
X0002600Y0030627D01*
X0002600Y0031226D02*
X0048596Y0031226D01*
X0048411Y0031824D02*
X0002600Y0031824D01*
X0002600Y0032423D02*
X0048411Y0032423D01*
X0048411Y0033021D02*
X0026800Y0033021D01*
X0026490Y0032711D02*
X0027889Y0034110D01*
X0027889Y0036090D01*
X0026490Y0037489D01*
X0024510Y0037489D01*
X0023111Y0036090D01*
X0023111Y0034110D01*
X0024510Y0032711D01*
X0026490Y0032711D01*
X0027398Y0033620D02*
X0048641Y0033620D01*
X0049240Y0034218D02*
X0027889Y0034218D01*
X0027889Y0034817D02*
X0160600Y0034817D01*
X0160600Y0035415D02*
X0027889Y0035415D01*
X0027889Y0036014D02*
X0160600Y0036014D01*
X0160600Y0036612D02*
X0111191Y0036612D01*
X0110890Y0036311D02*
X0112289Y0037710D01*
X0112289Y0039690D01*
X0110890Y0041089D01*
X0108910Y0041089D01*
X0107511Y0039690D01*
X0107511Y0037710D01*
X0108910Y0036311D01*
X0110890Y0036311D01*
X0111789Y0037211D02*
X0160600Y0037211D01*
X0160600Y0037809D02*
X0112289Y0037809D01*
X0112289Y0038408D02*
X0160600Y0038408D01*
X0160600Y0039006D02*
X0112289Y0039006D01*
X0112289Y0039605D02*
X0160600Y0039605D01*
X0160600Y0040203D02*
X0111775Y0040203D01*
X0111177Y0040802D02*
X0160600Y0040802D01*
X0160600Y0041400D02*
X0094389Y0041400D01*
X0094389Y0040802D02*
X0108623Y0040802D01*
X0108025Y0040203D02*
X0094389Y0040203D01*
X0094389Y0040110D02*
X0092990Y0038711D01*
X0091010Y0038711D01*
X0089611Y0040110D01*
X0089611Y0042090D01*
X0091010Y0043489D01*
X0092990Y0043489D01*
X0094389Y0042090D01*
X0094389Y0040110D01*
X0093883Y0039605D02*
X0107511Y0039605D01*
X0107511Y0039006D02*
X0093285Y0039006D01*
X0090715Y0039006D02*
X0002600Y0039006D01*
X0002600Y0038408D02*
X0107511Y0038408D01*
X0107511Y0037809D02*
X0002600Y0037809D01*
X0002600Y0037211D02*
X0024232Y0037211D01*
X0023634Y0036612D02*
X0002600Y0036612D01*
X0002600Y0036014D02*
X0023111Y0036014D01*
X0023111Y0035415D02*
X0002600Y0035415D01*
X0002600Y0034817D02*
X0023111Y0034817D01*
X0023111Y0034218D02*
X0002600Y0034218D01*
X0002600Y0033620D02*
X0023602Y0033620D01*
X0024200Y0033021D02*
X0002600Y0033021D01*
X0002600Y0039605D02*
X0090117Y0039605D01*
X0089611Y0040203D02*
X0002600Y0040203D01*
X0002600Y0040802D02*
X0089611Y0040802D01*
X0089611Y0041400D02*
X0002600Y0041400D01*
X0002600Y0041999D02*
X0089611Y0041999D01*
X0090119Y0042597D02*
X0002600Y0042597D01*
X0002600Y0043196D02*
X0090717Y0043196D01*
X0093283Y0043196D02*
X0132411Y0043196D01*
X0132411Y0042810D02*
X0133810Y0041411D01*
X0135790Y0041411D01*
X0137189Y0042810D01*
X0137189Y0044790D01*
X0135790Y0046189D01*
X0133810Y0046189D01*
X0132411Y0044790D01*
X0132411Y0042810D01*
X0132624Y0042597D02*
X0093881Y0042597D01*
X0094389Y0041999D02*
X0133223Y0041999D01*
X0132411Y0043794D02*
X0002600Y0043794D01*
X0002600Y0044393D02*
X0132411Y0044393D01*
X0132613Y0044991D02*
X0076670Y0044991D01*
X0076590Y0044911D02*
X0077989Y0046310D01*
X0077989Y0048290D01*
X0076590Y0049689D01*
X0074610Y0049689D01*
X0073211Y0048290D01*
X0073211Y0046310D01*
X0074610Y0044911D01*
X0076590Y0044911D01*
X0077268Y0045590D02*
X0133211Y0045590D01*
X0133810Y0046188D02*
X0077867Y0046188D01*
X0077989Y0046787D02*
X0160600Y0046787D01*
X0160600Y0047385D02*
X0077989Y0047385D01*
X0077989Y0047984D02*
X0160600Y0047984D01*
X0160600Y0048582D02*
X0077696Y0048582D01*
X0077098Y0049181D02*
X0160600Y0049181D01*
X0160692Y0049779D02*
X0002600Y0049779D01*
X0002600Y0049181D02*
X0074102Y0049181D01*
X0073504Y0048582D02*
X0002600Y0048582D01*
X0002600Y0047984D02*
X0073211Y0047984D01*
X0073211Y0047385D02*
X0002600Y0047385D01*
X0002600Y0046787D02*
X0073211Y0046787D01*
X0073333Y0046188D02*
X0002600Y0046188D01*
X0002600Y0045590D02*
X0073932Y0045590D01*
X0074530Y0044991D02*
X0002600Y0044991D01*
X0002600Y0050378D02*
X0160940Y0050378D01*
X0161310Y0050976D02*
X0002600Y0050976D01*
X0002600Y0051575D02*
X0161908Y0051575D01*
X0162507Y0052173D02*
X0002600Y0052173D01*
X0002600Y0052772D02*
X0163105Y0052772D01*
X0163704Y0053370D02*
X0002600Y0053370D01*
X0002600Y0053969D02*
X0164302Y0053969D01*
X0164901Y0054568D02*
X0002600Y0054568D01*
X0002600Y0055166D02*
X0165499Y0055166D01*
X0166098Y0055765D02*
X0002600Y0055765D01*
X0002600Y0056363D02*
X0166696Y0056363D01*
X0167295Y0056962D02*
X0002600Y0056962D01*
X0002600Y0057560D02*
X0167893Y0057560D01*
X0168492Y0058159D02*
X0002600Y0058159D01*
X0002600Y0058757D02*
X0169090Y0058757D01*
X0169689Y0059356D02*
X0002600Y0059356D01*
X0002600Y0059954D02*
X0052567Y0059954D01*
X0052610Y0059911D02*
X0054590Y0059911D01*
X0055989Y0061310D01*
X0055989Y0063290D01*
X0054590Y0064689D01*
X0052610Y0064689D01*
X0051211Y0063290D01*
X0051211Y0061310D01*
X0052610Y0059911D01*
X0051969Y0060553D02*
X0002600Y0060553D01*
X0002600Y0061151D02*
X0051370Y0061151D01*
X0051211Y0061750D02*
X0034275Y0061750D01*
X0034236Y0061711D02*
X0035635Y0063110D01*
X0035635Y0065090D01*
X0034236Y0066489D01*
X0032257Y0066489D01*
X0030857Y0065090D01*
X0030857Y0063110D01*
X0032257Y0061711D01*
X0034236Y0061711D01*
X0034873Y0062348D02*
X0051211Y0062348D01*
X0051211Y0062947D02*
X0035472Y0062947D01*
X0035635Y0063545D02*
X0051467Y0063545D01*
X0052065Y0064144D02*
X0035635Y0064144D01*
X0035635Y0064742D02*
X0175075Y0064742D01*
X0174477Y0064144D02*
X0055135Y0064144D01*
X0055733Y0063545D02*
X0173878Y0063545D01*
X0173280Y0062947D02*
X0055989Y0062947D01*
X0055989Y0062348D02*
X0172681Y0062348D01*
X0172083Y0061750D02*
X0055989Y0061750D01*
X0055830Y0061151D02*
X0171484Y0061151D01*
X0170886Y0060553D02*
X0055231Y0060553D01*
X0054633Y0059954D02*
X0170287Y0059954D01*
X0174833Y0055166D02*
X0177115Y0055166D01*
X0177000Y0055765D02*
X0175431Y0055765D01*
X0176030Y0056363D02*
X0177000Y0056363D01*
X0177000Y0056962D02*
X0176628Y0056962D01*
X0177363Y0054568D02*
X0174234Y0054568D01*
X0173636Y0053969D02*
X0177611Y0053969D01*
X0178148Y0053370D02*
X0173037Y0053370D01*
X0172439Y0052772D02*
X0178747Y0052772D01*
X0180026Y0052173D02*
X0171840Y0052173D01*
X0171242Y0051575D02*
X0200000Y0051575D01*
X0200000Y0052173D02*
X0192574Y0052173D01*
X0192155Y0052000D02*
X0193736Y0052655D01*
X0194945Y0053864D01*
X0195600Y0055445D01*
X0195600Y0057155D01*
X0194945Y0058736D01*
X0193736Y0059945D01*
X0192155Y0060600D01*
X0190445Y0060600D01*
X0188864Y0059945D01*
X0187655Y0058736D01*
X0187000Y0057155D01*
X0187000Y0055445D01*
X0187655Y0053864D01*
X0188864Y0052655D01*
X0190445Y0052000D01*
X0192155Y0052000D01*
X0193853Y0052772D02*
X0200000Y0052772D01*
X0200000Y0053370D02*
X0194452Y0053370D01*
X0194989Y0053969D02*
X0200000Y0053969D01*
X0200000Y0054568D02*
X0195237Y0054568D01*
X0195485Y0055166D02*
X0200000Y0055166D01*
X0200000Y0055765D02*
X0195600Y0055765D01*
X0195600Y0056363D02*
X0200000Y0056363D01*
X0200000Y0056962D02*
X0195600Y0056962D01*
X0195432Y0057560D02*
X0200000Y0057560D01*
X0200000Y0058159D02*
X0195184Y0058159D01*
X0194924Y0058757D02*
X0200000Y0058757D01*
X0200000Y0059356D02*
X0194326Y0059356D01*
X0193715Y0059954D02*
X0200000Y0059954D01*
X0200000Y0060553D02*
X0192270Y0060553D01*
X0192155Y0062000D02*
X0190445Y0062000D01*
X0188864Y0062655D01*
X0187655Y0063864D01*
X0187000Y0065445D01*
X0187000Y0067155D01*
X0187655Y0068736D01*
X0188864Y0069945D01*
X0190445Y0070600D01*
X0192155Y0070600D01*
X0193736Y0069945D01*
X0194945Y0068736D01*
X0195600Y0067155D01*
X0195600Y0065445D01*
X0194945Y0063864D01*
X0193736Y0062655D01*
X0192155Y0062000D01*
X0192996Y0062348D02*
X0200000Y0062348D01*
X0200000Y0061750D02*
X0181417Y0061750D01*
X0180818Y0061151D02*
X0200000Y0061151D01*
X0200000Y0062947D02*
X0194028Y0062947D01*
X0194626Y0063545D02*
X0200000Y0063545D01*
X0200000Y0064144D02*
X0195061Y0064144D01*
X0195309Y0064742D02*
X0200000Y0064742D01*
X0200000Y0065341D02*
X0195557Y0065341D01*
X0195600Y0065939D02*
X0200000Y0065939D01*
X0200000Y0066538D02*
X0195600Y0066538D01*
X0195600Y0067136D02*
X0200000Y0067136D01*
X0200000Y0067735D02*
X0195360Y0067735D01*
X0195112Y0068333D02*
X0200000Y0068333D01*
X0200000Y0068932D02*
X0194749Y0068932D01*
X0194151Y0069530D02*
X0200000Y0069530D01*
X0200000Y0070129D02*
X0193293Y0070129D01*
X0192155Y0072000D02*
X0190445Y0072000D01*
X0188864Y0072655D01*
X0187655Y0073864D01*
X0187000Y0075445D01*
X0187000Y0077155D01*
X0187655Y0078736D01*
X0188864Y0079945D01*
X0190445Y0080600D01*
X0192155Y0080600D01*
X0193736Y0079945D01*
X0194945Y0078736D01*
X0195600Y0077155D01*
X0195600Y0075445D01*
X0194945Y0073864D01*
X0193736Y0072655D01*
X0192155Y0072000D01*
X0193418Y0072523D02*
X0200000Y0072523D01*
X0200000Y0073121D02*
X0194202Y0073121D01*
X0194801Y0073720D02*
X0200000Y0073720D01*
X0200000Y0074318D02*
X0195133Y0074318D01*
X0195381Y0074917D02*
X0200000Y0074917D01*
X0200000Y0075515D02*
X0195600Y0075515D01*
X0195600Y0076114D02*
X0200000Y0076114D01*
X0200000Y0076712D02*
X0195600Y0076712D01*
X0195536Y0077311D02*
X0200000Y0077311D01*
X0200000Y0077909D02*
X0195288Y0077909D01*
X0195040Y0078508D02*
X0200000Y0078508D01*
X0200000Y0079106D02*
X0194575Y0079106D01*
X0193976Y0079705D02*
X0200000Y0079705D01*
X0200000Y0080303D02*
X0192871Y0080303D01*
X0192155Y0082000D02*
X0190445Y0082000D01*
X0188864Y0082655D01*
X0187655Y0083864D01*
X0187000Y0085445D01*
X0187000Y0087155D01*
X0187655Y0088736D01*
X0188864Y0089945D01*
X0190445Y0090600D01*
X0192155Y0090600D01*
X0193736Y0089945D01*
X0194945Y0088736D01*
X0195600Y0087155D01*
X0195600Y0085445D01*
X0194945Y0083864D01*
X0193736Y0082655D01*
X0192155Y0082000D01*
X0192394Y0082099D02*
X0200000Y0082099D01*
X0200000Y0081501D02*
X0179046Y0081501D01*
X0179645Y0082099D02*
X0180206Y0082099D01*
X0180445Y0082000D02*
X0182155Y0082000D01*
X0183736Y0082655D01*
X0184945Y0083864D01*
X0185600Y0085445D01*
X0185600Y0087155D01*
X0184945Y0088736D01*
X0183736Y0089945D01*
X0182155Y0090600D01*
X0180445Y0090600D01*
X0178864Y0089945D01*
X0177655Y0088736D01*
X0177000Y0087155D01*
X0177000Y0085445D01*
X0177263Y0084809D01*
X0175554Y0083100D01*
X0170646Y0083100D01*
X0179809Y0092263D01*
X0180445Y0092000D01*
X0182155Y0092000D01*
X0183736Y0092655D01*
X0184945Y0093864D01*
X0185600Y0095445D01*
X0185600Y0097155D01*
X0184945Y0098736D01*
X0183736Y0099945D01*
X0182155Y0100600D01*
X0180445Y0100600D01*
X0178864Y0099945D01*
X0177655Y0098736D01*
X0177000Y0097155D01*
X0177000Y0095445D01*
X0177263Y0094809D01*
X0168054Y0085600D01*
X0134646Y0085600D01*
X0132700Y0087546D01*
X0131646Y0088600D01*
X0128978Y0088600D01*
X0130189Y0089810D01*
X0130189Y0091790D01*
X0128790Y0093189D01*
X0126810Y0093189D01*
X0125411Y0091790D01*
X0125411Y0089810D01*
X0126621Y0088600D01*
X0095046Y0088600D01*
X0076835Y0106811D01*
X0077390Y0106811D01*
X0078789Y0108210D01*
X0078789Y0110190D01*
X0077390Y0111589D01*
X0075410Y0111589D01*
X0074011Y0110190D01*
X0074011Y0109635D01*
X0067689Y0115957D01*
X0067689Y0116790D01*
X0066290Y0118189D01*
X0064310Y0118189D01*
X0062911Y0116790D01*
X0062911Y0114810D01*
X0063671Y0114050D01*
X0062911Y0113290D01*
X0062911Y0111310D01*
X0063921Y0110300D01*
X0062911Y0109290D01*
X0062911Y0107310D01*
X0064310Y0105911D01*
X0065143Y0105911D01*
X0091000Y0080054D01*
X0092054Y0079000D01*
X0120554Y0079000D01*
X0129000Y0070554D01*
X0130054Y0069500D01*
X0177046Y0069500D01*
X0179809Y0072263D01*
X0180445Y0072000D01*
X0182155Y0072000D01*
X0183736Y0072655D01*
X0184945Y0073864D01*
X0185600Y0075445D01*
X0185600Y0077155D01*
X0184945Y0078736D01*
X0183736Y0079945D01*
X0182155Y0080600D01*
X0180445Y0080600D01*
X0178864Y0079945D01*
X0177655Y0078736D01*
X0177000Y0077155D01*
X0177000Y0075445D01*
X0177263Y0074809D01*
X0175554Y0073100D01*
X0131546Y0073100D01*
X0125146Y0079500D01*
X0177046Y0079500D01*
X0179809Y0082263D01*
X0180445Y0082000D01*
X0179729Y0080303D02*
X0177849Y0080303D01*
X0177251Y0079705D02*
X0178624Y0079705D01*
X0178025Y0079106D02*
X0125539Y0079106D01*
X0126138Y0078508D02*
X0177560Y0078508D01*
X0177312Y0077909D02*
X0126736Y0077909D01*
X0127335Y0077311D02*
X0177064Y0077311D01*
X0177000Y0076712D02*
X0127933Y0076712D01*
X0128532Y0076114D02*
X0177000Y0076114D01*
X0177000Y0075515D02*
X0129130Y0075515D01*
X0129729Y0074917D02*
X0177219Y0074917D01*
X0176773Y0074318D02*
X0130327Y0074318D01*
X0130926Y0073720D02*
X0176174Y0073720D01*
X0175576Y0073121D02*
X0131524Y0073121D01*
X0128229Y0071326D02*
X0119104Y0071326D01*
X0119689Y0071910D02*
X0118290Y0070511D01*
X0116310Y0070511D01*
X0114911Y0071910D01*
X0114911Y0073890D01*
X0116310Y0075289D01*
X0118290Y0075289D01*
X0119689Y0073890D01*
X0119689Y0071910D01*
X0119689Y0071924D02*
X0127630Y0071924D01*
X0127032Y0072523D02*
X0119689Y0072523D01*
X0119689Y0073121D02*
X0126433Y0073121D01*
X0125835Y0073720D02*
X0119689Y0073720D01*
X0119260Y0074318D02*
X0125236Y0074318D01*
X0124638Y0074917D02*
X0118662Y0074917D01*
X0115938Y0074917D02*
X0103989Y0074917D01*
X0103989Y0074610D02*
X0102590Y0073211D01*
X0100610Y0073211D01*
X0099211Y0074610D01*
X0099211Y0076590D01*
X0100610Y0077989D01*
X0102590Y0077989D01*
X0103989Y0076590D01*
X0103989Y0074610D01*
X0103697Y0074318D02*
X0115340Y0074318D01*
X0114911Y0073720D02*
X0103098Y0073720D01*
X0103989Y0075515D02*
X0124039Y0075515D01*
X0123440Y0076114D02*
X0103989Y0076114D01*
X0103866Y0076712D02*
X0122842Y0076712D01*
X0122243Y0077311D02*
X0103268Y0077311D01*
X0102669Y0077909D02*
X0121645Y0077909D01*
X0121046Y0078508D02*
X0089289Y0078508D01*
X0089289Y0079090D02*
X0089289Y0077110D01*
X0087890Y0075711D01*
X0085910Y0075711D01*
X0084750Y0076871D01*
X0083790Y0075911D01*
X0081810Y0075911D01*
X0080411Y0077310D01*
X0080411Y0079290D01*
X0081788Y0080666D01*
X0056054Y0106400D01*
X0055000Y0107454D01*
X0055000Y0109221D01*
X0054411Y0109810D01*
X0054411Y0111790D01*
X0055810Y0113189D01*
X0057790Y0113189D01*
X0059189Y0111790D01*
X0059189Y0109810D01*
X0058600Y0109221D01*
X0058600Y0108946D01*
X0087057Y0080489D01*
X0087890Y0080489D01*
X0089289Y0079090D01*
X0089272Y0079106D02*
X0091948Y0079106D01*
X0091349Y0079705D02*
X0088674Y0079705D01*
X0088075Y0080303D02*
X0090751Y0080303D01*
X0091000Y0080054D02*
X0091000Y0080054D01*
X0090152Y0080902D02*
X0086644Y0080902D01*
X0086045Y0081501D02*
X0089554Y0081501D01*
X0088955Y0082099D02*
X0085447Y0082099D01*
X0084848Y0082698D02*
X0088357Y0082698D01*
X0087758Y0083296D02*
X0084250Y0083296D01*
X0083651Y0083895D02*
X0087160Y0083895D01*
X0086561Y0084493D02*
X0083052Y0084493D01*
X0082454Y0085092D02*
X0085963Y0085092D01*
X0085364Y0085690D02*
X0081855Y0085690D01*
X0081257Y0086289D02*
X0084766Y0086289D01*
X0084167Y0086887D02*
X0080658Y0086887D01*
X0080060Y0087486D02*
X0083569Y0087486D01*
X0082970Y0088084D02*
X0079461Y0088084D01*
X0078863Y0088683D02*
X0082372Y0088683D01*
X0081773Y0089281D02*
X0078264Y0089281D01*
X0077666Y0089880D02*
X0081175Y0089880D01*
X0080576Y0090478D02*
X0077067Y0090478D01*
X0076469Y0091077D02*
X0079978Y0091077D01*
X0079379Y0091675D02*
X0075870Y0091675D01*
X0075272Y0092274D02*
X0078781Y0092274D01*
X0078182Y0092872D02*
X0074673Y0092872D01*
X0074075Y0093471D02*
X0077584Y0093471D01*
X0076985Y0094069D02*
X0073476Y0094069D01*
X0072878Y0094668D02*
X0076387Y0094668D01*
X0075788Y0095266D02*
X0072279Y0095266D01*
X0071681Y0095865D02*
X0075190Y0095865D01*
X0074591Y0096463D02*
X0071082Y0096463D01*
X0070484Y0097062D02*
X0073993Y0097062D01*
X0073394Y0097660D02*
X0069885Y0097660D01*
X0069287Y0098259D02*
X0072796Y0098259D01*
X0072197Y0098857D02*
X0068688Y0098857D01*
X0068090Y0099456D02*
X0071599Y0099456D01*
X0071000Y0100054D02*
X0067491Y0100054D01*
X0066893Y0100653D02*
X0070402Y0100653D01*
X0069803Y0101251D02*
X0066294Y0101251D01*
X0065696Y0101850D02*
X0069205Y0101850D01*
X0068606Y0102448D02*
X0065097Y0102448D01*
X0064499Y0103047D02*
X0068007Y0103047D01*
X0067409Y0103645D02*
X0063900Y0103645D01*
X0063302Y0104244D02*
X0066810Y0104244D01*
X0066212Y0104842D02*
X0062703Y0104842D01*
X0062105Y0105441D02*
X0065613Y0105441D01*
X0064182Y0106039D02*
X0061506Y0106039D01*
X0060908Y0106638D02*
X0063583Y0106638D01*
X0062985Y0107237D02*
X0060309Y0107237D01*
X0059711Y0107835D02*
X0062911Y0107835D01*
X0062911Y0108434D02*
X0059112Y0108434D01*
X0058600Y0109032D02*
X0062911Y0109032D01*
X0063252Y0109631D02*
X0059009Y0109631D01*
X0059189Y0110229D02*
X0063851Y0110229D01*
X0063394Y0110828D02*
X0059189Y0110828D01*
X0059189Y0111426D02*
X0062911Y0111426D01*
X0062911Y0112025D02*
X0058954Y0112025D01*
X0058355Y0112623D02*
X0062911Y0112623D01*
X0062911Y0113222D02*
X0002600Y0113222D01*
X0002600Y0113820D02*
X0063442Y0113820D01*
X0063303Y0114419D02*
X0002600Y0114419D01*
X0002600Y0115017D02*
X0062911Y0115017D01*
X0062911Y0115616D02*
X0002600Y0115616D01*
X0002600Y0116214D02*
X0062911Y0116214D01*
X0062934Y0116813D02*
X0002600Y0116813D01*
X0002600Y0117411D02*
X0063533Y0117411D01*
X0064131Y0118010D02*
X0002600Y0118010D01*
X0002600Y0118608D02*
X0070411Y0118608D01*
X0070411Y0118310D02*
X0071810Y0116911D01*
X0072643Y0116911D01*
X0092000Y0097554D01*
X0093054Y0096500D01*
X0123121Y0096500D01*
X0122411Y0095790D01*
X0122411Y0093810D01*
X0123810Y0092411D01*
X0125790Y0092411D01*
X0127189Y0093810D01*
X0127189Y0095790D01*
X0126478Y0096500D01*
X0159446Y0096500D01*
X0167446Y0104500D01*
X0177391Y0104500D01*
X0177655Y0103864D01*
X0178864Y0102655D01*
X0180445Y0102000D01*
X0182155Y0102000D01*
X0183736Y0102655D01*
X0184945Y0103864D01*
X0185600Y0105445D01*
X0185600Y0107155D01*
X0184945Y0108736D01*
X0184181Y0109500D01*
X0187046Y0109500D01*
X0188100Y0110554D01*
X0189809Y0112263D01*
X0190445Y0112000D01*
X0192155Y0112000D01*
X0193736Y0112655D01*
X0194945Y0113864D01*
X0195600Y0115445D01*
X0195600Y0117155D01*
X0194945Y0118736D01*
X0193736Y0119945D01*
X0192155Y0120600D01*
X0190445Y0120600D01*
X0188864Y0119945D01*
X0187655Y0118736D01*
X0187000Y0117155D01*
X0187000Y0115445D01*
X0187263Y0114809D01*
X0185554Y0113100D01*
X0184181Y0113100D01*
X0184945Y0113864D01*
X0185600Y0115445D01*
X0185600Y0117155D01*
X0184945Y0118736D01*
X0183881Y0119800D01*
X0187346Y0119800D01*
X0188400Y0120854D01*
X0189809Y0122263D01*
X0190445Y0122000D01*
X0192155Y0122000D01*
X0193736Y0122655D01*
X0194945Y0123864D01*
X0195600Y0125445D01*
X0195600Y0127155D01*
X0194945Y0128736D01*
X0193736Y0129945D01*
X0192155Y0130600D01*
X0190445Y0130600D01*
X0188864Y0129945D01*
X0187655Y0128736D01*
X0187000Y0127155D01*
X0187000Y0125445D01*
X0187263Y0124809D01*
X0185854Y0123400D01*
X0184481Y0123400D01*
X0184945Y0123864D01*
X0185600Y0125445D01*
X0185600Y0127155D01*
X0184945Y0128736D01*
X0184081Y0129600D01*
X0187146Y0129600D01*
X0188200Y0130654D01*
X0189809Y0132263D01*
X0190445Y0132000D01*
X0192155Y0132000D01*
X0193736Y0132655D01*
X0194945Y0133864D01*
X0195600Y0135445D01*
X0195600Y0137155D01*
X0194945Y0138736D01*
X0193736Y0139945D01*
X0192155Y0140600D01*
X0190445Y0140600D01*
X0188864Y0139945D01*
X0187655Y0138736D01*
X0187000Y0137155D01*
X0187000Y0135445D01*
X0187263Y0134809D01*
X0185654Y0133200D01*
X0184281Y0133200D01*
X0184945Y0133864D01*
X0185600Y0135445D01*
X0185600Y0137155D01*
X0184945Y0138736D01*
X0183736Y0139945D01*
X0182155Y0140600D01*
X0180445Y0140600D01*
X0178864Y0139945D01*
X0177655Y0138736D01*
X0177060Y0137300D01*
X0144554Y0137300D01*
X0143500Y0136246D01*
X0136354Y0129100D01*
X0114879Y0129100D01*
X0114290Y0129689D01*
X0112310Y0129689D01*
X0110911Y0128290D01*
X0110911Y0126600D01*
X0104546Y0126600D01*
X0104189Y0126957D01*
X0104189Y0127790D01*
X0102790Y0129189D01*
X0100810Y0129189D01*
X0099411Y0127790D01*
X0099411Y0125810D01*
X0100621Y0124600D01*
X0087846Y0124600D01*
X0087589Y0124857D01*
X0087589Y0125690D01*
X0086190Y0127089D01*
X0084210Y0127089D01*
X0082811Y0125690D01*
X0082811Y0123710D01*
X0084210Y0122311D01*
X0085043Y0122311D01*
X0085300Y0122054D01*
X0086354Y0121000D01*
X0134611Y0121000D01*
X0134611Y0119700D01*
X0085946Y0119700D01*
X0077546Y0128100D01*
X0069879Y0128100D01*
X0069290Y0128689D01*
X0067310Y0128689D01*
X0065911Y0127290D01*
X0065911Y0125310D01*
X0066033Y0125189D01*
X0064310Y0125189D01*
X0062911Y0123790D01*
X0062911Y0121810D01*
X0064310Y0120411D01*
X0066290Y0120411D01*
X0066879Y0121000D01*
X0071121Y0121000D01*
X0070411Y0120290D01*
X0070411Y0118310D01*
X0070712Y0118010D02*
X0066469Y0118010D01*
X0067067Y0117411D02*
X0071310Y0117411D01*
X0072742Y0116813D02*
X0067666Y0116813D01*
X0067689Y0116214D02*
X0073340Y0116214D01*
X0073939Y0115616D02*
X0068030Y0115616D01*
X0068628Y0115017D02*
X0074537Y0115017D01*
X0075136Y0114419D02*
X0069227Y0114419D01*
X0069825Y0113820D02*
X0075734Y0113820D01*
X0076333Y0113222D02*
X0070424Y0113222D01*
X0071022Y0112623D02*
X0076931Y0112623D01*
X0077530Y0112025D02*
X0071621Y0112025D01*
X0072219Y0111426D02*
X0075248Y0111426D01*
X0074649Y0110828D02*
X0072818Y0110828D01*
X0073417Y0110229D02*
X0074051Y0110229D01*
X0077552Y0111426D02*
X0078128Y0111426D01*
X0078151Y0110828D02*
X0078727Y0110828D01*
X0078749Y0110229D02*
X0079325Y0110229D01*
X0078789Y0109631D02*
X0079924Y0109631D01*
X0080522Y0109032D02*
X0078789Y0109032D01*
X0078789Y0108434D02*
X0081121Y0108434D01*
X0081719Y0107835D02*
X0078414Y0107835D01*
X0077815Y0107237D02*
X0082318Y0107237D01*
X0082916Y0106638D02*
X0077008Y0106638D01*
X0077606Y0106039D02*
X0083515Y0106039D01*
X0084113Y0105441D02*
X0078205Y0105441D01*
X0078803Y0104842D02*
X0084712Y0104842D01*
X0085310Y0104244D02*
X0079402Y0104244D01*
X0080000Y0103645D02*
X0085909Y0103645D01*
X0086507Y0103047D02*
X0080599Y0103047D01*
X0081197Y0102448D02*
X0087106Y0102448D01*
X0087705Y0101850D02*
X0081796Y0101850D01*
X0082394Y0101251D02*
X0088303Y0101251D01*
X0088902Y0100653D02*
X0082993Y0100653D01*
X0083591Y0100054D02*
X0089500Y0100054D01*
X0090099Y0099456D02*
X0084190Y0099456D01*
X0084788Y0098857D02*
X0090697Y0098857D01*
X0091296Y0098259D02*
X0085387Y0098259D01*
X0085985Y0097660D02*
X0091894Y0097660D01*
X0092493Y0097062D02*
X0086584Y0097062D01*
X0087182Y0096463D02*
X0123085Y0096463D01*
X0122486Y0095865D02*
X0087781Y0095865D01*
X0088379Y0095266D02*
X0122411Y0095266D01*
X0122411Y0094668D02*
X0088978Y0094668D01*
X0089576Y0094069D02*
X0122411Y0094069D01*
X0122751Y0093471D02*
X0090175Y0093471D01*
X0090773Y0092872D02*
X0123349Y0092872D01*
X0125411Y0091675D02*
X0091970Y0091675D01*
X0091372Y0092274D02*
X0125895Y0092274D01*
X0126251Y0092872D02*
X0126494Y0092872D01*
X0126849Y0093471D02*
X0175925Y0093471D01*
X0176524Y0094069D02*
X0127189Y0094069D01*
X0127189Y0094668D02*
X0177122Y0094668D01*
X0177074Y0095266D02*
X0127189Y0095266D01*
X0127114Y0095865D02*
X0177000Y0095865D01*
X0177000Y0096463D02*
X0126515Y0096463D01*
X0129106Y0092872D02*
X0175327Y0092872D01*
X0174728Y0092274D02*
X0129705Y0092274D01*
X0130189Y0091675D02*
X0174130Y0091675D01*
X0173531Y0091077D02*
X0159402Y0091077D01*
X0159290Y0091189D02*
X0157310Y0091189D01*
X0155911Y0089790D01*
X0155911Y0087810D01*
X0157310Y0086411D01*
X0159290Y0086411D01*
X0160689Y0087810D01*
X0160689Y0089790D01*
X0159290Y0091189D01*
X0160000Y0090478D02*
X0172933Y0090478D01*
X0172334Y0089880D02*
X0160599Y0089880D01*
X0160689Y0089281D02*
X0171736Y0089281D01*
X0171137Y0088683D02*
X0160689Y0088683D01*
X0160689Y0088084D02*
X0170539Y0088084D01*
X0169940Y0087486D02*
X0160364Y0087486D01*
X0159766Y0086887D02*
X0169342Y0086887D01*
X0168743Y0086289D02*
X0133957Y0086289D01*
X0133358Y0086887D02*
X0156834Y0086887D01*
X0156236Y0087486D02*
X0132760Y0087486D01*
X0132161Y0088084D02*
X0155911Y0088084D01*
X0155911Y0088683D02*
X0129061Y0088683D01*
X0129660Y0089281D02*
X0155911Y0089281D01*
X0156001Y0089880D02*
X0130189Y0089880D01*
X0130189Y0090478D02*
X0156600Y0090478D01*
X0157198Y0091077D02*
X0130189Y0091077D01*
X0126539Y0088683D02*
X0094963Y0088683D01*
X0094364Y0089281D02*
X0125940Y0089281D01*
X0125411Y0089880D02*
X0093766Y0089880D01*
X0093167Y0090478D02*
X0125411Y0090478D01*
X0125411Y0091077D02*
X0092569Y0091077D01*
X0081552Y0080902D02*
X0072581Y0080902D01*
X0073179Y0081501D02*
X0080954Y0081501D01*
X0080355Y0082099D02*
X0073289Y0082099D01*
X0073289Y0081610D02*
X0071890Y0080211D01*
X0069910Y0080211D01*
X0068511Y0081610D01*
X0068511Y0083590D01*
X0069910Y0084989D01*
X0071890Y0084989D01*
X0073289Y0083590D01*
X0073289Y0081610D01*
X0073289Y0082698D02*
X0079757Y0082698D01*
X0079158Y0083296D02*
X0073289Y0083296D01*
X0072984Y0083895D02*
X0078560Y0083895D01*
X0077961Y0084493D02*
X0072385Y0084493D01*
X0069415Y0084493D02*
X0067472Y0084493D01*
X0067190Y0084211D02*
X0068589Y0085610D01*
X0068589Y0087590D01*
X0067190Y0088989D01*
X0065210Y0088989D01*
X0063811Y0087590D01*
X0063811Y0085610D01*
X0065210Y0084211D01*
X0067190Y0084211D01*
X0068070Y0085092D02*
X0077363Y0085092D01*
X0076764Y0085690D02*
X0068589Y0085690D01*
X0068589Y0086289D02*
X0076166Y0086289D01*
X0075567Y0086887D02*
X0068589Y0086887D01*
X0068589Y0087486D02*
X0074969Y0087486D01*
X0074370Y0088084D02*
X0068094Y0088084D01*
X0067496Y0088683D02*
X0073772Y0088683D01*
X0073173Y0089281D02*
X0048289Y0089281D01*
X0048289Y0088683D02*
X0055504Y0088683D01*
X0055610Y0088789D02*
X0054211Y0087390D01*
X0054211Y0085410D01*
X0055610Y0084011D01*
X0057590Y0084011D01*
X0058989Y0085410D01*
X0058989Y0087390D01*
X0057590Y0088789D01*
X0055610Y0088789D01*
X0054906Y0088084D02*
X0047763Y0088084D01*
X0048289Y0088610D02*
X0046890Y0087211D01*
X0044910Y0087211D01*
X0043511Y0088610D01*
X0043511Y0090590D01*
X0044910Y0091989D01*
X0046890Y0091989D01*
X0048289Y0090590D01*
X0048289Y0088610D01*
X0048289Y0089880D02*
X0072575Y0089880D01*
X0071976Y0090478D02*
X0048289Y0090478D01*
X0047802Y0091077D02*
X0071378Y0091077D01*
X0070779Y0091675D02*
X0047203Y0091675D01*
X0044597Y0091675D02*
X0002600Y0091675D01*
X0002600Y0091077D02*
X0043998Y0091077D01*
X0043511Y0090478D02*
X0002600Y0090478D01*
X0002600Y0089880D02*
X0043511Y0089880D01*
X0043511Y0089281D02*
X0002600Y0089281D01*
X0002600Y0088683D02*
X0043511Y0088683D01*
X0044037Y0088084D02*
X0002600Y0088084D01*
X0002600Y0087486D02*
X0044636Y0087486D01*
X0047164Y0087486D02*
X0054307Y0087486D01*
X0054211Y0086887D02*
X0002600Y0086887D01*
X0002600Y0086289D02*
X0054211Y0086289D01*
X0054211Y0085690D02*
X0002600Y0085690D01*
X0002600Y0085092D02*
X0054530Y0085092D01*
X0055128Y0084493D02*
X0034585Y0084493D01*
X0034390Y0084689D02*
X0032410Y0084689D01*
X0031011Y0083290D01*
X0031011Y0081310D01*
X0032410Y0079911D01*
X0034390Y0079911D01*
X0035789Y0081310D01*
X0035789Y0083290D01*
X0034390Y0084689D01*
X0035184Y0083895D02*
X0068816Y0083895D01*
X0068511Y0083296D02*
X0035782Y0083296D01*
X0035789Y0082698D02*
X0068511Y0082698D01*
X0068511Y0082099D02*
X0035789Y0082099D01*
X0035789Y0081501D02*
X0068621Y0081501D01*
X0069219Y0080902D02*
X0035381Y0080902D01*
X0034782Y0080303D02*
X0069818Y0080303D01*
X0071982Y0080303D02*
X0081425Y0080303D01*
X0080826Y0079705D02*
X0026084Y0079705D01*
X0025790Y0079411D02*
X0027189Y0080810D01*
X0027189Y0082790D01*
X0025790Y0084189D01*
X0023810Y0084189D01*
X0022411Y0082790D01*
X0022411Y0080810D01*
X0023810Y0079411D01*
X0025790Y0079411D01*
X0026682Y0080303D02*
X0032018Y0080303D01*
X0031419Y0080902D02*
X0027189Y0080902D01*
X0027189Y0081501D02*
X0031011Y0081501D01*
X0031011Y0082099D02*
X0027189Y0082099D01*
X0027189Y0082698D02*
X0031011Y0082698D01*
X0031018Y0083296D02*
X0026682Y0083296D01*
X0026084Y0083895D02*
X0031616Y0083895D01*
X0032215Y0084493D02*
X0002600Y0084493D01*
X0002600Y0083895D02*
X0023516Y0083895D01*
X0022918Y0083296D02*
X0002600Y0083296D01*
X0002600Y0082698D02*
X0022411Y0082698D01*
X0022411Y0082099D02*
X0002600Y0082099D01*
X0002600Y0081501D02*
X0022411Y0081501D01*
X0022411Y0080902D02*
X0002600Y0080902D01*
X0002600Y0080303D02*
X0022918Y0080303D01*
X0023516Y0079705D02*
X0002600Y0079705D01*
X0002600Y0079106D02*
X0080411Y0079106D01*
X0080411Y0078508D02*
X0002600Y0078508D01*
X0002600Y0077909D02*
X0080411Y0077909D01*
X0080411Y0077311D02*
X0002600Y0077311D01*
X0002600Y0076712D02*
X0076334Y0076712D01*
X0076810Y0077189D02*
X0075411Y0075790D01*
X0075411Y0073810D01*
X0076810Y0072411D01*
X0078790Y0072411D01*
X0080189Y0073810D01*
X0080189Y0075790D01*
X0078790Y0077189D01*
X0076810Y0077189D01*
X0075735Y0076114D02*
X0002600Y0076114D01*
X0002600Y0075515D02*
X0075411Y0075515D01*
X0075411Y0074917D02*
X0002600Y0074917D01*
X0002600Y0074318D02*
X0075411Y0074318D01*
X0075502Y0073720D02*
X0002600Y0073720D01*
X0002600Y0073121D02*
X0076100Y0073121D01*
X0076699Y0072523D02*
X0002600Y0072523D01*
X0002600Y0071924D02*
X0066546Y0071924D01*
X0067010Y0072389D02*
X0065611Y0070990D01*
X0065611Y0069010D01*
X0067010Y0067611D01*
X0068990Y0067611D01*
X0070389Y0069010D01*
X0070389Y0070990D01*
X0068990Y0072389D01*
X0067010Y0072389D01*
X0065947Y0071326D02*
X0002600Y0071326D01*
X0002600Y0070727D02*
X0065611Y0070727D01*
X0065611Y0070129D02*
X0002600Y0070129D01*
X0002600Y0069530D02*
X0065611Y0069530D01*
X0065690Y0068932D02*
X0002600Y0068932D01*
X0002600Y0068333D02*
X0066288Y0068333D01*
X0066887Y0067735D02*
X0002600Y0067735D01*
X0002600Y0067136D02*
X0177000Y0067136D01*
X0176871Y0066538D02*
X0002600Y0066538D01*
X0002600Y0065939D02*
X0031707Y0065939D01*
X0031109Y0065341D02*
X0002600Y0065341D01*
X0002600Y0064742D02*
X0030857Y0064742D01*
X0030857Y0064144D02*
X0002600Y0064144D01*
X0002600Y0063545D02*
X0030857Y0063545D01*
X0031021Y0062947D02*
X0002600Y0062947D01*
X0002600Y0062348D02*
X0031620Y0062348D01*
X0032218Y0061750D02*
X0002600Y0061750D01*
X0026768Y0037211D02*
X0108011Y0037211D01*
X0108609Y0036612D02*
X0027366Y0036612D01*
X0012929Y0025240D02*
X0002600Y0025240D01*
X0002600Y0024642D02*
X0011484Y0024642D01*
X0010538Y0024043D02*
X0002600Y0024043D01*
X0002600Y0023445D02*
X0009939Y0023445D01*
X0009341Y0022846D02*
X0002600Y0022846D01*
X0002600Y0022248D02*
X0008742Y0022248D01*
X0008179Y0021649D02*
X0002600Y0021649D01*
X0002600Y0021051D02*
X0007931Y0021051D01*
X0007683Y0020452D02*
X0002600Y0020452D01*
X0002600Y0019854D02*
X0007435Y0019854D01*
X0007187Y0019255D02*
X0002600Y0019255D01*
X0002600Y0018657D02*
X0006939Y0018657D01*
X0006750Y0018058D02*
X0002600Y0018058D01*
X0002600Y0017460D02*
X0006750Y0017460D01*
X0006750Y0016861D02*
X0002600Y0016861D01*
X0002601Y0016263D02*
X0006750Y0016263D01*
X0006750Y0015664D02*
X0002630Y0015664D01*
X0002659Y0015066D02*
X0006750Y0015066D01*
X0006750Y0014467D02*
X0002698Y0014467D01*
X0002848Y0013869D02*
X0006970Y0013869D01*
X0007218Y0013270D02*
X0002997Y0013270D01*
X0003147Y0012672D02*
X0007466Y0012672D01*
X0007714Y0012073D02*
X0003297Y0012073D01*
X0003446Y0011475D02*
X0007962Y0011475D01*
X0008218Y0010876D02*
X0003668Y0010876D01*
X0004000Y0010278D02*
X0008817Y0010278D01*
X0009415Y0009679D02*
X0004332Y0009679D01*
X0004665Y0009081D02*
X0010014Y0009081D01*
X0010612Y0008482D02*
X0004997Y0008482D01*
X0005394Y0007884D02*
X0011664Y0007884D01*
X0013109Y0007285D02*
X0005973Y0007285D01*
X0007130Y0006088D02*
X0195130Y0006088D01*
X0194512Y0005490D02*
X0007729Y0005490D01*
X0008726Y0004891D02*
X0193547Y0004891D01*
X0192470Y0004293D02*
X0009723Y0004293D01*
X0010751Y0003694D02*
X0191393Y0003694D01*
X0189266Y0003096D02*
X0012842Y0003096D01*
X0019491Y0007285D02*
X0183109Y0007285D01*
X0181664Y0007884D02*
X0046762Y0007884D01*
X0046690Y0007811D02*
X0048089Y0009210D01*
X0048089Y0011190D01*
X0046690Y0012589D01*
X0044710Y0012589D01*
X0043311Y0011190D01*
X0043311Y0009210D01*
X0044710Y0007811D01*
X0046690Y0007811D01*
X0047361Y0008482D02*
X0180612Y0008482D01*
X0180014Y0009081D02*
X0047959Y0009081D01*
X0048089Y0009679D02*
X0179415Y0009679D01*
X0178817Y0010278D02*
X0048089Y0010278D01*
X0048089Y0010876D02*
X0178218Y0010876D01*
X0177962Y0011475D02*
X0047804Y0011475D01*
X0047205Y0012073D02*
X0177714Y0012073D01*
X0167200Y0027036D02*
X0200000Y0027036D01*
X0200000Y0027634D02*
X0167200Y0027634D01*
X0167200Y0028233D02*
X0200000Y0028233D01*
X0200000Y0028832D02*
X0167200Y0028832D01*
X0167200Y0029430D02*
X0200000Y0029430D01*
X0200000Y0030029D02*
X0167200Y0030029D01*
X0167200Y0030627D02*
X0200000Y0030627D01*
X0200000Y0031226D02*
X0167200Y0031226D01*
X0167200Y0031824D02*
X0200000Y0031824D01*
X0200000Y0032423D02*
X0167200Y0032423D01*
X0167200Y0033021D02*
X0200000Y0033021D01*
X0200000Y0033620D02*
X0167200Y0033620D01*
X0167200Y0034218D02*
X0200000Y0034218D01*
X0200000Y0034817D02*
X0167200Y0034817D01*
X0167200Y0035415D02*
X0200000Y0035415D01*
X0200000Y0036014D02*
X0167200Y0036014D01*
X0167200Y0036612D02*
X0200000Y0036612D01*
X0200000Y0037211D02*
X0167200Y0037211D01*
X0167200Y0037809D02*
X0200000Y0037809D01*
X0200000Y0038408D02*
X0167200Y0038408D01*
X0167200Y0039006D02*
X0200000Y0039006D01*
X0200000Y0039605D02*
X0167200Y0039605D01*
X0167200Y0040203D02*
X0200000Y0040203D01*
X0200000Y0040802D02*
X0167200Y0040802D01*
X0167200Y0041400D02*
X0200000Y0041400D01*
X0200000Y0041999D02*
X0167200Y0041999D01*
X0167200Y0042597D02*
X0200000Y0042597D01*
X0200000Y0043196D02*
X0167200Y0043196D01*
X0167200Y0043794D02*
X0200000Y0043794D01*
X0200000Y0044393D02*
X0167200Y0044393D01*
X0167200Y0044991D02*
X0200000Y0044991D01*
X0200000Y0045590D02*
X0167200Y0045590D01*
X0167200Y0046188D02*
X0200000Y0046188D01*
X0200000Y0046787D02*
X0167200Y0046787D01*
X0167200Y0047385D02*
X0200000Y0047385D01*
X0200000Y0047984D02*
X0167651Y0047984D01*
X0168249Y0048582D02*
X0200000Y0048582D01*
X0200000Y0049181D02*
X0168848Y0049181D01*
X0169446Y0049779D02*
X0200000Y0049779D01*
X0200000Y0050378D02*
X0170045Y0050378D01*
X0170643Y0050976D02*
X0200000Y0050976D01*
X0190026Y0052173D02*
X0182574Y0052173D01*
X0183853Y0052772D02*
X0188747Y0052772D01*
X0188148Y0053370D02*
X0184452Y0053370D01*
X0184989Y0053969D02*
X0187611Y0053969D01*
X0187363Y0054568D02*
X0185237Y0054568D01*
X0185485Y0055166D02*
X0187115Y0055166D01*
X0187000Y0055765D02*
X0185600Y0055765D01*
X0185600Y0056363D02*
X0187000Y0056363D01*
X0187000Y0056962D02*
X0185600Y0056962D01*
X0185432Y0057560D02*
X0187168Y0057560D01*
X0187416Y0058159D02*
X0185184Y0058159D01*
X0184924Y0058757D02*
X0187676Y0058757D01*
X0188274Y0059356D02*
X0184326Y0059356D01*
X0183715Y0059954D02*
X0188885Y0059954D01*
X0190330Y0060553D02*
X0182270Y0060553D01*
X0182996Y0062348D02*
X0189604Y0062348D01*
X0188572Y0062947D02*
X0184028Y0062947D01*
X0184626Y0063545D02*
X0187974Y0063545D01*
X0187539Y0064144D02*
X0185061Y0064144D01*
X0185309Y0064742D02*
X0187291Y0064742D01*
X0187043Y0065341D02*
X0185557Y0065341D01*
X0185600Y0065939D02*
X0187000Y0065939D01*
X0187000Y0066538D02*
X0185600Y0066538D01*
X0185600Y0067136D02*
X0187000Y0067136D01*
X0187240Y0067735D02*
X0185360Y0067735D01*
X0185112Y0068333D02*
X0187488Y0068333D01*
X0187851Y0068932D02*
X0184749Y0068932D01*
X0184151Y0069530D02*
X0188449Y0069530D01*
X0189307Y0070129D02*
X0183293Y0070129D01*
X0183418Y0072523D02*
X0189182Y0072523D01*
X0188398Y0073121D02*
X0184202Y0073121D01*
X0184801Y0073720D02*
X0187799Y0073720D01*
X0187467Y0074318D02*
X0185133Y0074318D01*
X0185381Y0074917D02*
X0187219Y0074917D01*
X0187000Y0075515D02*
X0185600Y0075515D01*
X0185600Y0076114D02*
X0187000Y0076114D01*
X0187000Y0076712D02*
X0185600Y0076712D01*
X0185536Y0077311D02*
X0187064Y0077311D01*
X0187312Y0077909D02*
X0185288Y0077909D01*
X0185040Y0078508D02*
X0187560Y0078508D01*
X0188025Y0079106D02*
X0184575Y0079106D01*
X0183976Y0079705D02*
X0188624Y0079705D01*
X0189729Y0080303D02*
X0182871Y0080303D01*
X0182394Y0082099D02*
X0190206Y0082099D01*
X0188821Y0082698D02*
X0183779Y0082698D01*
X0184377Y0083296D02*
X0188223Y0083296D01*
X0187642Y0083895D02*
X0184958Y0083895D01*
X0185206Y0084493D02*
X0187394Y0084493D01*
X0187146Y0085092D02*
X0185454Y0085092D01*
X0185600Y0085690D02*
X0187000Y0085690D01*
X0187000Y0086289D02*
X0185600Y0086289D01*
X0185600Y0086887D02*
X0187000Y0086887D01*
X0187137Y0087486D02*
X0185463Y0087486D01*
X0185215Y0088084D02*
X0187385Y0088084D01*
X0187633Y0088683D02*
X0184967Y0088683D01*
X0184400Y0089281D02*
X0188200Y0089281D01*
X0188799Y0089880D02*
X0183801Y0089880D01*
X0182449Y0090478D02*
X0190151Y0090478D01*
X0190445Y0092000D02*
X0188864Y0092655D01*
X0187655Y0093864D01*
X0187000Y0095445D01*
X0187000Y0097155D01*
X0187655Y0098736D01*
X0188864Y0099945D01*
X0190445Y0100600D01*
X0192155Y0100600D01*
X0193736Y0099945D01*
X0194945Y0098736D01*
X0195600Y0097155D01*
X0195600Y0095445D01*
X0194945Y0093864D01*
X0193736Y0092655D01*
X0192155Y0092000D01*
X0190445Y0092000D01*
X0189784Y0092274D02*
X0182816Y0092274D01*
X0183953Y0092872D02*
X0188647Y0092872D01*
X0188048Y0093471D02*
X0184552Y0093471D01*
X0185030Y0094069D02*
X0187570Y0094069D01*
X0187322Y0094668D02*
X0185278Y0094668D01*
X0185526Y0095266D02*
X0187074Y0095266D01*
X0187000Y0095865D02*
X0185600Y0095865D01*
X0185600Y0096463D02*
X0187000Y0096463D01*
X0187000Y0097062D02*
X0185600Y0097062D01*
X0185391Y0097660D02*
X0187209Y0097660D01*
X0187457Y0098259D02*
X0185143Y0098259D01*
X0184824Y0098857D02*
X0187776Y0098857D01*
X0188375Y0099456D02*
X0184225Y0099456D01*
X0183473Y0100054D02*
X0189127Y0100054D01*
X0190445Y0102000D02*
X0188864Y0102655D01*
X0187655Y0103864D01*
X0187000Y0105445D01*
X0187000Y0107155D01*
X0187655Y0108736D01*
X0188864Y0109945D01*
X0190445Y0110600D01*
X0192155Y0110600D01*
X0193736Y0109945D01*
X0194945Y0108736D01*
X0195600Y0107155D01*
X0195600Y0105445D01*
X0194945Y0103864D01*
X0193736Y0102655D01*
X0192155Y0102000D01*
X0190445Y0102000D01*
X0189362Y0102448D02*
X0183238Y0102448D01*
X0184128Y0103047D02*
X0188472Y0103047D01*
X0187873Y0103645D02*
X0184727Y0103645D01*
X0185103Y0104244D02*
X0187497Y0104244D01*
X0187249Y0104842D02*
X0185351Y0104842D01*
X0185598Y0105441D02*
X0187002Y0105441D01*
X0187000Y0106039D02*
X0185600Y0106039D01*
X0185600Y0106638D02*
X0187000Y0106638D01*
X0187034Y0107237D02*
X0185566Y0107237D01*
X0185318Y0107835D02*
X0187282Y0107835D01*
X0187529Y0108434D02*
X0185071Y0108434D01*
X0184649Y0109032D02*
X0187951Y0109032D01*
X0188549Y0109631D02*
X0187176Y0109631D01*
X0187775Y0110229D02*
X0189549Y0110229D01*
X0188373Y0110828D02*
X0200000Y0110828D01*
X0200000Y0111426D02*
X0188972Y0111426D01*
X0189570Y0112025D02*
X0190385Y0112025D01*
X0192215Y0112025D02*
X0200000Y0112025D01*
X0200000Y0112623D02*
X0193660Y0112623D01*
X0194303Y0113222D02*
X0200000Y0113222D01*
X0200000Y0113820D02*
X0194901Y0113820D01*
X0195175Y0114419D02*
X0200000Y0114419D01*
X0200000Y0115017D02*
X0195423Y0115017D01*
X0195600Y0115616D02*
X0200000Y0115616D01*
X0200000Y0116214D02*
X0195600Y0116214D01*
X0195600Y0116813D02*
X0200000Y0116813D01*
X0200000Y0117411D02*
X0195494Y0117411D01*
X0195246Y0118010D02*
X0200000Y0118010D01*
X0200000Y0118608D02*
X0194998Y0118608D01*
X0194474Y0119207D02*
X0200000Y0119207D01*
X0200000Y0119805D02*
X0193876Y0119805D01*
X0192629Y0120404D02*
X0200000Y0120404D01*
X0200000Y0121002D02*
X0188548Y0121002D01*
X0187949Y0120404D02*
X0189971Y0120404D01*
X0188724Y0119805D02*
X0187351Y0119805D01*
X0188126Y0119207D02*
X0184474Y0119207D01*
X0184998Y0118608D02*
X0187602Y0118608D01*
X0187354Y0118010D02*
X0185246Y0118010D01*
X0185494Y0117411D02*
X0187106Y0117411D01*
X0187000Y0116813D02*
X0185600Y0116813D01*
X0185600Y0116214D02*
X0187000Y0116214D01*
X0187000Y0115616D02*
X0185600Y0115616D01*
X0185423Y0115017D02*
X0187177Y0115017D01*
X0186873Y0114419D02*
X0185175Y0114419D01*
X0184901Y0113820D02*
X0186275Y0113820D01*
X0185676Y0113222D02*
X0184303Y0113222D01*
X0193051Y0110229D02*
X0200000Y0110229D01*
X0200000Y0109631D02*
X0194051Y0109631D01*
X0194649Y0109032D02*
X0200000Y0109032D01*
X0200000Y0108434D02*
X0195071Y0108434D01*
X0195318Y0107835D02*
X0200000Y0107835D01*
X0200000Y0107237D02*
X0195566Y0107237D01*
X0195600Y0106638D02*
X0200000Y0106638D01*
X0200000Y0106039D02*
X0195600Y0106039D01*
X0195598Y0105441D02*
X0200000Y0105441D01*
X0200000Y0104842D02*
X0195351Y0104842D01*
X0195103Y0104244D02*
X0200000Y0104244D01*
X0200000Y0103645D02*
X0194727Y0103645D01*
X0194128Y0103047D02*
X0200000Y0103047D01*
X0200000Y0102448D02*
X0193238Y0102448D01*
X0193473Y0100054D02*
X0200000Y0100054D01*
X0200000Y0099456D02*
X0194225Y0099456D01*
X0194824Y0098857D02*
X0200000Y0098857D01*
X0200000Y0098259D02*
X0195143Y0098259D01*
X0195391Y0097660D02*
X0200000Y0097660D01*
X0200000Y0097062D02*
X0195600Y0097062D01*
X0195600Y0096463D02*
X0200000Y0096463D01*
X0200000Y0095865D02*
X0195600Y0095865D01*
X0195526Y0095266D02*
X0200000Y0095266D01*
X0200000Y0094668D02*
X0195278Y0094668D01*
X0195030Y0094069D02*
X0200000Y0094069D01*
X0200000Y0093471D02*
X0194552Y0093471D01*
X0193953Y0092872D02*
X0200000Y0092872D01*
X0200000Y0092274D02*
X0192816Y0092274D01*
X0192449Y0090478D02*
X0200000Y0090478D01*
X0200000Y0089880D02*
X0193801Y0089880D01*
X0194400Y0089281D02*
X0200000Y0089281D01*
X0200000Y0088683D02*
X0194967Y0088683D01*
X0195215Y0088084D02*
X0200000Y0088084D01*
X0200000Y0087486D02*
X0195463Y0087486D01*
X0195600Y0086887D02*
X0200000Y0086887D01*
X0200000Y0086289D02*
X0195600Y0086289D01*
X0195600Y0085690D02*
X0200000Y0085690D01*
X0200000Y0085092D02*
X0195454Y0085092D01*
X0195206Y0084493D02*
X0200000Y0084493D01*
X0200000Y0083895D02*
X0194958Y0083895D01*
X0194377Y0083296D02*
X0200000Y0083296D01*
X0200000Y0082698D02*
X0193779Y0082698D01*
X0200000Y0080902D02*
X0178448Y0080902D01*
X0175750Y0083296D02*
X0170842Y0083296D01*
X0171440Y0083895D02*
X0176349Y0083895D01*
X0176948Y0084493D02*
X0172039Y0084493D01*
X0172637Y0085092D02*
X0177146Y0085092D01*
X0177000Y0085690D02*
X0173236Y0085690D01*
X0173834Y0086289D02*
X0177000Y0086289D01*
X0177000Y0086887D02*
X0174433Y0086887D01*
X0175031Y0087486D02*
X0177137Y0087486D01*
X0177385Y0088084D02*
X0175630Y0088084D01*
X0176228Y0088683D02*
X0177633Y0088683D01*
X0178200Y0089281D02*
X0176827Y0089281D01*
X0177425Y0089880D02*
X0178799Y0089880D01*
X0178024Y0090478D02*
X0180151Y0090478D01*
X0179221Y0091675D02*
X0200000Y0091675D01*
X0200000Y0091077D02*
X0178622Y0091077D01*
X0177000Y0097062D02*
X0160007Y0097062D01*
X0160606Y0097660D02*
X0177209Y0097660D01*
X0177457Y0098259D02*
X0161204Y0098259D01*
X0161803Y0098857D02*
X0177776Y0098857D01*
X0178375Y0099456D02*
X0162401Y0099456D01*
X0163000Y0100054D02*
X0179127Y0100054D01*
X0179362Y0102448D02*
X0165394Y0102448D01*
X0164795Y0101850D02*
X0200000Y0101850D01*
X0200000Y0101251D02*
X0164197Y0101251D01*
X0163598Y0100653D02*
X0200000Y0100653D01*
X0178472Y0103047D02*
X0165993Y0103047D01*
X0166591Y0103645D02*
X0177873Y0103645D01*
X0177497Y0104244D02*
X0167190Y0104244D01*
X0168145Y0085690D02*
X0134555Y0085690D01*
X0128827Y0070727D02*
X0118506Y0070727D01*
X0116094Y0070727D02*
X0110689Y0070727D01*
X0110689Y0071190D02*
X0110689Y0069210D01*
X0109290Y0067811D01*
X0107310Y0067811D01*
X0105911Y0069210D01*
X0105911Y0071190D01*
X0107310Y0072589D01*
X0109290Y0072589D01*
X0110689Y0071190D01*
X0110553Y0071326D02*
X0115496Y0071326D01*
X0114911Y0071924D02*
X0109954Y0071924D01*
X0109356Y0072523D02*
X0114911Y0072523D01*
X0114911Y0073121D02*
X0093389Y0073121D01*
X0093389Y0072610D02*
X0093389Y0074590D01*
X0091990Y0075989D01*
X0090010Y0075989D01*
X0088611Y0074590D01*
X0088611Y0072610D01*
X0090010Y0071211D01*
X0091990Y0071211D01*
X0093389Y0072610D01*
X0093301Y0072523D02*
X0107244Y0072523D01*
X0106646Y0071924D02*
X0092703Y0071924D01*
X0092104Y0071326D02*
X0106047Y0071326D01*
X0105911Y0070727D02*
X0070389Y0070727D01*
X0070389Y0070129D02*
X0105911Y0070129D01*
X0105911Y0069530D02*
X0070389Y0069530D01*
X0070310Y0068932D02*
X0106190Y0068932D01*
X0106788Y0068333D02*
X0069712Y0068333D01*
X0069113Y0067735D02*
X0177240Y0067735D01*
X0177488Y0068333D02*
X0109812Y0068333D01*
X0110410Y0068932D02*
X0177851Y0068932D01*
X0178449Y0069530D02*
X0177076Y0069530D01*
X0177674Y0070129D02*
X0179307Y0070129D01*
X0178273Y0070727D02*
X0200000Y0070727D01*
X0200000Y0071326D02*
X0178871Y0071326D01*
X0179470Y0071924D02*
X0200000Y0071924D01*
X0180330Y0060553D02*
X0180220Y0060553D01*
X0175674Y0065341D02*
X0035384Y0065341D01*
X0034786Y0065939D02*
X0176272Y0065939D01*
X0160600Y0046188D02*
X0135790Y0046188D01*
X0136389Y0045590D02*
X0160600Y0045590D01*
X0160600Y0044991D02*
X0136987Y0044991D01*
X0137189Y0044393D02*
X0160600Y0044393D01*
X0160600Y0043794D02*
X0137189Y0043794D01*
X0137189Y0043196D02*
X0160600Y0043196D01*
X0160600Y0042597D02*
X0136976Y0042597D01*
X0136377Y0041999D02*
X0160600Y0041999D01*
X0160600Y0034218D02*
X0052360Y0034218D01*
X0052959Y0033620D02*
X0160600Y0033620D01*
X0160600Y0033021D02*
X0053189Y0033021D01*
X0053189Y0032423D02*
X0160600Y0032423D01*
X0160600Y0031824D02*
X0067754Y0031824D01*
X0068353Y0031226D02*
X0160600Y0031226D01*
X0160600Y0030627D02*
X0068951Y0030627D01*
X0069089Y0030029D02*
X0160600Y0030029D01*
X0160600Y0029430D02*
X0069089Y0029430D01*
X0069089Y0028832D02*
X0160600Y0028832D01*
X0160600Y0028233D02*
X0068812Y0028233D01*
X0068213Y0027634D02*
X0160600Y0027634D01*
X0130024Y0069530D02*
X0110689Y0069530D01*
X0110689Y0070129D02*
X0129426Y0070129D01*
X0100102Y0073720D02*
X0093389Y0073720D01*
X0093389Y0074318D02*
X0099503Y0074318D01*
X0099211Y0074917D02*
X0093062Y0074917D01*
X0092463Y0075515D02*
X0099211Y0075515D01*
X0099211Y0076114D02*
X0088292Y0076114D01*
X0088891Y0076712D02*
X0099334Y0076712D01*
X0099932Y0077311D02*
X0089289Y0077311D01*
X0089289Y0077909D02*
X0100531Y0077909D01*
X0089896Y0071326D02*
X0070053Y0071326D01*
X0069454Y0071924D02*
X0089297Y0071924D01*
X0088699Y0072523D02*
X0078901Y0072523D01*
X0079500Y0073121D02*
X0088611Y0073121D01*
X0088611Y0073720D02*
X0080098Y0073720D01*
X0080189Y0074318D02*
X0088611Y0074318D01*
X0088938Y0074917D02*
X0080189Y0074917D01*
X0080189Y0075515D02*
X0089537Y0075515D01*
X0085508Y0076114D02*
X0083992Y0076114D01*
X0084591Y0076712D02*
X0084909Y0076712D01*
X0081608Y0076114D02*
X0079865Y0076114D01*
X0079266Y0076712D02*
X0081009Y0076712D01*
X0064928Y0084493D02*
X0058072Y0084493D01*
X0058670Y0085092D02*
X0064330Y0085092D01*
X0063811Y0085690D02*
X0058989Y0085690D01*
X0058989Y0086289D02*
X0063811Y0086289D01*
X0063811Y0086887D02*
X0058989Y0086887D01*
X0058893Y0087486D02*
X0063811Y0087486D01*
X0064306Y0088084D02*
X0058294Y0088084D01*
X0057696Y0088683D02*
X0064904Y0088683D01*
X0069582Y0092872D02*
X0002600Y0092872D01*
X0002600Y0092274D02*
X0070181Y0092274D01*
X0068984Y0093471D02*
X0002600Y0093471D01*
X0002600Y0094069D02*
X0040652Y0094069D01*
X0040910Y0093811D02*
X0042890Y0093811D01*
X0044289Y0095210D01*
X0044289Y0097190D01*
X0042890Y0098589D01*
X0040910Y0098589D01*
X0039511Y0097190D01*
X0039511Y0095210D01*
X0040910Y0093811D01*
X0040054Y0094668D02*
X0002600Y0094668D01*
X0002600Y0095266D02*
X0039511Y0095266D01*
X0039511Y0095865D02*
X0002600Y0095865D01*
X0002600Y0096463D02*
X0039511Y0096463D01*
X0039511Y0097062D02*
X0002600Y0097062D01*
X0002600Y0097660D02*
X0039982Y0097660D01*
X0040580Y0098259D02*
X0002600Y0098259D01*
X0002600Y0098857D02*
X0063597Y0098857D01*
X0064196Y0098259D02*
X0043220Y0098259D01*
X0043818Y0097660D02*
X0064794Y0097660D01*
X0065393Y0097062D02*
X0044289Y0097062D01*
X0044289Y0096463D02*
X0065991Y0096463D01*
X0066590Y0095865D02*
X0044289Y0095865D01*
X0044289Y0095266D02*
X0067188Y0095266D01*
X0067787Y0094668D02*
X0043746Y0094668D01*
X0043148Y0094069D02*
X0068385Y0094069D01*
X0062999Y0099456D02*
X0002600Y0099456D01*
X0002600Y0100054D02*
X0062400Y0100054D01*
X0061802Y0100653D02*
X0002600Y0100653D01*
X0002600Y0101251D02*
X0061203Y0101251D01*
X0060605Y0101850D02*
X0002600Y0101850D01*
X0002600Y0102448D02*
X0060006Y0102448D01*
X0059407Y0103047D02*
X0002600Y0103047D01*
X0002600Y0103645D02*
X0058809Y0103645D01*
X0058210Y0104244D02*
X0002600Y0104244D01*
X0002600Y0104842D02*
X0057612Y0104842D01*
X0057013Y0105441D02*
X0002600Y0105441D01*
X0002600Y0106039D02*
X0056415Y0106039D01*
X0055816Y0106638D02*
X0002600Y0106638D01*
X0002600Y0107237D02*
X0055218Y0107237D01*
X0055000Y0107835D02*
X0002600Y0107835D01*
X0002600Y0108434D02*
X0055000Y0108434D01*
X0055000Y0109032D02*
X0002600Y0109032D01*
X0002600Y0109631D02*
X0054591Y0109631D01*
X0054411Y0110229D02*
X0002600Y0110229D01*
X0002600Y0110828D02*
X0054411Y0110828D01*
X0054411Y0111426D02*
X0002600Y0111426D01*
X0002600Y0112025D02*
X0054646Y0112025D01*
X0055245Y0112623D02*
X0002600Y0112623D01*
X0002600Y0119207D02*
X0070411Y0119207D01*
X0070411Y0119805D02*
X0002600Y0119805D01*
X0002600Y0120404D02*
X0070525Y0120404D01*
X0066030Y0125192D02*
X0002600Y0125192D01*
X0002600Y0125790D02*
X0065911Y0125790D01*
X0065911Y0126389D02*
X0002600Y0126389D01*
X0002600Y0126987D02*
X0065911Y0126987D01*
X0066207Y0127586D02*
X0002600Y0127586D01*
X0002600Y0128184D02*
X0066806Y0128184D01*
X0069794Y0128184D02*
X0078811Y0128184D01*
X0078811Y0127586D02*
X0078060Y0127586D01*
X0078811Y0127510D02*
X0080210Y0126111D01*
X0082190Y0126111D01*
X0083589Y0127510D01*
X0083589Y0129490D01*
X0082190Y0130889D01*
X0080210Y0130889D01*
X0078811Y0129490D01*
X0078811Y0127510D01*
X0078658Y0126987D02*
X0079334Y0126987D01*
X0079257Y0126389D02*
X0079933Y0126389D01*
X0079855Y0125790D02*
X0082912Y0125790D01*
X0082811Y0125192D02*
X0080454Y0125192D01*
X0081052Y0124593D02*
X0082811Y0124593D01*
X0082811Y0123995D02*
X0081651Y0123995D01*
X0082249Y0123396D02*
X0083125Y0123396D01*
X0082848Y0122798D02*
X0083724Y0122798D01*
X0083446Y0122199D02*
X0085155Y0122199D01*
X0085754Y0121601D02*
X0084045Y0121601D01*
X0084643Y0121002D02*
X0086352Y0121002D01*
X0085242Y0120404D02*
X0134611Y0120404D01*
X0134611Y0119805D02*
X0085840Y0119805D01*
X0087589Y0125192D02*
X0100030Y0125192D01*
X0099431Y0125790D02*
X0087488Y0125790D01*
X0086890Y0126389D02*
X0099411Y0126389D01*
X0099411Y0126987D02*
X0086291Y0126987D01*
X0084109Y0126987D02*
X0083066Y0126987D01*
X0083510Y0126389D02*
X0082467Y0126389D01*
X0083589Y0127586D02*
X0099411Y0127586D01*
X0099806Y0128184D02*
X0083589Y0128184D01*
X0083589Y0128783D02*
X0100404Y0128783D01*
X0103196Y0128783D02*
X0111404Y0128783D01*
X0110911Y0128184D02*
X0103794Y0128184D01*
X0104189Y0127586D02*
X0110911Y0127586D01*
X0110911Y0126987D02*
X0104189Y0126987D01*
X0112003Y0129381D02*
X0083589Y0129381D01*
X0083099Y0129980D02*
X0137234Y0129980D01*
X0136636Y0129381D02*
X0114597Y0129381D01*
X0112390Y0135711D02*
X0110410Y0135711D01*
X0109011Y0137110D01*
X0109011Y0139090D01*
X0110410Y0140489D01*
X0112390Y0140489D01*
X0113789Y0139090D01*
X0113789Y0137110D01*
X0112390Y0135711D01*
X0112644Y0135965D02*
X0123911Y0135965D01*
X0123911Y0136290D02*
X0123911Y0134310D01*
X0125310Y0132911D01*
X0127290Y0132911D01*
X0128689Y0134310D01*
X0128689Y0136290D01*
X0127290Y0137689D01*
X0125310Y0137689D01*
X0123911Y0136290D01*
X0124185Y0136564D02*
X0113242Y0136564D01*
X0113789Y0137162D02*
X0124784Y0137162D01*
X0123911Y0135367D02*
X0038745Y0135367D01*
X0038989Y0135610D02*
X0037590Y0134211D01*
X0035610Y0134211D01*
X0034211Y0135610D01*
X0034211Y0137590D01*
X0035610Y0138989D01*
X0037590Y0138989D01*
X0038989Y0137590D01*
X0038989Y0135610D01*
X0038989Y0135965D02*
X0110156Y0135965D01*
X0109558Y0136564D02*
X0038989Y0136564D01*
X0038989Y0137162D02*
X0109011Y0137162D01*
X0109011Y0137761D02*
X0038818Y0137761D01*
X0038219Y0138359D02*
X0109011Y0138359D01*
X0109011Y0138958D02*
X0037621Y0138958D01*
X0035579Y0138958D02*
X0002600Y0138958D01*
X0002600Y0139556D02*
X0109478Y0139556D01*
X0110076Y0140155D02*
X0002600Y0140155D01*
X0002600Y0140753D02*
X0200000Y0140753D01*
X0200000Y0140155D02*
X0193231Y0140155D01*
X0194125Y0139556D02*
X0200000Y0139556D01*
X0200000Y0138958D02*
X0194723Y0138958D01*
X0195101Y0138359D02*
X0200000Y0138359D01*
X0200000Y0137761D02*
X0195349Y0137761D01*
X0195597Y0137162D02*
X0200000Y0137162D01*
X0200000Y0136564D02*
X0195600Y0136564D01*
X0195600Y0135965D02*
X0200000Y0135965D01*
X0200000Y0135367D02*
X0195568Y0135367D01*
X0195320Y0134768D02*
X0200000Y0134768D01*
X0200000Y0134170D02*
X0195072Y0134170D01*
X0194652Y0133571D02*
X0200000Y0133571D01*
X0200000Y0132972D02*
X0194054Y0132972D01*
X0193058Y0132374D02*
X0200000Y0132374D01*
X0200000Y0131775D02*
X0189321Y0131775D01*
X0188723Y0131177D02*
X0200000Y0131177D01*
X0200000Y0130578D02*
X0192207Y0130578D01*
X0193652Y0129980D02*
X0200000Y0129980D01*
X0200000Y0129381D02*
X0194300Y0129381D01*
X0194898Y0128783D02*
X0200000Y0128783D01*
X0200000Y0128184D02*
X0195174Y0128184D01*
X0195422Y0127586D02*
X0200000Y0127586D01*
X0200000Y0126987D02*
X0195600Y0126987D01*
X0195600Y0126389D02*
X0200000Y0126389D01*
X0200000Y0125790D02*
X0195600Y0125790D01*
X0195495Y0125192D02*
X0200000Y0125192D01*
X0200000Y0124593D02*
X0195247Y0124593D01*
X0194999Y0123995D02*
X0200000Y0123995D01*
X0200000Y0123396D02*
X0194477Y0123396D01*
X0193879Y0122798D02*
X0200000Y0122798D01*
X0200000Y0122199D02*
X0192636Y0122199D01*
X0189964Y0122199D02*
X0189745Y0122199D01*
X0189146Y0121601D02*
X0200000Y0121601D01*
X0190393Y0130578D02*
X0188124Y0130578D01*
X0187526Y0129980D02*
X0188948Y0129980D01*
X0188300Y0129381D02*
X0184300Y0129381D01*
X0184898Y0128783D02*
X0187702Y0128783D01*
X0187426Y0128184D02*
X0185174Y0128184D01*
X0185422Y0127586D02*
X0187178Y0127586D01*
X0187000Y0126987D02*
X0185600Y0126987D01*
X0185600Y0126389D02*
X0187000Y0126389D01*
X0187000Y0125790D02*
X0185600Y0125790D01*
X0185495Y0125192D02*
X0187105Y0125192D01*
X0187048Y0124593D02*
X0185247Y0124593D01*
X0184999Y0123995D02*
X0186449Y0123995D01*
X0178519Y0129600D02*
X0177655Y0128736D01*
X0177391Y0128100D01*
X0163354Y0128100D01*
X0159854Y0124600D01*
X0150346Y0124600D01*
X0155346Y0129600D01*
X0178519Y0129600D01*
X0178300Y0129381D02*
X0155127Y0129381D01*
X0154528Y0128783D02*
X0177702Y0128783D01*
X0177426Y0128184D02*
X0153930Y0128184D01*
X0153331Y0127586D02*
X0162840Y0127586D01*
X0162242Y0126987D02*
X0152733Y0126987D01*
X0152134Y0126389D02*
X0161643Y0126389D01*
X0161045Y0125790D02*
X0151536Y0125790D01*
X0150937Y0125192D02*
X0160446Y0125192D01*
X0144416Y0137162D02*
X0127816Y0137162D01*
X0128415Y0136564D02*
X0143818Y0136564D01*
X0143219Y0135965D02*
X0128689Y0135965D01*
X0128689Y0135367D02*
X0142621Y0135367D01*
X0142022Y0134768D02*
X0128689Y0134768D01*
X0128548Y0134170D02*
X0141424Y0134170D01*
X0140825Y0133571D02*
X0127950Y0133571D01*
X0127351Y0132972D02*
X0140227Y0132972D01*
X0139628Y0132374D02*
X0002600Y0132374D01*
X0002600Y0132972D02*
X0125249Y0132972D01*
X0124650Y0133571D02*
X0002600Y0133571D01*
X0002600Y0134170D02*
X0124052Y0134170D01*
X0123911Y0134768D02*
X0038147Y0134768D01*
X0035053Y0134768D02*
X0002600Y0134768D01*
X0002600Y0135367D02*
X0034455Y0135367D01*
X0034211Y0135965D02*
X0002600Y0135965D01*
X0002600Y0136564D02*
X0034211Y0136564D01*
X0034211Y0137162D02*
X0002600Y0137162D01*
X0002600Y0137761D02*
X0034382Y0137761D01*
X0034981Y0138359D02*
X0002600Y0138359D01*
X0002600Y0141352D02*
X0200000Y0141352D01*
X0200000Y0141950D02*
X0002600Y0141950D01*
X0002600Y0142549D02*
X0179191Y0142549D01*
X0179046Y0142622D02*
X0179649Y0142315D01*
X0180293Y0142106D01*
X0180962Y0142000D01*
X0181000Y0142000D01*
X0181000Y0146000D01*
X0177000Y0146000D01*
X0177000Y0145962D01*
X0177106Y0145293D01*
X0177315Y0144649D01*
X0177622Y0144046D01*
X0178020Y0143499D01*
X0178499Y0143020D01*
X0179046Y0142622D01*
X0178372Y0143147D02*
X0002600Y0143147D01*
X0002600Y0143746D02*
X0177841Y0143746D01*
X0177471Y0144344D02*
X0002600Y0144344D01*
X0002600Y0144943D02*
X0177220Y0144943D01*
X0177067Y0145541D02*
X0002600Y0145541D01*
X0002600Y0146140D02*
X0181000Y0146140D01*
X0181000Y0146000D02*
X0181000Y0146600D01*
X0181000Y0150600D01*
X0180962Y0150600D01*
X0180293Y0150494D01*
X0179649Y0150285D01*
X0179046Y0149978D01*
X0178499Y0149580D01*
X0178020Y0149101D01*
X0177622Y0148554D01*
X0177315Y0147951D01*
X0177106Y0147307D01*
X0177000Y0146638D01*
X0177000Y0146600D01*
X0181000Y0146600D01*
X0181600Y0146600D01*
X0181600Y0150600D01*
X0181638Y0150600D01*
X0182307Y0150494D01*
X0182951Y0150285D01*
X0183554Y0149978D01*
X0184101Y0149580D01*
X0184580Y0149101D01*
X0184978Y0148554D01*
X0185285Y0147951D01*
X0185494Y0147307D01*
X0185600Y0146638D01*
X0185600Y0146600D01*
X0181600Y0146600D01*
X0181600Y0146000D01*
X0185600Y0146000D01*
X0185600Y0145962D01*
X0185494Y0145293D01*
X0185285Y0144649D01*
X0184978Y0144046D01*
X0184580Y0143499D01*
X0184101Y0143020D01*
X0183554Y0142622D01*
X0182951Y0142315D01*
X0182307Y0142106D01*
X0181638Y0142000D01*
X0181600Y0142000D01*
X0181600Y0146000D01*
X0181000Y0146000D01*
X0181000Y0145541D02*
X0181600Y0145541D01*
X0181600Y0144943D02*
X0181000Y0144943D01*
X0181000Y0144344D02*
X0181600Y0144344D01*
X0181600Y0143746D02*
X0181000Y0143746D01*
X0181000Y0143147D02*
X0181600Y0143147D01*
X0181600Y0142549D02*
X0181000Y0142549D01*
X0183409Y0142549D02*
X0189120Y0142549D01*
X0188864Y0142655D02*
X0190445Y0142000D01*
X0192155Y0142000D01*
X0193736Y0142655D01*
X0194945Y0143864D01*
X0195600Y0145445D01*
X0195600Y0147155D01*
X0194945Y0148736D01*
X0193736Y0149945D01*
X0192155Y0150600D01*
X0190445Y0150600D01*
X0188864Y0149945D01*
X0187655Y0148736D01*
X0187000Y0147155D01*
X0187000Y0145445D01*
X0187655Y0143864D01*
X0188864Y0142655D01*
X0188372Y0143147D02*
X0184228Y0143147D01*
X0184759Y0143746D02*
X0187773Y0143746D01*
X0187456Y0144344D02*
X0185129Y0144344D01*
X0185380Y0144943D02*
X0187208Y0144943D01*
X0187000Y0145541D02*
X0185533Y0145541D01*
X0185584Y0146738D02*
X0187000Y0146738D01*
X0187000Y0146140D02*
X0181600Y0146140D01*
X0181600Y0146738D02*
X0181000Y0146738D01*
X0181000Y0147337D02*
X0181600Y0147337D01*
X0181600Y0147935D02*
X0181000Y0147935D01*
X0181000Y0148534D02*
X0181600Y0148534D01*
X0181600Y0149132D02*
X0181000Y0149132D01*
X0181000Y0149731D02*
X0181600Y0149731D01*
X0181600Y0150329D02*
X0181000Y0150329D01*
X0179786Y0150329D02*
X0002600Y0150329D01*
X0002600Y0149731D02*
X0178707Y0149731D01*
X0178051Y0149132D02*
X0002600Y0149132D01*
X0002600Y0148534D02*
X0177612Y0148534D01*
X0177310Y0147935D02*
X0002600Y0147935D01*
X0002600Y0147337D02*
X0177116Y0147337D01*
X0177016Y0146738D02*
X0002600Y0146738D01*
X0002600Y0150928D02*
X0200000Y0150928D01*
X0200000Y0151526D02*
X0002600Y0151526D01*
X0002600Y0152125D02*
X0200000Y0152125D01*
X0200000Y0152723D02*
X0002600Y0152723D01*
X0002600Y0153322D02*
X0200000Y0153322D01*
X0200000Y0153920D02*
X0002600Y0153920D01*
X0002600Y0154519D02*
X0200000Y0154519D01*
X0200000Y0155117D02*
X0002600Y0155117D01*
X0002600Y0155716D02*
X0200000Y0155716D01*
X0200000Y0156314D02*
X0002600Y0156314D01*
X0002600Y0156913D02*
X0200000Y0156913D01*
X0200000Y0157511D02*
X0002600Y0157511D01*
X0002600Y0158110D02*
X0200000Y0158110D01*
X0200000Y0158708D02*
X0002600Y0158708D01*
X0002600Y0159307D02*
X0200000Y0159307D01*
X0200000Y0159905D02*
X0002600Y0159905D01*
X0002600Y0160504D02*
X0200000Y0160504D01*
X0200000Y0161103D02*
X0002600Y0161103D01*
X0002600Y0161701D02*
X0200000Y0161701D01*
X0200000Y0162300D02*
X0002600Y0162300D01*
X0002600Y0162898D02*
X0200000Y0162898D01*
X0200000Y0163497D02*
X0002600Y0163497D01*
X0002600Y0164095D02*
X0200000Y0164095D01*
X0200000Y0164694D02*
X0002600Y0164694D01*
X0002600Y0165292D02*
X0200000Y0165292D01*
X0200000Y0165891D02*
X0002600Y0165891D01*
X0002600Y0166489D02*
X0200000Y0166489D01*
X0200000Y0167088D02*
X0002600Y0167088D01*
X0002600Y0167686D02*
X0200000Y0167686D01*
X0200000Y0168285D02*
X0002600Y0168285D01*
X0002600Y0168883D02*
X0200000Y0168883D01*
X0200000Y0169482D02*
X0002600Y0169482D01*
X0002600Y0170080D02*
X0200000Y0170080D01*
X0200000Y0170679D02*
X0066957Y0170679D01*
X0066790Y0170511D02*
X0068189Y0171910D01*
X0068189Y0173890D01*
X0066790Y0175289D01*
X0064810Y0175289D01*
X0063411Y0173890D01*
X0063411Y0171910D01*
X0064810Y0170511D01*
X0066790Y0170511D01*
X0067556Y0171277D02*
X0108405Y0171277D01*
X0108652Y0171175D02*
X0109280Y0171050D01*
X0109300Y0171050D01*
X0109300Y0174000D01*
X0109900Y0174000D01*
X0109900Y0171050D01*
X0109920Y0171050D01*
X0110548Y0171175D01*
X0111139Y0171420D01*
X0111672Y0171776D01*
X0112100Y0172204D01*
X0112759Y0171545D01*
X0113954Y0171050D01*
X0115246Y0171050D01*
X0116441Y0171545D01*
X0117100Y0172204D01*
X0117759Y0171545D01*
X0118954Y0171050D01*
X0120246Y0171050D01*
X0121441Y0171545D01*
X0122100Y0172204D01*
X0122759Y0171545D01*
X0123954Y0171050D01*
X0125246Y0171050D01*
X0126441Y0171545D01*
X0127100Y0172204D01*
X0127759Y0171545D01*
X0128954Y0171050D01*
X0130246Y0171050D01*
X0131441Y0171545D01*
X0132355Y0172459D01*
X0132850Y0173654D01*
X0132850Y0174946D01*
X0132355Y0176141D01*
X0131696Y0176800D01*
X0132355Y0177459D01*
X0132850Y0178654D01*
X0132850Y0179946D01*
X0132355Y0181141D01*
X0131441Y0182055D01*
X0130246Y0182550D01*
X0128954Y0182550D01*
X0127759Y0182055D01*
X0127100Y0181396D01*
X0126441Y0182055D01*
X0125246Y0182550D01*
X0123954Y0182550D01*
X0122759Y0182055D01*
X0122100Y0181396D01*
X0121441Y0182055D01*
X0120246Y0182550D01*
X0118954Y0182550D01*
X0117759Y0182055D01*
X0117100Y0181396D01*
X0116441Y0182055D01*
X0115246Y0182550D01*
X0113954Y0182550D01*
X0112759Y0182055D01*
X0112100Y0181396D01*
X0111441Y0182055D01*
X0110246Y0182550D01*
X0108954Y0182550D01*
X0107759Y0182055D01*
X0106845Y0181141D01*
X0106350Y0179946D01*
X0106350Y0178654D01*
X0106845Y0177459D01*
X0107504Y0176800D01*
X0107076Y0176372D01*
X0106720Y0175839D01*
X0106475Y0175248D01*
X0106350Y0174620D01*
X0106350Y0174600D01*
X0109300Y0174600D01*
X0109300Y0174000D01*
X0106350Y0174000D01*
X0106350Y0173980D01*
X0106475Y0173352D01*
X0106720Y0172761D01*
X0107076Y0172228D01*
X0107528Y0171776D01*
X0108061Y0171420D01*
X0108652Y0171175D01*
X0109300Y0171277D02*
X0109900Y0171277D01*
X0109900Y0171876D02*
X0109300Y0171876D01*
X0109300Y0172474D02*
X0109900Y0172474D01*
X0109900Y0173073D02*
X0109300Y0173073D01*
X0109300Y0173671D02*
X0109900Y0173671D01*
X0109300Y0174270D02*
X0067809Y0174270D01*
X0068189Y0173671D02*
X0106411Y0173671D01*
X0106591Y0173073D02*
X0068189Y0173073D01*
X0068189Y0172474D02*
X0106911Y0172474D01*
X0107428Y0171876D02*
X0068154Y0171876D01*
X0064643Y0170679D02*
X0002600Y0170679D01*
X0002600Y0171277D02*
X0064044Y0171277D01*
X0063446Y0171876D02*
X0002600Y0171876D01*
X0002600Y0172474D02*
X0063411Y0172474D01*
X0063411Y0173073D02*
X0002600Y0173073D01*
X0002600Y0173671D02*
X0063411Y0173671D01*
X0063791Y0174270D02*
X0002600Y0174270D01*
X0002600Y0174868D02*
X0064390Y0174868D01*
X0067210Y0174868D02*
X0106399Y0174868D01*
X0106566Y0175467D02*
X0002600Y0175467D01*
X0002600Y0176065D02*
X0106871Y0176065D01*
X0107368Y0176664D02*
X0002600Y0176664D01*
X0002600Y0177262D02*
X0013164Y0177262D01*
X0014400Y0176750D02*
X0010890Y0178204D01*
X0008204Y0180890D01*
X0006750Y0184400D01*
X0006750Y0188200D01*
X0008204Y0191710D01*
X0010890Y0194396D01*
X0014400Y0195850D01*
X0018200Y0195850D01*
X0021710Y0194396D01*
X0024396Y0191710D01*
X0025850Y0188200D01*
X0025850Y0184400D01*
X0024396Y0180890D01*
X0021710Y0178204D01*
X0018200Y0176750D01*
X0014400Y0176750D01*
X0011719Y0177861D02*
X0002600Y0177861D01*
X0002600Y0178459D02*
X0010635Y0178459D01*
X0010036Y0179058D02*
X0002600Y0179058D01*
X0002600Y0179656D02*
X0009438Y0179656D01*
X0008839Y0180255D02*
X0002600Y0180255D01*
X0002600Y0180853D02*
X0008241Y0180853D01*
X0007971Y0181452D02*
X0002600Y0181452D01*
X0002600Y0182050D02*
X0007723Y0182050D01*
X0007475Y0182649D02*
X0002600Y0182649D01*
X0002600Y0183247D02*
X0007228Y0183247D01*
X0006980Y0183846D02*
X0002600Y0183846D01*
X0002600Y0184444D02*
X0006750Y0184444D01*
X0006750Y0185043D02*
X0002600Y0185043D01*
X0002600Y0185641D02*
X0006750Y0185641D01*
X0006750Y0186240D02*
X0002600Y0186240D01*
X0002635Y0186839D02*
X0006750Y0186839D01*
X0006750Y0187437D02*
X0002675Y0187437D01*
X0002714Y0188036D02*
X0006750Y0188036D01*
X0006930Y0188634D02*
X0002863Y0188634D01*
X0003024Y0189233D02*
X0007178Y0189233D01*
X0007426Y0189831D02*
X0003184Y0189831D01*
X0003345Y0190430D02*
X0007674Y0190430D01*
X0007922Y0191028D02*
X0003505Y0191028D01*
X0003643Y0191543D02*
X0003643Y0191543D01*
X0003691Y0191627D02*
X0008170Y0191627D01*
X0008719Y0192225D02*
X0004037Y0192225D01*
X0004382Y0192824D02*
X0009318Y0192824D01*
X0009916Y0193422D02*
X0004728Y0193422D01*
X0005073Y0194021D02*
X0010515Y0194021D01*
X0011429Y0194619D02*
X0005419Y0194619D01*
X0006009Y0195218D02*
X0012874Y0195218D01*
X0014319Y0195816D02*
X0006607Y0195816D01*
X0007206Y0196415D02*
X0195394Y0196415D01*
X0194796Y0197013D02*
X0007804Y0197013D01*
X0008727Y0197612D02*
X0193873Y0197612D01*
X0192836Y0198210D02*
X0009764Y0198210D01*
X0010800Y0198809D02*
X0191800Y0198809D01*
X0189863Y0199407D02*
X0012737Y0199407D01*
X0018281Y0195816D02*
X0184319Y0195816D01*
X0184400Y0195850D02*
X0180890Y0194396D01*
X0178204Y0191710D01*
X0176750Y0188200D01*
X0176750Y0184400D01*
X0178204Y0180890D01*
X0180890Y0178204D01*
X0184400Y0176750D01*
X0188200Y0176750D01*
X0191710Y0178204D01*
X0194396Y0180890D01*
X0195850Y0184400D01*
X0195850Y0188200D01*
X0194396Y0191710D01*
X0191710Y0194396D01*
X0188200Y0195850D01*
X0184400Y0195850D01*
X0182874Y0195218D02*
X0019726Y0195218D01*
X0021171Y0194619D02*
X0181429Y0194619D01*
X0180515Y0194021D02*
X0022085Y0194021D01*
X0022684Y0193422D02*
X0179916Y0193422D01*
X0179318Y0192824D02*
X0023282Y0192824D01*
X0023881Y0192225D02*
X0178719Y0192225D01*
X0178170Y0191627D02*
X0132641Y0191627D01*
X0132390Y0191878D02*
X0130410Y0191878D01*
X0129011Y0190479D01*
X0129011Y0188499D01*
X0130410Y0187100D01*
X0132390Y0187100D01*
X0133789Y0188499D01*
X0133789Y0190479D01*
X0132390Y0191878D01*
X0133239Y0191028D02*
X0177922Y0191028D01*
X0177674Y0190430D02*
X0133789Y0190430D01*
X0133789Y0189831D02*
X0146753Y0189831D01*
X0146910Y0189989D02*
X0145511Y0188590D01*
X0145511Y0186610D01*
X0146910Y0185211D01*
X0148890Y0185211D01*
X0150289Y0186610D01*
X0150289Y0188590D01*
X0148890Y0189989D01*
X0146910Y0189989D01*
X0146154Y0189233D02*
X0133789Y0189233D01*
X0133789Y0188634D02*
X0145556Y0188634D01*
X0145511Y0188036D02*
X0133325Y0188036D01*
X0132727Y0187437D02*
X0145511Y0187437D01*
X0145511Y0186839D02*
X0067989Y0186839D01*
X0067989Y0187437D02*
X0130073Y0187437D01*
X0129475Y0188036D02*
X0067743Y0188036D01*
X0067989Y0187790D02*
X0066590Y0189189D01*
X0064610Y0189189D01*
X0063211Y0187790D01*
X0063211Y0185810D01*
X0064610Y0184411D01*
X0066590Y0184411D01*
X0067989Y0185810D01*
X0067989Y0187790D01*
X0067144Y0188634D02*
X0129011Y0188634D01*
X0129011Y0189233D02*
X0025422Y0189233D01*
X0025174Y0189831D02*
X0129011Y0189831D01*
X0129011Y0190430D02*
X0024926Y0190430D01*
X0024678Y0191028D02*
X0129561Y0191028D01*
X0130159Y0191627D02*
X0024430Y0191627D01*
X0025670Y0188634D02*
X0064056Y0188634D01*
X0063457Y0188036D02*
X0042743Y0188036D01*
X0042190Y0188589D02*
X0043589Y0187190D01*
X0043589Y0185210D01*
X0042190Y0183811D01*
X0040210Y0183811D01*
X0038811Y0185210D01*
X0038811Y0187190D01*
X0040210Y0188589D01*
X0042190Y0188589D01*
X0043341Y0187437D02*
X0063211Y0187437D01*
X0063211Y0186839D02*
X0043589Y0186839D01*
X0043589Y0186240D02*
X0063211Y0186240D01*
X0063380Y0185641D02*
X0043589Y0185641D01*
X0043421Y0185043D02*
X0063978Y0185043D01*
X0064577Y0184444D02*
X0042823Y0184444D01*
X0042224Y0183846D02*
X0176980Y0183846D01*
X0176750Y0184444D02*
X0066623Y0184444D01*
X0067221Y0185043D02*
X0176750Y0185043D01*
X0176750Y0185641D02*
X0149320Y0185641D01*
X0149919Y0186240D02*
X0176750Y0186240D01*
X0176750Y0186839D02*
X0150289Y0186839D01*
X0150289Y0187437D02*
X0176750Y0187437D01*
X0176750Y0188036D02*
X0150289Y0188036D01*
X0150244Y0188634D02*
X0176930Y0188634D01*
X0177178Y0189233D02*
X0149646Y0189233D01*
X0149047Y0189831D02*
X0177426Y0189831D01*
X0177228Y0183247D02*
X0025372Y0183247D01*
X0025125Y0182649D02*
X0177475Y0182649D01*
X0177723Y0182050D02*
X0131446Y0182050D01*
X0132044Y0181452D02*
X0177971Y0181452D01*
X0178241Y0180853D02*
X0132474Y0180853D01*
X0132722Y0180255D02*
X0178839Y0180255D01*
X0179438Y0179656D02*
X0132850Y0179656D01*
X0132850Y0179058D02*
X0180036Y0179058D01*
X0180635Y0178459D02*
X0132770Y0178459D01*
X0132522Y0177861D02*
X0181719Y0177861D01*
X0183164Y0177262D02*
X0132159Y0177262D01*
X0131832Y0176664D02*
X0200000Y0176664D01*
X0200000Y0177262D02*
X0189436Y0177262D01*
X0190881Y0177861D02*
X0200000Y0177861D01*
X0200000Y0178459D02*
X0191965Y0178459D01*
X0192564Y0179058D02*
X0200000Y0179058D01*
X0200000Y0179656D02*
X0193162Y0179656D01*
X0193761Y0180255D02*
X0200000Y0180255D01*
X0200000Y0180853D02*
X0194359Y0180853D01*
X0194629Y0181452D02*
X0200000Y0181452D01*
X0200000Y0182050D02*
X0194877Y0182050D01*
X0195125Y0182649D02*
X0200000Y0182649D01*
X0200000Y0183247D02*
X0195372Y0183247D01*
X0195620Y0183846D02*
X0200000Y0183846D01*
X0200000Y0184444D02*
X0195850Y0184444D01*
X0195850Y0185043D02*
X0200000Y0185043D01*
X0200000Y0185641D02*
X0195850Y0185641D01*
X0195850Y0186240D02*
X0200000Y0186240D01*
X0199965Y0186839D02*
X0195850Y0186839D01*
X0195850Y0187437D02*
X0199925Y0187437D01*
X0199886Y0188036D02*
X0195850Y0188036D01*
X0195670Y0188634D02*
X0199737Y0188634D01*
X0199576Y0189233D02*
X0195422Y0189233D01*
X0195174Y0189831D02*
X0199416Y0189831D01*
X0199255Y0190430D02*
X0194926Y0190430D01*
X0194678Y0191028D02*
X0199095Y0191028D01*
X0198909Y0191627D02*
X0194430Y0191627D01*
X0193881Y0192225D02*
X0198563Y0192225D01*
X0198218Y0192824D02*
X0193282Y0192824D01*
X0192684Y0193422D02*
X0197872Y0193422D01*
X0197527Y0194021D02*
X0192085Y0194021D01*
X0191171Y0194619D02*
X0197181Y0194619D01*
X0196591Y0195218D02*
X0189726Y0195218D01*
X0188281Y0195816D02*
X0195993Y0195816D01*
X0200000Y0176065D02*
X0132387Y0176065D01*
X0132634Y0175467D02*
X0200000Y0175467D01*
X0200000Y0174868D02*
X0132850Y0174868D01*
X0132850Y0174270D02*
X0200000Y0174270D01*
X0200000Y0173671D02*
X0132850Y0173671D01*
X0132609Y0173073D02*
X0200000Y0173073D01*
X0200000Y0172474D02*
X0132362Y0172474D01*
X0131772Y0171876D02*
X0200000Y0171876D01*
X0200000Y0171277D02*
X0130795Y0171277D01*
X0128405Y0171277D02*
X0125795Y0171277D01*
X0126772Y0171876D02*
X0127428Y0171876D01*
X0123405Y0171277D02*
X0120795Y0171277D01*
X0121772Y0171876D02*
X0122428Y0171876D01*
X0118405Y0171277D02*
X0115795Y0171277D01*
X0116772Y0171876D02*
X0117428Y0171876D01*
X0113405Y0171277D02*
X0110795Y0171277D01*
X0111772Y0171876D02*
X0112428Y0171876D01*
X0107041Y0177262D02*
X0019436Y0177262D01*
X0020881Y0177861D02*
X0106678Y0177861D01*
X0106430Y0178459D02*
X0021965Y0178459D01*
X0022564Y0179058D02*
X0106350Y0179058D01*
X0106350Y0179656D02*
X0023162Y0179656D01*
X0023761Y0180255D02*
X0106478Y0180255D01*
X0106726Y0180853D02*
X0024359Y0180853D01*
X0024629Y0181452D02*
X0107156Y0181452D01*
X0107754Y0182050D02*
X0024877Y0182050D01*
X0025620Y0183846D02*
X0040176Y0183846D01*
X0039577Y0184444D02*
X0025850Y0184444D01*
X0025850Y0185043D02*
X0038978Y0185043D01*
X0038811Y0185641D02*
X0025850Y0185641D01*
X0025850Y0186240D02*
X0038811Y0186240D01*
X0038811Y0186839D02*
X0025850Y0186839D01*
X0025850Y0187437D02*
X0039059Y0187437D01*
X0039657Y0188036D02*
X0025850Y0188036D01*
X0067820Y0185641D02*
X0146480Y0185641D01*
X0145881Y0186240D02*
X0067989Y0186240D01*
X0111446Y0182050D02*
X0112754Y0182050D01*
X0112156Y0181452D02*
X0112044Y0181452D01*
X0116446Y0182050D02*
X0117754Y0182050D01*
X0117156Y0181452D02*
X0117044Y0181452D01*
X0121446Y0182050D02*
X0122754Y0182050D01*
X0122156Y0181452D02*
X0122044Y0181452D01*
X0126446Y0182050D02*
X0127754Y0182050D01*
X0127156Y0181452D02*
X0127044Y0181452D01*
X0112724Y0140155D02*
X0179369Y0140155D01*
X0178475Y0139556D02*
X0113322Y0139556D01*
X0113789Y0138958D02*
X0177876Y0138958D01*
X0177499Y0138359D02*
X0113789Y0138359D01*
X0113789Y0137761D02*
X0177251Y0137761D01*
X0183231Y0140155D02*
X0189369Y0140155D01*
X0188475Y0139556D02*
X0184125Y0139556D01*
X0184723Y0138958D02*
X0187876Y0138958D01*
X0187499Y0138359D02*
X0185101Y0138359D01*
X0185349Y0137761D02*
X0187251Y0137761D01*
X0187003Y0137162D02*
X0185597Y0137162D01*
X0185600Y0136564D02*
X0187000Y0136564D01*
X0187000Y0135965D02*
X0185600Y0135965D01*
X0185568Y0135367D02*
X0187032Y0135367D01*
X0187222Y0134768D02*
X0185320Y0134768D01*
X0185072Y0134170D02*
X0186624Y0134170D01*
X0186025Y0133571D02*
X0184652Y0133571D01*
X0193480Y0142549D02*
X0200000Y0142549D01*
X0200000Y0143147D02*
X0194228Y0143147D01*
X0194827Y0143746D02*
X0200000Y0143746D01*
X0200000Y0144344D02*
X0195144Y0144344D01*
X0195392Y0144943D02*
X0200000Y0144943D01*
X0200000Y0145541D02*
X0195600Y0145541D01*
X0195600Y0146140D02*
X0200000Y0146140D01*
X0200000Y0146738D02*
X0195600Y0146738D01*
X0195525Y0147337D02*
X0200000Y0147337D01*
X0200000Y0147935D02*
X0195277Y0147935D01*
X0195029Y0148534D02*
X0200000Y0148534D01*
X0200000Y0149132D02*
X0194549Y0149132D01*
X0193950Y0149731D02*
X0200000Y0149731D01*
X0200000Y0150329D02*
X0192809Y0150329D01*
X0189791Y0150329D02*
X0182814Y0150329D01*
X0183893Y0149731D02*
X0188650Y0149731D01*
X0188051Y0149132D02*
X0184549Y0149132D01*
X0184988Y0148534D02*
X0187571Y0148534D01*
X0187323Y0147935D02*
X0185290Y0147935D01*
X0185484Y0147337D02*
X0187075Y0147337D01*
X0139030Y0131775D02*
X0002600Y0131775D01*
X0002600Y0131177D02*
X0138431Y0131177D01*
X0137833Y0130578D02*
X0082500Y0130578D01*
X0079900Y0130578D02*
X0002600Y0130578D01*
X0002600Y0129980D02*
X0079301Y0129980D01*
X0078811Y0129381D02*
X0002600Y0129381D01*
X0002600Y0128783D02*
X0078811Y0128783D01*
X0063715Y0124593D02*
X0002600Y0124593D01*
X0002600Y0123995D02*
X0063116Y0123995D01*
X0062911Y0123396D02*
X0002600Y0123396D01*
X0002600Y0122798D02*
X0062911Y0122798D01*
X0062911Y0122199D02*
X0002600Y0122199D01*
X0002600Y0121601D02*
X0063121Y0121601D01*
X0063719Y0121002D02*
X0002600Y0121002D01*
X0053189Y0031824D02*
X0065646Y0031824D01*
X0065047Y0031226D02*
X0053004Y0031226D01*
X0052406Y0030627D02*
X0064449Y0030627D01*
X0064311Y0030029D02*
X0051807Y0030029D01*
X0044195Y0012073D02*
X0024886Y0012073D01*
X0024638Y0011475D02*
X0043596Y0011475D01*
X0043311Y0010876D02*
X0024382Y0010876D01*
X0023783Y0010278D02*
X0043311Y0010278D01*
X0043311Y0009679D02*
X0023185Y0009679D01*
X0022586Y0009081D02*
X0043441Y0009081D01*
X0044039Y0008482D02*
X0021988Y0008482D01*
X0020936Y0007884D02*
X0044638Y0007884D01*
M02*
