G75*
%MOIN*%
%OFA0B0*%
%FSLAX25Y25*%
%IPPOS*%
%LPD*%
%AMOC8*
5,1,8,0,0,1.08239X$1,22.5*
%
%ADD10C,0.00000*%
%ADD11C,0.00300*%
%ADD12C,0.02000*%
%ADD13R,0.02330X0.00334*%
%ADD14R,0.04000X0.00333*%
%ADD15R,0.05660X0.00333*%
%ADD16R,0.07000X0.00334*%
%ADD17R,0.07340X0.00333*%
%ADD18R,0.08330X0.00333*%
%ADD19R,0.05000X0.00334*%
%ADD20R,0.01330X0.00334*%
%ADD21R,0.04340X0.00333*%
%ADD22R,0.01000X0.00333*%
%ADD23R,0.04330X0.00333*%
%ADD24R,0.00660X0.00333*%
%ADD25R,0.04000X0.00334*%
%ADD26R,0.03670X0.00333*%
%ADD27R,0.00670X0.00333*%
%ADD28R,0.03670X0.00334*%
%ADD29R,0.01000X0.00334*%
%ADD30R,0.03330X0.00333*%
%ADD31R,0.01330X0.00333*%
%ADD32R,0.01670X0.00333*%
%ADD33R,0.03340X0.00333*%
%ADD34R,0.03340X0.00334*%
%ADD35R,0.04330X0.00334*%
%ADD36R,0.03000X0.00333*%
%ADD37R,0.04660X0.00333*%
%ADD38R,0.04670X0.00333*%
%ADD39R,0.03330X0.00334*%
%ADD40R,0.04670X0.00334*%
%ADD41R,0.02340X0.00333*%
%ADD42R,0.02660X0.00333*%
%ADD43R,0.02670X0.00333*%
%ADD44R,0.03000X0.00334*%
%ADD45R,0.02340X0.00334*%
%ADD46R,0.02330X0.00333*%
%ADD47R,0.02670X0.00334*%
%ADD48R,0.02000X0.00334*%
%ADD49R,0.02660X0.00334*%
%ADD50R,0.02000X0.00333*%
%ADD51R,0.01660X0.00333*%
%ADD52R,0.00330X0.00333*%
%ADD53R,0.06000X0.00333*%
%ADD54R,0.01340X0.00333*%
%ADD55R,0.03660X0.00333*%
%ADD56R,0.01670X0.00334*%
%ADD57R,0.06330X0.00334*%
%ADD58R,0.06000X0.00334*%
%ADD59R,0.01340X0.00334*%
%ADD60R,0.04340X0.00334*%
%ADD61R,0.05330X0.00333*%
%ADD62R,0.06670X0.00333*%
%ADD63R,0.07000X0.00333*%
%ADD64R,0.06340X0.00333*%
%ADD65R,0.05000X0.00333*%
%ADD66R,0.01660X0.00334*%
%ADD67R,0.05340X0.00333*%
%ADD68R,0.11670X0.00333*%
%ADD69R,0.11000X0.00333*%
%ADD70R,0.05330X0.00334*%
%ADD71R,0.06670X0.00334*%
%ADD72R,0.11670X0.00334*%
%ADD73R,0.05340X0.00334*%
%ADD74R,0.10670X0.00334*%
%ADD75R,0.06330X0.00333*%
%ADD76R,0.13670X0.00333*%
%ADD77R,0.10340X0.00333*%
%ADD78R,0.13330X0.00333*%
%ADD79R,0.10000X0.00333*%
%ADD80R,0.13000X0.00334*%
%ADD81R,0.03660X0.00334*%
%ADD82R,0.05660X0.00334*%
%ADD83R,0.05670X0.00334*%
%ADD84R,0.00340X0.00333*%
%ADD85R,0.00670X0.00334*%
%ADD86R,0.00340X0.00334*%
%ADD87R,0.00330X0.00334*%
%ADD88R,0.04660X0.00334*%
%ADD89R,0.07330X0.00333*%
%ADD90C,0.00500*%
%ADD91C,0.01200*%
%ADD92C,0.01969*%
%ADD93C,0.00472*%
D10*
X0015800Y0001300D02*
X0185800Y0001300D01*
X0186169Y0001298D01*
X0186537Y0001306D01*
X0186905Y0001322D01*
X0187273Y0001347D01*
X0187640Y0001381D01*
X0188006Y0001424D01*
X0188371Y0001476D01*
X0188735Y0001536D01*
X0189097Y0001605D01*
X0189457Y0001683D01*
X0189815Y0001770D01*
X0190171Y0001865D01*
X0190525Y0001969D01*
X0190876Y0002082D01*
X0191224Y0002202D01*
X0191569Y0002332D01*
X0191911Y0002469D01*
X0192250Y0002615D01*
X0192585Y0002769D01*
X0192916Y0002931D01*
X0193243Y0003101D01*
X0193566Y0003278D01*
X0193884Y0003464D01*
X0194198Y0003657D01*
X0194507Y0003858D01*
X0194811Y0004066D01*
X0195111Y0004281D01*
X0195404Y0004503D01*
X0195693Y0004733D01*
X0195975Y0004969D01*
X0196252Y0005213D01*
X0196523Y0005463D01*
X0196788Y0005719D01*
X0197047Y0005981D01*
X0197299Y0006250D01*
X0197545Y0006525D01*
X0197783Y0006806D01*
X0198015Y0007092D01*
X0198241Y0007384D01*
X0198458Y0007681D01*
X0198669Y0007984D01*
X0198872Y0008291D01*
X0199068Y0008603D01*
X0199256Y0008920D01*
X0199437Y0009242D01*
X0199610Y0009567D01*
X0199774Y0009897D01*
X0199931Y0010231D01*
X0200080Y0010568D01*
X0200220Y0010909D01*
X0200352Y0011253D01*
X0200476Y0011600D01*
X0200592Y0011950D01*
X0200699Y0012303D01*
X0200797Y0012658D01*
X0200887Y0013015D01*
X0200968Y0013375D01*
X0201040Y0013736D01*
X0201104Y0014099D01*
X0201159Y0014464D01*
X0201205Y0014829D01*
X0201242Y0015196D01*
X0201270Y0015564D01*
X0201289Y0015932D01*
X0201300Y0016300D01*
X0201300Y0186300D01*
X0201296Y0186662D01*
X0201282Y0187025D01*
X0201261Y0187387D01*
X0201230Y0187748D01*
X0201191Y0188108D01*
X0201143Y0188467D01*
X0201086Y0188825D01*
X0201021Y0189182D01*
X0200947Y0189537D01*
X0200864Y0189890D01*
X0200773Y0190241D01*
X0200674Y0190589D01*
X0200566Y0190935D01*
X0200450Y0191279D01*
X0200325Y0191619D01*
X0200193Y0191956D01*
X0200052Y0192290D01*
X0199903Y0192621D01*
X0199746Y0192948D01*
X0199582Y0193271D01*
X0199410Y0193590D01*
X0199230Y0193904D01*
X0199042Y0194215D01*
X0198847Y0194520D01*
X0198645Y0194821D01*
X0198435Y0195117D01*
X0198219Y0195407D01*
X0197995Y0195693D01*
X0197765Y0195973D01*
X0197528Y0196247D01*
X0197284Y0196515D01*
X0197034Y0196778D01*
X0196778Y0197034D01*
X0196515Y0197284D01*
X0196247Y0197528D01*
X0195973Y0197765D01*
X0195693Y0197995D01*
X0195407Y0198219D01*
X0195117Y0198435D01*
X0194821Y0198645D01*
X0194520Y0198847D01*
X0194215Y0199042D01*
X0193904Y0199230D01*
X0193590Y0199410D01*
X0193271Y0199582D01*
X0192948Y0199746D01*
X0192621Y0199903D01*
X0192290Y0200052D01*
X0191956Y0200193D01*
X0191619Y0200325D01*
X0191279Y0200450D01*
X0190935Y0200566D01*
X0190589Y0200674D01*
X0190241Y0200773D01*
X0189890Y0200864D01*
X0189537Y0200947D01*
X0189182Y0201021D01*
X0188825Y0201086D01*
X0188467Y0201143D01*
X0188108Y0201191D01*
X0187748Y0201230D01*
X0187387Y0201261D01*
X0187025Y0201282D01*
X0186662Y0201296D01*
X0186300Y0201300D01*
X0016300Y0201300D01*
X0015938Y0201296D01*
X0015575Y0201282D01*
X0015213Y0201261D01*
X0014852Y0201230D01*
X0014492Y0201191D01*
X0014133Y0201143D01*
X0013775Y0201086D01*
X0013418Y0201021D01*
X0013063Y0200947D01*
X0012710Y0200864D01*
X0012359Y0200773D01*
X0012011Y0200674D01*
X0011665Y0200566D01*
X0011321Y0200450D01*
X0010981Y0200325D01*
X0010644Y0200193D01*
X0010310Y0200052D01*
X0009979Y0199903D01*
X0009652Y0199746D01*
X0009329Y0199582D01*
X0009010Y0199410D01*
X0008696Y0199230D01*
X0008385Y0199042D01*
X0008080Y0198847D01*
X0007779Y0198645D01*
X0007483Y0198435D01*
X0007193Y0198219D01*
X0006907Y0197995D01*
X0006627Y0197765D01*
X0006353Y0197528D01*
X0006085Y0197284D01*
X0005822Y0197034D01*
X0005566Y0196778D01*
X0005316Y0196515D01*
X0005072Y0196247D01*
X0004835Y0195973D01*
X0004605Y0195693D01*
X0004381Y0195407D01*
X0004165Y0195117D01*
X0003955Y0194821D01*
X0003753Y0194520D01*
X0003558Y0194215D01*
X0003370Y0193904D01*
X0003190Y0193590D01*
X0003018Y0193271D01*
X0002854Y0192948D01*
X0002697Y0192621D01*
X0002548Y0192290D01*
X0002407Y0191956D01*
X0002275Y0191619D01*
X0002150Y0191279D01*
X0002034Y0190935D01*
X0001926Y0190589D01*
X0001827Y0190241D01*
X0001736Y0189890D01*
X0001653Y0189537D01*
X0001579Y0189182D01*
X0001514Y0188825D01*
X0001457Y0188467D01*
X0001409Y0188108D01*
X0001370Y0187748D01*
X0001339Y0187387D01*
X0001318Y0187025D01*
X0001304Y0186662D01*
X0001300Y0186300D01*
X0001300Y0016300D01*
X0001298Y0015944D01*
X0001305Y0015587D01*
X0001321Y0015231D01*
X0001345Y0014875D01*
X0001378Y0014520D01*
X0001419Y0014166D01*
X0001469Y0013813D01*
X0001527Y0013461D01*
X0001594Y0013111D01*
X0001669Y0012763D01*
X0001753Y0012416D01*
X0001845Y0012072D01*
X0001945Y0011730D01*
X0002053Y0011390D01*
X0002170Y0011053D01*
X0002295Y0010719D01*
X0002428Y0010389D01*
X0002568Y0010061D01*
X0002717Y0009737D01*
X0002873Y0009417D01*
X0003038Y0009100D01*
X0003209Y0008788D01*
X0003389Y0008480D01*
X0003575Y0008176D01*
X0003769Y0007877D01*
X0003970Y0007582D01*
X0004178Y0007293D01*
X0004393Y0007009D01*
X0004615Y0006730D01*
X0004844Y0006456D01*
X0005079Y0006188D01*
X0005320Y0005926D01*
X0005568Y0005670D01*
X0005822Y0005419D01*
X0006082Y0005175D01*
X0006348Y0004938D01*
X0006619Y0004706D01*
X0006896Y0004482D01*
X0007178Y0004264D01*
X0007465Y0004053D01*
X0007758Y0003849D01*
X0008055Y0003652D01*
X0008357Y0003463D01*
X0008663Y0003281D01*
X0008974Y0003106D01*
X0009289Y0002939D01*
X0009608Y0002779D01*
X0009930Y0002627D01*
X0010256Y0002483D01*
X0010586Y0002347D01*
X0010919Y0002219D01*
X0011254Y0002099D01*
X0011593Y0001987D01*
X0011934Y0001884D01*
X0012277Y0001789D01*
X0012623Y0001702D01*
X0012971Y0001623D01*
X0013320Y0001553D01*
X0013671Y0001491D01*
X0014024Y0001438D01*
X0014378Y0001393D01*
X0014732Y0001357D01*
X0015088Y0001329D01*
X0015444Y0001310D01*
X0015800Y0001300D01*
D11*
X0056763Y0026585D02*
X0057247Y0026585D01*
X0058215Y0025617D01*
X0058215Y0024650D02*
X0058215Y0026585D01*
X0059226Y0026101D02*
X0059226Y0025617D01*
X0061161Y0025617D01*
X0061161Y0025134D02*
X0061161Y0026101D01*
X0060677Y0026585D01*
X0059710Y0026585D01*
X0059226Y0026101D01*
X0059710Y0024650D02*
X0060677Y0024650D01*
X0061161Y0025134D01*
X0062158Y0024650D02*
X0063125Y0024650D01*
X0062642Y0024650D02*
X0062642Y0027552D01*
X0063125Y0027552D01*
X0064606Y0027552D02*
X0064606Y0024650D01*
X0065090Y0024650D02*
X0064122Y0024650D01*
X0066101Y0025134D02*
X0066101Y0026101D01*
X0066585Y0026585D01*
X0067553Y0026585D01*
X0068036Y0026101D01*
X0068036Y0025134D01*
X0067553Y0024650D01*
X0066585Y0024650D01*
X0066101Y0025134D01*
X0065090Y0027552D02*
X0064606Y0027552D01*
X0069041Y0026585D02*
X0069524Y0026585D01*
X0070492Y0025617D01*
X0070492Y0024650D02*
X0070492Y0026585D01*
X0071489Y0026585D02*
X0072456Y0026585D01*
X0071972Y0027069D02*
X0071972Y0025134D01*
X0071489Y0024650D01*
X0073468Y0024650D02*
X0073468Y0026101D01*
X0073951Y0026585D01*
X0075403Y0026585D01*
X0075403Y0024650D01*
X0076414Y0025134D02*
X0076414Y0026101D01*
X0076898Y0026585D01*
X0077865Y0026585D01*
X0078349Y0026101D01*
X0078349Y0025134D01*
X0077865Y0024650D01*
X0076898Y0024650D01*
X0076414Y0025134D01*
X0079361Y0024650D02*
X0080812Y0024650D01*
X0081296Y0025134D01*
X0081296Y0026101D01*
X0080812Y0026585D01*
X0079361Y0026585D01*
X0082307Y0026101D02*
X0084242Y0026101D01*
X0085254Y0026585D02*
X0086705Y0026585D01*
X0087189Y0026101D01*
X0086705Y0025617D01*
X0085737Y0025617D01*
X0085254Y0025134D01*
X0085737Y0024650D01*
X0087189Y0024650D01*
X0088200Y0024650D02*
X0089652Y0024650D01*
X0090135Y0025134D01*
X0090135Y0026101D01*
X0089652Y0026585D01*
X0088200Y0026585D01*
X0087189Y0029650D02*
X0085738Y0029650D01*
X0085254Y0030134D01*
X0085738Y0030617D01*
X0086705Y0030617D01*
X0087189Y0031101D01*
X0086705Y0031585D01*
X0085254Y0031585D01*
X0088193Y0031585D02*
X0088677Y0031585D01*
X0089644Y0030617D01*
X0089644Y0029650D02*
X0089644Y0031585D01*
X0090656Y0031101D02*
X0090656Y0029650D01*
X0092107Y0029650D01*
X0092591Y0030134D01*
X0092107Y0030617D01*
X0090656Y0030617D01*
X0090656Y0031101D02*
X0091139Y0031585D01*
X0092107Y0031585D01*
X0093602Y0031101D02*
X0093602Y0029650D01*
X0094570Y0029650D02*
X0094570Y0031101D01*
X0094086Y0031585D01*
X0093602Y0031101D01*
X0094570Y0031101D02*
X0095053Y0031585D01*
X0095537Y0031585D01*
X0095537Y0029650D01*
X0096549Y0031101D02*
X0098484Y0031101D01*
X0099488Y0031585D02*
X0099972Y0031585D01*
X0100939Y0030617D01*
X0100939Y0029650D02*
X0100939Y0031585D01*
X0101951Y0031101D02*
X0101951Y0029650D01*
X0103402Y0029650D01*
X0103886Y0030134D01*
X0103402Y0030617D01*
X0101951Y0030617D01*
X0101951Y0031101D02*
X0102434Y0031585D01*
X0103402Y0031585D01*
X0104883Y0031101D02*
X0105850Y0031101D01*
X0105366Y0032069D02*
X0104883Y0032552D01*
X0105366Y0032069D02*
X0105366Y0029650D01*
X0105366Y0026585D02*
X0104399Y0026585D01*
X0103915Y0026101D01*
X0103915Y0024650D01*
X0105366Y0024650D01*
X0105850Y0025134D01*
X0105366Y0025617D01*
X0103915Y0025617D01*
X0102903Y0026585D02*
X0101936Y0024650D01*
X0100969Y0026585D01*
X0099957Y0026585D02*
X0099473Y0026585D01*
X0099473Y0024650D01*
X0099957Y0024650D02*
X0098989Y0024650D01*
X0097993Y0025134D02*
X0097509Y0024650D01*
X0096541Y0024650D01*
X0096058Y0025134D01*
X0096058Y0026101D01*
X0096541Y0026585D01*
X0097509Y0026585D01*
X0097993Y0026101D01*
X0097993Y0025134D01*
X0099473Y0027552D02*
X0099473Y0028036D01*
X0095046Y0026585D02*
X0095046Y0024650D01*
X0093111Y0024650D02*
X0093111Y0026101D01*
X0093595Y0026585D01*
X0095046Y0026585D01*
X0092100Y0026585D02*
X0091616Y0026585D01*
X0091616Y0024650D01*
X0092100Y0024650D02*
X0091132Y0024650D01*
X0089652Y0022552D02*
X0088684Y0022552D01*
X0088200Y0022069D01*
X0090135Y0020134D01*
X0089652Y0019650D01*
X0088684Y0019650D01*
X0088200Y0020134D01*
X0088200Y0022069D01*
X0089652Y0022552D02*
X0090135Y0022069D01*
X0090135Y0020134D01*
X0091125Y0020134D02*
X0091125Y0019650D01*
X0091609Y0019650D01*
X0091609Y0020134D01*
X0091125Y0020134D01*
X0092620Y0020134D02*
X0092620Y0020617D01*
X0093104Y0021101D01*
X0093588Y0021101D01*
X0093104Y0021101D02*
X0092620Y0021585D01*
X0092620Y0022069D01*
X0093104Y0022552D01*
X0094071Y0022552D01*
X0094555Y0022069D01*
X0094555Y0020134D02*
X0094071Y0019650D01*
X0093104Y0019650D01*
X0092620Y0020134D01*
X0098513Y0021585D02*
X0099481Y0019650D01*
X0100448Y0021585D01*
X0101460Y0021101D02*
X0101460Y0020617D01*
X0103395Y0020617D01*
X0103395Y0020134D02*
X0103395Y0021101D01*
X0102911Y0021585D01*
X0101943Y0021585D01*
X0101460Y0021101D01*
X0101943Y0019650D02*
X0102911Y0019650D01*
X0103395Y0020134D01*
X0104399Y0021585D02*
X0104883Y0021585D01*
X0105850Y0020617D01*
X0105850Y0019650D02*
X0105850Y0021585D01*
X0091616Y0027552D02*
X0091616Y0028036D01*
X0088662Y0033683D02*
X0088662Y0036585D01*
X0087211Y0036585D01*
X0086727Y0036101D01*
X0086727Y0035134D01*
X0087211Y0034650D01*
X0088662Y0034650D01*
X0089666Y0036585D02*
X0090150Y0036585D01*
X0091117Y0035617D01*
X0091117Y0034650D02*
X0091117Y0036585D01*
X0092129Y0036101D02*
X0094064Y0036101D01*
X0095075Y0036585D02*
X0095075Y0034650D01*
X0096527Y0034650D01*
X0097010Y0035134D01*
X0097010Y0036585D01*
X0098022Y0036585D02*
X0099473Y0036585D01*
X0099957Y0036101D01*
X0099473Y0035617D01*
X0098506Y0035617D01*
X0098022Y0035134D01*
X0098506Y0034650D01*
X0099957Y0034650D01*
X0100969Y0034650D02*
X0102420Y0034650D01*
X0102903Y0035134D01*
X0102903Y0036101D01*
X0102420Y0036585D01*
X0100969Y0036585D01*
X0100969Y0037552D02*
X0100969Y0034650D01*
X0103915Y0035134D02*
X0104399Y0035617D01*
X0105366Y0035617D01*
X0105850Y0036101D01*
X0105366Y0036585D01*
X0103915Y0036585D01*
X0103915Y0035134D02*
X0104399Y0034650D01*
X0105850Y0034650D01*
X0113350Y0081250D02*
X0116252Y0081250D01*
X0116252Y0082701D01*
X0115769Y0083185D01*
X0114801Y0083185D01*
X0114317Y0082701D01*
X0114317Y0081250D01*
X0114317Y0082217D02*
X0113350Y0083185D01*
X0113834Y0084197D02*
X0113350Y0084680D01*
X0113350Y0085648D01*
X0113834Y0086131D01*
X0114317Y0086131D01*
X0114801Y0085648D01*
X0114801Y0085164D01*
X0114801Y0085648D02*
X0115285Y0086131D01*
X0115769Y0086131D01*
X0116252Y0085648D01*
X0116252Y0084680D01*
X0115769Y0084197D01*
X0115769Y0087143D02*
X0115285Y0087143D01*
X0114801Y0087627D01*
X0114801Y0088594D01*
X0114317Y0089078D01*
X0113834Y0089078D01*
X0113350Y0088594D01*
X0113350Y0087627D01*
X0113834Y0087143D01*
X0114317Y0087143D01*
X0114801Y0087627D01*
X0114801Y0088594D02*
X0115285Y0089078D01*
X0115769Y0089078D01*
X0116252Y0088594D01*
X0116252Y0087627D01*
X0115769Y0087143D01*
X0105193Y0088575D02*
X0104225Y0088575D01*
X0104709Y0088575D02*
X0104709Y0091477D01*
X0105193Y0091477D02*
X0104225Y0091477D01*
X0103228Y0091477D02*
X0102261Y0090510D01*
X0101293Y0091477D01*
X0101293Y0088575D01*
X0100282Y0089059D02*
X0099798Y0088575D01*
X0098830Y0088575D01*
X0098347Y0089059D01*
X0098347Y0091477D01*
X0100282Y0091477D02*
X0100282Y0089059D01*
X0103228Y0088575D02*
X0103228Y0091477D01*
X0121650Y0098210D02*
X0124552Y0098210D01*
X0124552Y0099662D01*
X0124069Y0100145D01*
X0123101Y0100145D01*
X0122617Y0099662D01*
X0122617Y0098210D01*
X0122617Y0099178D02*
X0121650Y0100145D01*
X0122134Y0101157D02*
X0121650Y0101641D01*
X0121650Y0102608D01*
X0122134Y0103092D01*
X0122617Y0103092D01*
X0123101Y0102608D01*
X0123101Y0102124D01*
X0123101Y0102608D02*
X0123585Y0103092D01*
X0124069Y0103092D01*
X0124552Y0102608D01*
X0124552Y0101641D01*
X0124069Y0101157D01*
X0124069Y0104103D02*
X0123585Y0104103D01*
X0123101Y0104587D01*
X0123101Y0106038D01*
X0122134Y0106038D02*
X0124069Y0106038D01*
X0124552Y0105555D01*
X0124552Y0104587D01*
X0124069Y0104103D01*
X0122134Y0104103D02*
X0121650Y0104587D01*
X0121650Y0105555D01*
X0122134Y0106038D01*
X0111252Y0114057D02*
X0111252Y0115508D01*
X0110769Y0115992D01*
X0109801Y0115992D01*
X0109317Y0115508D01*
X0109317Y0114057D01*
X0108350Y0114057D02*
X0111252Y0114057D01*
X0109317Y0115024D02*
X0108350Y0115992D01*
X0109801Y0117003D02*
X0109801Y0118938D01*
X0108350Y0118455D02*
X0111252Y0118455D01*
X0109801Y0117003D01*
X0091952Y0116864D02*
X0089050Y0116864D01*
X0089050Y0115897D02*
X0089050Y0117831D01*
X0089534Y0118843D02*
X0089050Y0119327D01*
X0089050Y0120294D01*
X0089534Y0120778D01*
X0090017Y0120778D01*
X0090501Y0120294D01*
X0090501Y0118843D01*
X0089534Y0118843D01*
X0090501Y0118843D02*
X0091469Y0119811D01*
X0091952Y0120778D01*
X0091952Y0116864D02*
X0090985Y0115897D01*
X0091469Y0114885D02*
X0091952Y0114401D01*
X0091952Y0113434D01*
X0091469Y0112950D01*
X0089534Y0112950D01*
X0089050Y0113434D01*
X0089050Y0114401D01*
X0089534Y0114885D01*
X0080952Y0107538D02*
X0080469Y0106571D01*
X0079501Y0105603D01*
X0079501Y0107055D01*
X0079017Y0107538D01*
X0078534Y0107538D01*
X0078050Y0107055D01*
X0078050Y0106087D01*
X0078534Y0105603D01*
X0079501Y0105603D01*
X0079501Y0104592D02*
X0079017Y0104108D01*
X0079017Y0102657D01*
X0078050Y0102657D02*
X0080952Y0102657D01*
X0080952Y0104108D01*
X0080469Y0104592D01*
X0079501Y0104592D01*
X0079017Y0103624D02*
X0078050Y0104592D01*
X0071416Y0103865D02*
X0070933Y0103381D01*
X0069965Y0103381D01*
X0069481Y0103865D01*
X0069481Y0104349D01*
X0069965Y0104833D01*
X0070449Y0104833D01*
X0069965Y0104833D02*
X0069481Y0105316D01*
X0069481Y0105800D01*
X0069965Y0106284D01*
X0070933Y0106284D01*
X0071416Y0105800D01*
X0068470Y0106284D02*
X0068470Y0104349D01*
X0067502Y0103381D01*
X0066535Y0104349D01*
X0066535Y0106284D01*
X0065523Y0106284D02*
X0065523Y0103381D01*
X0065523Y0104349D02*
X0064072Y0104349D01*
X0063588Y0104833D01*
X0063588Y0105800D01*
X0064072Y0106284D01*
X0065523Y0106284D01*
X0064556Y0104349D02*
X0063588Y0103381D01*
X0062577Y0103381D02*
X0060642Y0103381D01*
X0059630Y0103865D02*
X0059146Y0103381D01*
X0058179Y0103381D01*
X0057695Y0103865D01*
X0057695Y0104833D01*
X0058663Y0104833D01*
X0059630Y0105800D02*
X0059630Y0103865D01*
X0059630Y0105800D02*
X0059146Y0106284D01*
X0058179Y0106284D01*
X0057695Y0105800D01*
X0060642Y0106284D02*
X0062577Y0106284D01*
X0062577Y0103381D01*
X0062577Y0104833D02*
X0061609Y0104833D01*
X0050550Y0104934D02*
X0050066Y0104450D01*
X0049099Y0104450D01*
X0048615Y0104934D01*
X0047603Y0104934D02*
X0047603Y0104450D01*
X0047603Y0104934D02*
X0045669Y0106869D01*
X0045669Y0107352D01*
X0047603Y0107352D01*
X0048615Y0106869D02*
X0049099Y0107352D01*
X0050066Y0107352D01*
X0050550Y0106869D01*
X0050550Y0104934D01*
X0044269Y0094478D02*
X0044752Y0093994D01*
X0044752Y0093027D01*
X0044269Y0092543D01*
X0044269Y0094478D02*
X0043785Y0094478D01*
X0041850Y0092543D01*
X0041850Y0094478D01*
X0041850Y0091531D02*
X0041850Y0089597D01*
X0041850Y0090564D02*
X0044752Y0090564D01*
X0043785Y0089597D01*
X0044269Y0088585D02*
X0043301Y0088585D01*
X0042817Y0088101D01*
X0042817Y0086650D01*
X0041850Y0086650D02*
X0044752Y0086650D01*
X0044752Y0088101D01*
X0044269Y0088585D01*
X0042817Y0087617D02*
X0041850Y0088585D01*
X0036036Y0087137D02*
X0035552Y0087621D01*
X0034585Y0087621D01*
X0034101Y0087137D01*
X0034101Y0086653D01*
X0034585Y0086170D01*
X0034101Y0085686D01*
X0034101Y0085202D01*
X0034585Y0084719D01*
X0035552Y0084719D01*
X0036036Y0085202D01*
X0035069Y0086170D02*
X0034585Y0086170D01*
X0033090Y0085686D02*
X0032122Y0084719D01*
X0031155Y0085686D01*
X0031155Y0087621D01*
X0030143Y0087621D02*
X0028692Y0087621D01*
X0028208Y0087137D01*
X0028208Y0086170D01*
X0028692Y0085686D01*
X0030143Y0085686D01*
X0029176Y0085686D02*
X0028208Y0084719D01*
X0027197Y0084719D02*
X0025262Y0084719D01*
X0024250Y0085202D02*
X0023766Y0084719D01*
X0022799Y0084719D01*
X0022315Y0085202D01*
X0022315Y0086170D01*
X0023283Y0086170D01*
X0024250Y0087137D02*
X0024250Y0085202D01*
X0024250Y0087137D02*
X0023766Y0087621D01*
X0022799Y0087621D01*
X0022315Y0087137D01*
X0021303Y0086170D02*
X0019369Y0086170D01*
X0018357Y0086653D02*
X0018357Y0087137D01*
X0017873Y0087621D01*
X0016906Y0087621D01*
X0016422Y0087137D01*
X0016906Y0086170D02*
X0016422Y0085686D01*
X0016422Y0085202D01*
X0016906Y0084719D01*
X0017873Y0084719D01*
X0018357Y0085202D01*
X0017873Y0086170D02*
X0016906Y0086170D01*
X0017873Y0086170D02*
X0018357Y0086653D01*
X0015410Y0087621D02*
X0015410Y0084719D01*
X0013959Y0084719D01*
X0013475Y0085202D01*
X0013475Y0087137D01*
X0013959Y0087621D01*
X0015410Y0087621D01*
X0014269Y0091810D02*
X0012334Y0091810D01*
X0011850Y0092294D01*
X0011850Y0093262D01*
X0012334Y0093745D01*
X0011850Y0094757D02*
X0011850Y0096692D01*
X0011850Y0095724D02*
X0014752Y0095724D01*
X0013785Y0094757D01*
X0014269Y0093745D02*
X0014752Y0093262D01*
X0014752Y0092294D01*
X0014269Y0091810D01*
X0014752Y0097703D02*
X0014752Y0099638D01*
X0014269Y0099638D01*
X0012334Y0097703D01*
X0011850Y0097703D01*
X0025262Y0087621D02*
X0027197Y0087621D01*
X0027197Y0084719D01*
X0027197Y0086170D02*
X0026229Y0086170D01*
X0030143Y0084719D02*
X0030143Y0087621D01*
X0033090Y0087621D02*
X0033090Y0085686D01*
X0023066Y0110950D02*
X0022099Y0110950D01*
X0021615Y0111434D01*
X0020603Y0110950D02*
X0018669Y0112885D01*
X0018669Y0113369D01*
X0019152Y0113852D01*
X0020120Y0113852D01*
X0020603Y0113369D01*
X0021615Y0113369D02*
X0022099Y0113852D01*
X0023066Y0113852D01*
X0023550Y0113369D01*
X0023550Y0111434D01*
X0023066Y0110950D01*
X0020603Y0110950D02*
X0018669Y0110950D01*
X0017657Y0110950D02*
X0015722Y0110950D01*
X0016689Y0110950D02*
X0016689Y0113852D01*
X0017657Y0112885D01*
X0069350Y0088255D02*
X0069834Y0088738D01*
X0070317Y0088738D01*
X0070801Y0088255D01*
X0070801Y0086803D01*
X0069834Y0086803D01*
X0069350Y0087287D01*
X0069350Y0088255D01*
X0070801Y0086803D02*
X0071769Y0087771D01*
X0072252Y0088738D01*
X0071769Y0085792D02*
X0072252Y0085308D01*
X0072252Y0084341D01*
X0071769Y0083857D01*
X0069834Y0083857D01*
X0069350Y0084341D01*
X0069350Y0085308D01*
X0069834Y0085792D01*
X0078550Y0090094D02*
X0078550Y0091062D01*
X0079034Y0091545D01*
X0078550Y0092557D02*
X0078550Y0094492D01*
X0078550Y0093524D02*
X0081452Y0093524D01*
X0080485Y0092557D01*
X0080969Y0091545D02*
X0081452Y0091062D01*
X0081452Y0090094D01*
X0080969Y0089610D01*
X0079034Y0089610D01*
X0078550Y0090094D01*
X0079034Y0095503D02*
X0078550Y0095987D01*
X0078550Y0096955D01*
X0079034Y0097438D01*
X0080001Y0097438D01*
X0080485Y0096955D01*
X0080485Y0096471D01*
X0080001Y0095503D01*
X0081452Y0095503D01*
X0081452Y0097438D01*
D12*
X0108100Y0166100D02*
X0108102Y0166176D01*
X0108108Y0166252D01*
X0108117Y0166327D01*
X0108131Y0166402D01*
X0108148Y0166476D01*
X0108169Y0166549D01*
X0108193Y0166621D01*
X0108222Y0166692D01*
X0108253Y0166761D01*
X0108288Y0166828D01*
X0108327Y0166893D01*
X0108369Y0166957D01*
X0108414Y0167018D01*
X0108462Y0167077D01*
X0108513Y0167133D01*
X0108567Y0167187D01*
X0108623Y0167238D01*
X0108682Y0167286D01*
X0108743Y0167331D01*
X0108807Y0167373D01*
X0108872Y0167412D01*
X0108939Y0167447D01*
X0109008Y0167478D01*
X0109079Y0167507D01*
X0109151Y0167531D01*
X0109224Y0167552D01*
X0109298Y0167569D01*
X0109373Y0167583D01*
X0109448Y0167592D01*
X0109524Y0167598D01*
X0109600Y0167600D01*
X0109676Y0167598D01*
X0109752Y0167592D01*
X0109827Y0167583D01*
X0109902Y0167569D01*
X0109976Y0167552D01*
X0110049Y0167531D01*
X0110121Y0167507D01*
X0110192Y0167478D01*
X0110261Y0167447D01*
X0110328Y0167412D01*
X0110393Y0167373D01*
X0110457Y0167331D01*
X0110518Y0167286D01*
X0110577Y0167238D01*
X0110633Y0167187D01*
X0110687Y0167133D01*
X0110738Y0167077D01*
X0110786Y0167018D01*
X0110831Y0166957D01*
X0110873Y0166893D01*
X0110912Y0166828D01*
X0110947Y0166761D01*
X0110978Y0166692D01*
X0111007Y0166621D01*
X0111031Y0166549D01*
X0111052Y0166476D01*
X0111069Y0166402D01*
X0111083Y0166327D01*
X0111092Y0166252D01*
X0111098Y0166176D01*
X0111100Y0166100D01*
X0111098Y0166024D01*
X0111092Y0165948D01*
X0111083Y0165873D01*
X0111069Y0165798D01*
X0111052Y0165724D01*
X0111031Y0165651D01*
X0111007Y0165579D01*
X0110978Y0165508D01*
X0110947Y0165439D01*
X0110912Y0165372D01*
X0110873Y0165307D01*
X0110831Y0165243D01*
X0110786Y0165182D01*
X0110738Y0165123D01*
X0110687Y0165067D01*
X0110633Y0165013D01*
X0110577Y0164962D01*
X0110518Y0164914D01*
X0110457Y0164869D01*
X0110393Y0164827D01*
X0110328Y0164788D01*
X0110261Y0164753D01*
X0110192Y0164722D01*
X0110121Y0164693D01*
X0110049Y0164669D01*
X0109976Y0164648D01*
X0109902Y0164631D01*
X0109827Y0164617D01*
X0109752Y0164608D01*
X0109676Y0164602D01*
X0109600Y0164600D01*
X0109524Y0164602D01*
X0109448Y0164608D01*
X0109373Y0164617D01*
X0109298Y0164631D01*
X0109224Y0164648D01*
X0109151Y0164669D01*
X0109079Y0164693D01*
X0109008Y0164722D01*
X0108939Y0164753D01*
X0108872Y0164788D01*
X0108807Y0164827D01*
X0108743Y0164869D01*
X0108682Y0164914D01*
X0108623Y0164962D01*
X0108567Y0165013D01*
X0108513Y0165067D01*
X0108462Y0165123D01*
X0108414Y0165182D01*
X0108369Y0165243D01*
X0108327Y0165307D01*
X0108288Y0165372D01*
X0108253Y0165439D01*
X0108222Y0165508D01*
X0108193Y0165579D01*
X0108169Y0165651D01*
X0108148Y0165724D01*
X0108131Y0165798D01*
X0108117Y0165873D01*
X0108108Y0165948D01*
X0108102Y0166024D01*
X0108100Y0166100D01*
D13*
X0152165Y0057700D03*
X0151835Y0056700D03*
X0150835Y0053700D03*
X0147835Y0047700D03*
X0146835Y0045700D03*
X0146165Y0044700D03*
X0144835Y0042700D03*
X0142835Y0039700D03*
X0142165Y0038700D03*
X0139835Y0035700D03*
X0138835Y0034700D03*
X0138165Y0033700D03*
X0137165Y0032700D03*
X0126835Y0038700D03*
X0124835Y0035700D03*
X0121835Y0031700D03*
X0121165Y0030700D03*
X0118835Y0027700D03*
X0116835Y0024700D03*
X0116165Y0015700D03*
X0126165Y0045700D03*
X0133835Y0045700D03*
X0137165Y0046700D03*
X0120165Y0052700D03*
X0112835Y0052700D03*
X0089165Y0052700D03*
X0072165Y0053700D03*
D14*
X0078000Y0045034D03*
X0097670Y0047034D03*
X0119670Y0048034D03*
X0119670Y0048366D03*
X0131670Y0044366D03*
X0115000Y0023366D03*
X0115000Y0021034D03*
X0114670Y0020366D03*
X0116330Y0016034D03*
X0150000Y0065034D03*
D15*
X0116500Y0016366D03*
X0084500Y0050366D03*
X0072500Y0044034D03*
D16*
X0116830Y0016700D03*
D17*
X0117000Y0017034D03*
D18*
X0117165Y0017366D03*
D19*
X0119500Y0017700D03*
X0113170Y0047700D03*
X0097170Y0047700D03*
X0091500Y0050700D03*
X0084500Y0050700D03*
X0073170Y0047700D03*
X0138500Y0050700D03*
D20*
X0140335Y0049700D03*
X0140335Y0048700D03*
X0140335Y0046700D03*
X0140335Y0045700D03*
X0140335Y0044700D03*
X0135335Y0052700D03*
X0133665Y0052700D03*
X0131665Y0051700D03*
X0120665Y0051700D03*
X0120665Y0053700D03*
X0120665Y0054700D03*
X0111335Y0054700D03*
X0111335Y0053700D03*
X0107335Y0054700D03*
X0099665Y0052700D03*
X0083665Y0055700D03*
X0069335Y0054700D03*
X0069335Y0048700D03*
X0063665Y0052700D03*
X0113665Y0017700D03*
D21*
X0120500Y0018034D03*
X0115500Y0024034D03*
X0084500Y0051034D03*
D22*
X0086170Y0053034D03*
X0086170Y0053366D03*
X0086170Y0054034D03*
X0087830Y0054034D03*
X0087830Y0054366D03*
X0087830Y0055034D03*
X0087830Y0055366D03*
X0087830Y0053366D03*
X0088170Y0053034D03*
X0090170Y0053366D03*
X0090170Y0054034D03*
X0090170Y0054366D03*
X0090170Y0055034D03*
X0090170Y0055366D03*
X0095170Y0053034D03*
X0097830Y0053034D03*
X0097830Y0053366D03*
X0097830Y0054034D03*
X0097830Y0054366D03*
X0097830Y0055034D03*
X0100830Y0055366D03*
X0101830Y0053034D03*
X0104170Y0053034D03*
X0104170Y0053366D03*
X0104170Y0054034D03*
X0104170Y0054366D03*
X0104170Y0055034D03*
X0106500Y0053366D03*
X0106500Y0053034D03*
X0107830Y0055366D03*
X0111500Y0055034D03*
X0111500Y0053366D03*
X0114170Y0054034D03*
X0114170Y0054366D03*
X0115500Y0055034D03*
X0115830Y0053366D03*
X0115830Y0053034D03*
X0118170Y0054034D03*
X0118170Y0054366D03*
X0118170Y0055034D03*
X0122830Y0055034D03*
X0122830Y0055366D03*
X0122830Y0054366D03*
X0122830Y0054034D03*
X0122830Y0053366D03*
X0122830Y0053034D03*
X0124500Y0053366D03*
X0124500Y0054034D03*
X0124500Y0054366D03*
X0124500Y0055034D03*
X0127170Y0055034D03*
X0127170Y0055366D03*
X0127170Y0054366D03*
X0127170Y0054034D03*
X0127170Y0053366D03*
X0127170Y0053034D03*
X0131170Y0054366D03*
X0131170Y0055034D03*
X0133830Y0054034D03*
X0133830Y0053366D03*
X0133830Y0053034D03*
X0136500Y0055366D03*
X0137500Y0053034D03*
X0138830Y0053366D03*
X0139170Y0053034D03*
X0140500Y0053034D03*
X0140500Y0053366D03*
X0113170Y0018034D03*
X0079830Y0047034D03*
X0078830Y0053034D03*
X0079500Y0054366D03*
X0079500Y0055034D03*
X0077830Y0055034D03*
X0075830Y0055034D03*
X0075830Y0053366D03*
X0075830Y0053034D03*
X0074500Y0053034D03*
X0072830Y0053034D03*
X0072830Y0054366D03*
X0072830Y0055034D03*
X0071500Y0055034D03*
X0071500Y0054366D03*
X0069500Y0055034D03*
X0068170Y0053366D03*
X0068170Y0053034D03*
X0066500Y0053034D03*
X0066500Y0053366D03*
X0066500Y0054034D03*
X0066500Y0054366D03*
X0066500Y0055034D03*
X0066500Y0055366D03*
X0063830Y0055034D03*
X0063830Y0054366D03*
X0063830Y0054034D03*
X0063830Y0053366D03*
X0063830Y0053034D03*
X0060830Y0055034D03*
X0060170Y0054034D03*
X0060170Y0053366D03*
X0060170Y0053034D03*
X0059500Y0055034D03*
X0070500Y0052366D03*
X0081830Y0053034D03*
X0081830Y0053366D03*
X0081830Y0054034D03*
X0081830Y0054366D03*
X0081830Y0055034D03*
X0081830Y0055366D03*
X0083500Y0055034D03*
X0083500Y0054366D03*
D23*
X0078165Y0045366D03*
X0066165Y0044366D03*
X0114835Y0023034D03*
X0115165Y0021366D03*
X0120835Y0018366D03*
X0138835Y0047366D03*
X0138835Y0051366D03*
D24*
X0139000Y0055366D03*
X0130000Y0043034D03*
X0108000Y0053034D03*
X0108000Y0053366D03*
X0100000Y0053034D03*
X0099000Y0055034D03*
X0078000Y0054366D03*
X0068000Y0055034D03*
X0065000Y0055034D03*
X0113000Y0018366D03*
D25*
X0115000Y0020700D03*
X0121670Y0018700D03*
X0088670Y0048700D03*
X0139000Y0052700D03*
D26*
X0122835Y0019366D03*
X0122165Y0019034D03*
X0097835Y0055366D03*
X0077835Y0044366D03*
D27*
X0069665Y0053034D03*
X0062335Y0055034D03*
X0093665Y0053034D03*
X0119335Y0053034D03*
X0119335Y0055034D03*
X0135665Y0053034D03*
X0113665Y0019366D03*
D28*
X0123165Y0019700D03*
X0124835Y0020700D03*
X0094165Y0048700D03*
X0080835Y0055700D03*
X0077835Y0044700D03*
X0139165Y0051700D03*
D29*
X0138830Y0055700D03*
X0140170Y0055700D03*
X0136500Y0055700D03*
X0133830Y0055700D03*
X0133830Y0053700D03*
X0131170Y0054700D03*
X0131170Y0052700D03*
X0127170Y0053700D03*
X0127170Y0054700D03*
X0124500Y0054700D03*
X0124500Y0053700D03*
X0122830Y0053700D03*
X0122830Y0054700D03*
X0118170Y0054700D03*
X0118170Y0053700D03*
X0115830Y0053700D03*
X0114170Y0053700D03*
X0114170Y0054700D03*
X0107830Y0055700D03*
X0106500Y0053700D03*
X0104170Y0053700D03*
X0104170Y0054700D03*
X0100830Y0055700D03*
X0097830Y0054700D03*
X0097830Y0053700D03*
X0090170Y0053700D03*
X0090170Y0054700D03*
X0090170Y0055700D03*
X0087830Y0055700D03*
X0087830Y0054700D03*
X0087830Y0053700D03*
X0086170Y0053700D03*
X0086170Y0055700D03*
X0083500Y0054700D03*
X0081830Y0054700D03*
X0081830Y0053700D03*
X0083500Y0052700D03*
X0079500Y0054700D03*
X0077830Y0054700D03*
X0075830Y0054700D03*
X0075830Y0053700D03*
X0072830Y0054700D03*
X0071500Y0054700D03*
X0068170Y0053700D03*
X0066500Y0053700D03*
X0066500Y0054700D03*
X0063830Y0054700D03*
X0063830Y0053700D03*
X0060830Y0054700D03*
X0060170Y0053700D03*
X0113830Y0019700D03*
X0129830Y0042700D03*
D30*
X0123335Y0044034D03*
X0131665Y0051366D03*
X0126335Y0056034D03*
X0116665Y0055366D03*
X0112665Y0055366D03*
X0127665Y0023034D03*
X0125665Y0021366D03*
X0124335Y0020366D03*
X0123665Y0020034D03*
D31*
X0115665Y0020034D03*
X0116665Y0044034D03*
X0120665Y0044034D03*
X0122665Y0052366D03*
X0120665Y0053034D03*
X0120665Y0053366D03*
X0120665Y0055034D03*
X0124665Y0055366D03*
X0131335Y0055366D03*
X0133665Y0055366D03*
X0136665Y0055034D03*
X0139335Y0054034D03*
X0140335Y0055366D03*
X0137665Y0052366D03*
X0135335Y0052366D03*
X0133665Y0052366D03*
X0131335Y0053034D03*
X0134665Y0048034D03*
X0136335Y0045366D03*
X0136335Y0044034D03*
X0140335Y0044034D03*
X0140335Y0044366D03*
X0140335Y0045034D03*
X0140335Y0045366D03*
X0140335Y0046034D03*
X0140335Y0046366D03*
X0140335Y0049034D03*
X0140335Y0049366D03*
X0140335Y0050034D03*
X0117665Y0053034D03*
X0115665Y0054366D03*
X0113665Y0053034D03*
X0112665Y0052366D03*
X0111665Y0053034D03*
X0111335Y0054034D03*
X0111335Y0054366D03*
X0107665Y0055034D03*
X0106665Y0054034D03*
X0107335Y0052366D03*
X0099665Y0052366D03*
X0097665Y0052366D03*
X0098665Y0044034D03*
X0106665Y0044034D03*
X0083665Y0053034D03*
X0081665Y0052366D03*
X0083665Y0055366D03*
X0077665Y0055366D03*
X0071335Y0053034D03*
X0068665Y0054034D03*
X0066335Y0052366D03*
X0063665Y0052366D03*
X0059335Y0055366D03*
X0069335Y0048366D03*
X0069335Y0047034D03*
D32*
X0069165Y0046366D03*
X0068835Y0046034D03*
X0069165Y0049034D03*
X0074835Y0049034D03*
X0074835Y0049366D03*
X0074835Y0050034D03*
X0076835Y0050034D03*
X0076835Y0050366D03*
X0076835Y0051034D03*
X0076835Y0051366D03*
X0076835Y0049366D03*
X0076835Y0049034D03*
X0076835Y0048366D03*
X0076835Y0048034D03*
X0076835Y0047366D03*
X0076835Y0047034D03*
X0076835Y0046366D03*
X0076835Y0046034D03*
X0074835Y0046034D03*
X0074835Y0046366D03*
X0079835Y0046366D03*
X0081835Y0046366D03*
X0081835Y0049034D03*
X0078835Y0053366D03*
X0085835Y0055034D03*
X0087835Y0056034D03*
X0087835Y0056366D03*
X0090165Y0056366D03*
X0090165Y0056034D03*
X0089165Y0049366D03*
X0087165Y0049034D03*
X0087165Y0046366D03*
X0089165Y0045366D03*
X0089165Y0045034D03*
X0093165Y0045034D03*
X0093165Y0045366D03*
X0093165Y0046034D03*
X0093165Y0046366D03*
X0093165Y0044366D03*
X0098835Y0044366D03*
X0098835Y0045034D03*
X0098835Y0045366D03*
X0098835Y0046034D03*
X0098835Y0046366D03*
X0098835Y0049034D03*
X0098835Y0049366D03*
X0100835Y0054366D03*
X0107165Y0054366D03*
X0106835Y0050034D03*
X0106835Y0049366D03*
X0106835Y0049034D03*
X0106835Y0048366D03*
X0106835Y0048034D03*
X0106835Y0047366D03*
X0106835Y0047034D03*
X0106835Y0046366D03*
X0106835Y0046034D03*
X0106835Y0045366D03*
X0106835Y0045034D03*
X0106835Y0044366D03*
X0114835Y0046034D03*
X0114835Y0046366D03*
X0116835Y0045034D03*
X0117165Y0045366D03*
X0116835Y0044366D03*
X0120835Y0046034D03*
X0120835Y0046366D03*
X0120835Y0047034D03*
X0120835Y0049034D03*
X0120835Y0049366D03*
X0120835Y0050034D03*
X0117835Y0049366D03*
X0114835Y0049366D03*
X0114835Y0049034D03*
X0114835Y0050034D03*
X0115835Y0054034D03*
X0125165Y0053034D03*
X0126835Y0049034D03*
X0128835Y0048366D03*
X0128835Y0047366D03*
X0128835Y0047034D03*
X0126835Y0046366D03*
X0129165Y0042034D03*
X0136165Y0044366D03*
X0136165Y0045034D03*
X0113835Y0020034D03*
X0061165Y0044366D03*
X0061165Y0045034D03*
X0061165Y0045366D03*
X0061165Y0046034D03*
X0061165Y0046366D03*
X0061165Y0047034D03*
X0061165Y0047366D03*
X0061165Y0048034D03*
X0061165Y0048366D03*
X0061165Y0049034D03*
X0061165Y0049366D03*
X0061165Y0050034D03*
X0060165Y0054366D03*
D33*
X0066000Y0044034D03*
X0094000Y0049034D03*
X0094000Y0049366D03*
X0094000Y0050034D03*
X0104000Y0055366D03*
X0125000Y0021034D03*
D34*
X0126000Y0021700D03*
X0094000Y0049700D03*
X0092000Y0051700D03*
X0104000Y0055700D03*
X0126000Y0055700D03*
D35*
X0115165Y0023700D03*
X0115165Y0021700D03*
X0076165Y0055700D03*
D36*
X0126500Y0056366D03*
X0127830Y0048034D03*
X0132170Y0027366D03*
X0130830Y0026034D03*
X0130170Y0025366D03*
X0129830Y0025034D03*
X0129170Y0024366D03*
X0128830Y0024034D03*
X0128170Y0023366D03*
X0126830Y0022366D03*
X0126500Y0022034D03*
D37*
X0115000Y0022034D03*
X0063000Y0055366D03*
D38*
X0091665Y0051366D03*
X0091665Y0047366D03*
X0097335Y0047366D03*
X0097335Y0051366D03*
X0114665Y0022366D03*
X0138665Y0047034D03*
X0131665Y0051034D03*
D39*
X0126335Y0052700D03*
X0129665Y0024700D03*
X0128335Y0023700D03*
X0127335Y0022700D03*
X0069665Y0052700D03*
D40*
X0066335Y0044700D03*
X0091665Y0047700D03*
X0114665Y0022700D03*
X0131665Y0044700D03*
X0138665Y0047700D03*
D41*
X0146500Y0045366D03*
X0147500Y0047034D03*
X0150500Y0053034D03*
X0151500Y0055366D03*
X0145500Y0063366D03*
X0128500Y0041034D03*
X0127500Y0039366D03*
X0126500Y0038034D03*
X0123500Y0034034D03*
X0122500Y0032366D03*
X0121500Y0031366D03*
X0120500Y0030034D03*
X0119500Y0028366D03*
X0118500Y0027034D03*
X0116500Y0024366D03*
X0137500Y0033034D03*
X0139500Y0035366D03*
X0141500Y0038034D03*
X0142500Y0039034D03*
X0142500Y0039366D03*
X0143500Y0040366D03*
X0120500Y0047366D03*
X0094500Y0054034D03*
X0094500Y0054366D03*
X0094500Y0055366D03*
X0085500Y0054366D03*
X0086500Y0050034D03*
X0082500Y0050034D03*
X0084500Y0044034D03*
X0077500Y0044034D03*
X0068500Y0050034D03*
D42*
X0101000Y0053366D03*
X0125000Y0036034D03*
X0126000Y0037366D03*
X0123000Y0033366D03*
X0132000Y0027034D03*
X0133000Y0028034D03*
X0134000Y0029034D03*
X0136000Y0031034D03*
X0136000Y0031366D03*
X0137000Y0032366D03*
X0138000Y0033366D03*
X0140000Y0036034D03*
X0117000Y0025034D03*
D43*
X0117335Y0025366D03*
X0117665Y0026034D03*
X0118665Y0027366D03*
X0121335Y0031034D03*
X0124335Y0035366D03*
X0125335Y0036366D03*
X0125665Y0037034D03*
X0126665Y0038366D03*
X0127335Y0039034D03*
X0131665Y0044034D03*
X0126665Y0052366D03*
X0136665Y0053366D03*
X0139335Y0035034D03*
X0138665Y0034366D03*
X0138335Y0034034D03*
X0136665Y0032034D03*
X0135335Y0030366D03*
X0134665Y0030034D03*
X0134335Y0029366D03*
X0133335Y0028366D03*
X0131335Y0026366D03*
X0072335Y0055366D03*
D44*
X0065830Y0051700D03*
X0123170Y0051700D03*
X0127830Y0047700D03*
X0146500Y0063700D03*
X0133500Y0028700D03*
X0130500Y0025700D03*
D45*
X0122500Y0032700D03*
X0117500Y0025700D03*
X0140500Y0036700D03*
X0143500Y0040700D03*
X0145500Y0043700D03*
X0147500Y0046700D03*
X0151500Y0055700D03*
X0116500Y0055700D03*
X0094500Y0052700D03*
X0072500Y0055700D03*
D46*
X0072165Y0053366D03*
X0075165Y0054034D03*
X0075165Y0054366D03*
X0075165Y0055366D03*
X0084165Y0054034D03*
X0086835Y0046034D03*
X0117835Y0026366D03*
X0119165Y0028034D03*
X0119835Y0029034D03*
X0120165Y0029366D03*
X0120835Y0030366D03*
X0122165Y0032034D03*
X0122835Y0033034D03*
X0123835Y0034366D03*
X0124165Y0035034D03*
X0127835Y0040034D03*
X0128165Y0040366D03*
X0126165Y0050034D03*
X0131835Y0054034D03*
X0133165Y0054366D03*
X0145165Y0043366D03*
X0145165Y0043034D03*
X0146165Y0044366D03*
X0147165Y0046366D03*
X0148165Y0048034D03*
X0148835Y0049366D03*
X0149165Y0050034D03*
X0150165Y0052034D03*
X0150165Y0052366D03*
X0151835Y0056366D03*
X0151835Y0057034D03*
X0143835Y0041366D03*
X0143835Y0041034D03*
X0141835Y0038366D03*
X0141165Y0037366D03*
X0140835Y0037034D03*
X0118165Y0049034D03*
X0120165Y0054034D03*
X0120165Y0054366D03*
X0120165Y0055366D03*
D47*
X0120335Y0055700D03*
X0116665Y0052700D03*
X0127665Y0039700D03*
X0126335Y0037700D03*
X0125335Y0036700D03*
X0120335Y0029700D03*
X0119665Y0028700D03*
X0118335Y0026700D03*
X0131665Y0026700D03*
X0132665Y0027700D03*
X0134665Y0029700D03*
X0135665Y0030700D03*
X0136335Y0031700D03*
X0141335Y0037700D03*
X0136665Y0053700D03*
X0075335Y0052700D03*
D48*
X0068670Y0049700D03*
X0068670Y0045700D03*
X0068670Y0055700D03*
X0081670Y0048700D03*
X0082330Y0049700D03*
X0082330Y0045700D03*
X0086670Y0045700D03*
X0090000Y0046700D03*
X0089330Y0049700D03*
X0086670Y0049700D03*
X0084000Y0053700D03*
X0104000Y0052700D03*
X0107330Y0052700D03*
X0112670Y0055700D03*
X0117330Y0049700D03*
X0117670Y0046700D03*
X0117330Y0045700D03*
X0122670Y0052700D03*
X0126330Y0049700D03*
X0129330Y0049700D03*
X0129670Y0045700D03*
X0129000Y0041700D03*
X0128330Y0040700D03*
X0123330Y0033700D03*
X0134000Y0049700D03*
X0136670Y0048700D03*
X0131670Y0053700D03*
X0144330Y0041700D03*
X0148330Y0048700D03*
X0149000Y0049700D03*
X0149670Y0050700D03*
X0150000Y0051700D03*
X0150330Y0052700D03*
X0151330Y0054700D03*
X0152330Y0058700D03*
X0152670Y0059700D03*
X0152670Y0060700D03*
X0152670Y0061700D03*
X0152670Y0062700D03*
D49*
X0152000Y0063700D03*
X0124000Y0034700D03*
X0101000Y0053700D03*
D50*
X0101000Y0054034D03*
X0098670Y0050034D03*
X0094670Y0052366D03*
X0089330Y0050034D03*
X0089330Y0049034D03*
X0087000Y0049366D03*
X0089670Y0046366D03*
X0089330Y0046034D03*
X0082000Y0046034D03*
X0082000Y0049366D03*
X0084000Y0053366D03*
X0078670Y0054034D03*
X0075330Y0052366D03*
X0072330Y0054034D03*
X0068670Y0055366D03*
X0069000Y0049366D03*
X0107000Y0056034D03*
X0107000Y0056366D03*
X0117000Y0050366D03*
X0117330Y0050034D03*
X0118000Y0047366D03*
X0118000Y0047034D03*
X0117330Y0046034D03*
X0120330Y0052366D03*
X0126670Y0049366D03*
X0129000Y0049366D03*
X0129000Y0049034D03*
X0129670Y0050034D03*
X0129000Y0046366D03*
X0129330Y0046034D03*
X0126330Y0046034D03*
X0128670Y0041366D03*
X0134000Y0046034D03*
X0134330Y0046366D03*
X0136670Y0046366D03*
X0134330Y0049034D03*
X0134330Y0049366D03*
X0133670Y0050034D03*
X0131670Y0053366D03*
X0136670Y0054034D03*
X0139670Y0056034D03*
X0148670Y0049034D03*
X0148330Y0048366D03*
X0147670Y0047366D03*
X0147000Y0046034D03*
X0146330Y0045034D03*
X0145670Y0044034D03*
X0144670Y0042366D03*
X0144330Y0042034D03*
X0143000Y0040034D03*
X0140330Y0036366D03*
X0149330Y0050366D03*
X0149670Y0051034D03*
X0149670Y0051366D03*
X0150670Y0053366D03*
X0151000Y0054034D03*
X0151000Y0054366D03*
X0151330Y0055034D03*
X0151670Y0056034D03*
X0152000Y0057366D03*
X0152330Y0058034D03*
X0152330Y0058366D03*
X0152330Y0059034D03*
X0152670Y0059366D03*
X0152670Y0060034D03*
X0152670Y0060366D03*
X0152670Y0061034D03*
X0152670Y0061366D03*
X0152670Y0062034D03*
X0152670Y0062366D03*
X0152330Y0063034D03*
X0152330Y0063366D03*
X0150330Y0065366D03*
X0144670Y0063034D03*
D51*
X0143500Y0062366D03*
X0139500Y0056366D03*
X0139500Y0054366D03*
X0136500Y0054366D03*
X0133500Y0055034D03*
X0136500Y0050034D03*
X0136500Y0049366D03*
X0136500Y0049034D03*
X0134500Y0048366D03*
X0134500Y0047366D03*
X0134500Y0047034D03*
X0136500Y0046034D03*
X0129500Y0042366D03*
X0117500Y0046366D03*
X0116500Y0052366D03*
X0087500Y0048366D03*
X0087500Y0048034D03*
X0087500Y0047366D03*
X0087500Y0047034D03*
X0081500Y0047034D03*
X0081500Y0047366D03*
X0081500Y0048034D03*
X0081500Y0048366D03*
X0079500Y0046034D03*
X0069500Y0047366D03*
X0069500Y0048034D03*
D52*
X0078835Y0052366D03*
X0093835Y0055034D03*
X0102835Y0055034D03*
X0131165Y0052366D03*
X0130165Y0043366D03*
D53*
X0131670Y0045366D03*
X0131670Y0050366D03*
X0123000Y0051366D03*
X0123000Y0044366D03*
X0112670Y0044366D03*
X0112670Y0044034D03*
X0112670Y0045034D03*
X0112670Y0045366D03*
X0072670Y0045366D03*
X0072670Y0045034D03*
X0072670Y0044366D03*
X0072670Y0050366D03*
X0072670Y0051034D03*
X0072670Y0051366D03*
D54*
X0073000Y0052366D03*
X0069000Y0052366D03*
X0069000Y0054366D03*
X0060000Y0052366D03*
X0061000Y0044034D03*
X0080000Y0055366D03*
X0086000Y0055366D03*
X0086000Y0052366D03*
X0089000Y0052366D03*
X0090000Y0053034D03*
X0095000Y0053366D03*
X0095000Y0055034D03*
X0101000Y0055034D03*
X0102000Y0052366D03*
X0104000Y0052366D03*
X0114000Y0053366D03*
X0114000Y0055034D03*
X0118000Y0053366D03*
X0127000Y0048366D03*
X0127000Y0047366D03*
X0127000Y0047034D03*
X0140000Y0052366D03*
X0140000Y0055034D03*
X0143000Y0062034D03*
X0093000Y0044034D03*
X0089000Y0044034D03*
X0089000Y0044366D03*
D55*
X0084500Y0044366D03*
X0084500Y0051366D03*
D56*
X0086165Y0052700D03*
X0085835Y0054700D03*
X0081835Y0052700D03*
X0078835Y0053700D03*
X0076835Y0050700D03*
X0076835Y0049700D03*
X0076835Y0048700D03*
X0076835Y0047700D03*
X0076835Y0046700D03*
X0076835Y0045700D03*
X0074835Y0045700D03*
X0074835Y0046700D03*
X0074835Y0048700D03*
X0074835Y0049700D03*
X0072835Y0052700D03*
X0069165Y0046700D03*
X0061165Y0046700D03*
X0061165Y0047700D03*
X0061165Y0048700D03*
X0061165Y0049700D03*
X0060165Y0052700D03*
X0059165Y0055700D03*
X0061165Y0045700D03*
X0061165Y0044700D03*
X0079835Y0046700D03*
X0081835Y0046700D03*
X0087165Y0046700D03*
X0089165Y0045700D03*
X0093165Y0045700D03*
X0093165Y0044700D03*
X0093165Y0046700D03*
X0098835Y0046700D03*
X0098835Y0045700D03*
X0098835Y0044700D03*
X0098835Y0048700D03*
X0098835Y0049700D03*
X0097835Y0052700D03*
X0100835Y0054700D03*
X0106835Y0049700D03*
X0106835Y0048700D03*
X0106835Y0047700D03*
X0106835Y0046700D03*
X0106835Y0045700D03*
X0106835Y0044700D03*
X0114835Y0045700D03*
X0114835Y0046700D03*
X0114835Y0048700D03*
X0114835Y0049700D03*
X0116835Y0050700D03*
X0120835Y0049700D03*
X0120835Y0046700D03*
X0120835Y0045700D03*
X0116835Y0044700D03*
X0126835Y0046700D03*
X0128835Y0046700D03*
X0128835Y0048700D03*
X0134835Y0047700D03*
X0136165Y0044700D03*
X0131165Y0055700D03*
X0122835Y0055700D03*
X0144165Y0062700D03*
D57*
X0123165Y0044700D03*
D58*
X0112670Y0044700D03*
X0096330Y0055700D03*
X0072670Y0050700D03*
X0072670Y0044700D03*
X0149670Y0064700D03*
D59*
X0140000Y0054700D03*
X0139000Y0053700D03*
X0127000Y0048700D03*
X0102000Y0052700D03*
X0095000Y0053700D03*
X0095000Y0054700D03*
X0089000Y0044700D03*
X0077000Y0051700D03*
D60*
X0084500Y0044700D03*
X0119500Y0047700D03*
X0119500Y0048700D03*
D61*
X0131665Y0045034D03*
X0138335Y0048366D03*
X0138335Y0050366D03*
X0091335Y0050366D03*
X0091335Y0048366D03*
X0084335Y0045034D03*
X0066665Y0045034D03*
D62*
X0123335Y0045034D03*
D63*
X0123500Y0045366D03*
X0123500Y0050366D03*
X0149500Y0064366D03*
D64*
X0084500Y0045366D03*
D65*
X0091500Y0047034D03*
X0091500Y0048034D03*
X0091500Y0051034D03*
X0097170Y0051034D03*
X0113170Y0048366D03*
X0113170Y0048034D03*
X0113170Y0047366D03*
X0113170Y0047034D03*
X0138500Y0048034D03*
X0138500Y0051034D03*
X0073170Y0048366D03*
X0073170Y0048034D03*
X0073170Y0047366D03*
X0073170Y0047034D03*
X0066830Y0045366D03*
D66*
X0069500Y0047700D03*
X0066500Y0052700D03*
X0066500Y0055700D03*
X0079500Y0045700D03*
X0081500Y0047700D03*
X0084500Y0051700D03*
X0087500Y0047700D03*
X0133500Y0054700D03*
X0136500Y0054700D03*
X0136500Y0049700D03*
X0134500Y0048700D03*
X0134500Y0046700D03*
X0136500Y0045700D03*
D67*
X0097000Y0048034D03*
X0097000Y0048366D03*
X0097000Y0050366D03*
D68*
X0109835Y0050366D03*
D69*
X0063830Y0050366D03*
D70*
X0131665Y0050700D03*
D71*
X0123335Y0050700D03*
D72*
X0109835Y0050700D03*
D73*
X0097000Y0050700D03*
D74*
X0063665Y0050700D03*
D75*
X0123165Y0051034D03*
D76*
X0110835Y0051034D03*
D77*
X0063500Y0051034D03*
D78*
X0110665Y0051366D03*
D79*
X0063330Y0051366D03*
D80*
X0110500Y0051700D03*
D81*
X0097500Y0051700D03*
D82*
X0072500Y0051700D03*
D83*
X0061165Y0051700D03*
D84*
X0069500Y0053366D03*
X0074500Y0055034D03*
X0083500Y0052366D03*
X0096500Y0055034D03*
X0105500Y0055034D03*
X0106500Y0055366D03*
D85*
X0106335Y0055700D03*
X0115665Y0054700D03*
X0140665Y0053700D03*
X0078665Y0052700D03*
X0059665Y0054700D03*
D86*
X0074500Y0054700D03*
X0074500Y0053700D03*
X0119500Y0053700D03*
X0142500Y0061700D03*
D87*
X0108165Y0053700D03*
X0093835Y0053700D03*
D88*
X0063000Y0055700D03*
D89*
X0149335Y0064034D03*
D90*
X0111536Y0093820D02*
X0091064Y0093820D01*
X0091064Y0108780D01*
X0111536Y0108780D01*
X0111536Y0093820D01*
D91*
X0092245Y0092245D02*
X0092247Y0092284D01*
X0092253Y0092323D01*
X0092263Y0092361D01*
X0092276Y0092398D01*
X0092293Y0092433D01*
X0092313Y0092467D01*
X0092337Y0092498D01*
X0092364Y0092527D01*
X0092393Y0092553D01*
X0092425Y0092576D01*
X0092459Y0092596D01*
X0092495Y0092612D01*
X0092532Y0092624D01*
X0092571Y0092633D01*
X0092610Y0092638D01*
X0092649Y0092639D01*
X0092688Y0092636D01*
X0092727Y0092629D01*
X0092764Y0092618D01*
X0092801Y0092604D01*
X0092836Y0092586D01*
X0092869Y0092565D01*
X0092900Y0092540D01*
X0092928Y0092513D01*
X0092953Y0092483D01*
X0092975Y0092450D01*
X0092994Y0092416D01*
X0093009Y0092380D01*
X0093021Y0092342D01*
X0093029Y0092304D01*
X0093033Y0092265D01*
X0093033Y0092225D01*
X0093029Y0092186D01*
X0093021Y0092148D01*
X0093009Y0092110D01*
X0092994Y0092074D01*
X0092975Y0092040D01*
X0092953Y0092007D01*
X0092928Y0091977D01*
X0092900Y0091950D01*
X0092869Y0091925D01*
X0092836Y0091904D01*
X0092801Y0091886D01*
X0092764Y0091872D01*
X0092727Y0091861D01*
X0092688Y0091854D01*
X0092649Y0091851D01*
X0092610Y0091852D01*
X0092571Y0091857D01*
X0092532Y0091866D01*
X0092495Y0091878D01*
X0092459Y0091894D01*
X0092425Y0091914D01*
X0092393Y0091937D01*
X0092364Y0091963D01*
X0092337Y0091992D01*
X0092313Y0092023D01*
X0092293Y0092057D01*
X0092276Y0092092D01*
X0092263Y0092129D01*
X0092253Y0092167D01*
X0092247Y0092206D01*
X0092245Y0092245D01*
D92*
X0058571Y0089816D03*
X0022016Y0101829D03*
D93*
X0022764Y0099845D02*
X0022764Y0092955D01*
X0035036Y0092955D02*
X0035036Y0099845D01*
X0060555Y0102836D02*
X0067445Y0102836D01*
X0067445Y0090564D02*
X0060555Y0090564D01*
M02*
