G75*
%MOIN*%
%OFA0B0*%
%FSLAX25Y25*%
%IPPOS*%
%LPD*%
%AMOC8*
5,1,8,0,0,1.08239X$1,22.5*
%
%ADD10C,0.00000*%
%ADD11C,0.04800*%
%ADD12OC8,0.06400*%
%ADD13R,0.01581X0.02467*%
%ADD14R,0.02073X0.01581*%
%ADD15R,0.03943X0.03156*%
%ADD16R,0.03156X0.02762*%
%ADD17R,0.05159X0.02719*%
%ADD18R,0.03156X0.03943*%
%ADD19R,0.02719X0.05159*%
%ADD20C,0.16900*%
D10*
X0015800Y0001300D02*
X0185800Y0001300D01*
X0186169Y0001298D01*
X0186537Y0001306D01*
X0186905Y0001322D01*
X0187273Y0001347D01*
X0187640Y0001381D01*
X0188006Y0001424D01*
X0188371Y0001476D01*
X0188735Y0001536D01*
X0189097Y0001605D01*
X0189457Y0001683D01*
X0189815Y0001770D01*
X0190171Y0001865D01*
X0190525Y0001969D01*
X0190876Y0002082D01*
X0191224Y0002202D01*
X0191569Y0002332D01*
X0191911Y0002469D01*
X0192250Y0002615D01*
X0192585Y0002769D01*
X0192916Y0002931D01*
X0193243Y0003101D01*
X0193566Y0003278D01*
X0193884Y0003464D01*
X0194198Y0003657D01*
X0194507Y0003858D01*
X0194811Y0004066D01*
X0195111Y0004281D01*
X0195404Y0004503D01*
X0195693Y0004733D01*
X0195975Y0004969D01*
X0196252Y0005213D01*
X0196523Y0005463D01*
X0196788Y0005719D01*
X0197047Y0005981D01*
X0197299Y0006250D01*
X0197545Y0006525D01*
X0197783Y0006806D01*
X0198015Y0007092D01*
X0198241Y0007384D01*
X0198458Y0007681D01*
X0198669Y0007984D01*
X0198872Y0008291D01*
X0199068Y0008603D01*
X0199256Y0008920D01*
X0199437Y0009242D01*
X0199610Y0009567D01*
X0199774Y0009897D01*
X0199931Y0010231D01*
X0200080Y0010568D01*
X0200220Y0010909D01*
X0200352Y0011253D01*
X0200476Y0011600D01*
X0200592Y0011950D01*
X0200699Y0012303D01*
X0200797Y0012658D01*
X0200887Y0013015D01*
X0200968Y0013375D01*
X0201040Y0013736D01*
X0201104Y0014099D01*
X0201159Y0014464D01*
X0201205Y0014829D01*
X0201242Y0015196D01*
X0201270Y0015564D01*
X0201289Y0015932D01*
X0201300Y0016300D01*
X0201300Y0186300D01*
X0201296Y0186662D01*
X0201282Y0187025D01*
X0201261Y0187387D01*
X0201230Y0187748D01*
X0201191Y0188108D01*
X0201143Y0188467D01*
X0201086Y0188825D01*
X0201021Y0189182D01*
X0200947Y0189537D01*
X0200864Y0189890D01*
X0200773Y0190241D01*
X0200674Y0190589D01*
X0200566Y0190935D01*
X0200450Y0191279D01*
X0200325Y0191619D01*
X0200193Y0191956D01*
X0200052Y0192290D01*
X0199903Y0192621D01*
X0199746Y0192948D01*
X0199582Y0193271D01*
X0199410Y0193590D01*
X0199230Y0193904D01*
X0199042Y0194215D01*
X0198847Y0194520D01*
X0198645Y0194821D01*
X0198435Y0195117D01*
X0198219Y0195407D01*
X0197995Y0195693D01*
X0197765Y0195973D01*
X0197528Y0196247D01*
X0197284Y0196515D01*
X0197034Y0196778D01*
X0196778Y0197034D01*
X0196515Y0197284D01*
X0196247Y0197528D01*
X0195973Y0197765D01*
X0195693Y0197995D01*
X0195407Y0198219D01*
X0195117Y0198435D01*
X0194821Y0198645D01*
X0194520Y0198847D01*
X0194215Y0199042D01*
X0193904Y0199230D01*
X0193590Y0199410D01*
X0193271Y0199582D01*
X0192948Y0199746D01*
X0192621Y0199903D01*
X0192290Y0200052D01*
X0191956Y0200193D01*
X0191619Y0200325D01*
X0191279Y0200450D01*
X0190935Y0200566D01*
X0190589Y0200674D01*
X0190241Y0200773D01*
X0189890Y0200864D01*
X0189537Y0200947D01*
X0189182Y0201021D01*
X0188825Y0201086D01*
X0188467Y0201143D01*
X0188108Y0201191D01*
X0187748Y0201230D01*
X0187387Y0201261D01*
X0187025Y0201282D01*
X0186662Y0201296D01*
X0186300Y0201300D01*
X0016300Y0201300D01*
X0015938Y0201296D01*
X0015575Y0201282D01*
X0015213Y0201261D01*
X0014852Y0201230D01*
X0014492Y0201191D01*
X0014133Y0201143D01*
X0013775Y0201086D01*
X0013418Y0201021D01*
X0013063Y0200947D01*
X0012710Y0200864D01*
X0012359Y0200773D01*
X0012011Y0200674D01*
X0011665Y0200566D01*
X0011321Y0200450D01*
X0010981Y0200325D01*
X0010644Y0200193D01*
X0010310Y0200052D01*
X0009979Y0199903D01*
X0009652Y0199746D01*
X0009329Y0199582D01*
X0009010Y0199410D01*
X0008696Y0199230D01*
X0008385Y0199042D01*
X0008080Y0198847D01*
X0007779Y0198645D01*
X0007483Y0198435D01*
X0007193Y0198219D01*
X0006907Y0197995D01*
X0006627Y0197765D01*
X0006353Y0197528D01*
X0006085Y0197284D01*
X0005822Y0197034D01*
X0005566Y0196778D01*
X0005316Y0196515D01*
X0005072Y0196247D01*
X0004835Y0195973D01*
X0004605Y0195693D01*
X0004381Y0195407D01*
X0004165Y0195117D01*
X0003955Y0194821D01*
X0003753Y0194520D01*
X0003558Y0194215D01*
X0003370Y0193904D01*
X0003190Y0193590D01*
X0003018Y0193271D01*
X0002854Y0192948D01*
X0002697Y0192621D01*
X0002548Y0192290D01*
X0002407Y0191956D01*
X0002275Y0191619D01*
X0002150Y0191279D01*
X0002034Y0190935D01*
X0001926Y0190589D01*
X0001827Y0190241D01*
X0001736Y0189890D01*
X0001653Y0189537D01*
X0001579Y0189182D01*
X0001514Y0188825D01*
X0001457Y0188467D01*
X0001409Y0188108D01*
X0001370Y0187748D01*
X0001339Y0187387D01*
X0001318Y0187025D01*
X0001304Y0186662D01*
X0001300Y0186300D01*
X0001300Y0016300D01*
X0001298Y0015944D01*
X0001305Y0015587D01*
X0001321Y0015231D01*
X0001345Y0014875D01*
X0001378Y0014520D01*
X0001419Y0014166D01*
X0001469Y0013813D01*
X0001527Y0013461D01*
X0001594Y0013111D01*
X0001669Y0012763D01*
X0001753Y0012416D01*
X0001845Y0012072D01*
X0001945Y0011730D01*
X0002053Y0011390D01*
X0002170Y0011053D01*
X0002295Y0010719D01*
X0002428Y0010389D01*
X0002568Y0010061D01*
X0002717Y0009737D01*
X0002873Y0009417D01*
X0003038Y0009100D01*
X0003209Y0008788D01*
X0003389Y0008480D01*
X0003575Y0008176D01*
X0003769Y0007877D01*
X0003970Y0007582D01*
X0004178Y0007293D01*
X0004393Y0007009D01*
X0004615Y0006730D01*
X0004844Y0006456D01*
X0005079Y0006188D01*
X0005320Y0005926D01*
X0005568Y0005670D01*
X0005822Y0005419D01*
X0006082Y0005175D01*
X0006348Y0004938D01*
X0006619Y0004706D01*
X0006896Y0004482D01*
X0007178Y0004264D01*
X0007465Y0004053D01*
X0007758Y0003849D01*
X0008055Y0003652D01*
X0008357Y0003463D01*
X0008663Y0003281D01*
X0008974Y0003106D01*
X0009289Y0002939D01*
X0009608Y0002779D01*
X0009930Y0002627D01*
X0010256Y0002483D01*
X0010586Y0002347D01*
X0010919Y0002219D01*
X0011254Y0002099D01*
X0011593Y0001987D01*
X0011934Y0001884D01*
X0012277Y0001789D01*
X0012623Y0001702D01*
X0012971Y0001623D01*
X0013320Y0001553D01*
X0013671Y0001491D01*
X0014024Y0001438D01*
X0014378Y0001393D01*
X0014732Y0001357D01*
X0015088Y0001329D01*
X0015444Y0001310D01*
X0015800Y0001300D01*
D11*
X0109600Y0174300D03*
X0109600Y0179300D03*
X0114600Y0179300D03*
X0114600Y0174300D03*
X0119600Y0174300D03*
X0119600Y0179300D03*
X0124600Y0179300D03*
X0124600Y0174300D03*
X0129600Y0174300D03*
X0129600Y0179300D03*
D12*
X0181300Y0146300D03*
X0191300Y0146300D03*
X0191300Y0136300D03*
X0181300Y0136300D03*
X0181300Y0126300D03*
X0191300Y0126300D03*
X0191300Y0116300D03*
X0181300Y0116300D03*
X0181300Y0106300D03*
X0191300Y0106300D03*
X0191300Y0096300D03*
X0181300Y0096300D03*
X0181300Y0086300D03*
X0191300Y0086300D03*
X0191300Y0076300D03*
X0181300Y0076300D03*
X0181300Y0066300D03*
X0191300Y0066300D03*
X0191300Y0056300D03*
X0181300Y0056300D03*
D13*
X0110158Y0095148D03*
X0108190Y0095148D03*
X0106221Y0095148D03*
X0104253Y0095148D03*
X0102284Y0095148D03*
X0100316Y0095148D03*
X0098347Y0095148D03*
X0096379Y0095148D03*
X0094410Y0095148D03*
X0092442Y0095148D03*
X0092442Y0107452D03*
X0094410Y0107452D03*
X0096379Y0107452D03*
X0098347Y0107452D03*
X0100316Y0107452D03*
X0102284Y0107452D03*
X0104253Y0107452D03*
X0106221Y0107452D03*
X0108190Y0107452D03*
X0110158Y0107452D03*
D14*
X0110404Y0104253D03*
X0110404Y0102284D03*
X0110404Y0100316D03*
X0110404Y0098347D03*
X0092196Y0098347D03*
X0092196Y0100316D03*
X0092196Y0102284D03*
X0092196Y0104253D03*
D15*
X0084300Y0096459D03*
X0084300Y0091341D03*
X0075700Y0089759D03*
X0075700Y0084641D03*
X0096700Y0114241D03*
X0096700Y0119359D03*
X0018900Y0098959D03*
X0018900Y0093841D03*
D16*
X0039200Y0092469D03*
X0039200Y0088531D03*
X0084300Y0104631D03*
X0084300Y0108569D03*
X0105200Y0114731D03*
X0105200Y0118669D03*
X0118400Y0104169D03*
X0118400Y0100231D03*
X0110100Y0087069D03*
X0110100Y0083131D03*
D17*
X0068934Y0092960D03*
X0068934Y0100440D03*
X0059066Y0100440D03*
X0059066Y0096700D03*
X0059066Y0092960D03*
D18*
X0051459Y0101400D03*
X0046341Y0101400D03*
X0023059Y0107500D03*
X0017941Y0107500D03*
D19*
X0025160Y0101334D03*
X0028900Y0101334D03*
X0032640Y0101334D03*
X0032640Y0091466D03*
X0025160Y0091466D03*
D20*
X0016300Y0016300D03*
X0186300Y0016300D03*
X0186300Y0186300D03*
X0016300Y0186300D03*
M02*
