G75*
%MOIN*%
%OFA0B0*%
%FSLAX25Y25*%
%IPPOS*%
%LPD*%
%AMOC8*
5,1,8,0,0,1.08239X$1,22.5*
%
%ADD10C,0.00000*%
%ADD11R,0.03543X0.02756*%
%ADD12R,0.03937X0.04724*%
%ADD13R,0.05906X0.01102*%
%ADD14R,0.02362X0.02756*%
%ADD15R,0.02756X0.03543*%
%ADD16R,0.02756X0.02362*%
%ADD17R,0.03150X0.03150*%
%ADD18R,0.07800X0.02200*%
%ADD19R,0.02756X0.07874*%
%ADD20R,0.03937X0.10236*%
%ADD21R,0.05906X0.10236*%
%ADD22R,0.10630X0.05512*%
%ADD23R,0.04724X0.04724*%
%ADD24R,0.07484X0.02359*%
%ADD25R,0.01000X0.02000*%
%ADD26C,0.00100*%
%ADD27R,0.04331X0.03937*%
%ADD28R,0.03937X0.04331*%
%ADD29R,0.03937X0.03937*%
%ADD30R,0.10184X0.06417*%
%ADD31R,0.07480X0.05118*%
D10*
X0015800Y0001300D02*
X0185800Y0001300D01*
X0186169Y0001298D01*
X0186537Y0001306D01*
X0186905Y0001322D01*
X0187273Y0001347D01*
X0187640Y0001381D01*
X0188006Y0001424D01*
X0188371Y0001476D01*
X0188735Y0001536D01*
X0189097Y0001605D01*
X0189457Y0001683D01*
X0189815Y0001770D01*
X0190171Y0001865D01*
X0190525Y0001969D01*
X0190876Y0002082D01*
X0191224Y0002202D01*
X0191569Y0002332D01*
X0191911Y0002469D01*
X0192250Y0002615D01*
X0192585Y0002769D01*
X0192916Y0002931D01*
X0193243Y0003101D01*
X0193566Y0003278D01*
X0193884Y0003464D01*
X0194198Y0003657D01*
X0194507Y0003858D01*
X0194811Y0004066D01*
X0195111Y0004281D01*
X0195404Y0004503D01*
X0195693Y0004733D01*
X0195975Y0004969D01*
X0196252Y0005213D01*
X0196523Y0005463D01*
X0196788Y0005719D01*
X0197047Y0005981D01*
X0197299Y0006250D01*
X0197545Y0006525D01*
X0197783Y0006806D01*
X0198015Y0007092D01*
X0198241Y0007384D01*
X0198458Y0007681D01*
X0198669Y0007984D01*
X0198872Y0008291D01*
X0199068Y0008603D01*
X0199256Y0008920D01*
X0199437Y0009242D01*
X0199610Y0009567D01*
X0199774Y0009897D01*
X0199931Y0010231D01*
X0200080Y0010568D01*
X0200220Y0010909D01*
X0200352Y0011253D01*
X0200476Y0011600D01*
X0200592Y0011950D01*
X0200699Y0012303D01*
X0200797Y0012658D01*
X0200887Y0013015D01*
X0200968Y0013375D01*
X0201040Y0013736D01*
X0201104Y0014099D01*
X0201159Y0014464D01*
X0201205Y0014829D01*
X0201242Y0015196D01*
X0201270Y0015564D01*
X0201289Y0015932D01*
X0201300Y0016300D01*
X0201300Y0186300D01*
X0201296Y0186662D01*
X0201282Y0187025D01*
X0201261Y0187387D01*
X0201230Y0187748D01*
X0201191Y0188108D01*
X0201143Y0188467D01*
X0201086Y0188825D01*
X0201021Y0189182D01*
X0200947Y0189537D01*
X0200864Y0189890D01*
X0200773Y0190241D01*
X0200674Y0190589D01*
X0200566Y0190935D01*
X0200450Y0191279D01*
X0200325Y0191619D01*
X0200193Y0191956D01*
X0200052Y0192290D01*
X0199903Y0192621D01*
X0199746Y0192948D01*
X0199582Y0193271D01*
X0199410Y0193590D01*
X0199230Y0193904D01*
X0199042Y0194215D01*
X0198847Y0194520D01*
X0198645Y0194821D01*
X0198435Y0195117D01*
X0198219Y0195407D01*
X0197995Y0195693D01*
X0197765Y0195973D01*
X0197528Y0196247D01*
X0197284Y0196515D01*
X0197034Y0196778D01*
X0196778Y0197034D01*
X0196515Y0197284D01*
X0196247Y0197528D01*
X0195973Y0197765D01*
X0195693Y0197995D01*
X0195407Y0198219D01*
X0195117Y0198435D01*
X0194821Y0198645D01*
X0194520Y0198847D01*
X0194215Y0199042D01*
X0193904Y0199230D01*
X0193590Y0199410D01*
X0193271Y0199582D01*
X0192948Y0199746D01*
X0192621Y0199903D01*
X0192290Y0200052D01*
X0191956Y0200193D01*
X0191619Y0200325D01*
X0191279Y0200450D01*
X0190935Y0200566D01*
X0190589Y0200674D01*
X0190241Y0200773D01*
X0189890Y0200864D01*
X0189537Y0200947D01*
X0189182Y0201021D01*
X0188825Y0201086D01*
X0188467Y0201143D01*
X0188108Y0201191D01*
X0187748Y0201230D01*
X0187387Y0201261D01*
X0187025Y0201282D01*
X0186662Y0201296D01*
X0186300Y0201300D01*
X0016300Y0201300D01*
X0015938Y0201296D01*
X0015575Y0201282D01*
X0015213Y0201261D01*
X0014852Y0201230D01*
X0014492Y0201191D01*
X0014133Y0201143D01*
X0013775Y0201086D01*
X0013418Y0201021D01*
X0013063Y0200947D01*
X0012710Y0200864D01*
X0012359Y0200773D01*
X0012011Y0200674D01*
X0011665Y0200566D01*
X0011321Y0200450D01*
X0010981Y0200325D01*
X0010644Y0200193D01*
X0010310Y0200052D01*
X0009979Y0199903D01*
X0009652Y0199746D01*
X0009329Y0199582D01*
X0009010Y0199410D01*
X0008696Y0199230D01*
X0008385Y0199042D01*
X0008080Y0198847D01*
X0007779Y0198645D01*
X0007483Y0198435D01*
X0007193Y0198219D01*
X0006907Y0197995D01*
X0006627Y0197765D01*
X0006353Y0197528D01*
X0006085Y0197284D01*
X0005822Y0197034D01*
X0005566Y0196778D01*
X0005316Y0196515D01*
X0005072Y0196247D01*
X0004835Y0195973D01*
X0004605Y0195693D01*
X0004381Y0195407D01*
X0004165Y0195117D01*
X0003955Y0194821D01*
X0003753Y0194520D01*
X0003558Y0194215D01*
X0003370Y0193904D01*
X0003190Y0193590D01*
X0003018Y0193271D01*
X0002854Y0192948D01*
X0002697Y0192621D01*
X0002548Y0192290D01*
X0002407Y0191956D01*
X0002275Y0191619D01*
X0002150Y0191279D01*
X0002034Y0190935D01*
X0001926Y0190589D01*
X0001827Y0190241D01*
X0001736Y0189890D01*
X0001653Y0189537D01*
X0001579Y0189182D01*
X0001514Y0188825D01*
X0001457Y0188467D01*
X0001409Y0188108D01*
X0001370Y0187748D01*
X0001339Y0187387D01*
X0001318Y0187025D01*
X0001304Y0186662D01*
X0001300Y0186300D01*
X0001300Y0016300D01*
X0001298Y0015944D01*
X0001305Y0015587D01*
X0001321Y0015231D01*
X0001345Y0014875D01*
X0001378Y0014520D01*
X0001419Y0014166D01*
X0001469Y0013813D01*
X0001527Y0013461D01*
X0001594Y0013111D01*
X0001669Y0012763D01*
X0001753Y0012416D01*
X0001845Y0012072D01*
X0001945Y0011730D01*
X0002053Y0011390D01*
X0002170Y0011053D01*
X0002295Y0010719D01*
X0002428Y0010389D01*
X0002568Y0010061D01*
X0002717Y0009737D01*
X0002873Y0009417D01*
X0003038Y0009100D01*
X0003209Y0008788D01*
X0003389Y0008480D01*
X0003575Y0008176D01*
X0003769Y0007877D01*
X0003970Y0007582D01*
X0004178Y0007293D01*
X0004393Y0007009D01*
X0004615Y0006730D01*
X0004844Y0006456D01*
X0005079Y0006188D01*
X0005320Y0005926D01*
X0005568Y0005670D01*
X0005822Y0005419D01*
X0006082Y0005175D01*
X0006348Y0004938D01*
X0006619Y0004706D01*
X0006896Y0004482D01*
X0007178Y0004264D01*
X0007465Y0004053D01*
X0007758Y0003849D01*
X0008055Y0003652D01*
X0008357Y0003463D01*
X0008663Y0003281D01*
X0008974Y0003106D01*
X0009289Y0002939D01*
X0009608Y0002779D01*
X0009930Y0002627D01*
X0010256Y0002483D01*
X0010586Y0002347D01*
X0010919Y0002219D01*
X0011254Y0002099D01*
X0011593Y0001987D01*
X0011934Y0001884D01*
X0012277Y0001789D01*
X0012623Y0001702D01*
X0012971Y0001623D01*
X0013320Y0001553D01*
X0013671Y0001491D01*
X0014024Y0001438D01*
X0014378Y0001393D01*
X0014732Y0001357D01*
X0015088Y0001329D01*
X0015444Y0001310D01*
X0015800Y0001300D01*
D11*
X0074800Y0061741D03*
X0074800Y0066859D03*
X0077100Y0134641D03*
X0077100Y0139759D03*
X0065600Y0139809D03*
X0065600Y0134691D03*
X0106000Y0134641D03*
X0106000Y0139759D03*
X0146650Y0137841D03*
X0146650Y0142959D03*
X0155300Y0142959D03*
X0155300Y0137841D03*
X0163900Y0137841D03*
X0163900Y0142959D03*
D12*
X0071350Y0140581D03*
X0071350Y0131919D03*
D13*
G36*
X0088466Y0116304D02*
X0092641Y0112129D01*
X0091862Y0111350D01*
X0087687Y0115525D01*
X0088466Y0116304D01*
G37*
G36*
X0089858Y0117696D02*
X0094033Y0113521D01*
X0093254Y0112742D01*
X0089079Y0116917D01*
X0089858Y0117696D01*
G37*
G36*
X0091250Y0119088D02*
X0095425Y0114913D01*
X0094646Y0114134D01*
X0090471Y0118309D01*
X0091250Y0119088D01*
G37*
G36*
X0092642Y0120480D02*
X0096817Y0116305D01*
X0096038Y0115526D01*
X0091863Y0119701D01*
X0092642Y0120480D01*
G37*
G36*
X0094034Y0121872D02*
X0098209Y0117697D01*
X0097430Y0116918D01*
X0093255Y0121093D01*
X0094034Y0121872D01*
G37*
G36*
X0095426Y0123264D02*
X0099601Y0119089D01*
X0098822Y0118310D01*
X0094647Y0122485D01*
X0095426Y0123264D01*
G37*
G36*
X0107953Y0122485D02*
X0103778Y0118310D01*
X0102999Y0119089D01*
X0107174Y0123264D01*
X0107953Y0122485D01*
G37*
G36*
X0109345Y0121093D02*
X0105170Y0116918D01*
X0104391Y0117697D01*
X0108566Y0121872D01*
X0109345Y0121093D01*
G37*
G36*
X0110737Y0119701D02*
X0106562Y0115526D01*
X0105783Y0116305D01*
X0109958Y0120480D01*
X0110737Y0119701D01*
G37*
G36*
X0112129Y0118309D02*
X0107954Y0114134D01*
X0107175Y0114913D01*
X0111350Y0119088D01*
X0112129Y0118309D01*
G37*
G36*
X0113521Y0116917D02*
X0109346Y0112742D01*
X0108567Y0113521D01*
X0112742Y0117696D01*
X0113521Y0116917D01*
G37*
G36*
X0114913Y0115525D02*
X0110738Y0111350D01*
X0109959Y0112129D01*
X0114134Y0116304D01*
X0114913Y0115525D01*
G37*
G36*
X0116304Y0114134D02*
X0112129Y0109959D01*
X0111350Y0110738D01*
X0115525Y0114913D01*
X0116304Y0114134D01*
G37*
G36*
X0117696Y0112742D02*
X0113521Y0108567D01*
X0112742Y0109346D01*
X0116917Y0113521D01*
X0117696Y0112742D01*
G37*
G36*
X0119088Y0111350D02*
X0114913Y0107175D01*
X0114134Y0107954D01*
X0118309Y0112129D01*
X0119088Y0111350D01*
G37*
G36*
X0120480Y0109958D02*
X0116305Y0105783D01*
X0115526Y0106562D01*
X0119701Y0110737D01*
X0120480Y0109958D01*
G37*
G36*
X0121872Y0108566D02*
X0117697Y0104391D01*
X0116918Y0105170D01*
X0121093Y0109345D01*
X0121872Y0108566D01*
G37*
G36*
X0123264Y0107174D02*
X0119089Y0102999D01*
X0118310Y0103778D01*
X0122485Y0107953D01*
X0123264Y0107174D01*
G37*
G36*
X0122485Y0094647D02*
X0118310Y0098822D01*
X0119089Y0099601D01*
X0123264Y0095426D01*
X0122485Y0094647D01*
G37*
G36*
X0121093Y0093255D02*
X0116918Y0097430D01*
X0117697Y0098209D01*
X0121872Y0094034D01*
X0121093Y0093255D01*
G37*
G36*
X0119701Y0091863D02*
X0115526Y0096038D01*
X0116305Y0096817D01*
X0120480Y0092642D01*
X0119701Y0091863D01*
G37*
G36*
X0118309Y0090471D02*
X0114134Y0094646D01*
X0114913Y0095425D01*
X0119088Y0091250D01*
X0118309Y0090471D01*
G37*
G36*
X0116917Y0089079D02*
X0112742Y0093254D01*
X0113521Y0094033D01*
X0117696Y0089858D01*
X0116917Y0089079D01*
G37*
G36*
X0115525Y0087687D02*
X0111350Y0091862D01*
X0112129Y0092641D01*
X0116304Y0088466D01*
X0115525Y0087687D01*
G37*
G36*
X0114134Y0086296D02*
X0109959Y0090471D01*
X0110738Y0091250D01*
X0114913Y0087075D01*
X0114134Y0086296D01*
G37*
G36*
X0112742Y0084904D02*
X0108567Y0089079D01*
X0109346Y0089858D01*
X0113521Y0085683D01*
X0112742Y0084904D01*
G37*
G36*
X0111350Y0083512D02*
X0107175Y0087687D01*
X0107954Y0088466D01*
X0112129Y0084291D01*
X0111350Y0083512D01*
G37*
G36*
X0109958Y0082120D02*
X0105783Y0086295D01*
X0106562Y0087074D01*
X0110737Y0082899D01*
X0109958Y0082120D01*
G37*
G36*
X0108566Y0080728D02*
X0104391Y0084903D01*
X0105170Y0085682D01*
X0109345Y0081507D01*
X0108566Y0080728D01*
G37*
G36*
X0107174Y0079336D02*
X0102999Y0083511D01*
X0103778Y0084290D01*
X0107953Y0080115D01*
X0107174Y0079336D01*
G37*
G36*
X0094647Y0080115D02*
X0098822Y0084290D01*
X0099601Y0083511D01*
X0095426Y0079336D01*
X0094647Y0080115D01*
G37*
G36*
X0093255Y0081507D02*
X0097430Y0085682D01*
X0098209Y0084903D01*
X0094034Y0080728D01*
X0093255Y0081507D01*
G37*
G36*
X0091863Y0082899D02*
X0096038Y0087074D01*
X0096817Y0086295D01*
X0092642Y0082120D01*
X0091863Y0082899D01*
G37*
G36*
X0090471Y0084291D02*
X0094646Y0088466D01*
X0095425Y0087687D01*
X0091250Y0083512D01*
X0090471Y0084291D01*
G37*
G36*
X0089079Y0085683D02*
X0093254Y0089858D01*
X0094033Y0089079D01*
X0089858Y0084904D01*
X0089079Y0085683D01*
G37*
G36*
X0087687Y0087075D02*
X0091862Y0091250D01*
X0092641Y0090471D01*
X0088466Y0086296D01*
X0087687Y0087075D01*
G37*
G36*
X0086296Y0088466D02*
X0090471Y0092641D01*
X0091250Y0091862D01*
X0087075Y0087687D01*
X0086296Y0088466D01*
G37*
G36*
X0084904Y0089858D02*
X0089079Y0094033D01*
X0089858Y0093254D01*
X0085683Y0089079D01*
X0084904Y0089858D01*
G37*
G36*
X0083512Y0091250D02*
X0087687Y0095425D01*
X0088466Y0094646D01*
X0084291Y0090471D01*
X0083512Y0091250D01*
G37*
G36*
X0082120Y0092642D02*
X0086295Y0096817D01*
X0087074Y0096038D01*
X0082899Y0091863D01*
X0082120Y0092642D01*
G37*
G36*
X0080728Y0094034D02*
X0084903Y0098209D01*
X0085682Y0097430D01*
X0081507Y0093255D01*
X0080728Y0094034D01*
G37*
G36*
X0079336Y0095426D02*
X0083511Y0099601D01*
X0084290Y0098822D01*
X0080115Y0094647D01*
X0079336Y0095426D01*
G37*
G36*
X0080115Y0107953D02*
X0084290Y0103778D01*
X0083511Y0102999D01*
X0079336Y0107174D01*
X0080115Y0107953D01*
G37*
G36*
X0081507Y0109345D02*
X0085682Y0105170D01*
X0084903Y0104391D01*
X0080728Y0108566D01*
X0081507Y0109345D01*
G37*
G36*
X0082899Y0110737D02*
X0087074Y0106562D01*
X0086295Y0105783D01*
X0082120Y0109958D01*
X0082899Y0110737D01*
G37*
G36*
X0084291Y0112129D02*
X0088466Y0107954D01*
X0087687Y0107175D01*
X0083512Y0111350D01*
X0084291Y0112129D01*
G37*
G36*
X0085683Y0113521D02*
X0089858Y0109346D01*
X0089079Y0108567D01*
X0084904Y0112742D01*
X0085683Y0113521D01*
G37*
G36*
X0087075Y0114913D02*
X0091250Y0110738D01*
X0090471Y0109959D01*
X0086296Y0114134D01*
X0087075Y0114913D01*
G37*
D14*
X0142981Y0120750D03*
X0146919Y0120750D03*
X0154931Y0120800D03*
X0158869Y0120800D03*
X0149269Y0077200D03*
X0145331Y0077200D03*
D15*
X0144741Y0085500D03*
X0149859Y0085500D03*
X0150559Y0044000D03*
X0145441Y0044000D03*
X0032459Y0054400D03*
X0027341Y0054400D03*
D16*
X0063600Y0057931D03*
X0063600Y0061869D03*
X0066700Y0040369D03*
X0066700Y0036431D03*
X0088600Y0035469D03*
X0088600Y0031531D03*
X0094500Y0031531D03*
X0094500Y0035469D03*
X0167300Y0100831D03*
X0167300Y0104769D03*
X0139300Y0158431D03*
X0139300Y0162369D03*
X0072250Y0171931D03*
X0072250Y0175869D03*
D17*
X0072250Y0180847D03*
X0072250Y0186753D03*
D18*
X0138100Y0067800D03*
X0138100Y0062800D03*
X0138100Y0057800D03*
X0138100Y0052800D03*
X0157500Y0052800D03*
X0157500Y0057800D03*
X0157500Y0062800D03*
X0157500Y0067800D03*
D19*
X0046398Y0073300D03*
X0042068Y0073300D03*
X0037737Y0073300D03*
X0033406Y0073300D03*
X0029076Y0073300D03*
X0024745Y0073300D03*
X0020414Y0073300D03*
X0016083Y0073300D03*
D20*
X0007816Y0075269D03*
D21*
X0060375Y0075269D03*
D22*
X0040887Y0123300D03*
X0021595Y0123300D03*
D23*
X0052894Y0123694D03*
D24*
X0137633Y0110300D03*
X0137633Y0105300D03*
X0137633Y0100300D03*
X0137633Y0095300D03*
X0156967Y0095300D03*
X0156967Y0100300D03*
X0156967Y0105300D03*
X0156967Y0110300D03*
D25*
X0059653Y0028590D03*
X0057684Y0028590D03*
X0055716Y0028590D03*
X0053747Y0028590D03*
X0053747Y0021110D03*
X0055716Y0021110D03*
X0057684Y0021110D03*
X0059653Y0021110D03*
D26*
X0059200Y0021101D02*
X0060106Y0021101D01*
X0060106Y0021199D02*
X0059200Y0021199D01*
X0059200Y0021298D02*
X0060106Y0021298D01*
X0060106Y0021396D02*
X0059200Y0021396D01*
X0059200Y0021495D02*
X0060106Y0021495D01*
X0060106Y0021593D02*
X0059200Y0021593D01*
X0059200Y0021692D02*
X0060106Y0021692D01*
X0060106Y0021790D02*
X0059200Y0021790D01*
X0059200Y0021889D02*
X0060106Y0021889D01*
X0060106Y0021987D02*
X0059200Y0021987D01*
X0059200Y0021996D02*
X0059200Y0020224D01*
X0060106Y0020224D01*
X0060106Y0021996D01*
X0059200Y0021996D01*
X0059200Y0021002D02*
X0060106Y0021002D01*
X0060106Y0020904D02*
X0059200Y0020904D01*
X0059200Y0020805D02*
X0060106Y0020805D01*
X0060106Y0020707D02*
X0059200Y0020707D01*
X0059200Y0020608D02*
X0060106Y0020608D01*
X0060106Y0020510D02*
X0059200Y0020510D01*
X0059200Y0020411D02*
X0060106Y0020411D01*
X0060106Y0020313D02*
X0059200Y0020313D01*
X0058137Y0020313D02*
X0057231Y0020313D01*
X0057231Y0020224D02*
X0057231Y0021996D01*
X0058137Y0021996D01*
X0058137Y0020224D01*
X0057231Y0020224D01*
X0057231Y0020411D02*
X0058137Y0020411D01*
X0058137Y0020510D02*
X0057231Y0020510D01*
X0057231Y0020608D02*
X0058137Y0020608D01*
X0058137Y0020707D02*
X0057231Y0020707D01*
X0057231Y0020805D02*
X0058137Y0020805D01*
X0058137Y0020904D02*
X0057231Y0020904D01*
X0057231Y0021002D02*
X0058137Y0021002D01*
X0058137Y0021101D02*
X0057231Y0021101D01*
X0057231Y0021199D02*
X0058137Y0021199D01*
X0058137Y0021298D02*
X0057231Y0021298D01*
X0057231Y0021396D02*
X0058137Y0021396D01*
X0058137Y0021495D02*
X0057231Y0021495D01*
X0057231Y0021593D02*
X0058137Y0021593D01*
X0058137Y0021692D02*
X0057231Y0021692D01*
X0057231Y0021790D02*
X0058137Y0021790D01*
X0058137Y0021889D02*
X0057231Y0021889D01*
X0057231Y0021987D02*
X0058137Y0021987D01*
X0057856Y0023373D02*
X0055544Y0023373D01*
X0055544Y0023900D01*
X0056100Y0024456D01*
X0057300Y0024456D01*
X0057856Y0023900D01*
X0057856Y0023373D01*
X0057856Y0023465D02*
X0055544Y0023465D01*
X0055544Y0023564D02*
X0057856Y0023564D01*
X0057856Y0023662D02*
X0055544Y0023662D01*
X0055544Y0023761D02*
X0057856Y0023761D01*
X0057856Y0023859D02*
X0055544Y0023859D01*
X0055602Y0023958D02*
X0057798Y0023958D01*
X0057700Y0024056D02*
X0055700Y0024056D01*
X0055799Y0024155D02*
X0057601Y0024155D01*
X0057503Y0024253D02*
X0055897Y0024253D01*
X0055996Y0024352D02*
X0057404Y0024352D01*
X0057306Y0024450D02*
X0056094Y0024450D01*
X0056100Y0025244D02*
X0057300Y0025244D01*
X0057856Y0025800D01*
X0057856Y0026327D01*
X0055544Y0026327D01*
X0055544Y0025800D01*
X0056100Y0025244D01*
X0056007Y0025337D02*
X0057393Y0025337D01*
X0057491Y0025435D02*
X0055909Y0025435D01*
X0055810Y0025534D02*
X0057590Y0025534D01*
X0057688Y0025632D02*
X0055712Y0025632D01*
X0055613Y0025731D02*
X0057787Y0025731D01*
X0057856Y0025829D02*
X0055544Y0025829D01*
X0055544Y0025928D02*
X0057856Y0025928D01*
X0057856Y0026026D02*
X0055544Y0026026D01*
X0055544Y0026125D02*
X0057856Y0026125D01*
X0057856Y0026223D02*
X0055544Y0026223D01*
X0055544Y0026322D02*
X0057856Y0026322D01*
X0058644Y0026322D02*
X0059555Y0026322D01*
X0059555Y0026327D02*
X0058644Y0026327D01*
X0058644Y0025800D01*
X0059200Y0025244D01*
X0059555Y0025244D01*
X0059555Y0026327D01*
X0059555Y0026223D02*
X0058644Y0026223D01*
X0058644Y0026125D02*
X0059555Y0026125D01*
X0059555Y0026026D02*
X0058644Y0026026D01*
X0058644Y0025928D02*
X0059555Y0025928D01*
X0059555Y0025829D02*
X0058644Y0025829D01*
X0058713Y0025731D02*
X0059555Y0025731D01*
X0059555Y0025632D02*
X0058812Y0025632D01*
X0058910Y0025534D02*
X0059555Y0025534D01*
X0059555Y0025435D02*
X0059009Y0025435D01*
X0059107Y0025337D02*
X0059555Y0025337D01*
X0059555Y0024456D02*
X0059200Y0024456D01*
X0058644Y0023900D01*
X0058644Y0023373D01*
X0059555Y0023373D01*
X0059555Y0024456D01*
X0059555Y0024450D02*
X0059194Y0024450D01*
X0059096Y0024352D02*
X0059555Y0024352D01*
X0059555Y0024253D02*
X0058997Y0024253D01*
X0058899Y0024155D02*
X0059555Y0024155D01*
X0059555Y0024056D02*
X0058800Y0024056D01*
X0058702Y0023958D02*
X0059555Y0023958D01*
X0059555Y0023859D02*
X0058644Y0023859D01*
X0058644Y0023761D02*
X0059555Y0023761D01*
X0059555Y0023662D02*
X0058644Y0023662D01*
X0058644Y0023564D02*
X0059555Y0023564D01*
X0059555Y0023465D02*
X0058644Y0023465D01*
X0056169Y0021996D02*
X0055263Y0021996D01*
X0055263Y0020224D01*
X0056169Y0020224D01*
X0056169Y0021996D01*
X0056169Y0021987D02*
X0055263Y0021987D01*
X0055263Y0021889D02*
X0056169Y0021889D01*
X0056169Y0021790D02*
X0055263Y0021790D01*
X0055263Y0021692D02*
X0056169Y0021692D01*
X0056169Y0021593D02*
X0055263Y0021593D01*
X0055263Y0021495D02*
X0056169Y0021495D01*
X0056169Y0021396D02*
X0055263Y0021396D01*
X0055263Y0021298D02*
X0056169Y0021298D01*
X0056169Y0021199D02*
X0055263Y0021199D01*
X0055263Y0021101D02*
X0056169Y0021101D01*
X0056169Y0021002D02*
X0055263Y0021002D01*
X0055263Y0020904D02*
X0056169Y0020904D01*
X0056169Y0020805D02*
X0055263Y0020805D01*
X0055263Y0020707D02*
X0056169Y0020707D01*
X0056169Y0020608D02*
X0055263Y0020608D01*
X0055263Y0020510D02*
X0056169Y0020510D01*
X0056169Y0020411D02*
X0055263Y0020411D01*
X0055263Y0020313D02*
X0056169Y0020313D01*
X0054200Y0020313D02*
X0053294Y0020313D01*
X0053294Y0020224D02*
X0053294Y0021996D01*
X0054200Y0021996D01*
X0054200Y0020224D01*
X0053294Y0020224D01*
X0053294Y0020411D02*
X0054200Y0020411D01*
X0054200Y0020510D02*
X0053294Y0020510D01*
X0053294Y0020608D02*
X0054200Y0020608D01*
X0054200Y0020707D02*
X0053294Y0020707D01*
X0053294Y0020805D02*
X0054200Y0020805D01*
X0054200Y0020904D02*
X0053294Y0020904D01*
X0053294Y0021002D02*
X0054200Y0021002D01*
X0054200Y0021101D02*
X0053294Y0021101D01*
X0053294Y0021199D02*
X0054200Y0021199D01*
X0054200Y0021298D02*
X0053294Y0021298D01*
X0053294Y0021396D02*
X0054200Y0021396D01*
X0054200Y0021495D02*
X0053294Y0021495D01*
X0053294Y0021593D02*
X0054200Y0021593D01*
X0054200Y0021692D02*
X0053294Y0021692D01*
X0053294Y0021790D02*
X0054200Y0021790D01*
X0054200Y0021889D02*
X0053294Y0021889D01*
X0053294Y0021987D02*
X0054200Y0021987D01*
X0053845Y0023373D02*
X0053845Y0024456D01*
X0054200Y0024456D01*
X0054756Y0023900D01*
X0054756Y0023373D01*
X0053845Y0023373D01*
X0053845Y0023465D02*
X0054756Y0023465D01*
X0054756Y0023564D02*
X0053845Y0023564D01*
X0053845Y0023662D02*
X0054756Y0023662D01*
X0054756Y0023761D02*
X0053845Y0023761D01*
X0053845Y0023859D02*
X0054756Y0023859D01*
X0054698Y0023958D02*
X0053845Y0023958D01*
X0053845Y0024056D02*
X0054600Y0024056D01*
X0054501Y0024155D02*
X0053845Y0024155D01*
X0053845Y0024253D02*
X0054403Y0024253D01*
X0054304Y0024352D02*
X0053845Y0024352D01*
X0053845Y0024450D02*
X0054206Y0024450D01*
X0054200Y0025244D02*
X0054756Y0025800D01*
X0054756Y0026327D01*
X0053845Y0026327D01*
X0053845Y0025244D01*
X0054200Y0025244D01*
X0054293Y0025337D02*
X0053845Y0025337D01*
X0053845Y0025435D02*
X0054391Y0025435D01*
X0054490Y0025534D02*
X0053845Y0025534D01*
X0053845Y0025632D02*
X0054588Y0025632D01*
X0054687Y0025731D02*
X0053845Y0025731D01*
X0053845Y0025829D02*
X0054756Y0025829D01*
X0054756Y0025928D02*
X0053845Y0025928D01*
X0053845Y0026026D02*
X0054756Y0026026D01*
X0054756Y0026125D02*
X0053845Y0026125D01*
X0053845Y0026223D02*
X0054756Y0026223D01*
X0054756Y0026322D02*
X0053845Y0026322D01*
X0054200Y0027704D02*
X0054200Y0029476D01*
X0053294Y0029476D01*
X0053294Y0027704D01*
X0054200Y0027704D01*
X0054200Y0027800D02*
X0053294Y0027800D01*
X0053294Y0027898D02*
X0054200Y0027898D01*
X0054200Y0027997D02*
X0053294Y0027997D01*
X0053294Y0028095D02*
X0054200Y0028095D01*
X0054200Y0028194D02*
X0053294Y0028194D01*
X0053294Y0028292D02*
X0054200Y0028292D01*
X0054200Y0028391D02*
X0053294Y0028391D01*
X0053294Y0028489D02*
X0054200Y0028489D01*
X0054200Y0028588D02*
X0053294Y0028588D01*
X0053294Y0028686D02*
X0054200Y0028686D01*
X0054200Y0028785D02*
X0053294Y0028785D01*
X0053294Y0028883D02*
X0054200Y0028883D01*
X0054200Y0028982D02*
X0053294Y0028982D01*
X0053294Y0029080D02*
X0054200Y0029080D01*
X0054200Y0029179D02*
X0053294Y0029179D01*
X0053294Y0029277D02*
X0054200Y0029277D01*
X0054200Y0029376D02*
X0053294Y0029376D01*
X0053294Y0029474D02*
X0054200Y0029474D01*
X0055263Y0029476D02*
X0055263Y0027704D01*
X0056169Y0027704D01*
X0056169Y0029476D01*
X0055263Y0029476D01*
X0055263Y0029474D02*
X0056169Y0029474D01*
X0056169Y0029376D02*
X0055263Y0029376D01*
X0055263Y0029277D02*
X0056169Y0029277D01*
X0056169Y0029179D02*
X0055263Y0029179D01*
X0055263Y0029080D02*
X0056169Y0029080D01*
X0056169Y0028982D02*
X0055263Y0028982D01*
X0055263Y0028883D02*
X0056169Y0028883D01*
X0056169Y0028785D02*
X0055263Y0028785D01*
X0055263Y0028686D02*
X0056169Y0028686D01*
X0056169Y0028588D02*
X0055263Y0028588D01*
X0055263Y0028489D02*
X0056169Y0028489D01*
X0056169Y0028391D02*
X0055263Y0028391D01*
X0055263Y0028292D02*
X0056169Y0028292D01*
X0056169Y0028194D02*
X0055263Y0028194D01*
X0055263Y0028095D02*
X0056169Y0028095D01*
X0056169Y0027997D02*
X0055263Y0027997D01*
X0055263Y0027898D02*
X0056169Y0027898D01*
X0056169Y0027800D02*
X0055263Y0027800D01*
X0057231Y0027800D02*
X0058137Y0027800D01*
X0058137Y0027704D02*
X0058137Y0029476D01*
X0057231Y0029476D01*
X0057231Y0027704D01*
X0058137Y0027704D01*
X0058137Y0027898D02*
X0057231Y0027898D01*
X0057231Y0027997D02*
X0058137Y0027997D01*
X0058137Y0028095D02*
X0057231Y0028095D01*
X0057231Y0028194D02*
X0058137Y0028194D01*
X0058137Y0028292D02*
X0057231Y0028292D01*
X0057231Y0028391D02*
X0058137Y0028391D01*
X0058137Y0028489D02*
X0057231Y0028489D01*
X0057231Y0028588D02*
X0058137Y0028588D01*
X0058137Y0028686D02*
X0057231Y0028686D01*
X0057231Y0028785D02*
X0058137Y0028785D01*
X0058137Y0028883D02*
X0057231Y0028883D01*
X0057231Y0028982D02*
X0058137Y0028982D01*
X0058137Y0029080D02*
X0057231Y0029080D01*
X0057231Y0029179D02*
X0058137Y0029179D01*
X0058137Y0029277D02*
X0057231Y0029277D01*
X0057231Y0029376D02*
X0058137Y0029376D01*
X0058137Y0029474D02*
X0057231Y0029474D01*
X0059200Y0029476D02*
X0059200Y0027704D01*
X0060106Y0027704D01*
X0060106Y0029476D01*
X0059200Y0029476D01*
X0059200Y0029474D02*
X0060106Y0029474D01*
X0060106Y0029376D02*
X0059200Y0029376D01*
X0059200Y0029277D02*
X0060106Y0029277D01*
X0060106Y0029179D02*
X0059200Y0029179D01*
X0059200Y0029080D02*
X0060106Y0029080D01*
X0060106Y0028982D02*
X0059200Y0028982D01*
X0059200Y0028883D02*
X0060106Y0028883D01*
X0060106Y0028785D02*
X0059200Y0028785D01*
X0059200Y0028686D02*
X0060106Y0028686D01*
X0060106Y0028588D02*
X0059200Y0028588D01*
X0059200Y0028489D02*
X0060106Y0028489D01*
X0060106Y0028391D02*
X0059200Y0028391D01*
X0059200Y0028292D02*
X0060106Y0028292D01*
X0060106Y0028194D02*
X0059200Y0028194D01*
X0059200Y0028095D02*
X0060106Y0028095D01*
X0060106Y0027997D02*
X0059200Y0027997D01*
X0059200Y0027898D02*
X0060106Y0027898D01*
X0060106Y0027800D02*
X0059200Y0027800D01*
D27*
X0056646Y0015200D03*
X0049954Y0015200D03*
X0121154Y0044100D03*
X0127846Y0044100D03*
D28*
X0046250Y0029046D03*
X0046250Y0022354D03*
X0038100Y0022254D03*
X0038100Y0028946D03*
X0137900Y0136954D03*
X0137900Y0143646D03*
D29*
X0054137Y0039100D03*
X0046263Y0039100D03*
D30*
X0110088Y0016100D03*
X0123912Y0016100D03*
D31*
X0097899Y0134973D03*
X0085301Y0134973D03*
X0085301Y0156627D03*
X0097899Y0156627D03*
M02*
