G75*
%MOIN*%
%OFA0B0*%
%FSLAX25Y25*%
%IPPOS*%
%LPD*%
%AMOC8*
5,1,8,0,0,1.08239X$1,22.5*
%
%ADD10C,0.00000*%
%ADD11R,0.03943X0.03156*%
%ADD12R,0.04337X0.05124*%
%ADD13R,0.06306X0.01502*%
%ADD14R,0.02762X0.03156*%
%ADD15R,0.03156X0.03943*%
%ADD16R,0.03156X0.02762*%
%ADD17R,0.03550X0.03550*%
%ADD18R,0.08200X0.02600*%
%ADD19C,0.04800*%
%ADD20R,0.03156X0.08274*%
%ADD21R,0.04337X0.10636*%
%ADD22R,0.06306X0.10636*%
%ADD23R,0.11030X0.05912*%
%ADD24R,0.05124X0.05124*%
%ADD25R,0.07884X0.02759*%
%ADD26R,0.01400X0.02400*%
%ADD27R,0.06699X0.03943*%
%ADD28R,0.04731X0.04337*%
%ADD29R,0.04337X0.04731*%
%ADD30R,0.04337X0.04337*%
%ADD31OC8,0.06400*%
%ADD32R,0.10584X0.06817*%
%ADD33R,0.07880X0.05518*%
%ADD34C,0.16900*%
D10*
X0015800Y0001300D02*
X0185800Y0001300D01*
X0186169Y0001298D01*
X0186537Y0001306D01*
X0186905Y0001322D01*
X0187273Y0001347D01*
X0187640Y0001381D01*
X0188006Y0001424D01*
X0188371Y0001476D01*
X0188735Y0001536D01*
X0189097Y0001605D01*
X0189457Y0001683D01*
X0189815Y0001770D01*
X0190171Y0001865D01*
X0190525Y0001969D01*
X0190876Y0002082D01*
X0191224Y0002202D01*
X0191569Y0002332D01*
X0191911Y0002469D01*
X0192250Y0002615D01*
X0192585Y0002769D01*
X0192916Y0002931D01*
X0193243Y0003101D01*
X0193566Y0003278D01*
X0193884Y0003464D01*
X0194198Y0003657D01*
X0194507Y0003858D01*
X0194811Y0004066D01*
X0195111Y0004281D01*
X0195404Y0004503D01*
X0195693Y0004733D01*
X0195975Y0004969D01*
X0196252Y0005213D01*
X0196523Y0005463D01*
X0196788Y0005719D01*
X0197047Y0005981D01*
X0197299Y0006250D01*
X0197545Y0006525D01*
X0197783Y0006806D01*
X0198015Y0007092D01*
X0198241Y0007384D01*
X0198458Y0007681D01*
X0198669Y0007984D01*
X0198872Y0008291D01*
X0199068Y0008603D01*
X0199256Y0008920D01*
X0199437Y0009242D01*
X0199610Y0009567D01*
X0199774Y0009897D01*
X0199931Y0010231D01*
X0200080Y0010568D01*
X0200220Y0010909D01*
X0200352Y0011253D01*
X0200476Y0011600D01*
X0200592Y0011950D01*
X0200699Y0012303D01*
X0200797Y0012658D01*
X0200887Y0013015D01*
X0200968Y0013375D01*
X0201040Y0013736D01*
X0201104Y0014099D01*
X0201159Y0014464D01*
X0201205Y0014829D01*
X0201242Y0015196D01*
X0201270Y0015564D01*
X0201289Y0015932D01*
X0201300Y0016300D01*
X0201300Y0186300D01*
X0201296Y0186662D01*
X0201282Y0187025D01*
X0201261Y0187387D01*
X0201230Y0187748D01*
X0201191Y0188108D01*
X0201143Y0188467D01*
X0201086Y0188825D01*
X0201021Y0189182D01*
X0200947Y0189537D01*
X0200864Y0189890D01*
X0200773Y0190241D01*
X0200674Y0190589D01*
X0200566Y0190935D01*
X0200450Y0191279D01*
X0200325Y0191619D01*
X0200193Y0191956D01*
X0200052Y0192290D01*
X0199903Y0192621D01*
X0199746Y0192948D01*
X0199582Y0193271D01*
X0199410Y0193590D01*
X0199230Y0193904D01*
X0199042Y0194215D01*
X0198847Y0194520D01*
X0198645Y0194821D01*
X0198435Y0195117D01*
X0198219Y0195407D01*
X0197995Y0195693D01*
X0197765Y0195973D01*
X0197528Y0196247D01*
X0197284Y0196515D01*
X0197034Y0196778D01*
X0196778Y0197034D01*
X0196515Y0197284D01*
X0196247Y0197528D01*
X0195973Y0197765D01*
X0195693Y0197995D01*
X0195407Y0198219D01*
X0195117Y0198435D01*
X0194821Y0198645D01*
X0194520Y0198847D01*
X0194215Y0199042D01*
X0193904Y0199230D01*
X0193590Y0199410D01*
X0193271Y0199582D01*
X0192948Y0199746D01*
X0192621Y0199903D01*
X0192290Y0200052D01*
X0191956Y0200193D01*
X0191619Y0200325D01*
X0191279Y0200450D01*
X0190935Y0200566D01*
X0190589Y0200674D01*
X0190241Y0200773D01*
X0189890Y0200864D01*
X0189537Y0200947D01*
X0189182Y0201021D01*
X0188825Y0201086D01*
X0188467Y0201143D01*
X0188108Y0201191D01*
X0187748Y0201230D01*
X0187387Y0201261D01*
X0187025Y0201282D01*
X0186662Y0201296D01*
X0186300Y0201300D01*
X0016300Y0201300D01*
X0015938Y0201296D01*
X0015575Y0201282D01*
X0015213Y0201261D01*
X0014852Y0201230D01*
X0014492Y0201191D01*
X0014133Y0201143D01*
X0013775Y0201086D01*
X0013418Y0201021D01*
X0013063Y0200947D01*
X0012710Y0200864D01*
X0012359Y0200773D01*
X0012011Y0200674D01*
X0011665Y0200566D01*
X0011321Y0200450D01*
X0010981Y0200325D01*
X0010644Y0200193D01*
X0010310Y0200052D01*
X0009979Y0199903D01*
X0009652Y0199746D01*
X0009329Y0199582D01*
X0009010Y0199410D01*
X0008696Y0199230D01*
X0008385Y0199042D01*
X0008080Y0198847D01*
X0007779Y0198645D01*
X0007483Y0198435D01*
X0007193Y0198219D01*
X0006907Y0197995D01*
X0006627Y0197765D01*
X0006353Y0197528D01*
X0006085Y0197284D01*
X0005822Y0197034D01*
X0005566Y0196778D01*
X0005316Y0196515D01*
X0005072Y0196247D01*
X0004835Y0195973D01*
X0004605Y0195693D01*
X0004381Y0195407D01*
X0004165Y0195117D01*
X0003955Y0194821D01*
X0003753Y0194520D01*
X0003558Y0194215D01*
X0003370Y0193904D01*
X0003190Y0193590D01*
X0003018Y0193271D01*
X0002854Y0192948D01*
X0002697Y0192621D01*
X0002548Y0192290D01*
X0002407Y0191956D01*
X0002275Y0191619D01*
X0002150Y0191279D01*
X0002034Y0190935D01*
X0001926Y0190589D01*
X0001827Y0190241D01*
X0001736Y0189890D01*
X0001653Y0189537D01*
X0001579Y0189182D01*
X0001514Y0188825D01*
X0001457Y0188467D01*
X0001409Y0188108D01*
X0001370Y0187748D01*
X0001339Y0187387D01*
X0001318Y0187025D01*
X0001304Y0186662D01*
X0001300Y0186300D01*
X0001300Y0016300D01*
X0001298Y0015944D01*
X0001305Y0015587D01*
X0001321Y0015231D01*
X0001345Y0014875D01*
X0001378Y0014520D01*
X0001419Y0014166D01*
X0001469Y0013813D01*
X0001527Y0013461D01*
X0001594Y0013111D01*
X0001669Y0012763D01*
X0001753Y0012416D01*
X0001845Y0012072D01*
X0001945Y0011730D01*
X0002053Y0011390D01*
X0002170Y0011053D01*
X0002295Y0010719D01*
X0002428Y0010389D01*
X0002568Y0010061D01*
X0002717Y0009737D01*
X0002873Y0009417D01*
X0003038Y0009100D01*
X0003209Y0008788D01*
X0003389Y0008480D01*
X0003575Y0008176D01*
X0003769Y0007877D01*
X0003970Y0007582D01*
X0004178Y0007293D01*
X0004393Y0007009D01*
X0004615Y0006730D01*
X0004844Y0006456D01*
X0005079Y0006188D01*
X0005320Y0005926D01*
X0005568Y0005670D01*
X0005822Y0005419D01*
X0006082Y0005175D01*
X0006348Y0004938D01*
X0006619Y0004706D01*
X0006896Y0004482D01*
X0007178Y0004264D01*
X0007465Y0004053D01*
X0007758Y0003849D01*
X0008055Y0003652D01*
X0008357Y0003463D01*
X0008663Y0003281D01*
X0008974Y0003106D01*
X0009289Y0002939D01*
X0009608Y0002779D01*
X0009930Y0002627D01*
X0010256Y0002483D01*
X0010586Y0002347D01*
X0010919Y0002219D01*
X0011254Y0002099D01*
X0011593Y0001987D01*
X0011934Y0001884D01*
X0012277Y0001789D01*
X0012623Y0001702D01*
X0012971Y0001623D01*
X0013320Y0001553D01*
X0013671Y0001491D01*
X0014024Y0001438D01*
X0014378Y0001393D01*
X0014732Y0001357D01*
X0015088Y0001329D01*
X0015444Y0001310D01*
X0015800Y0001300D01*
D11*
X0074800Y0061741D03*
X0074800Y0066859D03*
X0077100Y0134641D03*
X0077100Y0139759D03*
X0065600Y0139809D03*
X0065600Y0134691D03*
X0106000Y0134641D03*
X0106000Y0139759D03*
X0146650Y0137841D03*
X0146650Y0142959D03*
X0155300Y0142959D03*
X0155300Y0137841D03*
X0163900Y0137841D03*
X0163900Y0142959D03*
D12*
X0071350Y0140581D03*
X0071350Y0131919D03*
D13*
G36*
X0088466Y0116587D02*
X0092924Y0112129D01*
X0091862Y0111067D01*
X0087404Y0115525D01*
X0088466Y0116587D01*
G37*
G36*
X0089858Y0117979D02*
X0094316Y0113521D01*
X0093254Y0112459D01*
X0088796Y0116917D01*
X0089858Y0117979D01*
G37*
G36*
X0091250Y0119371D02*
X0095708Y0114913D01*
X0094646Y0113851D01*
X0090188Y0118309D01*
X0091250Y0119371D01*
G37*
G36*
X0092642Y0120763D02*
X0097100Y0116305D01*
X0096038Y0115243D01*
X0091580Y0119701D01*
X0092642Y0120763D01*
G37*
G36*
X0094034Y0122155D02*
X0098492Y0117697D01*
X0097430Y0116635D01*
X0092972Y0121093D01*
X0094034Y0122155D01*
G37*
G36*
X0095426Y0123547D02*
X0099884Y0119089D01*
X0098822Y0118027D01*
X0094364Y0122485D01*
X0095426Y0123547D01*
G37*
G36*
X0108236Y0122485D02*
X0103778Y0118027D01*
X0102716Y0119089D01*
X0107174Y0123547D01*
X0108236Y0122485D01*
G37*
G36*
X0109628Y0121093D02*
X0105170Y0116635D01*
X0104108Y0117697D01*
X0108566Y0122155D01*
X0109628Y0121093D01*
G37*
G36*
X0111020Y0119701D02*
X0106562Y0115243D01*
X0105500Y0116305D01*
X0109958Y0120763D01*
X0111020Y0119701D01*
G37*
G36*
X0112412Y0118309D02*
X0107954Y0113851D01*
X0106892Y0114913D01*
X0111350Y0119371D01*
X0112412Y0118309D01*
G37*
G36*
X0113804Y0116917D02*
X0109346Y0112459D01*
X0108284Y0113521D01*
X0112742Y0117979D01*
X0113804Y0116917D01*
G37*
G36*
X0115196Y0115525D02*
X0110738Y0111067D01*
X0109676Y0112129D01*
X0114134Y0116587D01*
X0115196Y0115525D01*
G37*
G36*
X0116587Y0114134D02*
X0112129Y0109676D01*
X0111067Y0110738D01*
X0115525Y0115196D01*
X0116587Y0114134D01*
G37*
G36*
X0117979Y0112742D02*
X0113521Y0108284D01*
X0112459Y0109346D01*
X0116917Y0113804D01*
X0117979Y0112742D01*
G37*
G36*
X0119371Y0111350D02*
X0114913Y0106892D01*
X0113851Y0107954D01*
X0118309Y0112412D01*
X0119371Y0111350D01*
G37*
G36*
X0120763Y0109958D02*
X0116305Y0105500D01*
X0115243Y0106562D01*
X0119701Y0111020D01*
X0120763Y0109958D01*
G37*
G36*
X0122155Y0108566D02*
X0117697Y0104108D01*
X0116635Y0105170D01*
X0121093Y0109628D01*
X0122155Y0108566D01*
G37*
G36*
X0123547Y0107174D02*
X0119089Y0102716D01*
X0118027Y0103778D01*
X0122485Y0108236D01*
X0123547Y0107174D01*
G37*
G36*
X0122485Y0094364D02*
X0118027Y0098822D01*
X0119089Y0099884D01*
X0123547Y0095426D01*
X0122485Y0094364D01*
G37*
G36*
X0121093Y0092972D02*
X0116635Y0097430D01*
X0117697Y0098492D01*
X0122155Y0094034D01*
X0121093Y0092972D01*
G37*
G36*
X0119701Y0091580D02*
X0115243Y0096038D01*
X0116305Y0097100D01*
X0120763Y0092642D01*
X0119701Y0091580D01*
G37*
G36*
X0118309Y0090188D02*
X0113851Y0094646D01*
X0114913Y0095708D01*
X0119371Y0091250D01*
X0118309Y0090188D01*
G37*
G36*
X0116917Y0088796D02*
X0112459Y0093254D01*
X0113521Y0094316D01*
X0117979Y0089858D01*
X0116917Y0088796D01*
G37*
G36*
X0115525Y0087404D02*
X0111067Y0091862D01*
X0112129Y0092924D01*
X0116587Y0088466D01*
X0115525Y0087404D01*
G37*
G36*
X0114134Y0086013D02*
X0109676Y0090471D01*
X0110738Y0091533D01*
X0115196Y0087075D01*
X0114134Y0086013D01*
G37*
G36*
X0112742Y0084621D02*
X0108284Y0089079D01*
X0109346Y0090141D01*
X0113804Y0085683D01*
X0112742Y0084621D01*
G37*
G36*
X0111350Y0083229D02*
X0106892Y0087687D01*
X0107954Y0088749D01*
X0112412Y0084291D01*
X0111350Y0083229D01*
G37*
G36*
X0109958Y0081837D02*
X0105500Y0086295D01*
X0106562Y0087357D01*
X0111020Y0082899D01*
X0109958Y0081837D01*
G37*
G36*
X0108566Y0080445D02*
X0104108Y0084903D01*
X0105170Y0085965D01*
X0109628Y0081507D01*
X0108566Y0080445D01*
G37*
G36*
X0107174Y0079053D02*
X0102716Y0083511D01*
X0103778Y0084573D01*
X0108236Y0080115D01*
X0107174Y0079053D01*
G37*
G36*
X0094364Y0080115D02*
X0098822Y0084573D01*
X0099884Y0083511D01*
X0095426Y0079053D01*
X0094364Y0080115D01*
G37*
G36*
X0092972Y0081507D02*
X0097430Y0085965D01*
X0098492Y0084903D01*
X0094034Y0080445D01*
X0092972Y0081507D01*
G37*
G36*
X0091580Y0082899D02*
X0096038Y0087357D01*
X0097100Y0086295D01*
X0092642Y0081837D01*
X0091580Y0082899D01*
G37*
G36*
X0090188Y0084291D02*
X0094646Y0088749D01*
X0095708Y0087687D01*
X0091250Y0083229D01*
X0090188Y0084291D01*
G37*
G36*
X0088796Y0085683D02*
X0093254Y0090141D01*
X0094316Y0089079D01*
X0089858Y0084621D01*
X0088796Y0085683D01*
G37*
G36*
X0087404Y0087075D02*
X0091862Y0091533D01*
X0092924Y0090471D01*
X0088466Y0086013D01*
X0087404Y0087075D01*
G37*
G36*
X0086013Y0088466D02*
X0090471Y0092924D01*
X0091533Y0091862D01*
X0087075Y0087404D01*
X0086013Y0088466D01*
G37*
G36*
X0084621Y0089858D02*
X0089079Y0094316D01*
X0090141Y0093254D01*
X0085683Y0088796D01*
X0084621Y0089858D01*
G37*
G36*
X0083229Y0091250D02*
X0087687Y0095708D01*
X0088749Y0094646D01*
X0084291Y0090188D01*
X0083229Y0091250D01*
G37*
G36*
X0081837Y0092642D02*
X0086295Y0097100D01*
X0087357Y0096038D01*
X0082899Y0091580D01*
X0081837Y0092642D01*
G37*
G36*
X0080445Y0094034D02*
X0084903Y0098492D01*
X0085965Y0097430D01*
X0081507Y0092972D01*
X0080445Y0094034D01*
G37*
G36*
X0079053Y0095426D02*
X0083511Y0099884D01*
X0084573Y0098822D01*
X0080115Y0094364D01*
X0079053Y0095426D01*
G37*
G36*
X0080115Y0108236D02*
X0084573Y0103778D01*
X0083511Y0102716D01*
X0079053Y0107174D01*
X0080115Y0108236D01*
G37*
G36*
X0081507Y0109628D02*
X0085965Y0105170D01*
X0084903Y0104108D01*
X0080445Y0108566D01*
X0081507Y0109628D01*
G37*
G36*
X0082899Y0111020D02*
X0087357Y0106562D01*
X0086295Y0105500D01*
X0081837Y0109958D01*
X0082899Y0111020D01*
G37*
G36*
X0084291Y0112412D02*
X0088749Y0107954D01*
X0087687Y0106892D01*
X0083229Y0111350D01*
X0084291Y0112412D01*
G37*
G36*
X0085683Y0113804D02*
X0090141Y0109346D01*
X0089079Y0108284D01*
X0084621Y0112742D01*
X0085683Y0113804D01*
G37*
G36*
X0087075Y0115196D02*
X0091533Y0110738D01*
X0090471Y0109676D01*
X0086013Y0114134D01*
X0087075Y0115196D01*
G37*
D14*
X0142981Y0120750D03*
X0146919Y0120750D03*
X0154931Y0120800D03*
X0158869Y0120800D03*
X0149269Y0077200D03*
X0145331Y0077200D03*
D15*
X0144741Y0085500D03*
X0149859Y0085500D03*
X0150559Y0044000D03*
X0145441Y0044000D03*
X0032459Y0054400D03*
X0027341Y0054400D03*
D16*
X0063600Y0057931D03*
X0063600Y0061869D03*
X0066700Y0040369D03*
X0066700Y0036431D03*
X0088600Y0035469D03*
X0088600Y0031531D03*
X0094500Y0031531D03*
X0094500Y0035469D03*
X0167300Y0100831D03*
X0167300Y0104769D03*
X0139300Y0158431D03*
X0139300Y0162369D03*
X0072250Y0171931D03*
X0072250Y0175869D03*
D17*
X0072250Y0180847D03*
X0072250Y0186753D03*
D18*
X0138100Y0067800D03*
X0138100Y0062800D03*
X0138100Y0057800D03*
X0138100Y0052800D03*
X0157500Y0052800D03*
X0157500Y0057800D03*
X0157500Y0062800D03*
X0157500Y0067800D03*
D19*
X0129600Y0174300D03*
X0129600Y0179300D03*
X0124600Y0179300D03*
X0124600Y0174300D03*
X0119600Y0174300D03*
X0119600Y0179300D03*
X0114600Y0179300D03*
X0114600Y0174300D03*
X0109600Y0174300D03*
X0109600Y0179300D03*
D20*
X0046398Y0073300D03*
X0042068Y0073300D03*
X0037737Y0073300D03*
X0033406Y0073300D03*
X0029076Y0073300D03*
X0024745Y0073300D03*
X0020414Y0073300D03*
X0016083Y0073300D03*
D21*
X0007816Y0075269D03*
D22*
X0060375Y0075269D03*
D23*
X0040887Y0123300D03*
X0021595Y0123300D03*
D24*
X0052894Y0123694D03*
D25*
X0137633Y0110300D03*
X0137633Y0105300D03*
X0137633Y0100300D03*
X0137633Y0095300D03*
X0156967Y0095300D03*
X0156967Y0100300D03*
X0156967Y0105300D03*
X0156967Y0110300D03*
D26*
X0059653Y0028590D03*
X0057684Y0028590D03*
X0055716Y0028590D03*
X0053747Y0028590D03*
X0053747Y0021110D03*
X0055716Y0021110D03*
X0057684Y0021110D03*
X0059653Y0021110D03*
D27*
X0056700Y0024850D03*
D28*
X0056646Y0015200D03*
X0049954Y0015200D03*
X0121154Y0044100D03*
X0127846Y0044100D03*
D29*
X0046250Y0029046D03*
X0046250Y0022354D03*
X0038100Y0022254D03*
X0038100Y0028946D03*
X0137900Y0136954D03*
X0137900Y0143646D03*
D30*
X0054137Y0039100D03*
X0046263Y0039100D03*
D31*
X0181300Y0056300D03*
X0191300Y0056300D03*
X0191300Y0066300D03*
X0181300Y0066300D03*
X0181300Y0076300D03*
X0191300Y0076300D03*
X0191300Y0086300D03*
X0181300Y0086300D03*
X0181300Y0096300D03*
X0191300Y0096300D03*
X0191300Y0106300D03*
X0181300Y0106300D03*
X0181300Y0116300D03*
X0191300Y0116300D03*
X0191300Y0126300D03*
X0181300Y0126300D03*
X0181300Y0136300D03*
X0191300Y0136300D03*
X0191300Y0146300D03*
X0181300Y0146300D03*
D32*
X0123912Y0016100D03*
X0110088Y0016100D03*
D33*
X0097899Y0134973D03*
X0085301Y0134973D03*
X0085301Y0156627D03*
X0097899Y0156627D03*
D34*
X0016300Y0186300D03*
X0186300Y0186300D03*
X0186300Y0016300D03*
X0016300Y0016300D03*
M02*
