G75*
%MOIN*%
%OFA0B0*%
%FSLAX25Y25*%
%IPPOS*%
%LPD*%
%AMOC8*
5,1,8,0,0,1.08239X$1,22.5*
%
%ADD10C,0.00000*%
%ADD11C,0.00300*%
%ADD12C,0.00500*%
%ADD13C,0.00276*%
%ADD14R,0.01181X0.02756*%
%ADD15C,0.00800*%
%ADD16C,0.02362*%
%ADD17R,0.00984X0.00984*%
%ADD18C,0.00600*%
%ADD19C,0.02000*%
%ADD20C,0.00945*%
%ADD21C,0.01969*%
%ADD22C,0.00472*%
%ADD23C,0.03000*%
%ADD24R,0.02000X0.03000*%
%ADD25R,0.04000X0.03000*%
%ADD26R,0.03000X0.03000*%
%ADD27C,0.00200*%
%ADD28C,0.00984*%
D10*
X0015800Y0001300D02*
X0185800Y0001300D01*
X0186169Y0001298D01*
X0186537Y0001306D01*
X0186905Y0001322D01*
X0187273Y0001347D01*
X0187640Y0001381D01*
X0188006Y0001424D01*
X0188371Y0001476D01*
X0188735Y0001536D01*
X0189097Y0001605D01*
X0189457Y0001683D01*
X0189815Y0001770D01*
X0190171Y0001865D01*
X0190525Y0001969D01*
X0190876Y0002082D01*
X0191224Y0002202D01*
X0191569Y0002332D01*
X0191911Y0002469D01*
X0192250Y0002615D01*
X0192585Y0002769D01*
X0192916Y0002931D01*
X0193243Y0003101D01*
X0193566Y0003278D01*
X0193884Y0003464D01*
X0194198Y0003657D01*
X0194507Y0003858D01*
X0194811Y0004066D01*
X0195111Y0004281D01*
X0195404Y0004503D01*
X0195693Y0004733D01*
X0195975Y0004969D01*
X0196252Y0005213D01*
X0196523Y0005463D01*
X0196788Y0005719D01*
X0197047Y0005981D01*
X0197299Y0006250D01*
X0197545Y0006525D01*
X0197783Y0006806D01*
X0198015Y0007092D01*
X0198241Y0007384D01*
X0198458Y0007681D01*
X0198669Y0007984D01*
X0198872Y0008291D01*
X0199068Y0008603D01*
X0199256Y0008920D01*
X0199437Y0009242D01*
X0199610Y0009567D01*
X0199774Y0009897D01*
X0199931Y0010231D01*
X0200080Y0010568D01*
X0200220Y0010909D01*
X0200352Y0011253D01*
X0200476Y0011600D01*
X0200592Y0011950D01*
X0200699Y0012303D01*
X0200797Y0012658D01*
X0200887Y0013015D01*
X0200968Y0013375D01*
X0201040Y0013736D01*
X0201104Y0014099D01*
X0201159Y0014464D01*
X0201205Y0014829D01*
X0201242Y0015196D01*
X0201270Y0015564D01*
X0201289Y0015932D01*
X0201300Y0016300D01*
X0201300Y0186300D01*
X0201296Y0186662D01*
X0201282Y0187025D01*
X0201261Y0187387D01*
X0201230Y0187748D01*
X0201191Y0188108D01*
X0201143Y0188467D01*
X0201086Y0188825D01*
X0201021Y0189182D01*
X0200947Y0189537D01*
X0200864Y0189890D01*
X0200773Y0190241D01*
X0200674Y0190589D01*
X0200566Y0190935D01*
X0200450Y0191279D01*
X0200325Y0191619D01*
X0200193Y0191956D01*
X0200052Y0192290D01*
X0199903Y0192621D01*
X0199746Y0192948D01*
X0199582Y0193271D01*
X0199410Y0193590D01*
X0199230Y0193904D01*
X0199042Y0194215D01*
X0198847Y0194520D01*
X0198645Y0194821D01*
X0198435Y0195117D01*
X0198219Y0195407D01*
X0197995Y0195693D01*
X0197765Y0195973D01*
X0197528Y0196247D01*
X0197284Y0196515D01*
X0197034Y0196778D01*
X0196778Y0197034D01*
X0196515Y0197284D01*
X0196247Y0197528D01*
X0195973Y0197765D01*
X0195693Y0197995D01*
X0195407Y0198219D01*
X0195117Y0198435D01*
X0194821Y0198645D01*
X0194520Y0198847D01*
X0194215Y0199042D01*
X0193904Y0199230D01*
X0193590Y0199410D01*
X0193271Y0199582D01*
X0192948Y0199746D01*
X0192621Y0199903D01*
X0192290Y0200052D01*
X0191956Y0200193D01*
X0191619Y0200325D01*
X0191279Y0200450D01*
X0190935Y0200566D01*
X0190589Y0200674D01*
X0190241Y0200773D01*
X0189890Y0200864D01*
X0189537Y0200947D01*
X0189182Y0201021D01*
X0188825Y0201086D01*
X0188467Y0201143D01*
X0188108Y0201191D01*
X0187748Y0201230D01*
X0187387Y0201261D01*
X0187025Y0201282D01*
X0186662Y0201296D01*
X0186300Y0201300D01*
X0016300Y0201300D01*
X0015938Y0201296D01*
X0015575Y0201282D01*
X0015213Y0201261D01*
X0014852Y0201230D01*
X0014492Y0201191D01*
X0014133Y0201143D01*
X0013775Y0201086D01*
X0013418Y0201021D01*
X0013063Y0200947D01*
X0012710Y0200864D01*
X0012359Y0200773D01*
X0012011Y0200674D01*
X0011665Y0200566D01*
X0011321Y0200450D01*
X0010981Y0200325D01*
X0010644Y0200193D01*
X0010310Y0200052D01*
X0009979Y0199903D01*
X0009652Y0199746D01*
X0009329Y0199582D01*
X0009010Y0199410D01*
X0008696Y0199230D01*
X0008385Y0199042D01*
X0008080Y0198847D01*
X0007779Y0198645D01*
X0007483Y0198435D01*
X0007193Y0198219D01*
X0006907Y0197995D01*
X0006627Y0197765D01*
X0006353Y0197528D01*
X0006085Y0197284D01*
X0005822Y0197034D01*
X0005566Y0196778D01*
X0005316Y0196515D01*
X0005072Y0196247D01*
X0004835Y0195973D01*
X0004605Y0195693D01*
X0004381Y0195407D01*
X0004165Y0195117D01*
X0003955Y0194821D01*
X0003753Y0194520D01*
X0003558Y0194215D01*
X0003370Y0193904D01*
X0003190Y0193590D01*
X0003018Y0193271D01*
X0002854Y0192948D01*
X0002697Y0192621D01*
X0002548Y0192290D01*
X0002407Y0191956D01*
X0002275Y0191619D01*
X0002150Y0191279D01*
X0002034Y0190935D01*
X0001926Y0190589D01*
X0001827Y0190241D01*
X0001736Y0189890D01*
X0001653Y0189537D01*
X0001579Y0189182D01*
X0001514Y0188825D01*
X0001457Y0188467D01*
X0001409Y0188108D01*
X0001370Y0187748D01*
X0001339Y0187387D01*
X0001318Y0187025D01*
X0001304Y0186662D01*
X0001300Y0186300D01*
X0001300Y0016300D01*
X0001298Y0015944D01*
X0001305Y0015587D01*
X0001321Y0015231D01*
X0001345Y0014875D01*
X0001378Y0014520D01*
X0001419Y0014166D01*
X0001469Y0013813D01*
X0001527Y0013461D01*
X0001594Y0013111D01*
X0001669Y0012763D01*
X0001753Y0012416D01*
X0001845Y0012072D01*
X0001945Y0011730D01*
X0002053Y0011390D01*
X0002170Y0011053D01*
X0002295Y0010719D01*
X0002428Y0010389D01*
X0002568Y0010061D01*
X0002717Y0009737D01*
X0002873Y0009417D01*
X0003038Y0009100D01*
X0003209Y0008788D01*
X0003389Y0008480D01*
X0003575Y0008176D01*
X0003769Y0007877D01*
X0003970Y0007582D01*
X0004178Y0007293D01*
X0004393Y0007009D01*
X0004615Y0006730D01*
X0004844Y0006456D01*
X0005079Y0006188D01*
X0005320Y0005926D01*
X0005568Y0005670D01*
X0005822Y0005419D01*
X0006082Y0005175D01*
X0006348Y0004938D01*
X0006619Y0004706D01*
X0006896Y0004482D01*
X0007178Y0004264D01*
X0007465Y0004053D01*
X0007758Y0003849D01*
X0008055Y0003652D01*
X0008357Y0003463D01*
X0008663Y0003281D01*
X0008974Y0003106D01*
X0009289Y0002939D01*
X0009608Y0002779D01*
X0009930Y0002627D01*
X0010256Y0002483D01*
X0010586Y0002347D01*
X0010919Y0002219D01*
X0011254Y0002099D01*
X0011593Y0001987D01*
X0011934Y0001884D01*
X0012277Y0001789D01*
X0012623Y0001702D01*
X0012971Y0001623D01*
X0013320Y0001553D01*
X0013671Y0001491D01*
X0014024Y0001438D01*
X0014378Y0001393D01*
X0014732Y0001357D01*
X0015088Y0001329D01*
X0015444Y0001310D01*
X0015800Y0001300D01*
D11*
X0031231Y0021710D02*
X0033166Y0021710D01*
X0033650Y0022194D01*
X0033650Y0023162D01*
X0033166Y0023645D01*
X0033650Y0024657D02*
X0031715Y0026592D01*
X0031231Y0026592D01*
X0030748Y0026108D01*
X0030748Y0025141D01*
X0031231Y0024657D01*
X0031231Y0023645D02*
X0030748Y0023162D01*
X0030748Y0022194D01*
X0031231Y0021710D01*
X0033650Y0024657D02*
X0033650Y0026592D01*
X0033166Y0027603D02*
X0031231Y0029538D01*
X0033166Y0029538D01*
X0033650Y0029055D01*
X0033650Y0028087D01*
X0033166Y0027603D01*
X0031231Y0027603D01*
X0030748Y0028087D01*
X0030748Y0029055D01*
X0031231Y0029538D01*
X0040898Y0027938D02*
X0040898Y0026003D01*
X0042349Y0026003D01*
X0041865Y0026971D01*
X0041865Y0027455D01*
X0042349Y0027938D01*
X0043316Y0027938D01*
X0043800Y0027455D01*
X0043800Y0026487D01*
X0043316Y0026003D01*
X0043316Y0024992D02*
X0043800Y0024508D01*
X0043800Y0023541D01*
X0043316Y0023057D01*
X0041381Y0023057D01*
X0040898Y0023541D01*
X0040898Y0024508D01*
X0041381Y0024992D01*
X0040697Y0037750D02*
X0042631Y0039685D01*
X0042631Y0040169D01*
X0042148Y0040652D01*
X0041180Y0040652D01*
X0040697Y0040169D01*
X0040697Y0037750D02*
X0042631Y0037750D01*
X0039685Y0037750D02*
X0037750Y0037750D01*
X0037750Y0040652D01*
X0020438Y0052634D02*
X0019955Y0052150D01*
X0018987Y0052150D01*
X0018503Y0052634D01*
X0020438Y0054569D01*
X0020438Y0052634D01*
X0018503Y0052634D02*
X0018503Y0054569D01*
X0018987Y0055052D01*
X0019955Y0055052D01*
X0020438Y0054569D01*
X0017492Y0052150D02*
X0015557Y0052150D01*
X0016524Y0052150D02*
X0016524Y0055052D01*
X0015557Y0054085D01*
X0014545Y0054569D02*
X0014062Y0055052D01*
X0013094Y0055052D01*
X0012610Y0054569D01*
X0012610Y0052634D01*
X0013094Y0052150D01*
X0014062Y0052150D01*
X0014545Y0052634D01*
X0057648Y0057957D02*
X0057648Y0059408D01*
X0058131Y0059892D01*
X0059099Y0059892D01*
X0059583Y0059408D01*
X0059583Y0057957D01*
X0060550Y0057957D02*
X0057648Y0057957D01*
X0059583Y0058924D02*
X0060550Y0059892D01*
X0060066Y0060903D02*
X0059583Y0060903D01*
X0059099Y0061387D01*
X0059099Y0062355D01*
X0059583Y0062838D01*
X0060066Y0062838D01*
X0060550Y0062355D01*
X0060550Y0061387D01*
X0060066Y0060903D01*
X0059099Y0061387D02*
X0058615Y0060903D01*
X0058131Y0060903D01*
X0057648Y0061387D01*
X0057648Y0062355D01*
X0058131Y0062838D01*
X0058615Y0062838D01*
X0059099Y0062355D01*
X0072948Y0072734D02*
X0073431Y0072250D01*
X0075366Y0072250D01*
X0075850Y0072734D01*
X0075850Y0073701D01*
X0075366Y0074185D01*
X0075366Y0075197D02*
X0074883Y0075197D01*
X0074399Y0075680D01*
X0074399Y0076648D01*
X0074883Y0077131D01*
X0075366Y0077131D01*
X0075850Y0076648D01*
X0075850Y0075680D01*
X0075366Y0075197D01*
X0074399Y0075680D02*
X0073915Y0075197D01*
X0073431Y0075197D01*
X0072948Y0075680D01*
X0072948Y0076648D01*
X0073431Y0077131D01*
X0073915Y0077131D01*
X0074399Y0076648D01*
X0073431Y0074185D02*
X0072948Y0073701D01*
X0072948Y0072734D01*
X0069974Y0090733D02*
X0067071Y0090733D01*
X0068039Y0091701D01*
X0067071Y0092668D01*
X0069974Y0092668D01*
X0069490Y0093680D02*
X0067555Y0093680D01*
X0067071Y0094164D01*
X0067071Y0095131D01*
X0067555Y0095615D01*
X0068039Y0096626D02*
X0067071Y0097594D01*
X0068039Y0098561D01*
X0069974Y0098561D01*
X0069974Y0099573D02*
X0067071Y0099573D01*
X0067071Y0101024D01*
X0067555Y0101508D01*
X0068523Y0101508D01*
X0069006Y0101024D01*
X0069006Y0099573D01*
X0069006Y0100540D02*
X0069974Y0101508D01*
X0069974Y0102519D02*
X0069974Y0103971D01*
X0069490Y0104454D01*
X0067555Y0104454D01*
X0067071Y0103971D01*
X0067071Y0102519D01*
X0069974Y0102519D01*
X0068523Y0098561D02*
X0068523Y0096626D01*
X0068039Y0096626D02*
X0069974Y0096626D01*
X0069490Y0095615D02*
X0069974Y0095131D01*
X0069974Y0094164D01*
X0069490Y0093680D01*
X0113261Y0119256D02*
X0115314Y0121309D01*
X0115314Y0119941D01*
X0116682Y0119941D01*
X0114629Y0117888D01*
X0115687Y0117515D02*
X0115687Y0116831D01*
X0116371Y0116147D01*
X0117055Y0116147D01*
X0117770Y0115431D02*
X0117770Y0114747D01*
X0118454Y0114063D01*
X0119139Y0114063D01*
X0120849Y0115774D01*
X0119481Y0117142D02*
X0117770Y0115431D01*
X0118423Y0117515D02*
X0118423Y0118199D01*
X0117739Y0118883D01*
X0117055Y0118883D01*
X0115687Y0117515D01*
X0112066Y0132750D02*
X0110131Y0132750D01*
X0109648Y0133234D01*
X0109648Y0134201D01*
X0110131Y0134685D01*
X0110615Y0135697D02*
X0109648Y0136664D01*
X0112550Y0136664D01*
X0112550Y0135697D02*
X0112550Y0137631D01*
X0112066Y0138643D02*
X0112550Y0139127D01*
X0112550Y0140094D01*
X0112066Y0140578D01*
X0110131Y0140578D01*
X0109648Y0140094D01*
X0109648Y0139127D01*
X0110131Y0138643D01*
X0110615Y0138643D01*
X0111099Y0139127D01*
X0111099Y0140578D01*
X0112066Y0134685D02*
X0112550Y0134201D01*
X0112550Y0133234D01*
X0112066Y0132750D01*
X0135648Y0149234D02*
X0136131Y0148750D01*
X0138066Y0148750D01*
X0138550Y0149234D01*
X0138550Y0150201D01*
X0138066Y0150685D01*
X0138550Y0151697D02*
X0138550Y0153631D01*
X0138550Y0152664D02*
X0135648Y0152664D01*
X0136615Y0151697D01*
X0136131Y0150685D02*
X0135648Y0150201D01*
X0135648Y0149234D01*
X0136131Y0154643D02*
X0135648Y0155127D01*
X0135648Y0156094D01*
X0136131Y0156578D01*
X0136615Y0156578D01*
X0138550Y0154643D01*
X0138550Y0156578D01*
X0144298Y0153464D02*
X0147200Y0153464D01*
X0147200Y0152497D02*
X0147200Y0154431D01*
X0145265Y0152497D02*
X0144298Y0153464D01*
X0144781Y0151485D02*
X0144298Y0151001D01*
X0144298Y0150034D01*
X0144781Y0149550D01*
X0146716Y0149550D01*
X0147200Y0150034D01*
X0147200Y0151001D01*
X0146716Y0151485D01*
X0153748Y0152280D02*
X0154231Y0151797D01*
X0153748Y0152280D02*
X0153748Y0153248D01*
X0154231Y0153731D01*
X0154715Y0153731D01*
X0156650Y0151797D01*
X0156650Y0153731D01*
X0156166Y0150785D02*
X0156650Y0150301D01*
X0156650Y0149334D01*
X0156166Y0148850D01*
X0154231Y0148850D01*
X0153748Y0149334D01*
X0153748Y0150301D01*
X0154231Y0150785D01*
X0161848Y0150501D02*
X0161848Y0149534D01*
X0162331Y0149050D01*
X0164266Y0149050D01*
X0164750Y0149534D01*
X0164750Y0150501D01*
X0164266Y0150985D01*
X0164750Y0151997D02*
X0164750Y0153931D01*
X0164750Y0152964D02*
X0161848Y0152964D01*
X0162815Y0151997D01*
X0162331Y0150985D02*
X0161848Y0150501D01*
X0162331Y0154943D02*
X0161848Y0155427D01*
X0161848Y0156394D01*
X0162331Y0156878D01*
X0162815Y0156878D01*
X0163299Y0156394D01*
X0163783Y0156878D01*
X0164266Y0156878D01*
X0164750Y0156394D01*
X0164750Y0155427D01*
X0164266Y0154943D01*
X0163299Y0155911D02*
X0163299Y0156394D01*
X0172250Y0152169D02*
X0174185Y0150234D01*
X0174185Y0151201D02*
X0172250Y0151201D01*
X0172250Y0150234D02*
X0174185Y0152169D01*
X0173217Y0152169D02*
X0173217Y0150234D01*
X0147088Y0127402D02*
X0145153Y0127402D01*
X0145153Y0125951D01*
X0146121Y0126435D01*
X0146605Y0126435D01*
X0147088Y0125951D01*
X0147088Y0124984D01*
X0146605Y0124500D01*
X0145637Y0124500D01*
X0145153Y0124984D01*
X0144142Y0124500D02*
X0143174Y0125467D01*
X0143658Y0125467D02*
X0142207Y0125467D01*
X0142207Y0124500D02*
X0142207Y0127402D01*
X0143658Y0127402D01*
X0144142Y0126919D01*
X0144142Y0125951D01*
X0143658Y0125467D01*
X0143614Y0116301D02*
X0143130Y0115817D01*
X0143130Y0113882D01*
X0143614Y0113398D01*
X0144581Y0113398D01*
X0145065Y0113882D01*
X0146077Y0113398D02*
X0146077Y0115333D01*
X0147044Y0116301D01*
X0148012Y0115333D01*
X0148012Y0113398D01*
X0149023Y0113398D02*
X0149023Y0116301D01*
X0150958Y0113398D01*
X0150958Y0116301D01*
X0148012Y0114849D02*
X0146077Y0114849D01*
X0145065Y0115817D02*
X0144581Y0116301D01*
X0143614Y0116301D01*
X0163950Y0119850D02*
X0163950Y0122752D01*
X0165401Y0122752D01*
X0165885Y0122269D01*
X0165885Y0121301D01*
X0165401Y0120817D01*
X0163950Y0120817D01*
X0164917Y0120817D02*
X0165885Y0119850D01*
X0166897Y0119850D02*
X0168831Y0119850D01*
X0167864Y0119850D02*
X0167864Y0122752D01*
X0166897Y0121785D01*
X0169843Y0122269D02*
X0169843Y0120334D01*
X0171778Y0122269D01*
X0171778Y0120334D01*
X0171294Y0119850D01*
X0170327Y0119850D01*
X0169843Y0120334D01*
X0169843Y0122269D02*
X0170327Y0122752D01*
X0171294Y0122752D01*
X0171778Y0122269D01*
X0167966Y0115731D02*
X0166031Y0115731D01*
X0165548Y0115248D01*
X0165548Y0114280D01*
X0166031Y0113797D01*
X0166515Y0113797D01*
X0166999Y0114280D01*
X0166999Y0115731D01*
X0167966Y0115731D02*
X0168450Y0115248D01*
X0168450Y0114280D01*
X0167966Y0113797D01*
X0168450Y0112785D02*
X0167483Y0111817D01*
X0167483Y0112301D02*
X0167483Y0110850D01*
X0168450Y0110850D02*
X0165548Y0110850D01*
X0165548Y0112301D01*
X0166031Y0112785D01*
X0166999Y0112785D01*
X0167483Y0112301D01*
X0161711Y0087452D02*
X0161711Y0084550D01*
X0162678Y0084550D02*
X0160743Y0084550D01*
X0159731Y0084550D02*
X0157797Y0084550D01*
X0158764Y0084550D02*
X0158764Y0087452D01*
X0157797Y0086485D01*
X0156785Y0086969D02*
X0156301Y0087452D01*
X0155334Y0087452D01*
X0154850Y0086969D01*
X0154850Y0085034D01*
X0155334Y0084550D01*
X0156301Y0084550D01*
X0156785Y0085034D01*
X0160743Y0086485D02*
X0161711Y0087452D01*
X0160231Y0078852D02*
X0158297Y0078852D01*
X0157285Y0078369D02*
X0157285Y0077401D01*
X0156801Y0076917D01*
X0155350Y0076917D01*
X0155350Y0075950D02*
X0155350Y0078852D01*
X0156801Y0078852D01*
X0157285Y0078369D01*
X0156317Y0076917D02*
X0157285Y0075950D01*
X0158297Y0075950D02*
X0158297Y0076434D01*
X0160231Y0078369D01*
X0160231Y0078852D01*
X0163348Y0063878D02*
X0166250Y0063878D01*
X0166250Y0061943D02*
X0163348Y0061943D01*
X0164315Y0062911D01*
X0163348Y0063878D01*
X0163831Y0060931D02*
X0163348Y0060448D01*
X0163348Y0059480D01*
X0163831Y0058997D01*
X0165766Y0058997D01*
X0166250Y0059480D01*
X0166250Y0060448D01*
X0165766Y0060931D01*
X0163831Y0060931D01*
X0163831Y0057985D02*
X0163348Y0057501D01*
X0163348Y0056534D01*
X0163831Y0056050D01*
X0165766Y0056050D01*
X0166250Y0056534D01*
X0166250Y0057501D01*
X0165766Y0057985D01*
X0159948Y0045952D02*
X0158980Y0045952D01*
X0158497Y0045469D01*
X0158497Y0044985D01*
X0158980Y0044501D01*
X0160431Y0044501D01*
X0160431Y0043534D02*
X0160431Y0045469D01*
X0159948Y0045952D01*
X0160431Y0043534D02*
X0159948Y0043050D01*
X0158980Y0043050D01*
X0158497Y0043534D01*
X0157485Y0043534D02*
X0157001Y0043050D01*
X0156034Y0043050D01*
X0155550Y0043534D01*
X0155550Y0045469D01*
X0156034Y0045952D01*
X0157001Y0045952D01*
X0157485Y0045469D01*
X0138086Y0070434D02*
X0134950Y0073570D01*
X0136518Y0073570D02*
X0136518Y0070434D01*
X0134950Y0070434D02*
X0138086Y0073570D01*
X0138086Y0072002D02*
X0134950Y0072002D01*
X0116655Y0045352D02*
X0115203Y0043901D01*
X0117138Y0043901D01*
X0116655Y0042450D02*
X0116655Y0045352D01*
X0113224Y0045352D02*
X0113224Y0042450D01*
X0112257Y0042450D02*
X0114192Y0042450D01*
X0112257Y0044385D02*
X0113224Y0045352D01*
X0111245Y0044869D02*
X0110762Y0045352D01*
X0109794Y0045352D01*
X0109310Y0044869D01*
X0109310Y0042934D01*
X0109794Y0042450D01*
X0110762Y0042450D01*
X0111245Y0042934D01*
X0101050Y0034855D02*
X0101050Y0033887D01*
X0100566Y0033403D01*
X0101050Y0032392D02*
X0100083Y0031424D01*
X0100083Y0031908D02*
X0100083Y0030457D01*
X0101050Y0030457D02*
X0098148Y0030457D01*
X0098148Y0031908D01*
X0098631Y0032392D01*
X0099599Y0032392D01*
X0100083Y0031908D01*
X0098631Y0033403D02*
X0098148Y0033887D01*
X0098148Y0034855D01*
X0098631Y0035338D01*
X0099115Y0035338D01*
X0099599Y0034855D01*
X0100083Y0035338D01*
X0100566Y0035338D01*
X0101050Y0034855D01*
X0099599Y0034855D02*
X0099599Y0034371D01*
X0084550Y0034164D02*
X0081648Y0034164D01*
X0082615Y0033197D01*
X0082131Y0032185D02*
X0083099Y0032185D01*
X0083583Y0031701D01*
X0083583Y0030250D01*
X0084550Y0030250D02*
X0081648Y0030250D01*
X0081648Y0031701D01*
X0082131Y0032185D01*
X0083583Y0031217D02*
X0084550Y0032185D01*
X0084550Y0033197D02*
X0084550Y0035131D01*
X0084550Y0036143D02*
X0084550Y0038078D01*
X0084550Y0037111D02*
X0081648Y0037111D01*
X0082615Y0036143D01*
X0067450Y0045450D02*
X0064548Y0045450D01*
X0064548Y0046901D01*
X0065031Y0047385D01*
X0065999Y0047385D01*
X0066483Y0046901D01*
X0066483Y0045450D01*
X0066483Y0046417D02*
X0067450Y0047385D01*
X0067450Y0048397D02*
X0067450Y0050331D01*
X0067450Y0049364D02*
X0064548Y0049364D01*
X0065515Y0048397D01*
X0064455Y0015552D02*
X0063003Y0014101D01*
X0064938Y0014101D01*
X0064455Y0012650D02*
X0064455Y0015552D01*
X0061992Y0015069D02*
X0061508Y0015552D01*
X0060541Y0015552D01*
X0060057Y0015069D01*
X0060057Y0013134D01*
X0060541Y0012650D01*
X0061508Y0012650D01*
X0061992Y0013134D01*
X0062236Y0010302D02*
X0062236Y0008367D01*
X0063204Y0007400D01*
X0064171Y0008367D01*
X0064171Y0010302D01*
X0061225Y0010302D02*
X0059290Y0010302D01*
X0059290Y0008851D01*
X0060257Y0009335D01*
X0060741Y0009335D01*
X0061225Y0008851D01*
X0061225Y0007884D01*
X0060741Y0007400D01*
X0059773Y0007400D01*
X0059290Y0007884D01*
X0058278Y0007884D02*
X0058278Y0008851D01*
X0057311Y0008851D01*
X0058278Y0007884D02*
X0057794Y0007400D01*
X0056827Y0007400D01*
X0056343Y0007884D01*
X0056343Y0009819D01*
X0056827Y0010302D01*
X0057794Y0010302D01*
X0058278Y0009819D01*
X0055331Y0010302D02*
X0053397Y0010302D01*
X0053397Y0007400D01*
X0055331Y0007400D01*
X0054364Y0008851D02*
X0053397Y0008851D01*
X0052385Y0008851D02*
X0051901Y0008367D01*
X0050450Y0008367D01*
X0050450Y0007400D02*
X0050450Y0010302D01*
X0051901Y0010302D01*
X0052385Y0009819D01*
X0052385Y0008851D01*
X0051417Y0008367D02*
X0052385Y0007400D01*
X0064631Y0143607D02*
X0066566Y0143607D01*
X0067050Y0144091D01*
X0067050Y0145058D01*
X0066566Y0145542D01*
X0066566Y0146553D02*
X0067050Y0147037D01*
X0067050Y0148005D01*
X0066566Y0148488D01*
X0066083Y0148488D01*
X0065599Y0148005D01*
X0065599Y0147521D01*
X0065599Y0148005D02*
X0065115Y0148488D01*
X0064631Y0148488D01*
X0064148Y0148005D01*
X0064148Y0147037D01*
X0064631Y0146553D01*
X0064631Y0145542D02*
X0064148Y0145058D01*
X0064148Y0144091D01*
X0064631Y0143607D01*
X0069848Y0144807D02*
X0072750Y0144807D01*
X0072750Y0146742D01*
X0072266Y0147753D02*
X0072750Y0148237D01*
X0072750Y0149205D01*
X0072266Y0149688D01*
X0071783Y0149688D01*
X0071299Y0149205D01*
X0071299Y0147753D01*
X0072266Y0147753D01*
X0071299Y0147753D02*
X0070331Y0148721D01*
X0069848Y0149688D01*
X0075748Y0150327D02*
X0076231Y0149843D01*
X0076715Y0149843D01*
X0077199Y0150327D01*
X0077199Y0151294D01*
X0077683Y0151778D01*
X0078166Y0151778D01*
X0078650Y0151294D01*
X0078650Y0150327D01*
X0078166Y0149843D01*
X0077683Y0149843D01*
X0077199Y0150327D01*
X0077199Y0151294D02*
X0076715Y0151778D01*
X0076231Y0151778D01*
X0075748Y0151294D01*
X0075748Y0150327D01*
X0078650Y0148831D02*
X0078650Y0146897D01*
X0078650Y0147864D02*
X0075748Y0147864D01*
X0076715Y0146897D01*
X0076231Y0145885D02*
X0075748Y0145401D01*
X0075748Y0144434D01*
X0076231Y0143950D01*
X0078166Y0143950D01*
X0078650Y0144434D01*
X0078650Y0145401D01*
X0078166Y0145885D01*
X0073700Y0160050D02*
X0070798Y0160050D01*
X0070798Y0161501D01*
X0071281Y0161985D01*
X0072249Y0161985D01*
X0072733Y0161501D01*
X0072733Y0160050D01*
X0072733Y0161017D02*
X0073700Y0161985D01*
X0073700Y0162997D02*
X0071765Y0164931D01*
X0071281Y0164931D01*
X0070798Y0164448D01*
X0070798Y0163480D01*
X0071281Y0162997D01*
X0073700Y0162997D02*
X0073700Y0164931D01*
X0073216Y0165943D02*
X0073700Y0166427D01*
X0073700Y0167394D01*
X0073216Y0167878D01*
X0072733Y0167878D01*
X0072249Y0167394D01*
X0072249Y0166427D01*
X0071765Y0165943D01*
X0071281Y0165943D01*
X0070798Y0166427D01*
X0070798Y0167394D01*
X0071281Y0167878D01*
X0071765Y0167878D01*
X0072249Y0167394D01*
X0072249Y0166427D02*
X0072733Y0165943D01*
X0073216Y0165943D01*
X0076298Y0178264D02*
X0079200Y0178264D01*
X0079200Y0180199D01*
X0079200Y0181210D02*
X0076298Y0181210D01*
X0076298Y0183145D01*
X0076298Y0184157D02*
X0076298Y0185608D01*
X0076781Y0186092D01*
X0078716Y0186092D01*
X0079200Y0185608D01*
X0079200Y0184157D01*
X0076298Y0184157D01*
X0077749Y0182178D02*
X0077749Y0181210D01*
X0079200Y0181210D02*
X0079200Y0183145D01*
X0078716Y0187103D02*
X0076781Y0187103D01*
X0076298Y0187587D01*
X0076298Y0188555D01*
X0076781Y0189038D01*
X0078716Y0187103D01*
X0079200Y0187587D01*
X0079200Y0188555D01*
X0078716Y0189038D01*
X0076781Y0189038D01*
X0101848Y0180394D02*
X0101848Y0178943D01*
X0104750Y0178943D01*
X0104750Y0180394D01*
X0104266Y0180878D01*
X0102331Y0180878D01*
X0101848Y0180394D01*
X0101848Y0177931D02*
X0104750Y0177931D01*
X0103783Y0176964D01*
X0104750Y0175997D01*
X0101848Y0175997D01*
X0102331Y0174985D02*
X0101848Y0174501D01*
X0101848Y0173534D01*
X0102331Y0173050D01*
X0102815Y0173050D01*
X0103299Y0173534D01*
X0103299Y0174501D01*
X0103783Y0174985D01*
X0104266Y0174985D01*
X0104750Y0174501D01*
X0104750Y0173534D01*
X0104266Y0173050D01*
X0137848Y0172548D02*
X0137848Y0171580D01*
X0138331Y0171097D01*
X0138331Y0170085D02*
X0139299Y0170085D01*
X0139783Y0169601D01*
X0139783Y0168150D01*
X0140750Y0168150D02*
X0137848Y0168150D01*
X0137848Y0169601D01*
X0138331Y0170085D01*
X0139783Y0169117D02*
X0140750Y0170085D01*
X0140750Y0171097D02*
X0138815Y0173031D01*
X0138331Y0173031D01*
X0137848Y0172548D01*
X0140750Y0173031D02*
X0140750Y0171097D01*
X0204950Y0161952D02*
X0205917Y0161952D01*
X0205434Y0161952D02*
X0205434Y0159050D01*
X0205917Y0159050D02*
X0204950Y0159050D01*
X0206914Y0159534D02*
X0206914Y0161469D01*
X0207398Y0161952D01*
X0208366Y0161952D01*
X0208849Y0161469D01*
X0208849Y0159534D01*
X0208366Y0159050D01*
X0207398Y0159050D01*
X0206914Y0159534D01*
D12*
X0099080Y0160186D02*
X0099080Y0161469D01*
X0099041Y0161469D01*
X0099080Y0161548D02*
X0084120Y0161548D01*
X0084120Y0161430D02*
X0084120Y0160186D01*
X0071350Y0141368D02*
X0071350Y0131526D01*
X0061753Y0126056D02*
X0056241Y0126056D01*
X0061753Y0126056D02*
X0061753Y0081765D01*
X0014800Y0126056D02*
X0007422Y0126056D01*
X0007422Y0081765D01*
X0084120Y0130052D02*
X0099080Y0130052D01*
X0099080Y0130091D02*
X0099080Y0131414D01*
X0084120Y0131414D02*
X0084120Y0130091D01*
D13*
X0073811Y0132313D02*
X0073811Y0140187D01*
X0068889Y0140187D02*
X0068889Y0132313D01*
D14*
X0071350Y0136250D03*
D15*
X0099908Y0120102D02*
X0102692Y0120102D01*
X0120102Y0102692D02*
X0121494Y0101300D01*
X0120102Y0099908D01*
X0102692Y0082498D02*
X0101300Y0081106D01*
X0099908Y0082498D01*
X0082498Y0099908D02*
X0081106Y0101300D01*
X0082498Y0102692D01*
D16*
X0101300Y0121750D03*
D17*
X0072250Y0183308D03*
D18*
X0106600Y0184100D02*
X0106600Y0181100D01*
X0106600Y0184100D02*
X0132600Y0184100D01*
X0132600Y0181100D01*
X0132600Y0177500D02*
X0132600Y0176100D01*
X0132600Y0172500D02*
X0132600Y0169600D01*
X0106600Y0169600D01*
X0106600Y0172500D01*
X0106600Y0176100D02*
X0106600Y0177500D01*
X0198800Y0151300D02*
X0198800Y0141300D01*
X0198800Y0131300D01*
X0198800Y0121300D01*
X0198800Y0111300D01*
X0198800Y0101300D01*
X0198800Y0091300D01*
X0198800Y0081300D01*
X0198800Y0071300D01*
X0198800Y0061300D01*
X0198800Y0051300D01*
X0208800Y0051300D01*
X0208800Y0061300D01*
X0208800Y0071300D01*
X0208800Y0081300D01*
X0208800Y0091300D01*
X0208800Y0101300D01*
X0208800Y0111300D01*
X0208800Y0121300D01*
X0208800Y0131300D01*
X0208800Y0141300D01*
X0208800Y0151300D01*
X0198800Y0151300D01*
X0198800Y0141300D02*
X0208800Y0141300D01*
X0208800Y0131300D02*
X0198800Y0131300D01*
X0198800Y0121300D02*
X0208800Y0121300D01*
X0208800Y0111300D02*
X0198800Y0111300D01*
X0198800Y0101300D02*
X0208800Y0101300D01*
X0208800Y0091300D02*
X0198800Y0091300D01*
X0198800Y0081300D02*
X0208800Y0081300D01*
X0208800Y0071300D02*
X0198800Y0071300D01*
X0198800Y0061300D02*
X0208800Y0061300D01*
X0153200Y0070100D02*
X0146600Y0070100D01*
X0142400Y0070100D01*
X0146600Y0070100D02*
X0146605Y0070032D01*
X0146614Y0069964D01*
X0146626Y0069896D01*
X0146643Y0069830D01*
X0146663Y0069764D01*
X0146687Y0069700D01*
X0146714Y0069637D01*
X0146745Y0069576D01*
X0146780Y0069516D01*
X0146818Y0069459D01*
X0146859Y0069404D01*
X0146903Y0069352D01*
X0146950Y0069302D01*
X0147000Y0069255D01*
X0147052Y0069210D01*
X0147107Y0069169D01*
X0147164Y0069131D01*
X0147223Y0069097D01*
X0147284Y0069065D01*
X0147347Y0069038D01*
X0147411Y0069014D01*
X0147477Y0068993D01*
X0147543Y0068977D01*
X0147611Y0068964D01*
X0147679Y0068955D01*
X0147747Y0068950D01*
X0147816Y0068949D01*
X0147884Y0068952D01*
X0147953Y0068959D01*
X0148020Y0068969D01*
X0148087Y0068984D01*
X0148153Y0069002D01*
X0148218Y0069024D01*
X0148282Y0069050D01*
X0148344Y0069079D01*
X0148404Y0069112D01*
X0148462Y0069148D01*
X0148519Y0069188D01*
X0148572Y0069230D01*
X0148624Y0069276D01*
X0148672Y0069324D01*
X0148718Y0069375D01*
X0148761Y0069429D01*
X0148800Y0069485D01*
X0148837Y0069543D01*
X0148869Y0069603D01*
X0148899Y0069665D01*
X0148925Y0069729D01*
X0148947Y0069794D01*
X0148965Y0069860D01*
X0148980Y0069927D01*
X0148991Y0069995D01*
X0148998Y0070063D01*
X0149001Y0070131D01*
X0149000Y0070200D01*
X0153200Y0050500D02*
X0142400Y0050500D01*
X0128500Y0022300D02*
X0128500Y0020600D01*
X0128500Y0022300D02*
X0105500Y0022300D01*
X0105500Y0020600D01*
X0103000Y0018600D02*
X0103000Y0013600D01*
X0100000Y0016100D01*
X0103000Y0015600D01*
X0103000Y0015100D02*
X0100000Y0016100D01*
X0103000Y0014600D01*
X0103000Y0014100D02*
X0100000Y0016100D01*
X0103000Y0016600D01*
X0103000Y0017100D02*
X0100000Y0016100D01*
X0103000Y0017600D01*
X0103000Y0018100D02*
X0100000Y0016100D01*
X0103000Y0018600D01*
X0100000Y0018600D02*
X0100000Y0016100D01*
X0100000Y0013600D01*
X0100000Y0016100D02*
X0099000Y0016100D01*
X0100000Y0016100D02*
X0103700Y0016100D01*
X0105500Y0011600D02*
X0105500Y0009900D01*
X0128500Y0009900D01*
X0128500Y0011600D01*
X0062300Y0019250D02*
X0061100Y0019250D01*
X0062300Y0019250D02*
X0062300Y0030450D01*
X0061100Y0030450D01*
X0052300Y0030450D02*
X0051100Y0030450D01*
X0051100Y0019250D01*
X0052300Y0019250D01*
X0053500Y0018850D02*
X0053494Y0018820D01*
X0053492Y0018789D01*
X0053494Y0018757D01*
X0053499Y0018727D01*
X0053509Y0018697D01*
X0053521Y0018668D01*
X0053537Y0018642D01*
X0053557Y0018617D01*
X0053579Y0018595D01*
X0053603Y0018576D01*
X0053630Y0018560D01*
X0053658Y0018547D01*
X0053688Y0018538D01*
X0053719Y0018532D01*
X0053750Y0018530D01*
X0053781Y0018532D01*
X0053812Y0018538D01*
X0053842Y0018547D01*
X0053870Y0018560D01*
X0053897Y0018576D01*
X0053921Y0018595D01*
X0053943Y0018617D01*
X0053963Y0018642D01*
X0053979Y0018668D01*
X0053991Y0018697D01*
X0054001Y0018727D01*
X0054006Y0018757D01*
X0054008Y0018789D01*
X0054006Y0018820D01*
X0054000Y0018850D01*
D19*
X0108100Y0166100D02*
X0108102Y0166176D01*
X0108108Y0166252D01*
X0108117Y0166327D01*
X0108131Y0166402D01*
X0108148Y0166476D01*
X0108169Y0166549D01*
X0108193Y0166621D01*
X0108222Y0166692D01*
X0108253Y0166761D01*
X0108288Y0166828D01*
X0108327Y0166893D01*
X0108369Y0166957D01*
X0108414Y0167018D01*
X0108462Y0167077D01*
X0108513Y0167133D01*
X0108567Y0167187D01*
X0108623Y0167238D01*
X0108682Y0167286D01*
X0108743Y0167331D01*
X0108807Y0167373D01*
X0108872Y0167412D01*
X0108939Y0167447D01*
X0109008Y0167478D01*
X0109079Y0167507D01*
X0109151Y0167531D01*
X0109224Y0167552D01*
X0109298Y0167569D01*
X0109373Y0167583D01*
X0109448Y0167592D01*
X0109524Y0167598D01*
X0109600Y0167600D01*
X0109676Y0167598D01*
X0109752Y0167592D01*
X0109827Y0167583D01*
X0109902Y0167569D01*
X0109976Y0167552D01*
X0110049Y0167531D01*
X0110121Y0167507D01*
X0110192Y0167478D01*
X0110261Y0167447D01*
X0110328Y0167412D01*
X0110393Y0167373D01*
X0110457Y0167331D01*
X0110518Y0167286D01*
X0110577Y0167238D01*
X0110633Y0167187D01*
X0110687Y0167133D01*
X0110738Y0167077D01*
X0110786Y0167018D01*
X0110831Y0166957D01*
X0110873Y0166893D01*
X0110912Y0166828D01*
X0110947Y0166761D01*
X0110978Y0166692D01*
X0111007Y0166621D01*
X0111031Y0166549D01*
X0111052Y0166476D01*
X0111069Y0166402D01*
X0111083Y0166327D01*
X0111092Y0166252D01*
X0111098Y0166176D01*
X0111100Y0166100D01*
X0111098Y0166024D01*
X0111092Y0165948D01*
X0111083Y0165873D01*
X0111069Y0165798D01*
X0111052Y0165724D01*
X0111031Y0165651D01*
X0111007Y0165579D01*
X0110978Y0165508D01*
X0110947Y0165439D01*
X0110912Y0165372D01*
X0110873Y0165307D01*
X0110831Y0165243D01*
X0110786Y0165182D01*
X0110738Y0165123D01*
X0110687Y0165067D01*
X0110633Y0165013D01*
X0110577Y0164962D01*
X0110518Y0164914D01*
X0110457Y0164869D01*
X0110393Y0164827D01*
X0110328Y0164788D01*
X0110261Y0164753D01*
X0110192Y0164722D01*
X0110121Y0164693D01*
X0110049Y0164669D01*
X0109976Y0164648D01*
X0109902Y0164631D01*
X0109827Y0164617D01*
X0109752Y0164608D01*
X0109676Y0164602D01*
X0109600Y0164600D01*
X0109524Y0164602D01*
X0109448Y0164608D01*
X0109373Y0164617D01*
X0109298Y0164631D01*
X0109224Y0164648D01*
X0109151Y0164669D01*
X0109079Y0164693D01*
X0109008Y0164722D01*
X0108939Y0164753D01*
X0108872Y0164788D01*
X0108807Y0164827D01*
X0108743Y0164869D01*
X0108682Y0164914D01*
X0108623Y0164962D01*
X0108567Y0165013D01*
X0108513Y0165067D01*
X0108462Y0165123D01*
X0108414Y0165182D01*
X0108369Y0165243D01*
X0108327Y0165307D01*
X0108288Y0165372D01*
X0108253Y0165439D01*
X0108222Y0165508D01*
X0108193Y0165579D01*
X0108169Y0165651D01*
X0108148Y0165724D01*
X0108131Y0165798D01*
X0108117Y0165873D01*
X0108108Y0165948D01*
X0108102Y0166024D01*
X0108100Y0166100D01*
D20*
X0048289Y0067198D02*
X0048291Y0067241D01*
X0048297Y0067283D01*
X0048307Y0067325D01*
X0048320Y0067366D01*
X0048337Y0067406D01*
X0048358Y0067443D01*
X0048382Y0067479D01*
X0048409Y0067512D01*
X0048439Y0067543D01*
X0048472Y0067571D01*
X0048507Y0067596D01*
X0048544Y0067617D01*
X0048583Y0067635D01*
X0048623Y0067649D01*
X0048665Y0067660D01*
X0048707Y0067667D01*
X0048750Y0067670D01*
X0048793Y0067669D01*
X0048836Y0067664D01*
X0048878Y0067655D01*
X0048919Y0067643D01*
X0048959Y0067627D01*
X0048997Y0067607D01*
X0049033Y0067584D01*
X0049067Y0067557D01*
X0049099Y0067528D01*
X0049127Y0067496D01*
X0049153Y0067461D01*
X0049175Y0067425D01*
X0049194Y0067386D01*
X0049209Y0067346D01*
X0049221Y0067305D01*
X0049229Y0067262D01*
X0049233Y0067219D01*
X0049233Y0067177D01*
X0049229Y0067134D01*
X0049221Y0067091D01*
X0049209Y0067050D01*
X0049194Y0067010D01*
X0049175Y0066971D01*
X0049153Y0066935D01*
X0049127Y0066900D01*
X0049099Y0066868D01*
X0049067Y0066839D01*
X0049033Y0066812D01*
X0048997Y0066789D01*
X0048959Y0066769D01*
X0048919Y0066753D01*
X0048878Y0066741D01*
X0048836Y0066732D01*
X0048793Y0066727D01*
X0048750Y0066726D01*
X0048707Y0066729D01*
X0048665Y0066736D01*
X0048623Y0066747D01*
X0048583Y0066761D01*
X0048544Y0066779D01*
X0048507Y0066800D01*
X0048472Y0066825D01*
X0048439Y0066853D01*
X0048409Y0066884D01*
X0048382Y0066917D01*
X0048358Y0066953D01*
X0048337Y0066990D01*
X0048320Y0067030D01*
X0048307Y0067071D01*
X0048297Y0067113D01*
X0048291Y0067155D01*
X0048289Y0067198D01*
D21*
X0136757Y0113464D03*
D22*
X0139623Y0112716D02*
X0154977Y0112716D01*
X0154977Y0092884D02*
X0139623Y0092884D01*
D23*
X0211300Y0096300D02*
X0233800Y0096300D01*
X0233800Y0086300D02*
X0211300Y0086300D01*
X0211300Y0076300D02*
X0233800Y0076300D01*
X0233800Y0066300D02*
X0211300Y0066300D01*
X0211300Y0056300D02*
X0233800Y0056300D01*
X0233800Y0106300D02*
X0211300Y0106300D01*
X0211300Y0116300D02*
X0233800Y0116300D01*
X0233800Y0126300D02*
X0211300Y0126300D01*
X0211300Y0136300D02*
X0233800Y0136300D01*
X0233800Y0146300D02*
X0211300Y0146300D01*
D24*
X0209800Y0146300D03*
X0209800Y0136300D03*
X0209800Y0126300D03*
X0209800Y0116300D03*
X0209800Y0106300D03*
X0209800Y0096300D03*
X0209800Y0086300D03*
X0209800Y0076300D03*
X0209800Y0066300D03*
X0209800Y0056300D03*
D25*
X0196800Y0056300D03*
X0196800Y0066300D03*
X0196800Y0076300D03*
X0196800Y0086300D03*
X0196800Y0096300D03*
X0196800Y0106300D03*
X0196800Y0116300D03*
X0196800Y0126300D03*
X0196800Y0136300D03*
X0196800Y0146300D03*
D26*
X0186300Y0146300D03*
X0186300Y0136300D03*
X0186300Y0126300D03*
X0186300Y0116300D03*
X0186300Y0106300D03*
X0186300Y0096300D03*
X0186300Y0086300D03*
X0186300Y0076300D03*
X0186300Y0066300D03*
X0186300Y0056300D03*
D27*
X0120895Y0024000D02*
X0118893Y0024000D01*
X0117948Y0024000D02*
X0116947Y0025001D01*
X0117448Y0025001D02*
X0115947Y0025001D01*
X0115947Y0024000D02*
X0115947Y0027003D01*
X0117448Y0027003D01*
X0117948Y0026502D01*
X0117948Y0025501D01*
X0117448Y0025001D01*
X0118893Y0026002D02*
X0119894Y0027003D01*
X0119894Y0024000D01*
X0115002Y0024500D02*
X0114501Y0024000D01*
X0113500Y0024000D01*
X0113000Y0024500D01*
X0113000Y0026502D01*
X0113500Y0027003D01*
X0114501Y0027003D01*
X0115002Y0026502D01*
X0092751Y0164027D02*
X0090910Y0164027D01*
X0091830Y0164027D02*
X0091830Y0166789D01*
X0090910Y0165868D01*
X0090026Y0166329D02*
X0090026Y0166789D01*
X0090026Y0166329D02*
X0089106Y0165408D01*
X0089106Y0164027D01*
X0089106Y0165408D02*
X0088185Y0166329D01*
X0088185Y0166789D01*
D28*
X0097686Y0128280D02*
X0097688Y0128307D01*
X0097694Y0128334D01*
X0097703Y0128360D01*
X0097716Y0128384D01*
X0097732Y0128407D01*
X0097751Y0128426D01*
X0097773Y0128443D01*
X0097797Y0128457D01*
X0097822Y0128467D01*
X0097849Y0128474D01*
X0097876Y0128477D01*
X0097904Y0128476D01*
X0097931Y0128471D01*
X0097957Y0128463D01*
X0097981Y0128451D01*
X0098004Y0128435D01*
X0098025Y0128417D01*
X0098042Y0128396D01*
X0098057Y0128372D01*
X0098068Y0128347D01*
X0098076Y0128321D01*
X0098080Y0128294D01*
X0098080Y0128266D01*
X0098076Y0128239D01*
X0098068Y0128213D01*
X0098057Y0128188D01*
X0098042Y0128164D01*
X0098025Y0128143D01*
X0098004Y0128125D01*
X0097982Y0128109D01*
X0097957Y0128097D01*
X0097931Y0128089D01*
X0097904Y0128084D01*
X0097876Y0128083D01*
X0097849Y0128086D01*
X0097822Y0128093D01*
X0097797Y0128103D01*
X0097773Y0128117D01*
X0097751Y0128134D01*
X0097732Y0128153D01*
X0097716Y0128176D01*
X0097703Y0128200D01*
X0097694Y0128226D01*
X0097688Y0128253D01*
X0097686Y0128280D01*
M02*
