G75*
%MOIN*%
%OFA0B0*%
%FSLAX25Y25*%
%IPPOS*%
%LPD*%
%AMOC8*
5,1,8,0,0,1.08239X$1,22.5*
%
%ADD10C,0.00000*%
%ADD11C,0.04400*%
%ADD12OC8,0.06000*%
%ADD13R,0.01181X0.02067*%
%ADD14R,0.01673X0.01181*%
%ADD15R,0.03543X0.02756*%
%ADD16R,0.02756X0.02362*%
%ADD17R,0.04759X0.02319*%
%ADD18R,0.02756X0.03543*%
%ADD19R,0.02319X0.04759*%
%ADD20C,0.02178*%
%ADD21C,0.01000*%
%ADD22C,0.02400*%
%ADD23C,0.00600*%
%ADD24C,0.16500*%
D10*
X0015800Y0001300D02*
X0185800Y0001300D01*
X0186169Y0001298D01*
X0186537Y0001306D01*
X0186905Y0001322D01*
X0187273Y0001347D01*
X0187640Y0001381D01*
X0188006Y0001424D01*
X0188371Y0001476D01*
X0188735Y0001536D01*
X0189097Y0001605D01*
X0189457Y0001683D01*
X0189815Y0001770D01*
X0190171Y0001865D01*
X0190525Y0001969D01*
X0190876Y0002082D01*
X0191224Y0002202D01*
X0191569Y0002332D01*
X0191911Y0002469D01*
X0192250Y0002615D01*
X0192585Y0002769D01*
X0192916Y0002931D01*
X0193243Y0003101D01*
X0193566Y0003278D01*
X0193884Y0003464D01*
X0194198Y0003657D01*
X0194507Y0003858D01*
X0194811Y0004066D01*
X0195111Y0004281D01*
X0195404Y0004503D01*
X0195693Y0004733D01*
X0195975Y0004969D01*
X0196252Y0005213D01*
X0196523Y0005463D01*
X0196788Y0005719D01*
X0197047Y0005981D01*
X0197299Y0006250D01*
X0197545Y0006525D01*
X0197783Y0006806D01*
X0198015Y0007092D01*
X0198241Y0007384D01*
X0198458Y0007681D01*
X0198669Y0007984D01*
X0198872Y0008291D01*
X0199068Y0008603D01*
X0199256Y0008920D01*
X0199437Y0009242D01*
X0199610Y0009567D01*
X0199774Y0009897D01*
X0199931Y0010231D01*
X0200080Y0010568D01*
X0200220Y0010909D01*
X0200352Y0011253D01*
X0200476Y0011600D01*
X0200592Y0011950D01*
X0200699Y0012303D01*
X0200797Y0012658D01*
X0200887Y0013015D01*
X0200968Y0013375D01*
X0201040Y0013736D01*
X0201104Y0014099D01*
X0201159Y0014464D01*
X0201205Y0014829D01*
X0201242Y0015196D01*
X0201270Y0015564D01*
X0201289Y0015932D01*
X0201300Y0016300D01*
X0201300Y0186300D01*
X0201296Y0186662D01*
X0201282Y0187025D01*
X0201261Y0187387D01*
X0201230Y0187748D01*
X0201191Y0188108D01*
X0201143Y0188467D01*
X0201086Y0188825D01*
X0201021Y0189182D01*
X0200947Y0189537D01*
X0200864Y0189890D01*
X0200773Y0190241D01*
X0200674Y0190589D01*
X0200566Y0190935D01*
X0200450Y0191279D01*
X0200325Y0191619D01*
X0200193Y0191956D01*
X0200052Y0192290D01*
X0199903Y0192621D01*
X0199746Y0192948D01*
X0199582Y0193271D01*
X0199410Y0193590D01*
X0199230Y0193904D01*
X0199042Y0194215D01*
X0198847Y0194520D01*
X0198645Y0194821D01*
X0198435Y0195117D01*
X0198219Y0195407D01*
X0197995Y0195693D01*
X0197765Y0195973D01*
X0197528Y0196247D01*
X0197284Y0196515D01*
X0197034Y0196778D01*
X0196778Y0197034D01*
X0196515Y0197284D01*
X0196247Y0197528D01*
X0195973Y0197765D01*
X0195693Y0197995D01*
X0195407Y0198219D01*
X0195117Y0198435D01*
X0194821Y0198645D01*
X0194520Y0198847D01*
X0194215Y0199042D01*
X0193904Y0199230D01*
X0193590Y0199410D01*
X0193271Y0199582D01*
X0192948Y0199746D01*
X0192621Y0199903D01*
X0192290Y0200052D01*
X0191956Y0200193D01*
X0191619Y0200325D01*
X0191279Y0200450D01*
X0190935Y0200566D01*
X0190589Y0200674D01*
X0190241Y0200773D01*
X0189890Y0200864D01*
X0189537Y0200947D01*
X0189182Y0201021D01*
X0188825Y0201086D01*
X0188467Y0201143D01*
X0188108Y0201191D01*
X0187748Y0201230D01*
X0187387Y0201261D01*
X0187025Y0201282D01*
X0186662Y0201296D01*
X0186300Y0201300D01*
X0016300Y0201300D01*
X0015938Y0201296D01*
X0015575Y0201282D01*
X0015213Y0201261D01*
X0014852Y0201230D01*
X0014492Y0201191D01*
X0014133Y0201143D01*
X0013775Y0201086D01*
X0013418Y0201021D01*
X0013063Y0200947D01*
X0012710Y0200864D01*
X0012359Y0200773D01*
X0012011Y0200674D01*
X0011665Y0200566D01*
X0011321Y0200450D01*
X0010981Y0200325D01*
X0010644Y0200193D01*
X0010310Y0200052D01*
X0009979Y0199903D01*
X0009652Y0199746D01*
X0009329Y0199582D01*
X0009010Y0199410D01*
X0008696Y0199230D01*
X0008385Y0199042D01*
X0008080Y0198847D01*
X0007779Y0198645D01*
X0007483Y0198435D01*
X0007193Y0198219D01*
X0006907Y0197995D01*
X0006627Y0197765D01*
X0006353Y0197528D01*
X0006085Y0197284D01*
X0005822Y0197034D01*
X0005566Y0196778D01*
X0005316Y0196515D01*
X0005072Y0196247D01*
X0004835Y0195973D01*
X0004605Y0195693D01*
X0004381Y0195407D01*
X0004165Y0195117D01*
X0003955Y0194821D01*
X0003753Y0194520D01*
X0003558Y0194215D01*
X0003370Y0193904D01*
X0003190Y0193590D01*
X0003018Y0193271D01*
X0002854Y0192948D01*
X0002697Y0192621D01*
X0002548Y0192290D01*
X0002407Y0191956D01*
X0002275Y0191619D01*
X0002150Y0191279D01*
X0002034Y0190935D01*
X0001926Y0190589D01*
X0001827Y0190241D01*
X0001736Y0189890D01*
X0001653Y0189537D01*
X0001579Y0189182D01*
X0001514Y0188825D01*
X0001457Y0188467D01*
X0001409Y0188108D01*
X0001370Y0187748D01*
X0001339Y0187387D01*
X0001318Y0187025D01*
X0001304Y0186662D01*
X0001300Y0186300D01*
X0001300Y0016300D01*
X0001298Y0015944D01*
X0001305Y0015587D01*
X0001321Y0015231D01*
X0001345Y0014875D01*
X0001378Y0014520D01*
X0001419Y0014166D01*
X0001469Y0013813D01*
X0001527Y0013461D01*
X0001594Y0013111D01*
X0001669Y0012763D01*
X0001753Y0012416D01*
X0001845Y0012072D01*
X0001945Y0011730D01*
X0002053Y0011390D01*
X0002170Y0011053D01*
X0002295Y0010719D01*
X0002428Y0010389D01*
X0002568Y0010061D01*
X0002717Y0009737D01*
X0002873Y0009417D01*
X0003038Y0009100D01*
X0003209Y0008788D01*
X0003389Y0008480D01*
X0003575Y0008176D01*
X0003769Y0007877D01*
X0003970Y0007582D01*
X0004178Y0007293D01*
X0004393Y0007009D01*
X0004615Y0006730D01*
X0004844Y0006456D01*
X0005079Y0006188D01*
X0005320Y0005926D01*
X0005568Y0005670D01*
X0005822Y0005419D01*
X0006082Y0005175D01*
X0006348Y0004938D01*
X0006619Y0004706D01*
X0006896Y0004482D01*
X0007178Y0004264D01*
X0007465Y0004053D01*
X0007758Y0003849D01*
X0008055Y0003652D01*
X0008357Y0003463D01*
X0008663Y0003281D01*
X0008974Y0003106D01*
X0009289Y0002939D01*
X0009608Y0002779D01*
X0009930Y0002627D01*
X0010256Y0002483D01*
X0010586Y0002347D01*
X0010919Y0002219D01*
X0011254Y0002099D01*
X0011593Y0001987D01*
X0011934Y0001884D01*
X0012277Y0001789D01*
X0012623Y0001702D01*
X0012971Y0001623D01*
X0013320Y0001553D01*
X0013671Y0001491D01*
X0014024Y0001438D01*
X0014378Y0001393D01*
X0014732Y0001357D01*
X0015088Y0001329D01*
X0015444Y0001310D01*
X0015800Y0001300D01*
D11*
X0109600Y0174300D03*
X0109600Y0179300D03*
X0114600Y0179300D03*
X0114600Y0174300D03*
X0119600Y0174300D03*
X0119600Y0179300D03*
X0124600Y0179300D03*
X0124600Y0174300D03*
X0129600Y0174300D03*
X0129600Y0179300D03*
D12*
X0181300Y0146300D03*
X0191300Y0146300D03*
X0191300Y0136300D03*
X0181300Y0136300D03*
X0181300Y0126300D03*
X0191300Y0126300D03*
X0191300Y0116300D03*
X0181300Y0116300D03*
X0181300Y0106300D03*
X0191300Y0106300D03*
X0191300Y0096300D03*
X0181300Y0096300D03*
X0181300Y0086300D03*
X0191300Y0086300D03*
X0191300Y0076300D03*
X0181300Y0076300D03*
X0181300Y0066300D03*
X0191300Y0066300D03*
X0191300Y0056300D03*
X0181300Y0056300D03*
D13*
X0110158Y0095148D03*
X0108190Y0095148D03*
X0106221Y0095148D03*
X0104253Y0095148D03*
X0102284Y0095148D03*
X0100316Y0095148D03*
X0098347Y0095148D03*
X0096379Y0095148D03*
X0094410Y0095148D03*
X0092442Y0095148D03*
X0092442Y0107452D03*
X0094410Y0107452D03*
X0096379Y0107452D03*
X0098347Y0107452D03*
X0100316Y0107452D03*
X0102284Y0107452D03*
X0104253Y0107452D03*
X0106221Y0107452D03*
X0108190Y0107452D03*
X0110158Y0107452D03*
D14*
X0110404Y0104253D03*
X0110404Y0102284D03*
X0110404Y0100316D03*
X0110404Y0098347D03*
X0092196Y0098347D03*
X0092196Y0100316D03*
X0092196Y0102284D03*
X0092196Y0104253D03*
D15*
X0084300Y0096459D03*
X0084300Y0091341D03*
X0075700Y0089759D03*
X0075700Y0084641D03*
X0096700Y0114241D03*
X0096700Y0119359D03*
X0018900Y0098959D03*
X0018900Y0093841D03*
D16*
X0039200Y0092469D03*
X0039200Y0088531D03*
X0084300Y0104631D03*
X0084300Y0108569D03*
X0105200Y0114731D03*
X0105200Y0118669D03*
X0118400Y0104169D03*
X0118400Y0100231D03*
X0110100Y0087069D03*
X0110100Y0083131D03*
D17*
X0068934Y0092960D03*
X0068934Y0100440D03*
X0059066Y0100440D03*
X0059066Y0096700D03*
X0059066Y0092960D03*
D18*
X0051459Y0101400D03*
X0046341Y0101400D03*
X0023059Y0107500D03*
X0017941Y0107500D03*
D19*
X0025160Y0101334D03*
X0028900Y0101334D03*
X0032640Y0101334D03*
X0032640Y0091466D03*
X0025160Y0091466D03*
D20*
X0024800Y0081800D03*
X0033400Y0082300D03*
X0041800Y0083200D03*
X0045900Y0089600D03*
X0041900Y0096200D03*
X0056600Y0086400D03*
X0051900Y0080400D03*
X0066200Y0086600D03*
X0070900Y0082600D03*
X0077800Y0074800D03*
X0082800Y0078300D03*
X0086900Y0078100D03*
X0091000Y0073600D03*
X0101600Y0075600D03*
X0108300Y0070200D03*
X0117300Y0072900D03*
X0135050Y0089050D03*
X0127800Y0090800D03*
X0124800Y0094800D03*
X0127800Y0106800D03*
X0137000Y0120300D03*
X0148800Y0129900D03*
X0156800Y0126800D03*
X0153400Y0150200D03*
X0153300Y0162600D03*
X0129200Y0143000D03*
X0126300Y0135300D03*
X0111400Y0138100D03*
X0113300Y0127300D03*
X0101800Y0126800D03*
X0085200Y0124700D03*
X0081200Y0128500D03*
X0072800Y0119300D03*
X0065300Y0115800D03*
X0065300Y0112300D03*
X0065300Y0108300D03*
X0056800Y0110800D03*
X0065300Y0122800D03*
X0068300Y0126300D03*
X0076400Y0109200D03*
X0096600Y0101500D03*
X0102700Y0104500D03*
X0104044Y0102056D03*
X0068000Y0070000D03*
X0053600Y0062300D03*
X0046200Y0047700D03*
X0038100Y0039000D03*
X0050800Y0032400D03*
X0059400Y0034900D03*
X0066700Y0029500D03*
X0065700Y0023300D03*
X0045700Y0010200D03*
X0025500Y0035100D03*
X0033246Y0064100D03*
X0075600Y0047300D03*
X0092000Y0041100D03*
X0109900Y0038700D03*
X0134800Y0043800D03*
X0158300Y0088800D03*
X0071400Y0155800D03*
X0065800Y0172900D03*
X0065600Y0186800D03*
X0041200Y0186200D03*
X0036600Y0136600D03*
X0131400Y0189489D03*
X0147900Y0187600D03*
D21*
X0126300Y0135300D02*
X0126300Y0131800D01*
X0113169Y0118669D01*
X0105200Y0118669D01*
X0105200Y0114731D02*
X0102284Y0111816D01*
X0102284Y0107452D01*
X0102284Y0104916D01*
X0102700Y0104500D01*
X0104044Y0102056D02*
X0106444Y0102056D01*
X0106500Y0102000D01*
X0108190Y0103690D01*
X0108190Y0107452D01*
X0110158Y0107452D02*
X0110404Y0107206D01*
X0110404Y0104253D01*
X0110404Y0102284D01*
X0110404Y0100316D01*
X0110404Y0098347D02*
X0116516Y0098347D01*
X0118400Y0100231D01*
X0121500Y0095754D01*
X0121500Y0077100D01*
X0117300Y0072900D01*
X0118200Y0080100D02*
X0108300Y0070200D01*
X0101600Y0075600D02*
X0101557Y0075643D01*
X0101557Y0081754D01*
X0094410Y0088900D01*
X0094410Y0095148D01*
X0092196Y0098347D02*
X0092094Y0098347D01*
X0084300Y0091341D01*
X0077600Y0084641D01*
X0075700Y0084641D01*
X0069600Y0078300D02*
X0061500Y0086400D01*
X0056600Y0086400D01*
X0049650Y0093350D02*
X0046341Y0096659D01*
X0046341Y0101400D01*
X0042441Y0105300D01*
X0030500Y0105300D01*
X0028900Y0103700D01*
X0028900Y0101334D01*
X0028900Y0099000D01*
X0026800Y0096900D01*
X0020959Y0096900D01*
X0018900Y0098959D01*
X0017941Y0099918D01*
X0017941Y0107500D01*
X0023059Y0107500D02*
X0023659Y0106900D01*
X0049600Y0106900D01*
X0051459Y0105041D01*
X0051459Y0101400D01*
X0041900Y0096200D02*
X0039100Y0096200D01*
X0039200Y0096100D01*
X0039200Y0092469D01*
X0039100Y0096200D02*
X0037774Y0096200D01*
X0032640Y0101334D01*
X0025160Y0101334D02*
X0025160Y0105399D01*
X0023059Y0107500D01*
X0018900Y0093841D02*
X0021275Y0091466D01*
X0025160Y0091466D01*
X0033400Y0083226D01*
X0033400Y0082300D01*
X0041800Y0083200D02*
X0041800Y0085931D01*
X0039200Y0088531D01*
X0045660Y0089360D02*
X0045900Y0089600D01*
X0024869Y0081869D02*
X0024800Y0081800D01*
X0069600Y0078300D02*
X0082800Y0078300D01*
X0078020Y0092080D02*
X0078200Y0092259D01*
X0078200Y0103846D01*
X0082922Y0108569D01*
X0084300Y0108569D01*
X0084300Y0104631D02*
X0084300Y0103254D01*
X0085269Y0102284D01*
X0092196Y0102284D01*
X0092196Y0100316D02*
X0086257Y0100316D01*
X0082485Y0096544D01*
X0084300Y0096459D02*
X0084368Y0096544D01*
X0092196Y0098347D02*
X0100353Y0098347D01*
X0100400Y0098300D01*
X0100316Y0098216D01*
X0100316Y0107452D01*
X0100400Y0107367D01*
X0098347Y0107452D02*
X0098347Y0112594D01*
X0096700Y0114241D01*
X0092442Y0115888D02*
X0083088Y0115888D01*
X0076400Y0109200D01*
X0092196Y0107206D02*
X0092196Y0104253D01*
X0092196Y0107206D02*
X0092442Y0107452D01*
X0092442Y0115888D01*
X0096700Y0119359D01*
X0100316Y0098216D02*
X0100316Y0095148D01*
X0110100Y0095090D02*
X0110100Y0087069D01*
X0115931Y0087069D01*
X0118200Y0084800D01*
X0118200Y0080100D01*
X0110100Y0083131D02*
X0102935Y0083131D01*
X0101557Y0081754D01*
X0110100Y0095090D02*
X0110158Y0095148D01*
X0118400Y0104169D02*
X0123031Y0104169D01*
X0124800Y0102400D01*
X0124800Y0094800D01*
X0053700Y0029500D02*
X0050800Y0032400D01*
X0053700Y0029500D02*
X0066700Y0029500D01*
D22*
X0051900Y0080400D02*
X0051900Y0088200D01*
X0056660Y0092960D01*
X0059066Y0092960D01*
X0062660Y0092960D01*
X0064200Y0094500D01*
X0064200Y0099500D01*
X0063260Y0100440D01*
X0059066Y0100440D01*
X0052419Y0100440D01*
X0051459Y0101400D01*
X0053000Y0096700D02*
X0049650Y0093350D01*
X0045900Y0089600D01*
X0053000Y0096700D02*
X0059066Y0096700D01*
X0066200Y0090226D02*
X0066200Y0086600D01*
X0066200Y0090226D02*
X0068934Y0092960D01*
X0072135Y0089759D01*
X0075700Y0089759D01*
X0078020Y0092080D01*
X0082485Y0096544D01*
X0084368Y0096544D01*
D23*
X0006552Y0006687D02*
X0195749Y0006687D01*
X0196367Y0007285D02*
X0005973Y0007285D01*
X0005394Y0007884D02*
X0196983Y0007884D01*
X0196978Y0007876D02*
X0194361Y0005343D01*
X0191177Y0003574D01*
X0187644Y0002689D01*
X0185825Y0002600D01*
X0185811Y0002600D01*
X0185283Y0002609D01*
X0185274Y0002600D01*
X0015820Y0002600D01*
X0014068Y0002745D01*
X0010692Y0003711D01*
X0007681Y0005518D01*
X0005240Y0008043D01*
X0003536Y0011113D01*
X0002685Y0014520D01*
X0002600Y0016274D01*
X0002600Y0016289D01*
X0002609Y0016816D01*
X0002600Y0016826D01*
X0002600Y0186300D01*
X0002717Y0188088D01*
X0003643Y0191543D01*
X0005431Y0194640D01*
X0007960Y0197169D01*
X0011057Y0198957D01*
X0014512Y0199883D01*
X0016300Y0200000D01*
X0186300Y0200000D01*
X0188088Y0199883D01*
X0191543Y0198957D01*
X0194640Y0197169D01*
X0197169Y0194640D01*
X0198957Y0191543D01*
X0199883Y0188088D01*
X0200000Y0186300D01*
X0200000Y0016319D01*
X0199851Y0014502D01*
X0198851Y0011000D01*
X0196978Y0007876D01*
X0197341Y0008482D02*
X0004997Y0008482D01*
X0004665Y0009081D02*
X0197700Y0009081D01*
X0198059Y0009679D02*
X0004332Y0009679D01*
X0004000Y0010278D02*
X0198418Y0010278D01*
X0198776Y0010876D02*
X0003668Y0010876D01*
X0003446Y0011475D02*
X0198986Y0011475D01*
X0199157Y0012073D02*
X0003297Y0012073D01*
X0003147Y0012672D02*
X0199328Y0012672D01*
X0199499Y0013270D02*
X0002997Y0013270D01*
X0002848Y0013869D02*
X0199670Y0013869D01*
X0199841Y0014467D02*
X0002698Y0014467D01*
X0002659Y0015066D02*
X0199897Y0015066D01*
X0199946Y0015664D02*
X0002630Y0015664D01*
X0002601Y0016263D02*
X0199995Y0016263D01*
X0200000Y0016861D02*
X0002600Y0016861D01*
X0002600Y0017460D02*
X0200000Y0017460D01*
X0200000Y0018058D02*
X0002600Y0018058D01*
X0002600Y0018657D02*
X0200000Y0018657D01*
X0200000Y0019255D02*
X0002600Y0019255D01*
X0002600Y0019854D02*
X0200000Y0019854D01*
X0200000Y0020452D02*
X0002600Y0020452D01*
X0002600Y0021051D02*
X0064571Y0021051D01*
X0064710Y0020911D02*
X0066690Y0020911D01*
X0068089Y0022310D01*
X0068089Y0024290D01*
X0066690Y0025689D01*
X0064710Y0025689D01*
X0063311Y0024290D01*
X0063311Y0022310D01*
X0064710Y0020911D01*
X0063972Y0021649D02*
X0002600Y0021649D01*
X0002600Y0022248D02*
X0063374Y0022248D01*
X0063311Y0022846D02*
X0002600Y0022846D01*
X0002600Y0023445D02*
X0063311Y0023445D01*
X0063311Y0024043D02*
X0002600Y0024043D01*
X0002600Y0024642D02*
X0063663Y0024642D01*
X0064262Y0025240D02*
X0002600Y0025240D01*
X0002600Y0025839D02*
X0200000Y0025839D01*
X0200000Y0026437D02*
X0002600Y0026437D01*
X0002600Y0027036D02*
X0200000Y0027036D01*
X0200000Y0027634D02*
X0068213Y0027634D01*
X0067690Y0027111D02*
X0069089Y0028510D01*
X0069089Y0030490D01*
X0067690Y0031889D01*
X0065710Y0031889D01*
X0065121Y0031300D01*
X0054446Y0031300D01*
X0053189Y0032557D01*
X0053189Y0033390D01*
X0051790Y0034789D01*
X0049810Y0034789D01*
X0048411Y0033390D01*
X0048411Y0031410D01*
X0049810Y0030011D01*
X0050643Y0030011D01*
X0051900Y0028754D01*
X0052954Y0027700D01*
X0065121Y0027700D01*
X0065710Y0027111D01*
X0067690Y0027111D01*
X0068812Y0028233D02*
X0200000Y0028233D01*
X0200000Y0028832D02*
X0069089Y0028832D01*
X0069089Y0029430D02*
X0200000Y0029430D01*
X0200000Y0030029D02*
X0069089Y0030029D01*
X0068951Y0030627D02*
X0200000Y0030627D01*
X0200000Y0031226D02*
X0068353Y0031226D01*
X0067754Y0031824D02*
X0200000Y0031824D01*
X0200000Y0032423D02*
X0053323Y0032423D01*
X0053189Y0033021D02*
X0057900Y0033021D01*
X0058410Y0032511D02*
X0060390Y0032511D01*
X0061789Y0033910D01*
X0061789Y0035890D01*
X0060390Y0037289D01*
X0058410Y0037289D01*
X0057011Y0035890D01*
X0057011Y0033910D01*
X0058410Y0032511D01*
X0057302Y0033620D02*
X0052959Y0033620D01*
X0052360Y0034218D02*
X0057011Y0034218D01*
X0057011Y0034817D02*
X0002600Y0034817D01*
X0002600Y0035415D02*
X0057011Y0035415D01*
X0057135Y0036014D02*
X0002600Y0036014D01*
X0002600Y0036612D02*
X0037109Y0036612D01*
X0037110Y0036611D02*
X0039090Y0036611D01*
X0040489Y0038010D01*
X0040489Y0039990D01*
X0039090Y0041389D01*
X0037110Y0041389D01*
X0035711Y0039990D01*
X0035711Y0038010D01*
X0037110Y0036611D01*
X0036511Y0037211D02*
X0002600Y0037211D01*
X0002600Y0037809D02*
X0035912Y0037809D01*
X0035711Y0038408D02*
X0002600Y0038408D01*
X0002600Y0039006D02*
X0035711Y0039006D01*
X0035711Y0039605D02*
X0002600Y0039605D01*
X0002600Y0040203D02*
X0035925Y0040203D01*
X0036523Y0040802D02*
X0002600Y0040802D01*
X0002600Y0041400D02*
X0089611Y0041400D01*
X0089611Y0040802D02*
X0039677Y0040802D01*
X0040275Y0040203D02*
X0089611Y0040203D01*
X0089611Y0040110D02*
X0091010Y0038711D01*
X0092990Y0038711D01*
X0094389Y0040110D01*
X0094389Y0042090D01*
X0092990Y0043489D01*
X0091010Y0043489D01*
X0089611Y0042090D01*
X0089611Y0040110D01*
X0090117Y0039605D02*
X0040489Y0039605D01*
X0040489Y0039006D02*
X0090715Y0039006D01*
X0093285Y0039006D02*
X0200000Y0039006D01*
X0200000Y0038408D02*
X0040489Y0038408D01*
X0040288Y0037809D02*
X0200000Y0037809D01*
X0200000Y0037211D02*
X0060468Y0037211D01*
X0061066Y0036612D02*
X0200000Y0036612D01*
X0200000Y0036014D02*
X0061665Y0036014D01*
X0061789Y0035415D02*
X0200000Y0035415D01*
X0200000Y0034817D02*
X0061789Y0034817D01*
X0061789Y0034218D02*
X0200000Y0034218D01*
X0200000Y0033620D02*
X0061498Y0033620D01*
X0060900Y0033021D02*
X0200000Y0033021D01*
X0200000Y0039605D02*
X0093883Y0039605D01*
X0094389Y0040203D02*
X0200000Y0040203D01*
X0200000Y0040802D02*
X0094389Y0040802D01*
X0094389Y0041400D02*
X0200000Y0041400D01*
X0200000Y0041999D02*
X0136377Y0041999D01*
X0135790Y0041411D02*
X0137189Y0042810D01*
X0137189Y0044790D01*
X0135790Y0046189D01*
X0133810Y0046189D01*
X0132411Y0044790D01*
X0132411Y0042810D01*
X0133810Y0041411D01*
X0135790Y0041411D01*
X0136976Y0042597D02*
X0200000Y0042597D01*
X0200000Y0043196D02*
X0137189Y0043196D01*
X0137189Y0043794D02*
X0200000Y0043794D01*
X0200000Y0044393D02*
X0137189Y0044393D01*
X0136987Y0044991D02*
X0200000Y0044991D01*
X0200000Y0045590D02*
X0136389Y0045590D01*
X0135790Y0046188D02*
X0200000Y0046188D01*
X0200000Y0046787D02*
X0048589Y0046787D01*
X0048589Y0046710D02*
X0047190Y0045311D01*
X0045210Y0045311D01*
X0043811Y0046710D01*
X0043811Y0048690D01*
X0045210Y0050089D01*
X0047190Y0050089D01*
X0048589Y0048690D01*
X0048589Y0046710D01*
X0048589Y0047385D02*
X0200000Y0047385D01*
X0200000Y0047984D02*
X0048589Y0047984D01*
X0048589Y0048582D02*
X0200000Y0048582D01*
X0200000Y0049181D02*
X0048098Y0049181D01*
X0047499Y0049779D02*
X0200000Y0049779D01*
X0200000Y0050378D02*
X0002600Y0050378D01*
X0002600Y0050976D02*
X0200000Y0050976D01*
X0200000Y0051575D02*
X0002600Y0051575D01*
X0002600Y0052173D02*
X0179345Y0052173D01*
X0179519Y0052000D02*
X0183081Y0052000D01*
X0185600Y0054519D01*
X0185600Y0058081D01*
X0183081Y0060600D01*
X0179519Y0060600D01*
X0177000Y0058081D01*
X0177000Y0054519D01*
X0179519Y0052000D01*
X0178747Y0052772D02*
X0002600Y0052772D01*
X0002600Y0053370D02*
X0178148Y0053370D01*
X0177550Y0053969D02*
X0002600Y0053969D01*
X0002600Y0054568D02*
X0177000Y0054568D01*
X0177000Y0055166D02*
X0002600Y0055166D01*
X0002600Y0055765D02*
X0177000Y0055765D01*
X0177000Y0056363D02*
X0002600Y0056363D01*
X0002600Y0056962D02*
X0177000Y0056962D01*
X0177000Y0057560D02*
X0002600Y0057560D01*
X0002600Y0058159D02*
X0177077Y0058159D01*
X0177676Y0058757D02*
X0002600Y0058757D01*
X0002600Y0059356D02*
X0178274Y0059356D01*
X0178873Y0059954D02*
X0002600Y0059954D01*
X0002600Y0060553D02*
X0179472Y0060553D01*
X0179519Y0062000D02*
X0177000Y0064519D01*
X0177000Y0066000D01*
X0181000Y0066000D01*
X0181000Y0066600D01*
X0181000Y0070600D01*
X0179519Y0070600D01*
X0177000Y0068081D01*
X0177000Y0066600D01*
X0181000Y0066600D01*
X0181600Y0066600D01*
X0181600Y0070600D01*
X0183081Y0070600D01*
X0185600Y0068081D01*
X0185600Y0066600D01*
X0181600Y0066600D01*
X0181600Y0066000D01*
X0185600Y0066000D01*
X0185600Y0064519D01*
X0183081Y0062000D01*
X0181600Y0062000D01*
X0181600Y0066000D01*
X0181000Y0066000D01*
X0181000Y0062000D01*
X0179519Y0062000D01*
X0179171Y0062348D02*
X0034873Y0062348D01*
X0034275Y0061750D02*
X0200000Y0061750D01*
X0200000Y0062348D02*
X0193429Y0062348D01*
X0193081Y0062000D02*
X0195600Y0064519D01*
X0195600Y0066000D01*
X0191600Y0066000D01*
X0191600Y0066600D01*
X0191000Y0066600D01*
X0191000Y0070600D01*
X0189519Y0070600D01*
X0187000Y0068081D01*
X0187000Y0066600D01*
X0191000Y0066600D01*
X0191000Y0066000D01*
X0187000Y0066000D01*
X0187000Y0064519D01*
X0189519Y0062000D01*
X0191000Y0062000D01*
X0191000Y0066000D01*
X0191600Y0066000D01*
X0191600Y0062000D01*
X0193081Y0062000D01*
X0194028Y0062947D02*
X0200000Y0062947D01*
X0200000Y0063545D02*
X0194626Y0063545D01*
X0195225Y0064144D02*
X0200000Y0064144D01*
X0200000Y0064742D02*
X0195600Y0064742D01*
X0195600Y0065341D02*
X0200000Y0065341D01*
X0200000Y0065939D02*
X0195600Y0065939D01*
X0195600Y0066600D02*
X0195600Y0068081D01*
X0193081Y0070600D01*
X0191600Y0070600D01*
X0191600Y0066600D01*
X0195600Y0066600D01*
X0195600Y0067136D02*
X0200000Y0067136D01*
X0200000Y0066538D02*
X0191600Y0066538D01*
X0191600Y0067136D02*
X0191000Y0067136D01*
X0191000Y0066538D02*
X0181600Y0066538D01*
X0181600Y0067136D02*
X0181000Y0067136D01*
X0181000Y0066538D02*
X0002600Y0066538D01*
X0002600Y0067136D02*
X0177000Y0067136D01*
X0177000Y0067735D02*
X0069113Y0067735D01*
X0068990Y0067611D02*
X0070389Y0069010D01*
X0070389Y0070990D01*
X0068990Y0072389D01*
X0067010Y0072389D01*
X0065611Y0070990D01*
X0065611Y0069010D01*
X0067010Y0067611D01*
X0068990Y0067611D01*
X0069712Y0068333D02*
X0106788Y0068333D01*
X0107310Y0067811D02*
X0109290Y0067811D01*
X0110689Y0069210D01*
X0110689Y0070043D01*
X0119700Y0079054D01*
X0119700Y0077846D01*
X0117143Y0075289D01*
X0116310Y0075289D01*
X0114911Y0073890D01*
X0114911Y0071910D01*
X0116310Y0070511D01*
X0118290Y0070511D01*
X0119689Y0071910D01*
X0119689Y0072743D01*
X0122246Y0075300D01*
X0123300Y0076354D01*
X0123300Y0092921D01*
X0123810Y0092411D01*
X0125790Y0092411D01*
X0127189Y0093810D01*
X0127189Y0095790D01*
X0126600Y0096379D01*
X0126600Y0103146D01*
X0124831Y0104914D01*
X0123777Y0105968D01*
X0120998Y0105968D01*
X0120316Y0106650D01*
X0116484Y0106650D01*
X0115722Y0105888D01*
X0115722Y0102449D01*
X0115971Y0102200D01*
X0115722Y0101951D01*
X0115722Y0100147D01*
X0112541Y0100147D01*
X0112541Y0100316D01*
X0112541Y0101077D01*
X0112481Y0101300D01*
X0112541Y0101523D01*
X0112541Y0102284D01*
X0110404Y0102284D01*
X0110404Y0102284D01*
X0110404Y0102206D01*
X0110404Y0100316D01*
X0110404Y0100316D01*
X0108268Y0100316D01*
X0108268Y0101077D01*
X0108321Y0101275D01*
X0108300Y0101254D01*
X0107246Y0100200D01*
X0105754Y0100200D01*
X0105698Y0100256D01*
X0105622Y0100256D01*
X0105033Y0099667D01*
X0103054Y0099667D01*
X0101655Y0101067D01*
X0101655Y0102167D01*
X0100311Y0103510D01*
X0100311Y0105118D01*
X0099554Y0105118D01*
X0099493Y0105135D01*
X0099476Y0105118D01*
X0094304Y0105118D01*
X0094332Y0105014D01*
X0094332Y0104253D01*
X0092196Y0104253D01*
X0092196Y0104253D01*
X0094332Y0104253D01*
X0094332Y0103491D01*
X0094316Y0103430D01*
X0094332Y0103413D01*
X0094332Y0102611D01*
X0095610Y0103889D01*
X0097590Y0103889D01*
X0098989Y0102490D01*
X0098989Y0100510D01*
X0097590Y0099111D01*
X0095610Y0099111D01*
X0094332Y0100389D01*
X0094332Y0099187D01*
X0094316Y0099170D01*
X0094332Y0099109D01*
X0094332Y0098347D01*
X0092196Y0098347D01*
X0092196Y0098347D01*
X0094332Y0098347D01*
X0094332Y0097586D01*
X0094304Y0097482D01*
X0099476Y0097482D01*
X0099493Y0097465D01*
X0099554Y0097482D01*
X0100316Y0097482D01*
X0100316Y0095149D01*
X0100316Y0095149D01*
X0100316Y0097482D01*
X0101077Y0097482D01*
X0101139Y0097465D01*
X0101155Y0097482D01*
X0108268Y0097482D01*
X0108268Y0099476D01*
X0108284Y0099493D01*
X0108268Y0099554D01*
X0108268Y0100316D01*
X0110404Y0100316D01*
X0110404Y0100316D01*
X0110404Y0102284D01*
X0110404Y0104175D01*
X0110404Y0104253D01*
X0110404Y0104253D01*
X0112541Y0104253D01*
X0112541Y0105014D01*
X0112452Y0105345D01*
X0112281Y0105642D01*
X0112039Y0105884D01*
X0111963Y0105927D01*
X0112049Y0106247D01*
X0112049Y0107452D01*
X0112049Y0108656D01*
X0111960Y0108987D01*
X0111789Y0109283D01*
X0111547Y0109525D01*
X0111251Y0109696D01*
X0110920Y0109785D01*
X0110158Y0109785D01*
X0109397Y0109785D01*
X0109335Y0109769D01*
X0109319Y0109785D01*
X0104084Y0109785D01*
X0104084Y0111070D01*
X0105264Y0112250D01*
X0107116Y0112250D01*
X0107878Y0113012D01*
X0107878Y0116451D01*
X0107629Y0116700D01*
X0107798Y0116869D01*
X0113914Y0116869D01*
X0114968Y0117923D01*
X0128100Y0131054D01*
X0128100Y0133721D01*
X0128689Y0134310D01*
X0128689Y0136290D01*
X0127290Y0137689D01*
X0125310Y0137689D01*
X0123911Y0136290D01*
X0123911Y0134310D01*
X0124500Y0133721D01*
X0124500Y0132546D01*
X0112423Y0120468D01*
X0107798Y0120468D01*
X0107116Y0121150D01*
X0103284Y0121150D01*
X0102522Y0120388D01*
X0102522Y0116949D01*
X0102771Y0116700D01*
X0102522Y0116451D01*
X0102522Y0114599D01*
X0101539Y0113616D01*
X0100484Y0112561D01*
X0100484Y0109785D01*
X0100316Y0109785D01*
X0100316Y0107452D01*
X0100316Y0107452D01*
X0100316Y0109785D01*
X0100147Y0109785D01*
X0100147Y0113339D01*
X0099772Y0113715D01*
X0099772Y0116157D01*
X0099091Y0116838D01*
X0099270Y0116941D01*
X0099512Y0117183D01*
X0099683Y0117479D01*
X0099772Y0117810D01*
X0099772Y0119059D01*
X0097000Y0119059D01*
X0097000Y0119659D01*
X0099772Y0119659D01*
X0099772Y0120908D01*
X0099683Y0121239D01*
X0099512Y0121535D01*
X0099270Y0121777D01*
X0098973Y0121948D01*
X0098643Y0122037D01*
X0097000Y0122037D01*
X0097000Y0119659D01*
X0096400Y0119659D01*
X0096400Y0119059D01*
X0093628Y0119059D01*
X0093628Y0117810D01*
X0093717Y0117479D01*
X0093888Y0117183D01*
X0094130Y0116941D01*
X0094309Y0116838D01*
X0093628Y0116157D01*
X0093628Y0112325D01*
X0094390Y0111563D01*
X0096547Y0111563D01*
X0096547Y0109785D01*
X0093281Y0109785D01*
X0093265Y0109769D01*
X0093203Y0109785D01*
X0092442Y0109785D01*
X0092442Y0107452D01*
X0092442Y0107452D01*
X0092442Y0109785D01*
X0091680Y0109785D01*
X0091349Y0109696D01*
X0091053Y0109525D01*
X0090811Y0109283D01*
X0090640Y0108987D01*
X0090551Y0108656D01*
X0090551Y0107452D01*
X0092442Y0107452D01*
X0092442Y0107452D01*
X0090551Y0107452D01*
X0090551Y0106247D01*
X0090637Y0105927D01*
X0090561Y0105884D01*
X0090319Y0105642D01*
X0090148Y0105345D01*
X0090059Y0105014D01*
X0090059Y0104253D01*
X0092196Y0104253D01*
X0092196Y0104253D01*
X0090059Y0104253D01*
X0090059Y0104084D01*
X0086978Y0104084D01*
X0086978Y0106351D01*
X0086729Y0106600D01*
X0086978Y0106849D01*
X0086978Y0110288D01*
X0086216Y0111050D01*
X0082384Y0111050D01*
X0081622Y0110288D01*
X0081622Y0109814D01*
X0076400Y0104592D01*
X0076400Y0093995D01*
X0075901Y0093496D01*
X0074842Y0092437D01*
X0073390Y0092437D01*
X0073212Y0092259D01*
X0073171Y0092259D01*
X0072614Y0092816D01*
X0072614Y0094658D01*
X0071852Y0095419D01*
X0069529Y0095419D01*
X0069432Y0095460D01*
X0068437Y0095460D01*
X0068340Y0095419D01*
X0066700Y0095419D01*
X0066700Y0097981D01*
X0071852Y0097981D01*
X0072614Y0098742D01*
X0072614Y0102138D01*
X0071852Y0102900D01*
X0066016Y0102900D01*
X0065255Y0102138D01*
X0065255Y0101981D01*
X0064676Y0102560D01*
X0063757Y0102940D01*
X0054137Y0102940D01*
X0054137Y0103710D01*
X0053375Y0104472D01*
X0053259Y0104472D01*
X0053259Y0105787D01*
X0051400Y0107646D01*
X0050346Y0108700D01*
X0025737Y0108700D01*
X0025737Y0109810D01*
X0024975Y0110572D01*
X0021143Y0110572D01*
X0020462Y0109891D01*
X0020359Y0110070D01*
X0020117Y0110312D01*
X0019821Y0110483D01*
X0019490Y0110572D01*
X0018241Y0110572D01*
X0018241Y0107800D01*
X0017641Y0107800D01*
X0017641Y0110572D01*
X0016392Y0110572D01*
X0016061Y0110483D01*
X0015765Y0110312D01*
X0015523Y0110070D01*
X0015352Y0109773D01*
X0015263Y0109443D01*
X0015263Y0107800D01*
X0017641Y0107800D01*
X0017641Y0107200D01*
X0018241Y0107200D01*
X0018241Y0104428D01*
X0019490Y0104428D01*
X0019821Y0104517D01*
X0020117Y0104688D01*
X0020359Y0104930D01*
X0020462Y0105109D01*
X0021143Y0104428D01*
X0022876Y0104428D01*
X0022700Y0104252D01*
X0022700Y0098416D01*
X0023462Y0097655D01*
X0026858Y0097655D01*
X0027053Y0097850D01*
X0027239Y0097743D01*
X0027569Y0097655D01*
X0028620Y0097655D01*
X0028620Y0101054D01*
X0029180Y0101054D01*
X0029180Y0097655D01*
X0030231Y0097655D01*
X0030561Y0097743D01*
X0030747Y0097850D01*
X0030942Y0097655D01*
X0033774Y0097655D01*
X0035974Y0095454D01*
X0036881Y0094547D01*
X0036522Y0094188D01*
X0036522Y0090749D01*
X0036771Y0090500D01*
X0036522Y0090251D01*
X0036522Y0086812D01*
X0037284Y0086050D01*
X0039136Y0086050D01*
X0040000Y0085186D01*
X0040000Y0084779D01*
X0039411Y0084190D01*
X0039411Y0082210D01*
X0040810Y0080811D01*
X0042790Y0080811D01*
X0044189Y0082210D01*
X0044189Y0084190D01*
X0043600Y0084779D01*
X0043600Y0086677D01*
X0042546Y0087731D01*
X0041878Y0088399D01*
X0041878Y0090251D01*
X0041629Y0090500D01*
X0041878Y0090749D01*
X0041878Y0093811D01*
X0042890Y0093811D01*
X0044289Y0095210D01*
X0044289Y0097190D01*
X0042890Y0098589D01*
X0040910Y0098589D01*
X0040321Y0098000D01*
X0038520Y0098000D01*
X0035100Y0101420D01*
X0035100Y0104252D01*
X0034338Y0105014D01*
X0030942Y0105014D01*
X0030747Y0104818D01*
X0030561Y0104925D01*
X0030231Y0105014D01*
X0029180Y0105014D01*
X0029180Y0101614D01*
X0028620Y0101614D01*
X0028620Y0105014D01*
X0027569Y0105014D01*
X0027239Y0104925D01*
X0027053Y0104818D01*
X0026960Y0104912D01*
X0026960Y0105100D01*
X0048854Y0105100D01*
X0049513Y0104442D01*
X0048862Y0103791D01*
X0048759Y0103970D01*
X0048517Y0104212D01*
X0048221Y0104383D01*
X0047890Y0104472D01*
X0046641Y0104472D01*
X0046641Y0101700D01*
X0046041Y0101700D01*
X0046041Y0104472D01*
X0044792Y0104472D01*
X0044461Y0104383D01*
X0044165Y0104212D01*
X0043923Y0103970D01*
X0043752Y0103673D01*
X0043663Y0103343D01*
X0043663Y0101700D01*
X0046041Y0101700D01*
X0046041Y0101100D01*
X0046641Y0101100D01*
X0046641Y0098328D01*
X0047890Y0098328D01*
X0048221Y0098417D01*
X0048517Y0098588D01*
X0048759Y0098830D01*
X0048862Y0099009D01*
X0049543Y0098328D01*
X0050995Y0098328D01*
X0051003Y0098321D01*
X0051922Y0097940D01*
X0055386Y0097940D01*
X0055386Y0096980D01*
X0058786Y0096980D01*
X0058786Y0096420D01*
X0055386Y0096420D01*
X0055386Y0095369D01*
X0055442Y0095161D01*
X0055244Y0095079D01*
X0050484Y0090319D01*
X0049781Y0089616D01*
X0049400Y0088697D01*
X0049400Y0079903D01*
X0049511Y0079635D01*
X0049511Y0079410D01*
X0049670Y0079252D01*
X0049781Y0078984D01*
X0050484Y0078281D01*
X0050752Y0078170D01*
X0050910Y0078011D01*
X0051135Y0078011D01*
X0051403Y0077900D01*
X0052397Y0077900D01*
X0052665Y0078011D01*
X0052890Y0078011D01*
X0053048Y0078170D01*
X0053316Y0078281D01*
X0054019Y0078984D01*
X0054130Y0079252D01*
X0054289Y0079410D01*
X0054289Y0079635D01*
X0054400Y0079903D01*
X0054400Y0085221D01*
X0055610Y0084011D01*
X0057590Y0084011D01*
X0058179Y0084600D01*
X0060754Y0084600D01*
X0068854Y0076500D01*
X0081221Y0076500D01*
X0081810Y0075911D01*
X0083790Y0075911D01*
X0084750Y0076871D01*
X0085910Y0075711D01*
X0087890Y0075711D01*
X0089289Y0077110D01*
X0089289Y0079090D01*
X0087890Y0080489D01*
X0085910Y0080489D01*
X0084950Y0079529D01*
X0083790Y0080689D01*
X0081810Y0080689D01*
X0081221Y0080100D01*
X0070346Y0080100D01*
X0070235Y0080211D01*
X0071890Y0080211D01*
X0073289Y0081610D01*
X0073289Y0082131D01*
X0073427Y0082052D01*
X0073757Y0081963D01*
X0075400Y0081963D01*
X0075400Y0084341D01*
X0072628Y0084341D01*
X0072628Y0084250D01*
X0071890Y0084989D01*
X0069910Y0084989D01*
X0068511Y0083590D01*
X0068511Y0081935D01*
X0066346Y0084100D01*
X0066697Y0084100D01*
X0066965Y0084211D01*
X0067190Y0084211D01*
X0067348Y0084370D01*
X0067616Y0084481D01*
X0068319Y0085184D01*
X0068430Y0085452D01*
X0068589Y0085610D01*
X0068589Y0085835D01*
X0068700Y0086103D01*
X0068700Y0089190D01*
X0068934Y0089424D01*
X0070016Y0088343D01*
X0070719Y0087640D01*
X0071638Y0087259D01*
X0073212Y0087259D01*
X0073309Y0087162D01*
X0073130Y0087059D01*
X0072888Y0086817D01*
X0072717Y0086521D01*
X0072628Y0086190D01*
X0072628Y0084941D01*
X0075400Y0084941D01*
X0075400Y0084341D01*
X0076000Y0084341D01*
X0076000Y0084941D01*
X0078772Y0084941D01*
X0078772Y0086190D01*
X0078683Y0086521D01*
X0078512Y0086817D01*
X0078270Y0087059D01*
X0078091Y0087162D01*
X0078772Y0087843D01*
X0078772Y0089295D01*
X0079437Y0089960D01*
X0081228Y0091752D01*
X0081228Y0091641D01*
X0084000Y0091641D01*
X0084000Y0091041D01*
X0081228Y0091041D01*
X0081228Y0089792D01*
X0081317Y0089461D01*
X0081488Y0089165D01*
X0081730Y0088923D01*
X0082027Y0088752D01*
X0082357Y0088663D01*
X0084000Y0088663D01*
X0084000Y0091041D01*
X0084600Y0091041D01*
X0084600Y0091641D01*
X0087372Y0091641D01*
X0087372Y0092890D01*
X0087283Y0093221D01*
X0087112Y0093517D01*
X0086870Y0093759D01*
X0086691Y0093862D01*
X0087372Y0094543D01*
X0087372Y0098375D01*
X0087231Y0098516D01*
X0090059Y0098516D01*
X0090059Y0098347D01*
X0090059Y0097586D01*
X0090148Y0097255D01*
X0090319Y0096958D01*
X0090554Y0096723D01*
X0090551Y0096720D01*
X0090551Y0093576D01*
X0091313Y0092815D01*
X0092610Y0092815D01*
X0092610Y0088154D01*
X0099757Y0081008D01*
X0099757Y0077135D01*
X0099211Y0076590D01*
X0099211Y0074610D01*
X0100610Y0073211D01*
X0102590Y0073211D01*
X0103989Y0074610D01*
X0103989Y0076590D01*
X0103357Y0077222D01*
X0103357Y0081008D01*
X0103680Y0081331D01*
X0107502Y0081331D01*
X0108184Y0080650D01*
X0112016Y0080650D01*
X0112778Y0081412D01*
X0112778Y0084851D01*
X0112529Y0085100D01*
X0112698Y0085269D01*
X0115186Y0085269D01*
X0116400Y0084054D01*
X0116400Y0080846D01*
X0108143Y0072589D01*
X0107310Y0072589D01*
X0105911Y0071190D01*
X0105911Y0069210D01*
X0107310Y0067811D01*
X0106190Y0068932D02*
X0070310Y0068932D01*
X0070389Y0069530D02*
X0105911Y0069530D01*
X0105911Y0070129D02*
X0070389Y0070129D01*
X0070389Y0070727D02*
X0105911Y0070727D01*
X0106047Y0071326D02*
X0092104Y0071326D01*
X0091990Y0071211D02*
X0093389Y0072610D01*
X0093389Y0074590D01*
X0091990Y0075989D01*
X0090010Y0075989D01*
X0088611Y0074590D01*
X0088611Y0072610D01*
X0090010Y0071211D01*
X0091990Y0071211D01*
X0092703Y0071924D02*
X0106646Y0071924D01*
X0107244Y0072523D02*
X0093301Y0072523D01*
X0093389Y0073121D02*
X0108676Y0073121D01*
X0109274Y0073720D02*
X0103098Y0073720D01*
X0103697Y0074318D02*
X0109873Y0074318D01*
X0110471Y0074917D02*
X0103989Y0074917D01*
X0103989Y0075515D02*
X0111070Y0075515D01*
X0111668Y0076114D02*
X0103989Y0076114D01*
X0103866Y0076712D02*
X0112267Y0076712D01*
X0112865Y0077311D02*
X0103357Y0077311D01*
X0103357Y0077909D02*
X0113464Y0077909D01*
X0114062Y0078508D02*
X0103357Y0078508D01*
X0103357Y0079106D02*
X0114661Y0079106D01*
X0115259Y0079705D02*
X0103357Y0079705D01*
X0103357Y0080303D02*
X0115858Y0080303D01*
X0116400Y0080902D02*
X0112268Y0080902D01*
X0112778Y0081501D02*
X0116400Y0081501D01*
X0116400Y0082099D02*
X0112778Y0082099D01*
X0112778Y0082698D02*
X0116400Y0082698D01*
X0116400Y0083296D02*
X0112778Y0083296D01*
X0112778Y0083895D02*
X0116400Y0083895D01*
X0115961Y0084493D02*
X0112778Y0084493D01*
X0112537Y0085092D02*
X0115363Y0085092D01*
X0107671Y0085100D02*
X0107502Y0084931D01*
X0102189Y0084931D01*
X0101557Y0084299D01*
X0096210Y0089646D01*
X0096210Y0092815D01*
X0099476Y0092815D01*
X0099493Y0092831D01*
X0099554Y0092815D01*
X0100316Y0092815D01*
X0101077Y0092815D01*
X0101139Y0092831D01*
X0101155Y0092815D01*
X0108300Y0092815D01*
X0108300Y0089550D01*
X0108184Y0089550D01*
X0107422Y0088788D01*
X0107422Y0085349D01*
X0107671Y0085100D01*
X0107663Y0085092D02*
X0100764Y0085092D01*
X0100166Y0085690D02*
X0107422Y0085690D01*
X0107422Y0086289D02*
X0099567Y0086289D01*
X0098969Y0086887D02*
X0107422Y0086887D01*
X0107422Y0087486D02*
X0098370Y0087486D01*
X0097772Y0088084D02*
X0107422Y0088084D01*
X0107422Y0088683D02*
X0097173Y0088683D01*
X0096575Y0089281D02*
X0107915Y0089281D01*
X0108300Y0089880D02*
X0096210Y0089880D01*
X0096210Y0090478D02*
X0108300Y0090478D01*
X0108300Y0091077D02*
X0096210Y0091077D01*
X0096210Y0091675D02*
X0108300Y0091675D01*
X0108300Y0092274D02*
X0096210Y0092274D01*
X0092610Y0092274D02*
X0087372Y0092274D01*
X0087372Y0092872D02*
X0091255Y0092872D01*
X0090657Y0093471D02*
X0087139Y0093471D01*
X0086898Y0094069D02*
X0090551Y0094069D01*
X0090551Y0094668D02*
X0087372Y0094668D01*
X0087372Y0095266D02*
X0090551Y0095266D01*
X0090551Y0095865D02*
X0087372Y0095865D01*
X0087372Y0096463D02*
X0090551Y0096463D01*
X0090259Y0097062D02*
X0087372Y0097062D01*
X0087372Y0097660D02*
X0090059Y0097660D01*
X0090059Y0098259D02*
X0087372Y0098259D01*
X0090059Y0098347D02*
X0092196Y0098347D01*
X0092196Y0098347D01*
X0090059Y0098347D01*
X0094332Y0098259D02*
X0108268Y0098259D01*
X0108268Y0098857D02*
X0094332Y0098857D01*
X0094332Y0099456D02*
X0095266Y0099456D01*
X0094667Y0100054D02*
X0094332Y0100054D01*
X0094332Y0097660D02*
X0108268Y0097660D01*
X0108268Y0099456D02*
X0097934Y0099456D01*
X0098533Y0100054D02*
X0102667Y0100054D01*
X0102069Y0100653D02*
X0098989Y0100653D01*
X0098989Y0101251D02*
X0101655Y0101251D01*
X0101655Y0101850D02*
X0098989Y0101850D01*
X0098989Y0102448D02*
X0101373Y0102448D01*
X0100775Y0103047D02*
X0098432Y0103047D01*
X0097833Y0103645D02*
X0100311Y0103645D01*
X0100311Y0104244D02*
X0094332Y0104244D01*
X0094332Y0104842D02*
X0100311Y0104842D01*
X0100316Y0107835D02*
X0100316Y0107835D01*
X0100316Y0108434D02*
X0100316Y0108434D01*
X0100316Y0109032D02*
X0100316Y0109032D01*
X0100316Y0109631D02*
X0100316Y0109631D01*
X0100147Y0110229D02*
X0100484Y0110229D01*
X0100484Y0110828D02*
X0100147Y0110828D01*
X0100147Y0111426D02*
X0100484Y0111426D01*
X0100484Y0112025D02*
X0100147Y0112025D01*
X0100147Y0112623D02*
X0100546Y0112623D01*
X0100147Y0113222D02*
X0101145Y0113222D01*
X0101743Y0113820D02*
X0099772Y0113820D01*
X0099772Y0114419D02*
X0102342Y0114419D01*
X0102522Y0115017D02*
X0099772Y0115017D01*
X0099772Y0115616D02*
X0102522Y0115616D01*
X0102522Y0116214D02*
X0099715Y0116214D01*
X0099116Y0116813D02*
X0102658Y0116813D01*
X0102522Y0117411D02*
X0099644Y0117411D01*
X0099772Y0118010D02*
X0102522Y0118010D01*
X0102522Y0118608D02*
X0099772Y0118608D01*
X0099772Y0119805D02*
X0102522Y0119805D01*
X0102522Y0119207D02*
X0097000Y0119207D01*
X0097000Y0119805D02*
X0096400Y0119805D01*
X0096400Y0119659D02*
X0096400Y0122037D01*
X0094757Y0122037D01*
X0094427Y0121948D01*
X0094130Y0121777D01*
X0093888Y0121535D01*
X0093717Y0121239D01*
X0093628Y0120908D01*
X0093628Y0119659D01*
X0096400Y0119659D01*
X0096400Y0119207D02*
X0075189Y0119207D01*
X0075189Y0119805D02*
X0093628Y0119805D01*
X0093628Y0120404D02*
X0075075Y0120404D01*
X0075189Y0120290D02*
X0073790Y0121689D01*
X0071810Y0121689D01*
X0070411Y0120290D01*
X0070411Y0118310D01*
X0071810Y0116911D01*
X0073790Y0116911D01*
X0075189Y0118310D01*
X0075189Y0120290D01*
X0074476Y0121002D02*
X0093654Y0121002D01*
X0093954Y0121601D02*
X0073878Y0121601D01*
X0071722Y0121601D02*
X0067479Y0121601D01*
X0067689Y0121810D02*
X0066290Y0120411D01*
X0064310Y0120411D01*
X0062911Y0121810D01*
X0062911Y0123790D01*
X0064310Y0125189D01*
X0066033Y0125189D01*
X0065911Y0125310D01*
X0065911Y0127290D01*
X0067310Y0128689D01*
X0069290Y0128689D01*
X0070689Y0127290D01*
X0070689Y0125310D01*
X0069290Y0123911D01*
X0067567Y0123911D01*
X0067689Y0123790D01*
X0067689Y0121810D01*
X0067689Y0122199D02*
X0114154Y0122199D01*
X0114752Y0122798D02*
X0086676Y0122798D01*
X0086190Y0122311D02*
X0087589Y0123710D01*
X0087589Y0125690D01*
X0086190Y0127089D01*
X0084210Y0127089D01*
X0082811Y0125690D01*
X0082811Y0123710D01*
X0084210Y0122311D01*
X0086190Y0122311D01*
X0087275Y0123396D02*
X0115351Y0123396D01*
X0115949Y0123995D02*
X0087589Y0123995D01*
X0087589Y0124593D02*
X0100628Y0124593D01*
X0100810Y0124411D02*
X0102790Y0124411D01*
X0104189Y0125810D01*
X0104189Y0127790D01*
X0102790Y0129189D01*
X0100810Y0129189D01*
X0099411Y0127790D01*
X0099411Y0125810D01*
X0100810Y0124411D01*
X0100030Y0125192D02*
X0087589Y0125192D01*
X0087488Y0125790D02*
X0099431Y0125790D01*
X0099411Y0126389D02*
X0086890Y0126389D01*
X0086291Y0126987D02*
X0099411Y0126987D01*
X0099411Y0127586D02*
X0070393Y0127586D01*
X0070689Y0126987D02*
X0084109Y0126987D01*
X0083510Y0126389D02*
X0070689Y0126389D01*
X0070689Y0125790D02*
X0082912Y0125790D01*
X0082811Y0125192D02*
X0070570Y0125192D01*
X0069972Y0124593D02*
X0082811Y0124593D01*
X0082811Y0123995D02*
X0069373Y0123995D01*
X0067689Y0123396D02*
X0083125Y0123396D01*
X0083724Y0122798D02*
X0067689Y0122798D01*
X0066881Y0121002D02*
X0071124Y0121002D01*
X0070525Y0120404D02*
X0002600Y0120404D01*
X0002600Y0121002D02*
X0063719Y0121002D01*
X0063121Y0121601D02*
X0002600Y0121601D01*
X0002600Y0122199D02*
X0062911Y0122199D01*
X0062911Y0122798D02*
X0002600Y0122798D01*
X0002600Y0123396D02*
X0062911Y0123396D01*
X0063116Y0123995D02*
X0002600Y0123995D01*
X0002600Y0124593D02*
X0063715Y0124593D01*
X0066030Y0125192D02*
X0002600Y0125192D01*
X0002600Y0125790D02*
X0065911Y0125790D01*
X0065911Y0126389D02*
X0002600Y0126389D01*
X0002600Y0126987D02*
X0065911Y0126987D01*
X0066207Y0127586D02*
X0002600Y0127586D01*
X0002600Y0128184D02*
X0066806Y0128184D01*
X0069794Y0128184D02*
X0099806Y0128184D01*
X0100404Y0128783D02*
X0002600Y0128783D01*
X0002600Y0129381D02*
X0112003Y0129381D01*
X0112310Y0129689D02*
X0110911Y0128290D01*
X0110911Y0126310D01*
X0112310Y0124911D01*
X0114290Y0124911D01*
X0115689Y0126310D01*
X0115689Y0128290D01*
X0114290Y0129689D01*
X0112310Y0129689D01*
X0111404Y0128783D02*
X0103196Y0128783D01*
X0103794Y0128184D02*
X0110911Y0128184D01*
X0110911Y0127586D02*
X0104189Y0127586D01*
X0104189Y0126987D02*
X0110911Y0126987D01*
X0110911Y0126389D02*
X0104189Y0126389D01*
X0104169Y0125790D02*
X0111431Y0125790D01*
X0112030Y0125192D02*
X0103570Y0125192D01*
X0102972Y0124593D02*
X0116548Y0124593D01*
X0117146Y0125192D02*
X0114570Y0125192D01*
X0115169Y0125790D02*
X0117745Y0125790D01*
X0118343Y0126389D02*
X0115689Y0126389D01*
X0115689Y0126987D02*
X0118942Y0126987D01*
X0119540Y0127586D02*
X0115689Y0127586D01*
X0115689Y0128184D02*
X0120139Y0128184D01*
X0120737Y0128783D02*
X0115196Y0128783D01*
X0114597Y0129381D02*
X0121336Y0129381D01*
X0121934Y0129980D02*
X0002600Y0129980D01*
X0002600Y0130578D02*
X0122533Y0130578D01*
X0123131Y0131177D02*
X0002600Y0131177D01*
X0002600Y0131775D02*
X0123730Y0131775D01*
X0124328Y0132374D02*
X0002600Y0132374D01*
X0002600Y0132972D02*
X0124500Y0132972D01*
X0124500Y0133571D02*
X0002600Y0133571D01*
X0002600Y0134170D02*
X0124052Y0134170D01*
X0123911Y0134768D02*
X0038147Y0134768D01*
X0037590Y0134211D02*
X0038989Y0135610D01*
X0038989Y0137590D01*
X0037590Y0138989D01*
X0035610Y0138989D01*
X0034211Y0137590D01*
X0034211Y0135610D01*
X0035610Y0134211D01*
X0037590Y0134211D01*
X0038745Y0135367D02*
X0123911Y0135367D01*
X0123911Y0135965D02*
X0038989Y0135965D01*
X0038989Y0136564D02*
X0124185Y0136564D01*
X0124784Y0137162D02*
X0038989Y0137162D01*
X0038818Y0137761D02*
X0177000Y0137761D01*
X0177000Y0138081D02*
X0177000Y0134519D01*
X0179519Y0132000D01*
X0183081Y0132000D01*
X0185600Y0134519D01*
X0185600Y0138081D01*
X0183081Y0140600D01*
X0179519Y0140600D01*
X0177000Y0138081D01*
X0177278Y0138359D02*
X0038219Y0138359D01*
X0037621Y0138958D02*
X0177877Y0138958D01*
X0178475Y0139556D02*
X0002600Y0139556D01*
X0002600Y0138958D02*
X0035579Y0138958D01*
X0034981Y0138359D02*
X0002600Y0138359D01*
X0002600Y0137761D02*
X0034382Y0137761D01*
X0034211Y0137162D02*
X0002600Y0137162D01*
X0002600Y0136564D02*
X0034211Y0136564D01*
X0034211Y0135965D02*
X0002600Y0135965D01*
X0002600Y0135367D02*
X0034455Y0135367D01*
X0035053Y0134768D02*
X0002600Y0134768D01*
X0002600Y0140155D02*
X0179074Y0140155D01*
X0179519Y0142000D02*
X0183081Y0142000D01*
X0185600Y0144519D01*
X0185600Y0148081D01*
X0183081Y0150600D01*
X0179519Y0150600D01*
X0177000Y0148081D01*
X0177000Y0144519D01*
X0179519Y0142000D01*
X0178970Y0142549D02*
X0131589Y0142549D01*
X0131589Y0142010D02*
X0130190Y0140611D01*
X0128210Y0140611D01*
X0126811Y0142010D01*
X0126811Y0143990D01*
X0128210Y0145389D01*
X0130190Y0145389D01*
X0131589Y0143990D01*
X0131589Y0142010D01*
X0131529Y0141950D02*
X0200000Y0141950D01*
X0200000Y0141352D02*
X0130930Y0141352D01*
X0130332Y0140753D02*
X0200000Y0140753D01*
X0200000Y0140155D02*
X0193526Y0140155D01*
X0193081Y0140600D02*
X0189519Y0140600D01*
X0187000Y0138081D01*
X0187000Y0134519D01*
X0189519Y0132000D01*
X0193081Y0132000D01*
X0195600Y0134519D01*
X0195600Y0138081D01*
X0193081Y0140600D01*
X0193081Y0142000D02*
X0195600Y0144519D01*
X0195600Y0146000D01*
X0191600Y0146000D01*
X0191600Y0146600D01*
X0191000Y0146600D01*
X0191000Y0150600D01*
X0189519Y0150600D01*
X0187000Y0148081D01*
X0187000Y0146600D01*
X0191000Y0146600D01*
X0191000Y0146000D01*
X0187000Y0146000D01*
X0187000Y0144519D01*
X0189519Y0142000D01*
X0191000Y0142000D01*
X0191000Y0146000D01*
X0191600Y0146000D01*
X0191600Y0142000D01*
X0193081Y0142000D01*
X0193630Y0142549D02*
X0200000Y0142549D01*
X0200000Y0143147D02*
X0194228Y0143147D01*
X0194827Y0143746D02*
X0200000Y0143746D01*
X0200000Y0144344D02*
X0195425Y0144344D01*
X0195600Y0144943D02*
X0200000Y0144943D01*
X0200000Y0145541D02*
X0195600Y0145541D01*
X0195600Y0146600D02*
X0191600Y0146600D01*
X0191600Y0150600D01*
X0193081Y0150600D01*
X0195600Y0148081D01*
X0195600Y0146600D01*
X0195600Y0146738D02*
X0200000Y0146738D01*
X0200000Y0146140D02*
X0191600Y0146140D01*
X0191600Y0146738D02*
X0191000Y0146738D01*
X0191000Y0146140D02*
X0185600Y0146140D01*
X0185600Y0146738D02*
X0187000Y0146738D01*
X0187000Y0147337D02*
X0185600Y0147337D01*
X0185600Y0147935D02*
X0187000Y0147935D01*
X0187453Y0148534D02*
X0185147Y0148534D01*
X0184549Y0149132D02*
X0188051Y0149132D01*
X0188650Y0149731D02*
X0183950Y0149731D01*
X0183352Y0150329D02*
X0189248Y0150329D01*
X0191000Y0150329D02*
X0191600Y0150329D01*
X0191600Y0149731D02*
X0191000Y0149731D01*
X0191000Y0149132D02*
X0191600Y0149132D01*
X0191600Y0148534D02*
X0191000Y0148534D01*
X0191000Y0147935D02*
X0191600Y0147935D01*
X0191600Y0147337D02*
X0191000Y0147337D01*
X0191000Y0145541D02*
X0191600Y0145541D01*
X0191600Y0144943D02*
X0191000Y0144943D01*
X0191000Y0144344D02*
X0191600Y0144344D01*
X0191600Y0143746D02*
X0191000Y0143746D01*
X0191000Y0143147D02*
X0191600Y0143147D01*
X0191600Y0142549D02*
X0191000Y0142549D01*
X0188970Y0142549D02*
X0183630Y0142549D01*
X0184228Y0143147D02*
X0188372Y0143147D01*
X0187773Y0143746D02*
X0184827Y0143746D01*
X0185425Y0144344D02*
X0187175Y0144344D01*
X0187000Y0144943D02*
X0185600Y0144943D01*
X0185600Y0145541D02*
X0187000Y0145541D01*
X0189074Y0140155D02*
X0183526Y0140155D01*
X0184125Y0139556D02*
X0188475Y0139556D01*
X0187877Y0138958D02*
X0184723Y0138958D01*
X0185322Y0138359D02*
X0187278Y0138359D01*
X0187000Y0137761D02*
X0185600Y0137761D01*
X0185600Y0137162D02*
X0187000Y0137162D01*
X0187000Y0136564D02*
X0185600Y0136564D01*
X0185600Y0135965D02*
X0187000Y0135965D01*
X0187000Y0135367D02*
X0185600Y0135367D01*
X0185600Y0134768D02*
X0187000Y0134768D01*
X0187349Y0134170D02*
X0185251Y0134170D01*
X0184652Y0133571D02*
X0187948Y0133571D01*
X0188546Y0132972D02*
X0184054Y0132972D01*
X0183455Y0132374D02*
X0189145Y0132374D01*
X0189519Y0130600D02*
X0187000Y0128081D01*
X0187000Y0124519D01*
X0189519Y0122000D01*
X0193081Y0122000D01*
X0195600Y0124519D01*
X0195600Y0128081D01*
X0193081Y0130600D01*
X0189519Y0130600D01*
X0189497Y0130578D02*
X0183103Y0130578D01*
X0183081Y0130600D02*
X0179519Y0130600D01*
X0177000Y0128081D01*
X0177000Y0124519D01*
X0179519Y0122000D01*
X0183081Y0122000D01*
X0185600Y0124519D01*
X0185600Y0128081D01*
X0183081Y0130600D01*
X0183701Y0129980D02*
X0188899Y0129980D01*
X0188300Y0129381D02*
X0184300Y0129381D01*
X0184898Y0128783D02*
X0187702Y0128783D01*
X0187103Y0128184D02*
X0185497Y0128184D01*
X0185600Y0127586D02*
X0187000Y0127586D01*
X0187000Y0126987D02*
X0185600Y0126987D01*
X0185600Y0126389D02*
X0187000Y0126389D01*
X0187000Y0125790D02*
X0185600Y0125790D01*
X0185600Y0125192D02*
X0187000Y0125192D01*
X0187000Y0124593D02*
X0185600Y0124593D01*
X0185076Y0123995D02*
X0187524Y0123995D01*
X0188123Y0123396D02*
X0184477Y0123396D01*
X0183879Y0122798D02*
X0188721Y0122798D01*
X0189320Y0122199D02*
X0183280Y0122199D01*
X0183081Y0120600D02*
X0179519Y0120600D01*
X0177000Y0118081D01*
X0177000Y0114519D01*
X0179519Y0112000D01*
X0183081Y0112000D01*
X0185600Y0114519D01*
X0185600Y0118081D01*
X0183081Y0120600D01*
X0183277Y0120404D02*
X0189323Y0120404D01*
X0189519Y0120600D02*
X0187000Y0118081D01*
X0187000Y0114519D01*
X0189519Y0112000D01*
X0193081Y0112000D01*
X0195600Y0114519D01*
X0195600Y0118081D01*
X0193081Y0120600D01*
X0189519Y0120600D01*
X0188724Y0119805D02*
X0183876Y0119805D01*
X0184474Y0119207D02*
X0188126Y0119207D01*
X0187527Y0118608D02*
X0185073Y0118608D01*
X0185600Y0118010D02*
X0187000Y0118010D01*
X0187000Y0117411D02*
X0185600Y0117411D01*
X0185600Y0116813D02*
X0187000Y0116813D01*
X0187000Y0116214D02*
X0185600Y0116214D01*
X0185600Y0115616D02*
X0187000Y0115616D01*
X0187000Y0115017D02*
X0185600Y0115017D01*
X0185500Y0114419D02*
X0187100Y0114419D01*
X0187699Y0113820D02*
X0184901Y0113820D01*
X0184303Y0113222D02*
X0188297Y0113222D01*
X0188896Y0112623D02*
X0183704Y0112623D01*
X0183106Y0112025D02*
X0189494Y0112025D01*
X0189519Y0110600D02*
X0187000Y0108081D01*
X0187000Y0104519D01*
X0189519Y0102000D01*
X0193081Y0102000D01*
X0195600Y0104519D01*
X0195600Y0108081D01*
X0193081Y0110600D01*
X0189519Y0110600D01*
X0189148Y0110229D02*
X0183452Y0110229D01*
X0183081Y0110600D02*
X0179519Y0110600D01*
X0177000Y0108081D01*
X0177000Y0104519D01*
X0179519Y0102000D01*
X0183081Y0102000D01*
X0185600Y0104519D01*
X0185600Y0108081D01*
X0183081Y0110600D01*
X0184051Y0109631D02*
X0188549Y0109631D01*
X0187951Y0109032D02*
X0184649Y0109032D01*
X0185248Y0108434D02*
X0187352Y0108434D01*
X0187000Y0107835D02*
X0185600Y0107835D01*
X0185600Y0107237D02*
X0187000Y0107237D01*
X0187000Y0106638D02*
X0185600Y0106638D01*
X0185600Y0106039D02*
X0187000Y0106039D01*
X0187000Y0105441D02*
X0185600Y0105441D01*
X0185600Y0104842D02*
X0187000Y0104842D01*
X0187275Y0104244D02*
X0185325Y0104244D01*
X0184727Y0103645D02*
X0187873Y0103645D01*
X0188472Y0103047D02*
X0184128Y0103047D01*
X0183530Y0102448D02*
X0189070Y0102448D01*
X0189519Y0100600D02*
X0187000Y0098081D01*
X0187000Y0094519D01*
X0189519Y0092000D01*
X0193081Y0092000D01*
X0195600Y0094519D01*
X0195600Y0098081D01*
X0193081Y0100600D01*
X0189519Y0100600D01*
X0188973Y0100054D02*
X0183627Y0100054D01*
X0183081Y0100600D02*
X0179519Y0100600D01*
X0177000Y0098081D01*
X0177000Y0094519D01*
X0179519Y0092000D01*
X0183081Y0092000D01*
X0185600Y0094519D01*
X0185600Y0098081D01*
X0183081Y0100600D01*
X0184225Y0099456D02*
X0188375Y0099456D01*
X0187776Y0098857D02*
X0184824Y0098857D01*
X0185422Y0098259D02*
X0187178Y0098259D01*
X0187000Y0097660D02*
X0185600Y0097660D01*
X0185600Y0097062D02*
X0187000Y0097062D01*
X0187000Y0096463D02*
X0185600Y0096463D01*
X0185600Y0095865D02*
X0187000Y0095865D01*
X0187000Y0095266D02*
X0185600Y0095266D01*
X0185600Y0094668D02*
X0187000Y0094668D01*
X0187450Y0094069D02*
X0185150Y0094069D01*
X0184552Y0093471D02*
X0188048Y0093471D01*
X0188647Y0092872D02*
X0183953Y0092872D01*
X0183355Y0092274D02*
X0189245Y0092274D01*
X0189519Y0090600D02*
X0187000Y0088081D01*
X0187000Y0084519D01*
X0189519Y0082000D01*
X0193081Y0082000D01*
X0195600Y0084519D01*
X0195600Y0088081D01*
X0193081Y0090600D01*
X0189519Y0090600D01*
X0189397Y0090478D02*
X0183203Y0090478D01*
X0183081Y0090600D02*
X0179519Y0090600D01*
X0177000Y0088081D01*
X0177000Y0084519D01*
X0179519Y0082000D01*
X0183081Y0082000D01*
X0185600Y0084519D01*
X0185600Y0088081D01*
X0183081Y0090600D01*
X0183801Y0089880D02*
X0188799Y0089880D01*
X0188200Y0089281D02*
X0184400Y0089281D01*
X0184998Y0088683D02*
X0187602Y0088683D01*
X0187003Y0088084D02*
X0185597Y0088084D01*
X0185600Y0087486D02*
X0187000Y0087486D01*
X0187000Y0086887D02*
X0185600Y0086887D01*
X0185600Y0086289D02*
X0187000Y0086289D01*
X0187000Y0085690D02*
X0185600Y0085690D01*
X0185600Y0085092D02*
X0187000Y0085092D01*
X0187026Y0084493D02*
X0185574Y0084493D01*
X0184976Y0083895D02*
X0187624Y0083895D01*
X0188223Y0083296D02*
X0184377Y0083296D01*
X0183779Y0082698D02*
X0188821Y0082698D01*
X0189420Y0082099D02*
X0183180Y0082099D01*
X0183081Y0080600D02*
X0179519Y0080600D01*
X0177000Y0078081D01*
X0177000Y0074519D01*
X0179519Y0072000D01*
X0183081Y0072000D01*
X0185600Y0074519D01*
X0185600Y0078081D01*
X0183081Y0080600D01*
X0183378Y0080303D02*
X0189222Y0080303D01*
X0189519Y0080600D02*
X0187000Y0078081D01*
X0187000Y0074519D01*
X0189519Y0072000D01*
X0193081Y0072000D01*
X0195600Y0074519D01*
X0195600Y0078081D01*
X0193081Y0080600D01*
X0189519Y0080600D01*
X0188624Y0079705D02*
X0183976Y0079705D01*
X0184575Y0079106D02*
X0188025Y0079106D01*
X0187427Y0078508D02*
X0185173Y0078508D01*
X0185600Y0077909D02*
X0187000Y0077909D01*
X0187000Y0077311D02*
X0185600Y0077311D01*
X0185600Y0076712D02*
X0187000Y0076712D01*
X0187000Y0076114D02*
X0185600Y0076114D01*
X0185600Y0075515D02*
X0187000Y0075515D01*
X0187000Y0074917D02*
X0185600Y0074917D01*
X0185399Y0074318D02*
X0187201Y0074318D01*
X0187799Y0073720D02*
X0184801Y0073720D01*
X0184202Y0073121D02*
X0188398Y0073121D01*
X0188996Y0072523D02*
X0183604Y0072523D01*
X0183552Y0070129D02*
X0189048Y0070129D01*
X0188449Y0069530D02*
X0184151Y0069530D01*
X0184749Y0068932D02*
X0187851Y0068932D01*
X0187252Y0068333D02*
X0185348Y0068333D01*
X0185600Y0067735D02*
X0187000Y0067735D01*
X0187000Y0067136D02*
X0185600Y0067136D01*
X0185600Y0065939D02*
X0187000Y0065939D01*
X0187000Y0065341D02*
X0185600Y0065341D01*
X0185600Y0064742D02*
X0187000Y0064742D01*
X0187375Y0064144D02*
X0185225Y0064144D01*
X0184626Y0063545D02*
X0187974Y0063545D01*
X0188572Y0062947D02*
X0184028Y0062947D01*
X0183429Y0062348D02*
X0189171Y0062348D01*
X0189519Y0060600D02*
X0187000Y0058081D01*
X0187000Y0054519D01*
X0189519Y0052000D01*
X0193081Y0052000D01*
X0195600Y0054519D01*
X0195600Y0058081D01*
X0193081Y0060600D01*
X0189519Y0060600D01*
X0189472Y0060553D02*
X0183128Y0060553D01*
X0183727Y0059954D02*
X0188873Y0059954D01*
X0188274Y0059356D02*
X0184325Y0059356D01*
X0184924Y0058757D02*
X0187676Y0058757D01*
X0187077Y0058159D02*
X0185523Y0058159D01*
X0185600Y0057560D02*
X0187000Y0057560D01*
X0187000Y0056962D02*
X0185600Y0056962D01*
X0185600Y0056363D02*
X0187000Y0056363D01*
X0187000Y0055765D02*
X0185600Y0055765D01*
X0185600Y0055166D02*
X0187000Y0055166D01*
X0187000Y0054568D02*
X0185600Y0054568D01*
X0185050Y0053969D02*
X0187550Y0053969D01*
X0188148Y0053370D02*
X0184452Y0053370D01*
X0183853Y0052772D02*
X0188747Y0052772D01*
X0189345Y0052173D02*
X0183255Y0052173D01*
X0193255Y0052173D02*
X0200000Y0052173D01*
X0200000Y0052772D02*
X0193853Y0052772D01*
X0194452Y0053370D02*
X0200000Y0053370D01*
X0200000Y0053969D02*
X0195050Y0053969D01*
X0195600Y0054568D02*
X0200000Y0054568D01*
X0200000Y0055166D02*
X0195600Y0055166D01*
X0195600Y0055765D02*
X0200000Y0055765D01*
X0200000Y0056363D02*
X0195600Y0056363D01*
X0195600Y0056962D02*
X0200000Y0056962D01*
X0200000Y0057560D02*
X0195600Y0057560D01*
X0195523Y0058159D02*
X0200000Y0058159D01*
X0200000Y0058757D02*
X0194924Y0058757D01*
X0194325Y0059356D02*
X0200000Y0059356D01*
X0200000Y0059954D02*
X0193727Y0059954D01*
X0193128Y0060553D02*
X0200000Y0060553D01*
X0200000Y0061151D02*
X0002600Y0061151D01*
X0002600Y0061750D02*
X0032218Y0061750D01*
X0032257Y0061711D02*
X0034236Y0061711D01*
X0035635Y0063110D01*
X0035635Y0065090D01*
X0034236Y0066489D01*
X0032257Y0066489D01*
X0030857Y0065090D01*
X0030857Y0063110D01*
X0032257Y0061711D01*
X0031620Y0062348D02*
X0002600Y0062348D01*
X0002600Y0062947D02*
X0031021Y0062947D01*
X0030857Y0063545D02*
X0002600Y0063545D01*
X0002600Y0064144D02*
X0030857Y0064144D01*
X0030857Y0064742D02*
X0002600Y0064742D01*
X0002600Y0065341D02*
X0031109Y0065341D01*
X0031707Y0065939D02*
X0002600Y0065939D01*
X0002600Y0067735D02*
X0066887Y0067735D01*
X0066288Y0068333D02*
X0002600Y0068333D01*
X0002600Y0068932D02*
X0065690Y0068932D01*
X0065611Y0069530D02*
X0002600Y0069530D01*
X0002600Y0070129D02*
X0065611Y0070129D01*
X0065611Y0070727D02*
X0002600Y0070727D01*
X0002600Y0071326D02*
X0065947Y0071326D01*
X0066546Y0071924D02*
X0002600Y0071924D01*
X0002600Y0072523D02*
X0088699Y0072523D01*
X0088611Y0073121D02*
X0002600Y0073121D01*
X0002600Y0073720D02*
X0088611Y0073720D01*
X0088611Y0074318D02*
X0002600Y0074318D01*
X0002600Y0074917D02*
X0088938Y0074917D01*
X0089537Y0075515D02*
X0002600Y0075515D01*
X0002600Y0076114D02*
X0081608Y0076114D01*
X0083992Y0076114D02*
X0085508Y0076114D01*
X0084909Y0076712D02*
X0084591Y0076712D01*
X0084774Y0079705D02*
X0085126Y0079705D01*
X0085725Y0080303D02*
X0084175Y0080303D01*
X0081425Y0080303D02*
X0071982Y0080303D01*
X0072581Y0080902D02*
X0099757Y0080902D01*
X0099757Y0080303D02*
X0088075Y0080303D01*
X0088674Y0079705D02*
X0099757Y0079705D01*
X0099757Y0079106D02*
X0089272Y0079106D01*
X0089289Y0078508D02*
X0099757Y0078508D01*
X0099757Y0077909D02*
X0089289Y0077909D01*
X0089289Y0077311D02*
X0099757Y0077311D01*
X0099334Y0076712D02*
X0088891Y0076712D01*
X0088292Y0076114D02*
X0099211Y0076114D01*
X0099211Y0075515D02*
X0092463Y0075515D01*
X0093062Y0074917D02*
X0099211Y0074917D01*
X0099503Y0074318D02*
X0093389Y0074318D01*
X0093389Y0073720D02*
X0100102Y0073720D01*
X0103357Y0080902D02*
X0107932Y0080902D01*
X0101751Y0084493D02*
X0101363Y0084493D01*
X0098666Y0082099D02*
X0078056Y0082099D01*
X0077973Y0082052D02*
X0078270Y0082223D01*
X0078512Y0082465D01*
X0078683Y0082761D01*
X0078772Y0083092D01*
X0078772Y0084341D01*
X0076000Y0084341D01*
X0076000Y0081963D01*
X0077643Y0081963D01*
X0077973Y0082052D01*
X0078646Y0082698D02*
X0098067Y0082698D01*
X0097469Y0083296D02*
X0078772Y0083296D01*
X0078772Y0083895D02*
X0096870Y0083895D01*
X0096272Y0084493D02*
X0076000Y0084493D01*
X0076000Y0083895D02*
X0075400Y0083895D01*
X0075400Y0084493D02*
X0072385Y0084493D01*
X0072628Y0085092D02*
X0068227Y0085092D01*
X0068589Y0085690D02*
X0072628Y0085690D01*
X0072655Y0086289D02*
X0068700Y0086289D01*
X0068700Y0086887D02*
X0072958Y0086887D01*
X0071091Y0087486D02*
X0068700Y0087486D01*
X0068700Y0088084D02*
X0070274Y0088084D01*
X0069676Y0088683D02*
X0068700Y0088683D01*
X0068791Y0089281D02*
X0069077Y0089281D01*
X0072614Y0092872D02*
X0075278Y0092872D01*
X0075876Y0093471D02*
X0072614Y0093471D01*
X0072614Y0094069D02*
X0076400Y0094069D01*
X0076400Y0094668D02*
X0072604Y0094668D01*
X0072005Y0095266D02*
X0076400Y0095266D01*
X0076400Y0095865D02*
X0066700Y0095865D01*
X0066700Y0096463D02*
X0076400Y0096463D01*
X0076400Y0097062D02*
X0066700Y0097062D01*
X0066700Y0097660D02*
X0076400Y0097660D01*
X0076400Y0098259D02*
X0072131Y0098259D01*
X0072614Y0098857D02*
X0076400Y0098857D01*
X0076400Y0099456D02*
X0072614Y0099456D01*
X0072614Y0100054D02*
X0076400Y0100054D01*
X0076400Y0100653D02*
X0072614Y0100653D01*
X0072614Y0101251D02*
X0076400Y0101251D01*
X0076400Y0101850D02*
X0072614Y0101850D01*
X0072304Y0102448D02*
X0076400Y0102448D01*
X0076400Y0103047D02*
X0054137Y0103047D01*
X0054137Y0103645D02*
X0076400Y0103645D01*
X0076400Y0104244D02*
X0053603Y0104244D01*
X0053259Y0104842D02*
X0076650Y0104842D01*
X0077249Y0105441D02*
X0053259Y0105441D01*
X0053006Y0106039D02*
X0064182Y0106039D01*
X0064310Y0105911D02*
X0066290Y0105911D01*
X0067689Y0107310D01*
X0067689Y0109290D01*
X0066679Y0110300D01*
X0067689Y0111310D01*
X0067689Y0113290D01*
X0066929Y0114050D01*
X0067689Y0114810D01*
X0067689Y0116790D01*
X0066290Y0118189D01*
X0064310Y0118189D01*
X0062911Y0116790D01*
X0062911Y0114810D01*
X0063671Y0114050D01*
X0062911Y0113290D01*
X0062911Y0111310D01*
X0063921Y0110300D01*
X0062911Y0109290D01*
X0062911Y0107310D01*
X0064310Y0105911D01*
X0063583Y0106638D02*
X0052408Y0106638D01*
X0051809Y0107237D02*
X0062985Y0107237D01*
X0062911Y0107835D02*
X0051211Y0107835D01*
X0050612Y0108434D02*
X0055788Y0108434D01*
X0055810Y0108411D02*
X0057790Y0108411D01*
X0059189Y0109810D01*
X0059189Y0111790D01*
X0057790Y0113189D01*
X0055810Y0113189D01*
X0054411Y0111790D01*
X0054411Y0109810D01*
X0055810Y0108411D01*
X0055189Y0109032D02*
X0025737Y0109032D01*
X0025737Y0109631D02*
X0054591Y0109631D01*
X0054411Y0110229D02*
X0025318Y0110229D01*
X0020800Y0110229D02*
X0020200Y0110229D01*
X0018241Y0110229D02*
X0017641Y0110229D01*
X0017641Y0109631D02*
X0018241Y0109631D01*
X0018241Y0109032D02*
X0017641Y0109032D01*
X0017641Y0108434D02*
X0018241Y0108434D01*
X0018241Y0107835D02*
X0017641Y0107835D01*
X0017641Y0107237D02*
X0002600Y0107237D01*
X0002600Y0107835D02*
X0015263Y0107835D01*
X0015263Y0108434D02*
X0002600Y0108434D01*
X0002600Y0109032D02*
X0015263Y0109032D01*
X0015313Y0109631D02*
X0002600Y0109631D01*
X0002600Y0110229D02*
X0015682Y0110229D01*
X0015263Y0107200D02*
X0015263Y0105557D01*
X0015352Y0105227D01*
X0015523Y0104930D01*
X0015765Y0104688D01*
X0016061Y0104517D01*
X0016392Y0104428D01*
X0017641Y0104428D01*
X0017641Y0107200D01*
X0015263Y0107200D01*
X0015263Y0106638D02*
X0002600Y0106638D01*
X0002600Y0106039D02*
X0015263Y0106039D01*
X0015294Y0105441D02*
X0002600Y0105441D01*
X0002600Y0104842D02*
X0015610Y0104842D01*
X0017641Y0104842D02*
X0018241Y0104842D01*
X0018241Y0105441D02*
X0017641Y0105441D01*
X0017641Y0106039D02*
X0018241Y0106039D01*
X0018241Y0106638D02*
X0017641Y0106638D01*
X0020271Y0104842D02*
X0020729Y0104842D01*
X0022700Y0104244D02*
X0002600Y0104244D01*
X0002600Y0103645D02*
X0022700Y0103645D01*
X0022700Y0103047D02*
X0002600Y0103047D01*
X0002600Y0102448D02*
X0022700Y0102448D01*
X0022700Y0101850D02*
X0002600Y0101850D01*
X0002600Y0101251D02*
X0016204Y0101251D01*
X0016088Y0101135D02*
X0015917Y0100839D01*
X0015828Y0100508D01*
X0015828Y0099259D01*
X0018600Y0099259D01*
X0018600Y0098659D01*
X0015828Y0098659D01*
X0015828Y0097410D01*
X0015917Y0097079D01*
X0016088Y0096783D01*
X0016330Y0096541D01*
X0016509Y0096438D01*
X0015828Y0095757D01*
X0015828Y0091925D01*
X0016590Y0091163D01*
X0019032Y0091163D01*
X0020530Y0089666D01*
X0022700Y0089666D01*
X0022700Y0088548D01*
X0023462Y0087786D01*
X0026294Y0087786D01*
X0031011Y0083069D01*
X0031011Y0081310D01*
X0032410Y0079911D01*
X0034390Y0079911D01*
X0035789Y0081310D01*
X0035789Y0083290D01*
X0035200Y0083879D01*
X0035200Y0083971D01*
X0034146Y0085026D01*
X0031385Y0087786D01*
X0034338Y0087786D01*
X0035100Y0088548D01*
X0035100Y0094384D01*
X0034338Y0095145D01*
X0030942Y0095145D01*
X0030181Y0094384D01*
X0030181Y0088991D01*
X0027619Y0091552D01*
X0027619Y0094384D01*
X0026858Y0095145D01*
X0023462Y0095145D01*
X0022700Y0094384D01*
X0022700Y0093266D01*
X0022021Y0093266D01*
X0021972Y0093315D01*
X0021972Y0095757D01*
X0021291Y0096438D01*
X0021470Y0096541D01*
X0021712Y0096783D01*
X0021883Y0097079D01*
X0021972Y0097410D01*
X0021972Y0098659D01*
X0019200Y0098659D01*
X0019200Y0099259D01*
X0021972Y0099259D01*
X0021972Y0100508D01*
X0021883Y0100839D01*
X0021712Y0101135D01*
X0021470Y0101377D01*
X0021173Y0101548D01*
X0020843Y0101637D01*
X0019200Y0101637D01*
X0019200Y0099259D01*
X0018600Y0099259D01*
X0018600Y0101637D01*
X0016957Y0101637D01*
X0016627Y0101548D01*
X0016330Y0101377D01*
X0016088Y0101135D01*
X0015867Y0100653D02*
X0002600Y0100653D01*
X0002600Y0100054D02*
X0015828Y0100054D01*
X0015828Y0099456D02*
X0002600Y0099456D01*
X0002600Y0098857D02*
X0018600Y0098857D01*
X0018600Y0099456D02*
X0019200Y0099456D01*
X0019200Y0100054D02*
X0018600Y0100054D01*
X0018600Y0100653D02*
X0019200Y0100653D01*
X0019200Y0101251D02*
X0018600Y0101251D01*
X0019200Y0098857D02*
X0022700Y0098857D01*
X0022700Y0099456D02*
X0021972Y0099456D01*
X0021972Y0100054D02*
X0022700Y0100054D01*
X0022700Y0100653D02*
X0021933Y0100653D01*
X0021596Y0101251D02*
X0022700Y0101251D01*
X0022858Y0098259D02*
X0021972Y0098259D01*
X0021972Y0097660D02*
X0023456Y0097660D01*
X0021873Y0097062D02*
X0034367Y0097062D01*
X0034966Y0096463D02*
X0021336Y0096463D01*
X0021864Y0095865D02*
X0035564Y0095865D01*
X0036163Y0095266D02*
X0021972Y0095266D01*
X0021972Y0094668D02*
X0022984Y0094668D01*
X0022700Y0094069D02*
X0021972Y0094069D01*
X0021972Y0093471D02*
X0022700Y0093471D01*
X0022700Y0089281D02*
X0002600Y0089281D01*
X0002600Y0088683D02*
X0022700Y0088683D01*
X0023164Y0088084D02*
X0002600Y0088084D01*
X0002600Y0087486D02*
X0026594Y0087486D01*
X0027193Y0086887D02*
X0002600Y0086887D01*
X0002600Y0086289D02*
X0027791Y0086289D01*
X0028390Y0085690D02*
X0002600Y0085690D01*
X0002600Y0085092D02*
X0028988Y0085092D01*
X0029587Y0084493D02*
X0002600Y0084493D01*
X0002600Y0083895D02*
X0030185Y0083895D01*
X0030784Y0083296D02*
X0002600Y0083296D01*
X0002600Y0082698D02*
X0031011Y0082698D01*
X0031011Y0082099D02*
X0002600Y0082099D01*
X0002600Y0081501D02*
X0031011Y0081501D01*
X0031419Y0080902D02*
X0002600Y0080902D01*
X0002600Y0080303D02*
X0032018Y0080303D01*
X0034782Y0080303D02*
X0049400Y0080303D01*
X0049400Y0080902D02*
X0042881Y0080902D01*
X0043479Y0081501D02*
X0049400Y0081501D01*
X0049400Y0082099D02*
X0044078Y0082099D01*
X0044189Y0082698D02*
X0049400Y0082698D01*
X0049400Y0083296D02*
X0044189Y0083296D01*
X0044189Y0083895D02*
X0049400Y0083895D01*
X0049400Y0084493D02*
X0043885Y0084493D01*
X0043600Y0085092D02*
X0049400Y0085092D01*
X0049400Y0085690D02*
X0043600Y0085690D01*
X0043600Y0086289D02*
X0049400Y0086289D01*
X0049400Y0086887D02*
X0043390Y0086887D01*
X0042791Y0087486D02*
X0049400Y0087486D01*
X0049400Y0088084D02*
X0042193Y0088084D01*
X0041878Y0088683D02*
X0049400Y0088683D01*
X0049642Y0089281D02*
X0041878Y0089281D01*
X0041878Y0089880D02*
X0050044Y0089880D01*
X0050643Y0090478D02*
X0041651Y0090478D01*
X0041878Y0091077D02*
X0051241Y0091077D01*
X0051840Y0091675D02*
X0041878Y0091675D01*
X0041878Y0092274D02*
X0052438Y0092274D01*
X0053037Y0092872D02*
X0041878Y0092872D01*
X0041878Y0093471D02*
X0053635Y0093471D01*
X0054234Y0094069D02*
X0043148Y0094069D01*
X0043746Y0094668D02*
X0054832Y0094668D01*
X0055414Y0095266D02*
X0044289Y0095266D01*
X0044289Y0095865D02*
X0055386Y0095865D01*
X0055386Y0097062D02*
X0044289Y0097062D01*
X0044289Y0096463D02*
X0058786Y0096463D01*
X0055386Y0097660D02*
X0043818Y0097660D01*
X0043220Y0098259D02*
X0051152Y0098259D01*
X0049014Y0098857D02*
X0048775Y0098857D01*
X0046641Y0098857D02*
X0046041Y0098857D01*
X0046041Y0098328D02*
X0046041Y0101100D01*
X0043663Y0101100D01*
X0043663Y0099457D01*
X0043752Y0099127D01*
X0043923Y0098830D01*
X0044165Y0098588D01*
X0044461Y0098417D01*
X0044792Y0098328D01*
X0046041Y0098328D01*
X0046041Y0099456D02*
X0046641Y0099456D01*
X0046641Y0100054D02*
X0046041Y0100054D01*
X0046041Y0100653D02*
X0046641Y0100653D01*
X0046041Y0101251D02*
X0035269Y0101251D01*
X0035100Y0101850D02*
X0043663Y0101850D01*
X0043663Y0102448D02*
X0035100Y0102448D01*
X0035100Y0103047D02*
X0043663Y0103047D01*
X0043744Y0103645D02*
X0035100Y0103645D01*
X0035100Y0104244D02*
X0044220Y0104244D01*
X0046041Y0104244D02*
X0046641Y0104244D01*
X0046641Y0103645D02*
X0046041Y0103645D01*
X0046041Y0103047D02*
X0046641Y0103047D01*
X0046641Y0102448D02*
X0046041Y0102448D01*
X0046041Y0101850D02*
X0046641Y0101850D01*
X0048462Y0104244D02*
X0049315Y0104244D01*
X0049112Y0104842D02*
X0034510Y0104842D01*
X0030771Y0104842D02*
X0030705Y0104842D01*
X0029180Y0104842D02*
X0028620Y0104842D01*
X0028620Y0104244D02*
X0029180Y0104244D01*
X0029180Y0103645D02*
X0028620Y0103645D01*
X0028620Y0103047D02*
X0029180Y0103047D01*
X0029180Y0102448D02*
X0028620Y0102448D01*
X0028620Y0101850D02*
X0029180Y0101850D01*
X0029180Y0100653D02*
X0028620Y0100653D01*
X0028620Y0100054D02*
X0029180Y0100054D01*
X0029180Y0099456D02*
X0028620Y0099456D01*
X0028620Y0098857D02*
X0029180Y0098857D01*
X0029180Y0098259D02*
X0028620Y0098259D01*
X0028620Y0097660D02*
X0029180Y0097660D01*
X0030252Y0097660D02*
X0030936Y0097660D01*
X0030465Y0094668D02*
X0027335Y0094668D01*
X0027619Y0094069D02*
X0030181Y0094069D01*
X0030181Y0093471D02*
X0027619Y0093471D01*
X0027619Y0092872D02*
X0030181Y0092872D01*
X0030181Y0092274D02*
X0027619Y0092274D01*
X0027619Y0091675D02*
X0030181Y0091675D01*
X0030181Y0091077D02*
X0028094Y0091077D01*
X0028693Y0090478D02*
X0030181Y0090478D01*
X0030181Y0089880D02*
X0029291Y0089880D01*
X0029890Y0089281D02*
X0030181Y0089281D01*
X0031686Y0087486D02*
X0036522Y0087486D01*
X0036522Y0088084D02*
X0034636Y0088084D01*
X0035100Y0088683D02*
X0036522Y0088683D01*
X0036522Y0089281D02*
X0035100Y0089281D01*
X0035100Y0089880D02*
X0036522Y0089880D01*
X0036749Y0090478D02*
X0035100Y0090478D01*
X0035100Y0091077D02*
X0036522Y0091077D01*
X0036522Y0091675D02*
X0035100Y0091675D01*
X0035100Y0092274D02*
X0036522Y0092274D01*
X0036522Y0092872D02*
X0035100Y0092872D01*
X0035100Y0093471D02*
X0036522Y0093471D01*
X0036522Y0094069D02*
X0035100Y0094069D01*
X0034816Y0094668D02*
X0036761Y0094668D01*
X0038261Y0098259D02*
X0040580Y0098259D01*
X0037663Y0098857D02*
X0043907Y0098857D01*
X0043663Y0099456D02*
X0037064Y0099456D01*
X0036466Y0100054D02*
X0043663Y0100054D01*
X0043663Y0100653D02*
X0035867Y0100653D01*
X0027548Y0097660D02*
X0026864Y0097660D01*
X0027029Y0104842D02*
X0027095Y0104842D01*
X0015828Y0098259D02*
X0002600Y0098259D01*
X0002600Y0097660D02*
X0015828Y0097660D01*
X0015927Y0097062D02*
X0002600Y0097062D01*
X0002600Y0096463D02*
X0016464Y0096463D01*
X0015936Y0095865D02*
X0002600Y0095865D01*
X0002600Y0095266D02*
X0015828Y0095266D01*
X0015828Y0094668D02*
X0002600Y0094668D01*
X0002600Y0094069D02*
X0015828Y0094069D01*
X0015828Y0093471D02*
X0002600Y0093471D01*
X0002600Y0092872D02*
X0015828Y0092872D01*
X0015828Y0092274D02*
X0002600Y0092274D01*
X0002600Y0091675D02*
X0016078Y0091675D01*
X0019119Y0091077D02*
X0002600Y0091077D01*
X0002600Y0090478D02*
X0019717Y0090478D01*
X0020316Y0089880D02*
X0002600Y0089880D01*
X0002600Y0079705D02*
X0049482Y0079705D01*
X0049730Y0079106D02*
X0002600Y0079106D01*
X0002600Y0078508D02*
X0050256Y0078508D01*
X0051380Y0077909D02*
X0002600Y0077909D01*
X0002600Y0077311D02*
X0068043Y0077311D01*
X0067445Y0077909D02*
X0052420Y0077909D01*
X0053543Y0078508D02*
X0066846Y0078508D01*
X0066248Y0079106D02*
X0054070Y0079106D01*
X0054318Y0079705D02*
X0065649Y0079705D01*
X0065051Y0080303D02*
X0054400Y0080303D01*
X0054400Y0080902D02*
X0064452Y0080902D01*
X0063854Y0081501D02*
X0054400Y0081501D01*
X0054400Y0082099D02*
X0063255Y0082099D01*
X0062657Y0082698D02*
X0054400Y0082698D01*
X0054400Y0083296D02*
X0062058Y0083296D01*
X0061460Y0083895D02*
X0054400Y0083895D01*
X0054400Y0084493D02*
X0055128Y0084493D01*
X0054530Y0085092D02*
X0054400Y0085092D01*
X0058072Y0084493D02*
X0060861Y0084493D01*
X0066551Y0083895D02*
X0068816Y0083895D01*
X0068511Y0083296D02*
X0067150Y0083296D01*
X0067748Y0082698D02*
X0068511Y0082698D01*
X0068511Y0082099D02*
X0068347Y0082099D01*
X0067629Y0084493D02*
X0069415Y0084493D01*
X0073179Y0081501D02*
X0099264Y0081501D01*
X0095673Y0085092D02*
X0078772Y0085092D01*
X0078772Y0085690D02*
X0095075Y0085690D01*
X0094476Y0086289D02*
X0078745Y0086289D01*
X0078442Y0086887D02*
X0093878Y0086887D01*
X0093279Y0087486D02*
X0078415Y0087486D01*
X0078772Y0088084D02*
X0092680Y0088084D01*
X0092610Y0088683D02*
X0086316Y0088683D01*
X0086243Y0088663D02*
X0086573Y0088752D01*
X0086870Y0088923D01*
X0087112Y0089165D01*
X0087283Y0089461D01*
X0087372Y0089792D01*
X0087372Y0091041D01*
X0084600Y0091041D01*
X0084600Y0088663D01*
X0086243Y0088663D01*
X0087179Y0089281D02*
X0092610Y0089281D01*
X0092610Y0089880D02*
X0087372Y0089880D01*
X0087372Y0090478D02*
X0092610Y0090478D01*
X0092610Y0091077D02*
X0084600Y0091077D01*
X0084600Y0090478D02*
X0084000Y0090478D01*
X0084000Y0089880D02*
X0084600Y0089880D01*
X0084600Y0089281D02*
X0084000Y0089281D01*
X0084000Y0088683D02*
X0084600Y0088683D01*
X0082284Y0088683D02*
X0078772Y0088683D01*
X0078772Y0089281D02*
X0081421Y0089281D01*
X0081228Y0089880D02*
X0079356Y0089880D01*
X0079955Y0090478D02*
X0081228Y0090478D01*
X0080553Y0091077D02*
X0084000Y0091077D01*
X0081228Y0091675D02*
X0081152Y0091675D01*
X0087372Y0091675D02*
X0092610Y0091675D01*
X0100316Y0092815D02*
X0100316Y0095148D01*
X0100316Y0092815D01*
X0100316Y0092872D02*
X0100316Y0092872D01*
X0100316Y0093471D02*
X0100316Y0093471D01*
X0100316Y0094069D02*
X0100316Y0094069D01*
X0100316Y0094668D02*
X0100316Y0094668D01*
X0100316Y0095148D02*
X0100316Y0095148D01*
X0100316Y0095266D02*
X0100316Y0095266D01*
X0100316Y0095865D02*
X0100316Y0095865D01*
X0100316Y0096463D02*
X0100316Y0096463D01*
X0100316Y0097062D02*
X0100316Y0097062D01*
X0105420Y0100054D02*
X0108268Y0100054D01*
X0108268Y0100653D02*
X0107698Y0100653D01*
X0108297Y0101251D02*
X0108314Y0101251D01*
X0110404Y0101251D02*
X0110404Y0101251D01*
X0110404Y0100653D02*
X0110404Y0100653D01*
X0110404Y0100316D02*
X0112541Y0100316D01*
X0110404Y0100316D01*
X0110404Y0100316D01*
X0110404Y0101850D02*
X0110404Y0101850D01*
X0110404Y0102284D02*
X0110404Y0102284D01*
X0110404Y0102284D01*
X0110404Y0104253D01*
X0110404Y0104253D01*
X0112541Y0104253D01*
X0112541Y0103491D01*
X0112481Y0103269D01*
X0112541Y0103046D01*
X0112541Y0102284D01*
X0110404Y0102284D01*
X0110404Y0102448D02*
X0110404Y0102448D01*
X0110404Y0103047D02*
X0110404Y0103047D01*
X0110404Y0103645D02*
X0110404Y0103645D01*
X0110404Y0104244D02*
X0110404Y0104244D01*
X0112541Y0104244D02*
X0115722Y0104244D01*
X0115722Y0104842D02*
X0112541Y0104842D01*
X0112397Y0105441D02*
X0115722Y0105441D01*
X0115873Y0106039D02*
X0111993Y0106039D01*
X0112049Y0106638D02*
X0116472Y0106638D01*
X0115722Y0103645D02*
X0112541Y0103645D01*
X0112541Y0103047D02*
X0115722Y0103047D01*
X0115723Y0102448D02*
X0112541Y0102448D01*
X0112541Y0101850D02*
X0115722Y0101850D01*
X0115722Y0101251D02*
X0112494Y0101251D01*
X0112541Y0100653D02*
X0115722Y0100653D01*
X0120927Y0106039D02*
X0177000Y0106039D01*
X0177000Y0105441D02*
X0124305Y0105441D01*
X0124831Y0104914D02*
X0124831Y0104914D01*
X0124903Y0104842D02*
X0177000Y0104842D01*
X0177275Y0104244D02*
X0125502Y0104244D01*
X0126100Y0103645D02*
X0177873Y0103645D01*
X0178472Y0103047D02*
X0126600Y0103047D01*
X0126600Y0102448D02*
X0179070Y0102448D01*
X0178973Y0100054D02*
X0126600Y0100054D01*
X0126600Y0099456D02*
X0178375Y0099456D01*
X0177776Y0098857D02*
X0126600Y0098857D01*
X0126600Y0098259D02*
X0177178Y0098259D01*
X0177000Y0097660D02*
X0126600Y0097660D01*
X0126600Y0097062D02*
X0177000Y0097062D01*
X0177000Y0096463D02*
X0126600Y0096463D01*
X0127114Y0095865D02*
X0177000Y0095865D01*
X0177000Y0095266D02*
X0127189Y0095266D01*
X0127189Y0094668D02*
X0177000Y0094668D01*
X0177450Y0094069D02*
X0127189Y0094069D01*
X0126849Y0093471D02*
X0178048Y0093471D01*
X0178647Y0092872D02*
X0126251Y0092872D01*
X0123349Y0092872D02*
X0123300Y0092872D01*
X0123300Y0092274D02*
X0179245Y0092274D01*
X0179397Y0090478D02*
X0137000Y0090478D01*
X0137439Y0090040D02*
X0136040Y0091439D01*
X0134060Y0091439D01*
X0132661Y0090040D01*
X0132661Y0088060D01*
X0134060Y0086661D01*
X0136040Y0086661D01*
X0137439Y0088060D01*
X0137439Y0090040D01*
X0137439Y0089880D02*
X0178799Y0089880D01*
X0178200Y0089281D02*
X0137439Y0089281D01*
X0137439Y0088683D02*
X0177602Y0088683D01*
X0177003Y0088084D02*
X0137439Y0088084D01*
X0136864Y0087486D02*
X0177000Y0087486D01*
X0177000Y0086887D02*
X0136266Y0086887D01*
X0133834Y0086887D02*
X0123300Y0086887D01*
X0123300Y0086289D02*
X0177000Y0086289D01*
X0177000Y0085690D02*
X0123300Y0085690D01*
X0123300Y0085092D02*
X0177000Y0085092D01*
X0177026Y0084493D02*
X0123300Y0084493D01*
X0123300Y0083895D02*
X0177624Y0083895D01*
X0178223Y0083296D02*
X0123300Y0083296D01*
X0123300Y0082698D02*
X0178821Y0082698D01*
X0179420Y0082099D02*
X0123300Y0082099D01*
X0123300Y0081501D02*
X0200000Y0081501D01*
X0200000Y0082099D02*
X0193180Y0082099D01*
X0193779Y0082698D02*
X0200000Y0082698D01*
X0200000Y0083296D02*
X0194377Y0083296D01*
X0194976Y0083895D02*
X0200000Y0083895D01*
X0200000Y0084493D02*
X0195574Y0084493D01*
X0195600Y0085092D02*
X0200000Y0085092D01*
X0200000Y0085690D02*
X0195600Y0085690D01*
X0195600Y0086289D02*
X0200000Y0086289D01*
X0200000Y0086887D02*
X0195600Y0086887D01*
X0195600Y0087486D02*
X0200000Y0087486D01*
X0200000Y0088084D02*
X0195597Y0088084D01*
X0194998Y0088683D02*
X0200000Y0088683D01*
X0200000Y0089281D02*
X0194400Y0089281D01*
X0193801Y0089880D02*
X0200000Y0089880D01*
X0200000Y0090478D02*
X0193203Y0090478D01*
X0193355Y0092274D02*
X0200000Y0092274D01*
X0200000Y0092872D02*
X0193953Y0092872D01*
X0194552Y0093471D02*
X0200000Y0093471D01*
X0200000Y0094069D02*
X0195150Y0094069D01*
X0195600Y0094668D02*
X0200000Y0094668D01*
X0200000Y0095266D02*
X0195600Y0095266D01*
X0195600Y0095865D02*
X0200000Y0095865D01*
X0200000Y0096463D02*
X0195600Y0096463D01*
X0195600Y0097062D02*
X0200000Y0097062D01*
X0200000Y0097660D02*
X0195600Y0097660D01*
X0195422Y0098259D02*
X0200000Y0098259D01*
X0200000Y0098857D02*
X0194824Y0098857D01*
X0194225Y0099456D02*
X0200000Y0099456D01*
X0200000Y0100054D02*
X0193627Y0100054D01*
X0193530Y0102448D02*
X0200000Y0102448D01*
X0200000Y0101850D02*
X0126600Y0101850D01*
X0126600Y0101251D02*
X0200000Y0101251D01*
X0200000Y0100653D02*
X0126600Y0100653D01*
X0120328Y0106638D02*
X0177000Y0106638D01*
X0177000Y0107237D02*
X0112049Y0107237D01*
X0112049Y0107452D02*
X0110158Y0107452D01*
X0110158Y0109785D01*
X0110158Y0107452D01*
X0110158Y0107452D01*
X0112049Y0107452D01*
X0112049Y0107835D02*
X0177000Y0107835D01*
X0177352Y0108434D02*
X0112049Y0108434D01*
X0111934Y0109032D02*
X0177951Y0109032D01*
X0178549Y0109631D02*
X0111365Y0109631D01*
X0110158Y0109631D02*
X0110158Y0109631D01*
X0110158Y0109032D02*
X0110158Y0109032D01*
X0110158Y0108434D02*
X0110158Y0108434D01*
X0110158Y0107835D02*
X0110158Y0107835D01*
X0110158Y0107452D02*
X0110158Y0107452D01*
X0107489Y0112623D02*
X0178896Y0112623D01*
X0179494Y0112025D02*
X0105039Y0112025D01*
X0104440Y0111426D02*
X0200000Y0111426D01*
X0200000Y0110828D02*
X0104084Y0110828D01*
X0104084Y0110229D02*
X0179148Y0110229D01*
X0178297Y0113222D02*
X0107878Y0113222D01*
X0107878Y0113820D02*
X0177699Y0113820D01*
X0177100Y0114419D02*
X0107878Y0114419D01*
X0107878Y0115017D02*
X0177000Y0115017D01*
X0177000Y0115616D02*
X0107878Y0115616D01*
X0107878Y0116214D02*
X0177000Y0116214D01*
X0177000Y0116813D02*
X0107742Y0116813D01*
X0107264Y0121002D02*
X0112957Y0121002D01*
X0113555Y0121601D02*
X0099446Y0121601D01*
X0099746Y0121002D02*
X0103136Y0121002D01*
X0102538Y0120404D02*
X0099772Y0120404D01*
X0097000Y0120404D02*
X0096400Y0120404D01*
X0096400Y0121002D02*
X0097000Y0121002D01*
X0097000Y0121601D02*
X0096400Y0121601D01*
X0093628Y0118608D02*
X0075189Y0118608D01*
X0074888Y0118010D02*
X0093628Y0118010D01*
X0093756Y0117411D02*
X0074290Y0117411D01*
X0071310Y0117411D02*
X0067067Y0117411D01*
X0066469Y0118010D02*
X0070712Y0118010D01*
X0070411Y0118608D02*
X0002600Y0118608D01*
X0002600Y0118010D02*
X0064131Y0118010D01*
X0063533Y0117411D02*
X0002600Y0117411D01*
X0002600Y0116813D02*
X0062934Y0116813D01*
X0062911Y0116214D02*
X0002600Y0116214D01*
X0002600Y0115616D02*
X0062911Y0115616D01*
X0062911Y0115017D02*
X0002600Y0115017D01*
X0002600Y0114419D02*
X0063303Y0114419D01*
X0063442Y0113820D02*
X0002600Y0113820D01*
X0002600Y0113222D02*
X0062911Y0113222D01*
X0062911Y0112623D02*
X0058355Y0112623D01*
X0058954Y0112025D02*
X0062911Y0112025D01*
X0062911Y0111426D02*
X0059189Y0111426D01*
X0059189Y0110828D02*
X0063394Y0110828D01*
X0063851Y0110229D02*
X0059189Y0110229D01*
X0059009Y0109631D02*
X0063252Y0109631D01*
X0062911Y0109032D02*
X0058411Y0109032D01*
X0057812Y0108434D02*
X0062911Y0108434D01*
X0066749Y0110229D02*
X0081622Y0110229D01*
X0081439Y0109631D02*
X0067348Y0109631D01*
X0067689Y0109032D02*
X0080840Y0109032D01*
X0080241Y0108434D02*
X0067689Y0108434D01*
X0067689Y0107835D02*
X0079643Y0107835D01*
X0079044Y0107237D02*
X0067615Y0107237D01*
X0067017Y0106638D02*
X0078446Y0106638D01*
X0077847Y0106039D02*
X0066418Y0106039D01*
X0065565Y0102448D02*
X0064787Y0102448D01*
X0067206Y0110828D02*
X0082162Y0110828D01*
X0086438Y0110828D02*
X0096547Y0110828D01*
X0096547Y0111426D02*
X0067689Y0111426D01*
X0067689Y0112025D02*
X0093928Y0112025D01*
X0093628Y0112623D02*
X0067689Y0112623D01*
X0067689Y0113222D02*
X0093628Y0113222D01*
X0093628Y0113820D02*
X0067158Y0113820D01*
X0067297Y0114419D02*
X0093628Y0114419D01*
X0093628Y0115017D02*
X0067689Y0115017D01*
X0067689Y0115616D02*
X0093628Y0115616D01*
X0093685Y0116214D02*
X0067689Y0116214D01*
X0067666Y0116813D02*
X0094284Y0116813D01*
X0096547Y0110229D02*
X0086978Y0110229D01*
X0086978Y0109631D02*
X0091235Y0109631D01*
X0090666Y0109032D02*
X0086978Y0109032D01*
X0086978Y0108434D02*
X0090551Y0108434D01*
X0090551Y0107835D02*
X0086978Y0107835D01*
X0086978Y0107237D02*
X0090551Y0107237D01*
X0090551Y0106638D02*
X0086767Y0106638D01*
X0086978Y0106039D02*
X0090607Y0106039D01*
X0090203Y0105441D02*
X0086978Y0105441D01*
X0086978Y0104842D02*
X0090059Y0104842D01*
X0090059Y0104244D02*
X0086978Y0104244D01*
X0092442Y0107835D02*
X0092442Y0107835D01*
X0092442Y0108434D02*
X0092442Y0108434D01*
X0092442Y0109032D02*
X0092442Y0109032D01*
X0092442Y0109631D02*
X0092442Y0109631D01*
X0094332Y0103645D02*
X0095367Y0103645D01*
X0094768Y0103047D02*
X0094332Y0103047D01*
X0073227Y0092274D02*
X0073156Y0092274D01*
X0075400Y0083296D02*
X0076000Y0083296D01*
X0076000Y0082698D02*
X0075400Y0082698D01*
X0075400Y0082099D02*
X0076000Y0082099D01*
X0073344Y0082099D02*
X0073289Y0082099D01*
X0068642Y0076712D02*
X0002600Y0076712D01*
X0032284Y0086887D02*
X0036522Y0086887D01*
X0037045Y0086289D02*
X0032883Y0086289D01*
X0033481Y0085690D02*
X0039496Y0085690D01*
X0040000Y0085092D02*
X0034080Y0085092D01*
X0034678Y0084493D02*
X0039715Y0084493D01*
X0039411Y0083895D02*
X0035200Y0083895D01*
X0035782Y0083296D02*
X0039411Y0083296D01*
X0039411Y0082698D02*
X0035789Y0082698D01*
X0035789Y0082099D02*
X0039522Y0082099D01*
X0040121Y0081501D02*
X0035789Y0081501D01*
X0035381Y0080902D02*
X0040719Y0080902D01*
X0034786Y0065939D02*
X0177000Y0065939D01*
X0177000Y0065341D02*
X0035384Y0065341D01*
X0035635Y0064742D02*
X0177000Y0064742D01*
X0177375Y0064144D02*
X0035635Y0064144D01*
X0035635Y0063545D02*
X0177974Y0063545D01*
X0178572Y0062947D02*
X0035472Y0062947D01*
X0044901Y0049779D02*
X0002600Y0049779D01*
X0002600Y0049181D02*
X0044302Y0049181D01*
X0043811Y0048582D02*
X0002600Y0048582D01*
X0002600Y0047984D02*
X0043811Y0047984D01*
X0043811Y0047385D02*
X0002600Y0047385D01*
X0002600Y0046787D02*
X0043811Y0046787D01*
X0044333Y0046188D02*
X0002600Y0046188D01*
X0002600Y0045590D02*
X0044932Y0045590D01*
X0047468Y0045590D02*
X0133211Y0045590D01*
X0132613Y0044991D02*
X0002600Y0044991D01*
X0002600Y0044393D02*
X0132411Y0044393D01*
X0132411Y0043794D02*
X0002600Y0043794D01*
X0002600Y0043196D02*
X0090717Y0043196D01*
X0090119Y0042597D02*
X0002600Y0042597D01*
X0002600Y0041999D02*
X0089611Y0041999D01*
X0093283Y0043196D02*
X0132411Y0043196D01*
X0132624Y0042597D02*
X0093881Y0042597D01*
X0094389Y0041999D02*
X0133223Y0041999D01*
X0133810Y0046188D02*
X0048067Y0046188D01*
X0039689Y0037211D02*
X0058332Y0037211D01*
X0057734Y0036612D02*
X0039091Y0036612D01*
X0048411Y0033021D02*
X0002600Y0033021D01*
X0002600Y0032423D02*
X0048411Y0032423D01*
X0048411Y0031824D02*
X0002600Y0031824D01*
X0002600Y0031226D02*
X0048596Y0031226D01*
X0049194Y0030627D02*
X0002600Y0030627D01*
X0002600Y0030029D02*
X0049793Y0030029D01*
X0051224Y0029430D02*
X0002600Y0029430D01*
X0002600Y0028832D02*
X0051823Y0028832D01*
X0052421Y0028233D02*
X0002600Y0028233D01*
X0002600Y0027634D02*
X0065187Y0027634D01*
X0067138Y0025240D02*
X0200000Y0025240D01*
X0200000Y0024642D02*
X0067737Y0024642D01*
X0068089Y0024043D02*
X0200000Y0024043D01*
X0200000Y0023445D02*
X0068089Y0023445D01*
X0068089Y0022846D02*
X0200000Y0022846D01*
X0200000Y0022248D02*
X0068026Y0022248D01*
X0067428Y0021649D02*
X0200000Y0021649D01*
X0200000Y0021051D02*
X0066829Y0021051D01*
X0065646Y0031824D02*
X0053921Y0031824D01*
X0049240Y0034218D02*
X0002600Y0034218D01*
X0002600Y0033620D02*
X0048641Y0033620D01*
X0012842Y0003096D02*
X0189266Y0003096D01*
X0191393Y0003694D02*
X0010751Y0003694D01*
X0009723Y0004293D02*
X0192470Y0004293D01*
X0193547Y0004891D02*
X0008726Y0004891D01*
X0007729Y0005490D02*
X0194512Y0005490D01*
X0195130Y0006088D02*
X0007130Y0006088D01*
X0070053Y0071326D02*
X0089896Y0071326D01*
X0089297Y0071924D02*
X0069454Y0071924D01*
X0109812Y0068333D02*
X0177252Y0068333D01*
X0177851Y0068932D02*
X0110410Y0068932D01*
X0110689Y0069530D02*
X0178449Y0069530D01*
X0179048Y0070129D02*
X0110774Y0070129D01*
X0111373Y0070727D02*
X0116094Y0070727D01*
X0115496Y0071326D02*
X0111971Y0071326D01*
X0112570Y0071924D02*
X0114911Y0071924D01*
X0114911Y0072523D02*
X0113168Y0072523D01*
X0113767Y0073121D02*
X0114911Y0073121D01*
X0114911Y0073720D02*
X0114365Y0073720D01*
X0114964Y0074318D02*
X0115340Y0074318D01*
X0115562Y0074917D02*
X0115938Y0074917D01*
X0116161Y0075515D02*
X0117370Y0075515D01*
X0117968Y0076114D02*
X0116759Y0076114D01*
X0117358Y0076712D02*
X0118567Y0076712D01*
X0119165Y0077311D02*
X0117957Y0077311D01*
X0118555Y0077909D02*
X0119700Y0077909D01*
X0119700Y0078508D02*
X0119154Y0078508D01*
X0122461Y0075515D02*
X0177000Y0075515D01*
X0177000Y0074917D02*
X0121862Y0074917D01*
X0121264Y0074318D02*
X0177201Y0074318D01*
X0177799Y0073720D02*
X0120665Y0073720D01*
X0120067Y0073121D02*
X0178398Y0073121D01*
X0178996Y0072523D02*
X0119689Y0072523D01*
X0119689Y0071924D02*
X0200000Y0071924D01*
X0200000Y0071326D02*
X0119104Y0071326D01*
X0118506Y0070727D02*
X0200000Y0070727D01*
X0200000Y0070129D02*
X0193552Y0070129D01*
X0194151Y0069530D02*
X0200000Y0069530D01*
X0200000Y0068932D02*
X0194749Y0068932D01*
X0195348Y0068333D02*
X0200000Y0068333D01*
X0200000Y0067735D02*
X0195600Y0067735D01*
X0191600Y0067735D02*
X0191000Y0067735D01*
X0191000Y0068333D02*
X0191600Y0068333D01*
X0191600Y0068932D02*
X0191000Y0068932D01*
X0191000Y0069530D02*
X0191600Y0069530D01*
X0191600Y0070129D02*
X0191000Y0070129D01*
X0193604Y0072523D02*
X0200000Y0072523D01*
X0200000Y0073121D02*
X0194202Y0073121D01*
X0194801Y0073720D02*
X0200000Y0073720D01*
X0200000Y0074318D02*
X0195399Y0074318D01*
X0195600Y0074917D02*
X0200000Y0074917D01*
X0200000Y0075515D02*
X0195600Y0075515D01*
X0195600Y0076114D02*
X0200000Y0076114D01*
X0200000Y0076712D02*
X0195600Y0076712D01*
X0195600Y0077311D02*
X0200000Y0077311D01*
X0200000Y0077909D02*
X0195600Y0077909D01*
X0195173Y0078508D02*
X0200000Y0078508D01*
X0200000Y0079106D02*
X0194575Y0079106D01*
X0193976Y0079705D02*
X0200000Y0079705D01*
X0200000Y0080303D02*
X0193378Y0080303D01*
X0200000Y0080902D02*
X0123300Y0080902D01*
X0123300Y0080303D02*
X0179222Y0080303D01*
X0178624Y0079705D02*
X0123300Y0079705D01*
X0123300Y0079106D02*
X0178025Y0079106D01*
X0177427Y0078508D02*
X0123300Y0078508D01*
X0123300Y0077909D02*
X0177000Y0077909D01*
X0177000Y0077311D02*
X0123300Y0077311D01*
X0123300Y0076712D02*
X0177000Y0076712D01*
X0177000Y0076114D02*
X0123059Y0076114D01*
X0123300Y0087486D02*
X0133236Y0087486D01*
X0132661Y0088084D02*
X0123300Y0088084D01*
X0123300Y0088683D02*
X0132661Y0088683D01*
X0132661Y0089281D02*
X0123300Y0089281D01*
X0123300Y0089880D02*
X0132661Y0089880D01*
X0133100Y0090478D02*
X0123300Y0090478D01*
X0123300Y0091077D02*
X0133698Y0091077D01*
X0136402Y0091077D02*
X0200000Y0091077D01*
X0200000Y0091675D02*
X0123300Y0091675D01*
X0114457Y0117411D02*
X0177000Y0117411D01*
X0177000Y0118010D02*
X0138088Y0118010D01*
X0137990Y0117911D02*
X0139389Y0119310D01*
X0139389Y0121290D01*
X0137990Y0122689D01*
X0136010Y0122689D01*
X0134611Y0121290D01*
X0134611Y0119310D01*
X0136010Y0117911D01*
X0137990Y0117911D01*
X0138687Y0118608D02*
X0177527Y0118608D01*
X0178126Y0119207D02*
X0139285Y0119207D01*
X0139389Y0119805D02*
X0178724Y0119805D01*
X0179323Y0120404D02*
X0139389Y0120404D01*
X0139389Y0121002D02*
X0200000Y0121002D01*
X0200000Y0120404D02*
X0193277Y0120404D01*
X0193876Y0119805D02*
X0200000Y0119805D01*
X0200000Y0119207D02*
X0194474Y0119207D01*
X0195073Y0118608D02*
X0200000Y0118608D01*
X0200000Y0118010D02*
X0195600Y0118010D01*
X0195600Y0117411D02*
X0200000Y0117411D01*
X0200000Y0116813D02*
X0195600Y0116813D01*
X0195600Y0116214D02*
X0200000Y0116214D01*
X0200000Y0115616D02*
X0195600Y0115616D01*
X0195600Y0115017D02*
X0200000Y0115017D01*
X0200000Y0114419D02*
X0195500Y0114419D01*
X0194901Y0113820D02*
X0200000Y0113820D01*
X0200000Y0113222D02*
X0194303Y0113222D01*
X0193704Y0112623D02*
X0200000Y0112623D01*
X0200000Y0112025D02*
X0193106Y0112025D01*
X0193452Y0110229D02*
X0200000Y0110229D01*
X0200000Y0109631D02*
X0194051Y0109631D01*
X0194649Y0109032D02*
X0200000Y0109032D01*
X0200000Y0108434D02*
X0195248Y0108434D01*
X0195600Y0107835D02*
X0200000Y0107835D01*
X0200000Y0107237D02*
X0195600Y0107237D01*
X0195600Y0106638D02*
X0200000Y0106638D01*
X0200000Y0106039D02*
X0195600Y0106039D01*
X0195600Y0105441D02*
X0200000Y0105441D01*
X0200000Y0104842D02*
X0195600Y0104842D01*
X0195325Y0104244D02*
X0200000Y0104244D01*
X0200000Y0103645D02*
X0194727Y0103645D01*
X0194128Y0103047D02*
X0200000Y0103047D01*
X0200000Y0121601D02*
X0139078Y0121601D01*
X0138479Y0122199D02*
X0179320Y0122199D01*
X0178721Y0122798D02*
X0119843Y0122798D01*
X0119245Y0122199D02*
X0135521Y0122199D01*
X0134922Y0121601D02*
X0118646Y0121601D01*
X0118048Y0121002D02*
X0134611Y0121002D01*
X0134611Y0120404D02*
X0117449Y0120404D01*
X0116851Y0119805D02*
X0134611Y0119805D01*
X0134715Y0119207D02*
X0116252Y0119207D01*
X0115654Y0118608D02*
X0135313Y0118608D01*
X0135912Y0118010D02*
X0115055Y0118010D01*
X0120442Y0123396D02*
X0178123Y0123396D01*
X0177524Y0123995D02*
X0121040Y0123995D01*
X0121639Y0124593D02*
X0155628Y0124593D01*
X0155810Y0124411D02*
X0157790Y0124411D01*
X0159189Y0125810D01*
X0159189Y0127790D01*
X0157790Y0129189D01*
X0155810Y0129189D01*
X0154411Y0127790D01*
X0154411Y0125810D01*
X0155810Y0124411D01*
X0155030Y0125192D02*
X0122237Y0125192D01*
X0122836Y0125790D02*
X0154431Y0125790D01*
X0154411Y0126389D02*
X0123434Y0126389D01*
X0124033Y0126987D02*
X0154411Y0126987D01*
X0154411Y0127586D02*
X0124631Y0127586D01*
X0125230Y0128184D02*
X0154806Y0128184D01*
X0155404Y0128783D02*
X0125828Y0128783D01*
X0126427Y0129381D02*
X0178300Y0129381D01*
X0177702Y0128783D02*
X0158196Y0128783D01*
X0158794Y0128184D02*
X0177103Y0128184D01*
X0177000Y0127586D02*
X0159189Y0127586D01*
X0159189Y0126987D02*
X0177000Y0126987D01*
X0177000Y0126389D02*
X0159189Y0126389D01*
X0159169Y0125790D02*
X0177000Y0125790D01*
X0177000Y0125192D02*
X0158570Y0125192D01*
X0157972Y0124593D02*
X0177000Y0124593D01*
X0178899Y0129980D02*
X0127026Y0129980D01*
X0127624Y0130578D02*
X0179497Y0130578D01*
X0179145Y0132374D02*
X0128100Y0132374D01*
X0128100Y0132972D02*
X0178546Y0132972D01*
X0177948Y0133571D02*
X0128100Y0133571D01*
X0128548Y0134170D02*
X0177349Y0134170D01*
X0177000Y0134768D02*
X0128689Y0134768D01*
X0128689Y0135367D02*
X0177000Y0135367D01*
X0177000Y0135965D02*
X0128689Y0135965D01*
X0128415Y0136564D02*
X0177000Y0136564D01*
X0177000Y0137162D02*
X0127816Y0137162D01*
X0128068Y0140753D02*
X0002600Y0140753D01*
X0002600Y0141352D02*
X0127470Y0141352D01*
X0126871Y0141950D02*
X0002600Y0141950D01*
X0002600Y0142549D02*
X0126811Y0142549D01*
X0126811Y0143147D02*
X0002600Y0143147D01*
X0002600Y0143746D02*
X0126811Y0143746D01*
X0127166Y0144344D02*
X0002600Y0144344D01*
X0002600Y0144943D02*
X0127764Y0144943D01*
X0130636Y0144943D02*
X0177000Y0144943D01*
X0177000Y0145541D02*
X0002600Y0145541D01*
X0002600Y0146140D02*
X0177000Y0146140D01*
X0177000Y0146738D02*
X0002600Y0146738D01*
X0002600Y0147337D02*
X0177000Y0147337D01*
X0177000Y0147935D02*
X0154514Y0147935D01*
X0154390Y0147811D02*
X0155789Y0149210D01*
X0155789Y0151190D01*
X0154390Y0152589D01*
X0152410Y0152589D01*
X0151011Y0151190D01*
X0151011Y0149210D01*
X0152410Y0147811D01*
X0154390Y0147811D01*
X0155112Y0148534D02*
X0177453Y0148534D01*
X0178051Y0149132D02*
X0155711Y0149132D01*
X0155789Y0149731D02*
X0178650Y0149731D01*
X0179248Y0150329D02*
X0155789Y0150329D01*
X0155789Y0150928D02*
X0200000Y0150928D01*
X0200000Y0151526D02*
X0155452Y0151526D01*
X0154854Y0152125D02*
X0200000Y0152125D01*
X0200000Y0152723D02*
X0002600Y0152723D01*
X0002600Y0152125D02*
X0151946Y0152125D01*
X0151348Y0151526D02*
X0002600Y0151526D01*
X0002600Y0150928D02*
X0151011Y0150928D01*
X0151011Y0150329D02*
X0002600Y0150329D01*
X0002600Y0149731D02*
X0151011Y0149731D01*
X0151089Y0149132D02*
X0002600Y0149132D01*
X0002600Y0148534D02*
X0151688Y0148534D01*
X0152286Y0147935D02*
X0002600Y0147935D01*
X0002600Y0153322D02*
X0200000Y0153322D01*
X0200000Y0153920D02*
X0072899Y0153920D01*
X0072390Y0153411D02*
X0073789Y0154810D01*
X0073789Y0156790D01*
X0072390Y0158189D01*
X0070410Y0158189D01*
X0069011Y0156790D01*
X0069011Y0154810D01*
X0070410Y0153411D01*
X0072390Y0153411D01*
X0073497Y0154519D02*
X0200000Y0154519D01*
X0200000Y0155117D02*
X0073789Y0155117D01*
X0073789Y0155716D02*
X0200000Y0155716D01*
X0200000Y0156314D02*
X0073789Y0156314D01*
X0073666Y0156913D02*
X0200000Y0156913D01*
X0200000Y0157511D02*
X0073067Y0157511D01*
X0072469Y0158110D02*
X0200000Y0158110D01*
X0200000Y0158708D02*
X0002600Y0158708D01*
X0002600Y0158110D02*
X0070331Y0158110D01*
X0069733Y0157511D02*
X0002600Y0157511D01*
X0002600Y0156913D02*
X0069134Y0156913D01*
X0069011Y0156314D02*
X0002600Y0156314D01*
X0002600Y0155716D02*
X0069011Y0155716D01*
X0069011Y0155117D02*
X0002600Y0155117D01*
X0002600Y0154519D02*
X0069303Y0154519D01*
X0069901Y0153920D02*
X0002600Y0153920D01*
X0002600Y0159307D02*
X0200000Y0159307D01*
X0200000Y0159905D02*
X0002600Y0159905D01*
X0002600Y0160504D02*
X0152017Y0160504D01*
X0152310Y0160211D02*
X0154290Y0160211D01*
X0155689Y0161610D01*
X0155689Y0163590D01*
X0154290Y0164989D01*
X0152310Y0164989D01*
X0150911Y0163590D01*
X0150911Y0161610D01*
X0152310Y0160211D01*
X0151419Y0161103D02*
X0002600Y0161103D01*
X0002600Y0161701D02*
X0150911Y0161701D01*
X0150911Y0162300D02*
X0002600Y0162300D01*
X0002600Y0162898D02*
X0150911Y0162898D01*
X0150911Y0163497D02*
X0002600Y0163497D01*
X0002600Y0164095D02*
X0151417Y0164095D01*
X0152015Y0164694D02*
X0002600Y0164694D01*
X0002600Y0165292D02*
X0200000Y0165292D01*
X0200000Y0164694D02*
X0154585Y0164694D01*
X0155183Y0164095D02*
X0200000Y0164095D01*
X0200000Y0163497D02*
X0155689Y0163497D01*
X0155689Y0162898D02*
X0200000Y0162898D01*
X0200000Y0162300D02*
X0155689Y0162300D01*
X0155689Y0161701D02*
X0200000Y0161701D01*
X0200000Y0161103D02*
X0155181Y0161103D01*
X0154583Y0160504D02*
X0200000Y0160504D01*
X0200000Y0165891D02*
X0002600Y0165891D01*
X0002600Y0166489D02*
X0200000Y0166489D01*
X0200000Y0167088D02*
X0002600Y0167088D01*
X0002600Y0167686D02*
X0200000Y0167686D01*
X0200000Y0168285D02*
X0002600Y0168285D01*
X0002600Y0168883D02*
X0200000Y0168883D01*
X0200000Y0169482D02*
X0002600Y0169482D01*
X0002600Y0170080D02*
X0200000Y0170080D01*
X0200000Y0170679D02*
X0002600Y0170679D01*
X0002600Y0171277D02*
X0107752Y0171277D01*
X0107617Y0171333D02*
X0108904Y0170800D01*
X0110296Y0170800D01*
X0111583Y0171333D01*
X0112100Y0171850D01*
X0112369Y0171581D01*
X0112942Y0171198D01*
X0113579Y0170934D01*
X0114255Y0170800D01*
X0114300Y0170800D01*
X0114300Y0174000D01*
X0114900Y0174000D01*
X0114900Y0174600D01*
X0119300Y0174600D01*
X0119300Y0174000D01*
X0119900Y0174000D01*
X0119900Y0170800D01*
X0119945Y0170800D01*
X0120621Y0170934D01*
X0121258Y0171198D01*
X0121831Y0171581D01*
X0122100Y0171850D01*
X0122617Y0171333D01*
X0123904Y0170800D01*
X0125296Y0170800D01*
X0126583Y0171333D01*
X0127100Y0171850D01*
X0127369Y0171581D01*
X0127942Y0171198D01*
X0128579Y0170934D01*
X0129255Y0170800D01*
X0129300Y0170800D01*
X0129300Y0174000D01*
X0129900Y0174000D01*
X0129900Y0174600D01*
X0133100Y0174600D01*
X0133100Y0174645D01*
X0132965Y0175321D01*
X0132702Y0175958D01*
X0132319Y0176531D01*
X0132050Y0176800D01*
X0132567Y0177317D01*
X0133100Y0178604D01*
X0133100Y0179996D01*
X0132567Y0181283D01*
X0131583Y0182267D01*
X0130296Y0182800D01*
X0128904Y0182800D01*
X0127617Y0182267D01*
X0127100Y0181750D01*
X0126583Y0182267D01*
X0125296Y0182800D01*
X0123904Y0182800D01*
X0122617Y0182267D01*
X0122100Y0181750D01*
X0121583Y0182267D01*
X0120296Y0182800D01*
X0118904Y0182800D01*
X0117617Y0182267D01*
X0117100Y0181750D01*
X0116583Y0182267D01*
X0115296Y0182800D01*
X0113904Y0182800D01*
X0112617Y0182267D01*
X0112100Y0181750D01*
X0111583Y0182267D01*
X0110296Y0182800D01*
X0108904Y0182800D01*
X0107617Y0182267D01*
X0106633Y0181283D01*
X0106100Y0179996D01*
X0106100Y0178604D01*
X0106633Y0177317D01*
X0107150Y0176800D01*
X0106633Y0176283D01*
X0106100Y0174996D01*
X0106100Y0173604D01*
X0106633Y0172317D01*
X0107617Y0171333D01*
X0107075Y0171876D02*
X0002600Y0171876D01*
X0002600Y0172474D02*
X0106568Y0172474D01*
X0106320Y0173073D02*
X0002600Y0173073D01*
X0002600Y0173671D02*
X0106100Y0173671D01*
X0106100Y0174270D02*
X0002600Y0174270D01*
X0002600Y0174868D02*
X0106100Y0174868D01*
X0106295Y0175467D02*
X0002600Y0175467D01*
X0002600Y0176065D02*
X0106543Y0176065D01*
X0107014Y0176664D02*
X0002600Y0176664D01*
X0002600Y0177262D02*
X0106688Y0177262D01*
X0106408Y0177861D02*
X0002600Y0177861D01*
X0002600Y0178459D02*
X0106160Y0178459D01*
X0106100Y0179058D02*
X0002600Y0179058D01*
X0002600Y0179656D02*
X0106100Y0179656D01*
X0106207Y0180255D02*
X0002600Y0180255D01*
X0002600Y0180853D02*
X0106455Y0180853D01*
X0106802Y0181452D02*
X0002600Y0181452D01*
X0002600Y0182050D02*
X0107401Y0182050D01*
X0108539Y0182649D02*
X0002600Y0182649D01*
X0002600Y0183247D02*
X0200000Y0183247D01*
X0200000Y0182649D02*
X0130661Y0182649D01*
X0131799Y0182050D02*
X0200000Y0182050D01*
X0200000Y0181452D02*
X0132398Y0181452D01*
X0132745Y0180853D02*
X0200000Y0180853D01*
X0200000Y0180255D02*
X0132993Y0180255D01*
X0133100Y0179656D02*
X0200000Y0179656D01*
X0200000Y0179058D02*
X0133100Y0179058D01*
X0133040Y0178459D02*
X0200000Y0178459D01*
X0200000Y0177861D02*
X0132792Y0177861D01*
X0132512Y0177262D02*
X0200000Y0177262D01*
X0200000Y0176664D02*
X0132186Y0176664D01*
X0132630Y0176065D02*
X0200000Y0176065D01*
X0200000Y0175467D02*
X0132905Y0175467D01*
X0133056Y0174868D02*
X0200000Y0174868D01*
X0200000Y0174270D02*
X0129900Y0174270D01*
X0129900Y0174000D02*
X0133100Y0174000D01*
X0133100Y0173955D01*
X0132965Y0173279D01*
X0132702Y0172642D01*
X0132319Y0172069D01*
X0131831Y0171581D01*
X0131258Y0171198D01*
X0130621Y0170934D01*
X0129945Y0170800D01*
X0129900Y0170800D01*
X0129900Y0174000D01*
X0129900Y0173671D02*
X0129300Y0173671D01*
X0129300Y0173073D02*
X0129900Y0173073D01*
X0129900Y0172474D02*
X0129300Y0172474D01*
X0129300Y0171876D02*
X0129900Y0171876D01*
X0129900Y0171277D02*
X0129300Y0171277D01*
X0127824Y0171277D02*
X0126448Y0171277D01*
X0122752Y0171277D02*
X0121376Y0171277D01*
X0119900Y0171277D02*
X0119300Y0171277D01*
X0119300Y0170800D02*
X0119300Y0174000D01*
X0116100Y0174000D01*
X0114900Y0174000D01*
X0114900Y0170800D01*
X0114945Y0170800D01*
X0115621Y0170934D01*
X0116258Y0171198D01*
X0116831Y0171581D01*
X0117100Y0171850D01*
X0117369Y0171581D01*
X0117942Y0171198D01*
X0118579Y0170934D01*
X0119255Y0170800D01*
X0119300Y0170800D01*
X0119300Y0171876D02*
X0119900Y0171876D01*
X0119900Y0172474D02*
X0119300Y0172474D01*
X0119300Y0173073D02*
X0119900Y0173073D01*
X0119900Y0173671D02*
X0119300Y0173671D01*
X0119300Y0174270D02*
X0114900Y0174270D01*
X0114900Y0173671D02*
X0114300Y0173671D01*
X0114300Y0173073D02*
X0114900Y0173073D01*
X0114900Y0172474D02*
X0114300Y0172474D01*
X0114300Y0171876D02*
X0114900Y0171876D01*
X0114900Y0171277D02*
X0114300Y0171277D01*
X0112824Y0171277D02*
X0111448Y0171277D01*
X0116376Y0171277D02*
X0117824Y0171277D01*
X0117401Y0182050D02*
X0116799Y0182050D01*
X0115661Y0182649D02*
X0118539Y0182649D01*
X0120661Y0182649D02*
X0123539Y0182649D01*
X0122401Y0182050D02*
X0121799Y0182050D01*
X0125661Y0182649D02*
X0128539Y0182649D01*
X0127401Y0182050D02*
X0126799Y0182050D01*
X0133043Y0173671D02*
X0200000Y0173671D01*
X0200000Y0173073D02*
X0132880Y0173073D01*
X0132589Y0172474D02*
X0200000Y0172474D01*
X0200000Y0171876D02*
X0132125Y0171876D01*
X0131376Y0171277D02*
X0200000Y0171277D01*
X0200000Y0183846D02*
X0002600Y0183846D01*
X0002600Y0184444D02*
X0064577Y0184444D01*
X0064610Y0184411D02*
X0066590Y0184411D01*
X0067989Y0185810D01*
X0067989Y0187790D01*
X0066590Y0189189D01*
X0064610Y0189189D01*
X0063211Y0187790D01*
X0063211Y0185810D01*
X0064610Y0184411D01*
X0063978Y0185043D02*
X0002600Y0185043D01*
X0002600Y0185641D02*
X0063380Y0185641D01*
X0063211Y0186240D02*
X0002600Y0186240D01*
X0002635Y0186839D02*
X0063211Y0186839D01*
X0063211Y0187437D02*
X0002675Y0187437D01*
X0002714Y0188036D02*
X0063457Y0188036D01*
X0064056Y0188634D02*
X0002863Y0188634D01*
X0003024Y0189233D02*
X0199576Y0189233D01*
X0199416Y0189831D02*
X0003184Y0189831D01*
X0003345Y0190430D02*
X0199255Y0190430D01*
X0199095Y0191028D02*
X0003505Y0191028D01*
X0003643Y0191543D02*
X0003643Y0191543D01*
X0003691Y0191627D02*
X0198909Y0191627D01*
X0198563Y0192225D02*
X0004037Y0192225D01*
X0004382Y0192824D02*
X0198218Y0192824D01*
X0197872Y0193422D02*
X0004728Y0193422D01*
X0005073Y0194021D02*
X0197527Y0194021D01*
X0197181Y0194619D02*
X0005419Y0194619D01*
X0006009Y0195218D02*
X0196591Y0195218D01*
X0195993Y0195816D02*
X0006607Y0195816D01*
X0007206Y0196415D02*
X0195394Y0196415D01*
X0194796Y0197013D02*
X0007804Y0197013D01*
X0008727Y0197612D02*
X0193873Y0197612D01*
X0192836Y0198210D02*
X0009764Y0198210D01*
X0010800Y0198809D02*
X0191800Y0198809D01*
X0189863Y0199407D02*
X0012737Y0199407D01*
X0067144Y0188634D02*
X0199737Y0188634D01*
X0199886Y0188036D02*
X0067743Y0188036D01*
X0067989Y0187437D02*
X0199925Y0187437D01*
X0199965Y0186839D02*
X0067989Y0186839D01*
X0067989Y0186240D02*
X0200000Y0186240D01*
X0200000Y0185641D02*
X0067820Y0185641D01*
X0067221Y0185043D02*
X0200000Y0185043D01*
X0200000Y0184444D02*
X0066623Y0184444D01*
X0110661Y0182649D02*
X0113539Y0182649D01*
X0112401Y0182050D02*
X0111799Y0182050D01*
X0131234Y0144344D02*
X0177175Y0144344D01*
X0177773Y0143746D02*
X0131589Y0143746D01*
X0131589Y0143147D02*
X0178372Y0143147D01*
X0193352Y0150329D02*
X0200000Y0150329D01*
X0200000Y0149731D02*
X0193950Y0149731D01*
X0194549Y0149132D02*
X0200000Y0149132D01*
X0200000Y0148534D02*
X0195147Y0148534D01*
X0195600Y0147935D02*
X0200000Y0147935D01*
X0200000Y0147337D02*
X0195600Y0147337D01*
X0194125Y0139556D02*
X0200000Y0139556D01*
X0200000Y0138958D02*
X0194723Y0138958D01*
X0195322Y0138359D02*
X0200000Y0138359D01*
X0200000Y0137761D02*
X0195600Y0137761D01*
X0195600Y0137162D02*
X0200000Y0137162D01*
X0200000Y0136564D02*
X0195600Y0136564D01*
X0195600Y0135965D02*
X0200000Y0135965D01*
X0200000Y0135367D02*
X0195600Y0135367D01*
X0195600Y0134768D02*
X0200000Y0134768D01*
X0200000Y0134170D02*
X0195251Y0134170D01*
X0194652Y0133571D02*
X0200000Y0133571D01*
X0200000Y0132972D02*
X0194054Y0132972D01*
X0193455Y0132374D02*
X0200000Y0132374D01*
X0200000Y0131775D02*
X0128100Y0131775D01*
X0128100Y0131177D02*
X0200000Y0131177D01*
X0200000Y0130578D02*
X0193103Y0130578D01*
X0193701Y0129980D02*
X0200000Y0129980D01*
X0200000Y0129381D02*
X0194300Y0129381D01*
X0194898Y0128783D02*
X0200000Y0128783D01*
X0200000Y0128184D02*
X0195497Y0128184D01*
X0195600Y0127586D02*
X0200000Y0127586D01*
X0200000Y0126987D02*
X0195600Y0126987D01*
X0195600Y0126389D02*
X0200000Y0126389D01*
X0200000Y0125790D02*
X0195600Y0125790D01*
X0195600Y0125192D02*
X0200000Y0125192D01*
X0200000Y0124593D02*
X0195600Y0124593D01*
X0195076Y0123995D02*
X0200000Y0123995D01*
X0200000Y0123396D02*
X0194477Y0123396D01*
X0193879Y0122798D02*
X0200000Y0122798D01*
X0200000Y0122199D02*
X0193280Y0122199D01*
X0181600Y0070129D02*
X0181000Y0070129D01*
X0181000Y0069530D02*
X0181600Y0069530D01*
X0181600Y0068932D02*
X0181000Y0068932D01*
X0181000Y0068333D02*
X0181600Y0068333D01*
X0181600Y0067735D02*
X0181000Y0067735D01*
X0181000Y0065939D02*
X0181600Y0065939D01*
X0181600Y0065341D02*
X0181000Y0065341D01*
X0181000Y0064742D02*
X0181600Y0064742D01*
X0181600Y0064144D02*
X0181000Y0064144D01*
X0181000Y0063545D02*
X0181600Y0063545D01*
X0181600Y0062947D02*
X0181000Y0062947D01*
X0181000Y0062348D02*
X0181600Y0062348D01*
X0191000Y0062348D02*
X0191600Y0062348D01*
X0191600Y0062947D02*
X0191000Y0062947D01*
X0191000Y0063545D02*
X0191600Y0063545D01*
X0191600Y0064144D02*
X0191000Y0064144D01*
X0191000Y0064742D02*
X0191600Y0064742D01*
X0191600Y0065341D02*
X0191000Y0065341D01*
X0191000Y0065939D02*
X0191600Y0065939D01*
X0070411Y0119207D02*
X0002600Y0119207D01*
X0002600Y0119805D02*
X0070411Y0119805D01*
X0055245Y0112623D02*
X0002600Y0112623D01*
X0002600Y0112025D02*
X0054646Y0112025D01*
X0054411Y0111426D02*
X0002600Y0111426D01*
X0002600Y0110828D02*
X0054411Y0110828D01*
D24*
X0016300Y0186300D03*
X0186300Y0186300D03*
X0186300Y0016300D03*
X0016300Y0016300D03*
M02*
